<svg width="236" height="387" viewBox="0 0 236 387" fill="none" xmlns="http://www.w3.org/2000/svg">
<path d="M183.415 367.027C189.191 367.841 195.333 368.939 200.215 370.119C202.615 370.688 204.73 371.339 206.194 371.705C207.659 372.112 208.513 372.438 208.513 372.438C208.513 372.438 210.181 373.048 212.743 373.983C215.306 375.041 218.723 376.505 222.14 378.336C223.848 379.19 225.557 380.207 227.143 381.183C228.73 382.159 230.153 383.054 231.414 383.99C233.814 385.78 235.441 387 235.441 387C235.441 387 233.774 385.861 231.292 384.112C230.031 383.217 228.567 382.363 226.98 381.427C225.394 380.492 223.645 379.515 221.936 378.743C218.479 376.993 215.062 375.692 212.499 374.715C209.977 373.861 208.31 373.332 208.31 373.332C208.31 373.332 207.455 373.007 206.032 372.56C204.608 372.153 202.533 371.502 200.133 370.851C195.293 369.549 189.15 368.329 183.415 367.434C172.92 365.888 162.425 364.302 162.425 364.302C162.425 364.302 172.92 365.685 183.415 367.027Z" fill="#4F4F4F"/>
<path d="M94.8194 31.438C95.1855 30.4617 95.6736 29.4855 95.6736 29.4855C95.6736 29.4855 96.0804 29.0787 96.4872 28.6719C96.894 28.2651 97.3007 27.899 97.3007 27.899C97.3007 27.899 97.0567 28.3872 96.894 28.8753C96.7313 29.3634 96.5279 29.8516 96.5279 29.8516C96.5279 29.8516 95.877 30.7058 95.2669 31.56C94.9821 32.0075 94.6974 32.4549 94.494 32.7803C94.2906 33.1058 94.2093 33.3498 94.2093 33.3498C94.2093 33.3498 94.2499 33.1058 94.372 32.7397C94.4533 32.4549 94.616 31.9668 94.8194 31.438Z" fill="#4F4F4F"/>
<path d="M2.96944 242.514C3.53893 242.839 4.10841 243.205 4.59654 243.571C3.82367 241.903 3.17281 240.195 2.72536 238.608C2.11519 236.534 1.7491 234.663 1.70842 233.32C1.66774 232.67 1.62709 232.141 1.62709 231.775C1.62709 231.409 1.62709 231.205 1.62709 231.205C1.62709 231.205 1.62708 231.409 1.66776 231.775C1.66776 232.141 1.70844 232.67 1.74911 233.32C1.83047 234.622 2.23724 236.493 2.84741 238.486C3.4169 240.276 4.18974 242.188 5.16602 244.019C5.65414 244.425 6.02025 244.71 6.02025 244.71C6.34567 245.076 6.67108 245.483 6.99649 245.89C6.6304 243.327 6.71176 240.724 6.8338 238.161C6.95583 235.598 7.36261 233.076 7.97276 230.636C7.68802 232.019 7.48465 233.402 7.32193 234.825C7.19991 236.249 7.15921 237.632 7.15921 239.056C7.15921 241.863 7.36261 244.669 7.97276 247.313L8.29819 248.859C8.78632 249.51 9.23376 250.161 9.72189 250.812C11.1456 252.764 12.6914 254.676 14.0744 256.588C15.4574 258.5 16.5964 260.452 17.532 262.201C18.5082 263.951 19.2811 265.415 19.8099 266.473C20.3387 267.53 20.6235 268.1 20.6235 268.1C20.6235 268.1 20.6641 268.181 20.7048 268.262C20.2167 266.676 19.8099 265.09 19.8099 265.09C19.8099 265.09 19.6879 264.195 19.5252 262.893C19.3218 261.591 19.2811 259.801 19.2404 258.052C19.1998 256.303 19.2811 254.554 19.3625 253.252C19.4438 251.951 19.6065 251.096 19.6065 251.096C19.6065 251.096 19.5252 251.951 19.5252 253.252C19.5252 254.554 19.6065 256.303 19.7286 258.012C19.8913 259.72 20.0133 261.469 20.298 262.73C20.5421 263.991 20.7455 264.845 20.7455 264.845C20.7455 264.845 20.9489 266.554 21.2336 268.262C21.3557 268.873 21.437 269.442 21.5591 269.971C21.7625 270.378 22.0065 270.825 22.2505 271.354C23.3488 273.428 24.7726 276.357 26.8471 279.652C30.8335 286.323 37.1792 294.255 44.2571 300.479C46.4537 302.35 48.5689 304.099 50.7655 305.604C51.6604 305.686 52.2299 305.767 52.2299 305.767C52.2299 305.767 51.7418 305.767 51.0502 305.767C53.6129 307.475 56.0536 309.021 58.4535 310.282C60.8942 311.503 63.1314 312.52 65.1653 313.333C68.1348 314.472 70.6975 315.164 72.4059 315.611C73.5856 315.896 74.4398 316.099 74.8466 316.18C73.6669 314.513 72.528 312.886 71.389 311.299C70.2907 309.672 69.3144 307.964 68.2975 306.377C66.7111 303.855 65.4501 301.252 64.067 298.852C62.806 296.411 61.6264 294.093 60.5281 291.937C59.5112 289.74 58.4942 287.788 57.5586 286.038C56.7451 284.249 55.9722 282.703 55.2807 281.483C54.7926 280.506 54.3044 279.733 54.0197 279.123L54.3858 279.937L53.857 278.757C53.8163 278.716 53.7756 278.635 53.7756 278.554C53.4502 277.862 53.2468 277.496 53.2468 277.496C53.2468 277.496 53.4502 277.862 53.7756 278.513C53.7756 278.513 52.718 276.032 51.1316 272.371C50.3994 270.459 49.5858 268.262 48.6909 265.862C47.9181 263.462 47.0638 260.859 46.291 258.215C45.5995 255.571 44.8266 252.886 44.2571 250.364C43.7283 247.842 43.1995 245.442 42.8334 243.368C42.1825 239.219 41.7351 236.453 41.7351 236.453C41.7351 236.453 41.6944 235.842 41.5724 234.703C41.2876 234.256 41.0029 233.727 40.7181 233.158C39.9046 231.612 39.1317 229.944 39.1317 229.944C39.1317 229.944 38.8063 229.049 38.3995 227.748C37.9928 226.446 37.5046 224.656 36.8945 222.948C36.2843 221.239 35.5521 219.571 34.9826 218.392C34.6979 217.822 34.4131 217.334 34.2097 217.009C34.0064 216.683 33.8843 216.521 33.8843 216.521C33.8843 216.521 34.0064 216.683 34.2097 216.968C34.4538 217.253 34.7385 217.7 35.064 218.229C35.7148 219.327 36.5284 220.914 37.2606 222.582C37.9928 224.249 38.6436 225.958 39.091 227.219C39.5385 228.48 39.9046 229.293 39.9046 229.293C39.9046 229.293 40.4334 231.083 41.0436 232.751L41.4097 233.768C41.369 233.361 41.3283 232.873 41.2876 232.385C41.2063 231.124 41.0029 229.537 40.8809 227.788C40.7995 225.998 40.6775 224.005 40.5148 221.768C40.3521 219.571 40.3114 217.212 40.0673 214.649C39.986 213.592 39.8639 212.494 39.8639 211.355C39.4978 210.5 38.8877 209.199 38.0741 207.612C37.3826 206.189 36.4877 204.48 35.7555 202.609C35.0233 200.738 34.3318 198.582 33.7216 196.385C32.542 191.951 31.9725 187.233 31.4844 183.653C31.1183 180.074 30.8742 177.714 30.8742 177.714C30.8742 177.714 30.7522 176.494 30.6708 174.379C30.5894 172.263 30.5081 169.213 30.4674 165.511C30.4674 163.436 30.5488 161.118 30.6708 158.677C29.2064 154.487 28.0674 150.135 25.9929 146.433L26.5624 145.904C27.1319 146.637 27.742 147.328 28.3115 148.02C28.1081 147.41 27.9861 147.003 27.9861 147.003C27.9861 147.003 27.9047 145.986 27.9047 144.969C27.9047 143.952 27.9861 142.935 27.9861 142.935C27.9861 142.935 28.1895 143.789 28.4742 144.603C28.7183 145.416 29.0844 146.189 29.0844 146.189C29.0844 146.189 29.3284 147.938 29.7352 149.565C30.2234 150.094 30.7522 150.582 31.281 151.111C31.6877 146.84 32.3386 142.366 33.3148 137.85C34.2097 134.108 35.064 130.447 35.9589 126.786C35.8369 125.85 35.6741 124.956 35.5928 123.979L33.925 119.952L33.5182 116.251L35.0233 119.139L35.2673 120.318C35.1453 118.447 35.064 116.657 35.0233 115.071C35.0233 114.42 34.9826 113.81 34.9826 113.24V113.2C34.9826 111.532 35.0233 110.23 35.0233 109.457C34.9826 108.807 34.942 108.115 34.9013 107.22C34.7792 104.82 34.6979 101.566 34.8606 98.3525C34.9826 95.1389 35.2267 91.8847 35.5521 89.4848C35.8775 87.0848 36.1216 85.4577 36.1216 85.4577C36.1216 85.4577 36.7724 82.2849 37.6673 79.1934C38.3995 76.5087 39.2944 73.9053 39.4978 73.2545C39.5385 73.1324 39.5385 73.0917 39.5385 73.0917C39.5385 73.0917 39.5385 73.1731 39.4978 73.2545C39.3351 73.946 38.6436 76.59 38.0741 79.3154C37.3826 82.4476 36.9758 85.6204 36.9758 85.6204C36.9758 85.6204 36.6911 87.2068 36.2843 89.5661C35.8775 91.9254 35.5114 95.1389 35.308 98.3525C35.1047 101.159 35.0233 103.966 35.0233 106.244C35.186 106.366 35.4707 106.61 35.7555 106.813C36.2029 105.024 37.2199 102.908 38.5622 101.037C39.9453 99.044 41.491 97.3355 42.63 96.0339C43.769 94.7322 44.4605 93.7966 44.4605 93.7966C45.6401 92.3729 46.7384 90.8678 47.552 89.1594L48.0401 89.6882C47.5113 91.0712 47.2266 92.5356 46.9825 94.0406C46.413 97.9457 46.4944 102.054 45.3554 105.959C45.03 107.139 44.5418 108.237 43.9724 109.254C43.891 109.417 43.8096 109.579 43.7283 109.701C43.4029 110.23 42.9961 110.718 42.63 111.166C42.1419 111.695 41.6537 112.223 41.1249 112.671C39.2131 114.339 37.2199 116.007 35.308 117.674C37.2199 115.966 39.1317 114.217 41.0029 112.508C41.9385 111.613 42.8334 110.678 43.4842 109.539C44.1757 108.4 44.6639 107.139 44.9893 105.837C46.1689 101.525 45.7622 96.8881 46.5757 92.3729C46.0469 93.1864 45.4774 93.9186 44.9079 94.6508C44.9079 94.6508 44.1351 95.5457 42.9554 96.8067C41.7758 98.0677 40.1487 99.6542 38.7249 101.525C37.586 102.99 36.6504 104.617 36.0402 106.122C35.9182 106.447 35.7962 106.773 35.7148 107.098C35.7555 107.098 35.7555 107.139 35.7962 107.139C35.6741 107.627 35.5928 108.074 35.5114 108.563C35.4708 108.481 35.4707 108.4 35.4301 108.318C35.3487 108.766 35.2674 109.132 35.2267 109.457C35.186 109.986 35.1453 110.312 35.1453 110.312C35.1453 110.312 35.1453 109.986 35.186 109.457C35.2267 109.132 35.2674 108.644 35.3487 108.156C35.2674 107.952 35.2267 107.749 35.1453 107.546C35.064 107.261 34.9826 106.976 34.9013 106.773C34.9013 106.976 34.9013 107.179 34.9013 107.342C34.942 108.522 34.942 109.539 34.9826 110.271C35.0233 110.962 35.0233 111.369 35.0233 111.369C35.0233 111.369 34.9826 110.962 34.9419 110.271C34.9419 110.759 34.9826 111.369 34.9826 112.061C34.9826 112.468 35.0233 112.874 35.0233 113.362C35.1047 114.705 35.186 116.251 35.308 117.918C35.4301 119.627 35.5928 121.417 35.8369 123.206C35.9182 123.939 36.0402 124.671 36.1623 125.403L36.203 125.525L36.7318 123.288C37.3012 120.522 37.83 117.959 38.2775 115.559C38.3589 115.478 38.4402 115.396 38.5622 115.315C38.1555 117.756 37.6673 120.359 37.0978 123.206C36.8945 124.264 36.6504 125.322 36.4063 126.42C36.5284 127.071 36.6504 127.681 36.7724 128.291C37.0978 129.918 37.5046 131.423 37.8301 132.684C38.5216 135.247 38.969 136.955 38.969 136.955C38.969 136.955 39.1724 137.81 39.5385 139.355C39.9046 140.86 40.3521 143.057 40.8809 145.66C41.9385 150.908 42.752 158.026 43.1995 165.145C43.6469 172.263 43.7283 179.423 43.6469 184.751C43.6469 185.646 43.6469 186.46 43.6062 187.273C45.152 181.945 46.0469 176.494 46.9011 171.45C47.796 165.836 48.6909 160.589 49.9113 156.033C50.2774 154.772 50.6435 153.592 51.0096 152.454C50.9282 152.087 50.8062 151.437 50.6435 150.542C50.3587 149.077 49.9926 147.043 49.7079 144.521C49.4231 141.999 49.0977 138.949 49.1384 135.613C49.1791 132.318 49.5452 128.535 50.2367 124.874C50.8875 121.173 51.7418 117.43 52.596 113.973C53.4095 110.474 54.2637 107.261 54.9959 104.535C56.0129 100.834 56.7858 97.9864 57.1925 96.522L56.7858 93.4712L57.4773 85.0916L57.9247 93.0644L57.64 94.9356C57.8434 94.244 58.3315 92.7796 58.901 90.8678C59.7552 88.1831 60.9349 84.5221 62.1552 80.9832C62.4399 80.2103 62.7247 79.3968 62.9687 78.6239C63.0501 78.1357 63.1314 77.6069 63.1314 77.1188C63.1314 77.1188 63.1315 76.9968 63.1721 76.7934C63.2128 76.59 63.2535 76.2646 63.2535 75.9392C63.2942 75.207 63.2535 74.2714 63.0908 73.4172C62.9281 72.5629 62.562 71.7494 62.2772 71.2206C62.1145 70.9358 61.9925 70.7324 61.8704 70.5697C61.7484 70.407 61.7077 70.3257 61.7077 70.3257C61.7077 70.3257 61.7891 70.407 61.9111 70.5291C62.0331 70.6511 62.2366 70.8138 62.4399 71.0579C62.8467 71.546 63.3348 72.2375 63.6603 73.0917C63.945 73.8239 64.1484 74.6375 64.2297 75.329C64.8399 73.8239 65.3687 72.4002 65.8568 71.2206C66.9551 68.5765 67.7687 66.8681 67.7687 66.8681C67.7687 66.8681 67.0365 68.6172 66.0196 71.2613C65.4908 72.685 64.9213 74.3121 64.3111 76.1019C64.3111 76.2646 64.3111 76.4273 64.3111 76.5087C64.3111 76.712 64.3111 76.8747 64.3111 76.8747C64.1891 77.8103 63.9857 78.7866 63.6603 79.7629C65.9382 76.9968 68.6229 74.6782 71.511 72.9697C68.0534 75.2883 64.9213 78.5425 62.684 82.1221L62.3993 82.0408C61.423 85.2543 60.5281 88.4678 59.8366 90.9085C59.1044 93.6339 58.5756 95.4237 58.5756 95.4237C58.5756 95.4237 58.2908 96.3186 57.8434 97.9457C57.3959 99.5321 56.7044 101.81 55.9315 104.576C55.6468 105.674 55.3214 106.813 54.9553 108.034L55.2807 107.424C55.9315 106.163 56.5824 104.942 56.5824 104.942C56.5824 104.942 58.2502 102.624 60.04 100.468C61.8298 98.2711 63.6603 96.1966 63.6603 96.1966C63.6603 96.1966 61.9925 98.4338 60.4061 100.712C58.8196 102.99 57.3959 105.39 57.3959 105.39C57.3959 105.39 56.5417 106.488 55.6875 107.627C55.3214 108.115 54.9553 108.603 54.6705 109.01C54.2637 110.596 53.8163 112.305 53.3282 114.054C52.4333 117.512 51.4977 121.213 50.7655 124.956C50.0333 128.617 49.5858 132.359 49.4638 135.694C49.3825 137.322 49.4231 138.908 49.5045 140.413C49.5452 140.413 49.5452 140.372 49.5858 140.372C49.7079 140.291 49.9113 140.128 50.074 139.925C50.4401 139.477 50.8062 138.786 51.1316 138.094C51.457 137.403 51.7417 136.711 51.9451 136.142C52.1485 135.613 52.3112 135.247 52.3112 135.247C52.3112 135.247 52.6773 134.555 53.2468 133.498C53.8163 132.44 54.5485 131.016 55.3214 129.674C56.8671 126.908 58.4129 124.142 58.4129 124.142C58.4129 124.142 57.0705 126.989 55.7688 129.796C55.118 131.179 54.4671 132.644 54.0197 133.701C53.5316 134.8 53.2468 135.491 53.2468 135.491C53.2468 135.491 53.0434 135.857 52.7587 136.345C52.4739 136.874 52.0672 137.566 51.579 138.257C51.1316 138.949 50.6028 139.599 50.1553 140.006C49.952 140.21 49.7079 140.332 49.5858 140.413C49.5452 140.413 49.5045 140.413 49.5045 140.454C49.5858 141.959 49.7079 143.382 49.8299 144.643C50.074 147.165 50.3994 149.24 50.6435 150.704C50.8062 151.599 50.9282 152.25 50.9689 152.616C51.9045 149.687 53.0028 147.328 53.8977 145.538C54.5078 144.277 55.0773 143.342 55.4841 142.691C55.6061 142.488 55.6875 142.366 55.7688 142.203C56.501 140.82 57.4366 138.867 58.5349 136.508C60.8535 131.627 63.7416 125.078 66.6704 118.61C67.5653 116.657 68.4195 114.705 69.3144 112.793C69.3551 112.223 69.3958 111.532 69.3958 110.84C69.4365 109.376 69.3144 107.993 69.3144 107.993C69.3144 107.993 69.3958 107.261 69.3958 106.163C69.3958 105.064 69.3551 103.641 69.1924 102.258C68.9077 99.4508 68.0127 96.9694 68.0127 96.9694C68.0127 96.9694 69.1517 99.2881 69.7212 101.973C70.0059 103.315 70.2093 104.739 70.2907 105.837C70.372 106.935 70.3721 107.668 70.3721 107.668C70.3721 107.668 70.2093 109.213 69.8839 110.759C69.8026 111.207 69.6805 111.613 69.5992 111.979C71.4703 107.952 73.2602 104.088 74.8466 101.037C77.2059 96.2779 78.955 93.2271 78.955 93.2271C78.955 93.2271 79.1584 92.861 79.6058 92.1288C80.0126 91.3966 80.6228 90.339 81.4363 89.0373C82.2092 87.695 83.2261 86.1085 84.4058 84.3187C85.6261 82.4882 87.0498 80.5764 88.5549 78.3798C90.0599 76.2239 91.7277 73.9053 93.4769 71.4646C94.9006 69.5121 96.4056 67.3969 97.9107 65.2817C98.3988 64.4274 98.8056 63.4512 98.9276 62.4749C99.131 60.8885 98.9277 59.2614 98.6429 57.7156C98.3175 56.1699 97.9921 54.5835 97.8294 53.0377C97.6667 51.614 97.5039 50.2717 97.3005 49.1327C97.1378 49.1327 96.9751 49.1327 96.8124 49.1327C95.8768 49.092 94.9412 48.9293 94.9412 48.9293C94.9412 48.9293 94.5345 48.7666 93.965 48.4412C93.3955 48.1158 92.6633 47.6683 91.9718 47.1395C90.5888 46.0819 89.6125 44.6988 89.6125 44.6988C89.6125 44.6988 90.8328 45.8785 92.3786 46.6514C93.1108 47.0581 93.9243 47.3429 94.5345 47.5463C95.1446 47.7497 95.5921 47.831 95.5921 47.831C95.5921 47.831 96.3243 48.2378 97.1378 48.5632L97.3005 48.6039C97.0972 47.587 96.8124 46.7734 96.609 46.2446C96.365 45.6344 96.1616 45.3497 96.1616 45.3497C96.1616 45.3497 95.8768 44.6582 95.3074 43.6819C94.7785 42.7057 94.0057 41.3226 93.7616 39.6548C93.5175 37.9871 93.6803 36.2379 93.965 34.9363C94.0057 34.7735 94.0463 34.6108 94.0463 34.4481C93.8836 34.3261 93.4769 34.0007 93.0294 33.6753C92.7447 33.4719 92.4599 33.3092 92.2565 33.2278C92.0125 33.1464 91.8904 33.0651 91.8904 33.0651C91.8904 33.0651 91.7684 32.7803 91.5244 32.5363C91.321 32.2922 90.9955 32.1702 90.9955 32.1702C90.9955 32.1702 91.4023 32.0075 91.8498 32.0075C92.2972 32.0075 92.6633 32.0888 92.6633 32.0888C92.6633 32.0888 92.7854 32.2109 92.9481 32.4549C93.1108 32.6583 93.3142 32.9837 93.4769 33.2685C93.7209 33.7566 93.965 34.2041 94.0463 34.4074C94.1277 34.0413 94.209 33.7159 94.2497 33.4719L93.3141 29.4448L93.6396 27.0448L94.4124 29.038L94.3311 33.2685C94.4124 32.9431 94.4531 32.7803 94.4531 32.7803C94.4531 32.7803 94.4124 33.0244 94.3311 33.5125V33.7159V33.6346C94.2497 34.0007 94.2091 34.4481 94.1277 34.9769C93.965 36.2786 93.9243 37.9871 94.2904 39.4921C94.6565 40.9972 95.5107 42.2175 96.1209 43.1531L96.2023 43.2751C96.2836 42.5023 96.5277 41.6887 96.5277 41.6887C96.5277 41.6887 96.7311 41.2819 97.0972 40.7531C97.4632 40.2243 97.9921 39.5328 98.5209 38.882C99.0497 38.2311 99.6192 37.5803 100.026 37.1328C100.433 36.6447 100.677 36.3193 100.677 36.3193C100.677 36.3193 100.473 36.6854 100.148 37.2142C99.8225 37.743 99.3751 38.4345 98.9276 39.126C98.4802 39.8176 98.1141 40.5497 97.87 41.0379C97.626 41.5667 97.5039 41.8921 97.5039 41.8921C97.5039 41.8921 97.0565 42.5429 96.7311 43.2345C96.6497 43.3972 96.609 43.5599 96.5277 43.7226C96.8938 44.3328 97.1378 44.6988 97.1378 44.6988C97.1378 44.6988 97.3005 45.0649 97.5853 45.7158C97.8294 46.3666 98.1141 47.3429 98.2768 48.5632C98.2768 48.7259 98.3175 48.8886 98.3175 49.0107C98.4395 49.0513 98.5209 49.092 98.6022 49.092L98.7649 48.7259C99.1717 47.7497 99.6192 46.8141 99.6192 46.8141C99.6192 46.8141 100.839 45.065 102.182 43.3565C103.524 41.648 104.826 39.9803 104.826 39.9803C104.826 39.9803 103.728 41.7701 102.589 43.5599C101.49 45.3497 100.514 47.1802 100.514 47.1802C100.514 47.1802 99.9039 48.0344 99.2531 48.8886C98.9683 49.2954 98.6836 49.7429 98.4395 50.0683C98.5209 50.9225 98.6022 51.8581 98.6836 52.7937C98.7649 54.3394 99.0497 55.9258 99.2937 57.5123C99.5378 59.0987 99.7005 60.8071 99.3751 62.4749C99.2937 63.0444 99.131 63.5732 98.887 64.102L99.0497 63.8986C102.792 58.6106 106.738 52.9564 110.643 47.2209C112.351 44.6582 114.06 42.0955 115.768 39.5735C115.89 39.3294 115.972 39.0447 116.094 38.7599C115.972 38.5972 115.809 38.4345 115.646 38.2718C115.321 38.0277 114.914 37.8244 114.588 37.6616C114.304 37.4989 114.1 37.3769 114.1 37.3769C114.1 37.3769 112.799 36.0752 111.904 34.4074C110.968 32.7803 110.439 30.9092 110.439 30.9092C110.439 30.9092 111.212 32.6176 112.351 34.0007C113.49 35.3837 114.914 36.4413 114.914 36.4413C114.914 36.4413 115.077 36.604 115.28 36.8481C115.483 37.0922 115.849 37.4176 116.094 37.8244C116.175 37.9057 116.216 38.0277 116.297 38.1498C116.622 36.8074 116.622 35.6278 116.622 35.6278C116.622 35.6278 116.744 34.8956 116.866 33.7566C116.988 32.6176 117.11 31.0719 117.355 29.5261C117.802 26.4347 118.697 23.3432 118.697 23.3432C118.697 23.3432 118.087 26.4347 117.883 29.4448C117.761 30.9499 117.802 32.4142 117.802 33.5532C117.802 34.6922 117.721 35.4651 117.721 35.4651C117.721 35.4651 117.639 35.8718 117.477 36.482C117.395 36.8074 117.273 37.1735 117.11 37.621C120.243 32.8617 123.253 28.2651 125.978 23.9533C126.1 23.3432 126.426 22.0415 126.792 20.6991C127.28 18.8686 127.809 17.0788 127.809 17.0788C127.809 17.0788 128.175 16.1839 128.704 14.8416C129.232 13.4992 129.924 11.7501 130.615 9.96027C131.307 8.17046 131.917 6.38065 132.365 5.03829C132.568 4.38745 132.731 3.81797 132.853 3.41119C132.975 3.00442 133.015 2.80103 133.015 2.80103C133.015 2.80103 132.975 3.0451 132.893 3.41119C132.812 3.81797 132.69 4.38745 132.527 5.03829C132.202 6.38065 131.714 8.21114 131.144 10.0009C130.575 11.8314 130.005 13.6212 129.558 14.9636C129.11 16.306 128.826 17.2009 128.826 17.2009C128.826 17.2009 128.093 18.95 127.321 20.7398C126.873 21.9195 126.385 23.0991 126.141 23.7499C127.971 20.8212 129.761 18.0144 131.348 15.4924C134.032 11.1399 136.27 7.47894 137.856 4.87558C139.402 2.3129 140.297 0.848511 140.297 0.848511C140.297 0.848511 139.442 2.3129 137.897 4.91626C136.351 7.51962 134.114 11.1806 131.51 15.5738C127.402 22.2856 122.154 30.6651 116.5 39.3701C116.46 39.4921 116.419 39.6142 116.378 39.6955C117.192 38.7599 118.087 37.7837 119.022 36.8481C120.649 35.221 122.399 33.7159 123.7 32.6176C124.351 32.0888 124.921 31.6414 125.327 31.3566C125.734 31.0719 125.938 30.8685 125.938 30.8685C125.938 30.8685 126.426 30.5431 127.239 30.0143C128.053 29.4855 129.314 28.7533 130.778 28.0211C132.365 27.2482 134.276 26.394 136.27 25.4991C136.432 25.3364 136.554 25.133 136.717 24.9296C137.327 24.116 137.978 23.3025 137.978 23.3025C137.978 23.3025 139.442 21.9195 140.825 20.4551C142.209 18.9907 143.551 17.4043 143.551 17.4043C143.551 17.4043 142.453 19.1127 141.232 20.7398C140.012 22.3669 138.67 23.9533 138.67 23.9533C138.67 23.9533 138.1 24.4008 137.449 24.9296C138.792 24.3194 140.175 23.6279 141.558 22.9364C143.47 21.9195 145.381 20.8618 147.09 19.6415C148.798 18.4619 150.344 17.1602 151.605 16.0619C152.866 14.9229 153.924 13.9467 154.615 13.2551C155.347 12.5636 155.754 12.1569 155.754 12.1569C155.754 12.1569 155.347 12.5636 154.656 13.2551C153.964 13.9467 152.947 14.9636 151.686 16.1432C150.425 17.3229 148.92 18.6246 147.212 19.8856C145.503 21.1466 143.592 22.3262 141.639 23.3838C138.71 24.9703 135.741 26.394 133.219 27.6143C134.398 27.2889 135.537 27.1262 135.537 27.1262C135.537 27.1262 136.107 27.1262 137.002 27.1669C137.856 27.2482 138.995 27.3702 140.053 27.6143C141.11 27.8584 142.127 28.2245 142.859 28.5499C143.225 28.7126 143.51 28.8753 143.673 28.9973C143.876 29.1194 143.958 29.2007 143.958 29.2007C143.958 29.2007 143.836 29.16 143.632 29.038C143.429 28.9567 143.103 28.8346 142.737 28.7126C141.964 28.4685 140.907 28.2651 139.809 28.1431C138.71 28.0211 137.571 28.0618 136.717 28.1024C135.863 28.1431 135.293 28.2245 135.293 28.2245C135.293 28.2245 134.195 28.1431 133.015 28.1838C132.609 28.1838 132.243 28.2245 131.876 28.2651C131.551 28.4279 131.185 28.6312 130.9 28.7533C129.436 29.5261 128.337 30.2583 127.524 30.7871C126.71 31.316 126.263 31.6414 126.263 31.6414C126.263 31.6414 126.019 31.8041 125.653 32.0482C125.246 32.3329 124.676 32.7397 124.026 33.1871C122.683 34.1634 120.893 35.5464 119.226 37.0515C117.599 38.5159 116.094 40.0616 114.995 41.3226L111.05 47.2615C107.226 52.9971 103.321 58.6919 99.6192 64.0207C97.748 66.6647 95.9175 69.2681 94.2091 71.668C92.5006 74.1087 90.8735 76.4273 89.3684 78.5832C87.8634 80.7391 86.4396 82.7323 85.3007 84.4814C84.1617 86.3119 83.1448 87.8984 82.4126 89.2C81.6397 90.5017 81.0295 91.5593 80.6228 92.2915C80.216 93.0237 80.0126 93.3898 80.0126 93.3898C80.0126 93.3898 78.2228 96.3999 75.7822 101.119C75.5381 101.566 75.294 102.054 75.05 102.542C75.2127 102.38 75.4974 102.054 75.9449 101.607C76.2703 101.281 76.6364 100.874 77.1245 100.427C77.572 99.9796 78.1008 99.4508 78.7109 98.9626C80.5008 97.3762 82.9007 95.5864 85.4227 93.8373C85.6261 93.6339 85.8295 93.4305 85.9515 93.2678C86.1549 93.0644 86.3176 92.7796 86.4397 92.6169C86.5617 92.4542 86.6431 92.3729 86.6431 92.3729C86.6431 92.3729 89.0837 89.5661 91.0362 86.5153C93.0701 83.4645 94.5345 80.2103 94.5345 80.2103C94.5345 80.2103 93.3141 83.5052 91.4837 86.7187C90.2633 88.956 88.7583 91.1119 87.9447 92.2102C91.2803 90.0543 94.6158 87.9797 97.0565 86.2713C98.2768 85.417 99.2937 84.6848 99.9853 84.156C100.677 83.6272 101.043 83.3425 101.043 83.3425C101.043 83.3425 101.246 83.1798 101.612 82.895C101.978 82.6103 102.548 82.1221 103.199 81.634C104.541 80.495 106.372 78.7866 108.528 76.6307C110.683 74.4748 113.165 71.9121 116.053 69.3494C118.9 66.8274 122.073 64.2647 125.246 61.7834C126.873 60.5224 128.541 59.2207 130.127 58.0004L130.331 57.7563C130.982 56.9428 131.51 56.0885 131.51 56.0885C131.51 56.0885 131.876 55.7225 132.365 55.1123C132.853 54.5021 133.463 53.6886 133.992 52.7937C134.52 51.9394 135.009 51.0039 135.293 50.3123C135.415 49.9462 135.537 49.6615 135.619 49.4581C135.7 49.2547 135.7 49.1327 135.7 49.1327C135.7 49.1327 135.7 49.2547 135.659 49.4581C135.619 49.6615 135.578 49.9462 135.456 50.3123C135.253 51.0445 134.927 51.9801 134.48 52.9564C134.032 53.892 133.504 54.8275 133.056 55.5191C132.975 55.6411 132.893 55.7631 132.812 55.8852C135.497 53.7699 137.978 51.6954 140.134 49.7022C140.215 49.5395 140.378 49.2954 140.541 49.0513C140.866 48.4412 141.273 47.6276 141.598 46.7734C141.924 45.9599 142.168 45.1056 142.29 44.4955C142.412 43.8853 142.453 43.4785 142.453 43.4785C142.453 43.4785 142.778 42.665 142.981 41.8108C143.185 40.9565 143.185 40.143 143.185 40.143C143.185 40.143 143.47 40.8345 143.551 41.6887C143.632 42.5023 143.551 43.3972 143.551 43.3972C143.551 43.3972 143.429 43.8446 143.185 44.4955C142.941 45.1463 142.575 46.0412 142.086 46.8548C141.639 47.709 141.11 48.4819 140.703 49.092C140.581 49.2141 140.5 49.3768 140.419 49.4581C141.11 48.848 141.72 48.2378 142.331 47.6276C143.429 46.57 144.364 45.5531 145.219 44.6582C146.032 43.7226 146.724 42.909 147.334 42.2582C148.432 40.8752 149.083 40.0616 149.083 40.0616C149.083 40.0616 148.473 40.8752 147.375 42.2582C146.805 42.9497 146.114 43.7633 145.3 44.6988C144.527 45.5124 143.673 46.4887 142.697 47.4242C143.144 47.0582 143.592 46.7734 143.592 46.7734C143.592 46.7734 143.917 46.6514 144.364 46.57C144.812 46.4887 145.463 46.4073 146.032 46.448C146.602 46.4887 147.13 46.6107 147.497 46.7734C147.7 46.8548 147.822 46.9361 147.903 46.9768C147.985 47.0175 148.066 47.0581 148.066 47.0581C148.066 47.0581 147.049 46.7734 145.91 47.0175C145.341 47.0988 144.812 47.3022 144.405 47.4649C143.998 47.6276 143.754 47.7903 143.754 47.7903C143.754 47.7903 143.225 47.8717 142.656 48.0751C142.086 48.2785 141.517 48.6039 141.517 48.6039C141.517 48.6039 141.558 48.5632 141.639 48.4412C138.873 51.2073 135.375 54.1767 131.592 57.2275C131.307 57.4716 130.982 57.7563 130.615 58.0411L130.127 58.4072L128.663 59.5868C128.948 59.3427 129.314 59.0987 129.721 58.8546C130.615 58.2445 131.592 57.7156 131.592 57.7156C131.592 57.7156 132.08 57.5529 132.812 57.3496C133.544 57.1462 134.52 56.9428 135.497 56.7801C137.449 56.4953 139.198 56.6987 139.198 56.6987C139.198 56.6987 137.327 56.7801 135.456 57.3496C134.52 57.5936 133.585 57.9597 132.893 58.2445C132.202 58.5699 131.754 58.7733 131.754 58.7733C131.754 58.7733 130.819 59.0173 129.883 59.3834C129.07 59.6682 128.256 60.0749 128.053 60.1563L125.531 62.1902C122.399 64.7122 119.266 67.2749 116.5 69.8375C114.914 71.2613 113.45 72.7256 112.107 74.1087C112.392 73.8646 112.595 73.7019 112.595 73.7019C112.595 73.7019 112.758 73.6205 113.124 73.3765C113.49 73.1731 114.019 72.929 114.629 72.7663C115.849 72.3595 117.355 72.1155 118.9 71.546C120.405 70.9765 121.91 70.2036 123.009 69.5121C124.107 68.8206 124.799 68.2511 124.799 68.2511C124.799 68.2511 124.148 68.8613 123.09 69.6342C122.032 70.407 120.527 71.3426 118.982 72.0748C117.436 72.807 115.809 73.2138 114.711 73.6612C114.141 73.9053 113.734 74.1087 113.45 74.3121C113.165 74.5155 113.002 74.6375 113.002 74.6375C113.002 74.6375 112.636 74.8409 112.107 75.1663C111.538 75.5324 110.846 75.9798 110.114 76.468C109.87 76.6307 109.626 76.7934 109.382 76.9561L109.178 77.2002C107.063 79.3968 105.192 81.1866 103.85 82.3662C103.158 82.9357 102.629 83.3831 102.263 83.7086C102.223 83.7492 102.182 83.7899 102.141 83.7899C102.426 83.7086 102.873 83.5865 103.402 83.4645C104.419 83.2204 105.802 82.9357 107.144 82.651C108.487 82.4069 109.829 82.0815 110.846 81.8374C111.334 81.7154 111.782 81.5933 112.066 81.4713C112.351 81.39 112.514 81.3086 112.514 81.3086C112.514 81.3086 112.351 81.3899 112.066 81.512C111.782 81.634 111.334 81.7967 110.846 82.0001C109.829 82.3662 108.487 82.8137 107.104 83.2204C105.761 83.6272 104.378 84.034 103.402 84.3594C102.385 84.7255 101.734 84.9696 101.734 84.9696C101.734 84.9696 100.677 85.2136 99.4971 85.6611C98.9277 86.0679 98.2361 86.5153 97.4633 87.0034C94.9413 88.6712 91.4837 90.6644 88.0261 92.739L87.0905 93.3085C86.9685 93.4305 86.8058 93.5932 86.5617 93.8373C85.9515 94.4067 85.1787 94.8949 84.4058 95.383C83.3482 96.0745 82.2499 96.644 81.6397 96.8881C80.5821 97.661 79.6465 98.3932 78.7923 99.0847C78.1821 99.5728 77.6533 100.061 77.1652 100.508C76.677 100.915 76.2703 101.322 75.9449 101.647C75.4974 102.095 75.172 102.42 75.0093 102.542C72.6907 107.017 69.9246 112.793 67.1992 118.569C64.1891 125.037 61.1383 131.505 58.7383 136.386C57.518 138.827 56.5417 140.86 55.7688 142.243C55.0366 143.667 54.6299 144.481 54.6299 144.481C54.6299 144.481 55.0366 143.667 55.7282 142.203C55.7688 142.162 55.7688 142.121 55.8095 142.04C55.7281 142.162 55.6468 142.284 55.5654 142.447C55.1993 143.098 54.6299 144.033 54.0197 145.294C53.0841 147.125 51.9858 149.606 51.0909 152.616C51.0909 152.698 51.0909 152.738 51.0909 152.738C51.0909 152.738 51.0909 152.698 51.0502 152.616C50.7248 153.674 50.3994 154.813 50.074 155.992C48.8943 160.508 48.0401 165.714 47.2265 171.369C46.3723 176.982 45.4367 183.084 43.6062 189.023C43.6062 189.063 43.6063 189.063 43.5656 189.104C43.5656 189.673 43.5249 190.243 43.5249 190.731C43.6063 190.609 43.9724 189.958 44.5418 189.104C45.2334 188.128 46.2096 186.867 47.1859 185.728C48.2028 184.548 49.2197 183.49 50.074 182.758C50.5214 182.392 50.8468 182.107 51.1316 181.945C51.3756 181.741 51.5384 181.66 51.5384 181.66C51.5384 181.66 51.4163 181.782 51.1723 181.985C50.9282 182.189 50.5621 182.514 50.196 182.88C49.3825 183.653 48.4469 184.833 47.552 186.094C46.6571 187.314 45.8028 188.657 45.1927 189.633C44.6232 190.65 44.2978 191.341 44.2978 191.341C44.2978 191.341 43.9317 191.87 43.4842 192.602C43.4435 193.253 43.4436 193.619 43.4436 193.619C43.4436 193.619 43.4436 193.253 43.4436 192.643C43.1995 193.05 42.9147 193.538 42.6707 193.985C42.3859 194.514 42.1012 195.043 41.8571 195.49C41.6537 196.263 41.4503 197.077 41.3283 197.85C40.7995 200.819 40.3927 203.667 40.4741 206.473C40.5555 209.28 40.5961 211.883 40.8809 214.446C41.1249 216.968 41.2469 219.368 41.369 221.565C41.7351 225.998 41.8978 229.619 42.2639 232.181C42.508 234.703 42.6707 236.168 42.6707 236.168C42.6707 236.168 42.8334 237.388 43.0774 239.219C43.3622 241.049 43.5656 243.449 44.0944 245.849C44.5825 248.249 44.9486 250.608 45.3961 252.398C45.8435 254.147 46.1283 255.327 46.1283 255.327V255.286C46.1689 255.042 46.2096 254.635 46.2503 254.107C46.413 253.09 46.535 251.707 47.0232 250.039C47.4706 248.371 48.0808 246.541 48.7316 244.547C49.4231 242.595 50.2367 240.52 50.8875 238.405C51.1723 237.51 51.457 236.575 51.7824 235.72C51.7824 235.639 51.7824 235.598 51.7824 235.517C51.8231 234.948 51.9451 234.175 52.1078 233.442C52.2706 232.71 52.4333 231.978 52.474 231.449C52.5553 230.92 52.5146 230.595 52.5146 230.595C52.6367 230.798 52.2706 227.829 51.6604 224.982C50.9689 222.093 50.1553 219.368 50.1553 219.368C50.1553 219.368 50.4401 220.06 50.8062 221.036C51.1316 222.053 51.7011 223.395 52.1078 224.819C52.84 227.178 53.3282 229.537 53.4502 230.351C53.857 229.09 54.2231 227.91 54.5485 226.893C55.0366 225.348 55.4027 224.005 55.6468 223.11C55.9315 222.215 56.0942 221.687 56.0942 221.687C56.0942 221.687 56.4603 220.67 56.9892 218.839C57.0298 218.677 57.1112 218.473 57.1519 218.31V218.188C57.1519 217.497 57.0705 216.805 56.9892 216.317C56.9078 215.829 56.8264 215.504 56.8264 215.504C56.8264 215.504 56.7858 214.812 56.6637 213.795C56.501 212.778 56.1756 211.436 55.8502 210.053C55.4841 208.67 55.3214 207.287 55.24 206.189C55.1587 205.09 55.24 204.358 55.24 204.358C55.24 204.358 55.24 205.09 55.4027 206.148C55.5654 207.205 55.8095 208.507 56.2976 209.85C56.7451 211.151 57.1925 212.494 57.4366 213.51C57.6807 214.527 57.762 215.26 57.762 215.26C57.762 215.26 57.762 215.626 57.762 216.195C58.2502 214.812 58.779 213.185 59.3484 211.355C61.3416 205.172 63.945 197.117 67.1992 188.982L68.5416 185.687C68.3789 184.996 68.0127 183.368 67.8094 181.741C67.4839 179.545 67.3212 177.267 67.3212 177.267C67.3212 177.267 67.4026 176.087 67.5653 174.908C67.728 173.728 67.9314 172.548 67.9314 172.548C67.9314 172.548 68.0128 173.687 68.0534 174.826C68.1348 175.924 68.2975 177.063 68.2975 177.063C68.2975 177.063 68.2161 179.382 68.2975 181.619C68.3382 183.246 68.5009 184.833 68.5822 185.606C71.267 179.26 74.1551 173.077 76.9211 168.196C76.9211 168.155 76.9211 168.074 76.9211 167.992C76.8804 167.789 76.8805 167.464 76.8805 167.097C76.8805 166.325 76.9211 165.308 77.0838 164.291C77.2466 163.233 77.4499 162.216 77.572 161.443C77.7347 160.67 77.816 160.142 77.816 160.142C77.816 160.142 78.1821 159.125 78.5482 158.108C78.8736 157.131 79.2397 156.074 79.2397 156.074C79.2397 156.074 79.1584 157.091 79.0364 158.148C78.9143 159.206 78.7923 160.223 78.7923 160.223C78.7923 160.223 78.6296 160.752 78.3855 161.484C78.1821 162.257 77.8567 163.233 77.572 164.25C77.2872 165.267 77.1245 166.284 77.0025 167.057C76.9211 167.545 76.9211 167.911 76.9211 168.114C77.1652 167.667 77.4093 167.219 77.6126 166.813C79.2804 163.843 80.8261 161.403 81.8431 159.694C82.9414 158.026 83.5922 157.05 83.5922 157.05C83.5922 157.05 82.9821 158.026 81.8838 159.735C80.8668 161.484 79.3618 163.925 77.7347 166.894C74.3991 172.833 70.6975 181.009 67.606 189.145C66.8738 190.894 66.345 192.684 65.6535 194.433C65.8162 194.148 66.0195 193.823 66.1823 193.497C66.9145 192.277 67.6873 191.097 67.6873 191.097C67.6873 191.097 69.5992 188.982 71.6737 187.233C72.6907 186.338 73.789 185.524 74.6839 184.996C75.1313 184.711 75.4567 184.507 75.7415 184.385C75.9855 184.263 76.1482 184.182 76.1482 184.182C76.1482 184.182 76.0262 184.263 75.7822 184.426C75.5381 184.589 75.2127 184.833 74.8059 185.158C73.9923 185.768 72.9347 186.663 72.0398 187.64C71.1042 188.616 70.1687 189.633 69.5178 190.446C68.8263 191.219 68.4602 191.789 68.4602 191.789C68.4602 191.789 67.5246 192.765 66.6297 193.823C66.1823 194.351 65.7348 194.921 65.4094 195.328C64.3111 198.338 63.4569 201.267 62.4806 203.992C61.7077 206.799 60.7315 209.321 60.1213 211.68C59.1857 214.771 58.3722 217.375 57.8841 219.205C57.3553 221.036 56.9892 222.053 56.9892 222.053C56.9892 222.053 56.3383 224.087 55.3214 227.259C54.7926 228.805 54.1417 230.636 53.5316 232.588C52.8807 234.541 52.0265 236.615 51.3757 238.69C50.8469 240.195 50.2774 241.7 49.6672 243.124C49.7486 243.042 49.8299 242.961 49.952 242.839C50.2774 242.514 50.6842 242.025 51.0502 241.537C51.8231 240.561 52.5146 239.503 52.5146 239.503C52.5146 239.503 52.9621 239.056 53.6129 238.446C53.9383 238.12 54.3451 237.754 54.7926 237.429C55.24 237.063 55.7688 236.737 56.2976 236.534C57.3146 236.046 58.3315 235.436 58.9417 234.785C59.2671 234.459 59.4705 234.175 59.6332 233.931C59.7552 233.687 59.8366 233.564 59.8366 233.564C59.8366 233.564 59.7959 233.687 59.6739 233.971C59.5518 234.215 59.3484 234.541 59.0637 234.907C58.4942 235.639 57.518 236.371 56.501 237.022C56.0129 237.347 55.5654 237.673 55.1993 238.039C54.7926 238.405 54.4671 238.812 54.1824 239.137C53.6129 239.829 53.2061 240.317 53.2061 240.317C53.2061 240.317 52.3112 241.13 51.3757 241.944C50.9282 242.351 50.4401 242.717 50.0333 242.961C49.8706 243.042 49.7486 243.164 49.6265 243.205C48.6909 245.686 47.8367 248.046 47.2265 250.08C46.6977 251.707 46.535 253.09 46.3723 254.107C46.291 254.595 46.2503 255.002 46.2096 255.246C46.2096 255.286 46.2096 255.286 46.2096 255.327C46.2096 255.327 46.5757 256.832 47.1452 259.11C47.8367 261.347 48.6096 264.357 49.6672 267.286C50.7248 270.215 51.7011 273.103 52.6367 275.218C53.5316 277.333 54.1011 278.757 54.1011 278.757C54.4265 279.408 54.9553 280.222 55.4841 281.279C56.1756 282.54 56.9485 284.045 57.8027 285.835C58.7383 287.584 59.7552 289.537 60.8128 291.693C61.301 292.75 61.9518 293.808 62.5213 294.906L62.3993 294.662C62.0332 293.849 61.6264 292.954 61.2196 292.018C60.8535 291.042 60.4874 290.025 60.1213 288.967C59.7552 287.91 59.3891 286.811 59.0637 285.672C58.7789 284.533 58.5349 283.354 58.2908 282.174C58.0874 280.994 57.9247 279.815 57.8027 278.635C57.7213 277.456 57.7213 276.317 57.7213 275.218C57.7213 273.022 57.8434 270.988 58.0874 269.239C58.2908 267.53 58.4536 266.106 58.5756 265.09C58.6976 264.113 58.8196 263.544 58.8196 263.544C58.8196 263.544 59.0637 262.405 59.4298 260.452C59.6332 259.476 59.8773 258.296 60.2027 256.995C60.5688 255.652 61.0162 254.188 61.5043 252.602C61.9518 251.015 62.6026 249.347 63.4162 247.598C64.1891 245.89 64.9619 244.1 66.0602 242.392C66.3856 241.863 66.7111 241.334 67.0772 240.764C67.1585 240.236 67.2806 239.544 67.3619 238.853C67.5246 237.51 67.8094 236.168 67.8094 236.168C67.8094 236.168 68.6636 233.605 69.2738 231.002C69.6399 229.7 69.9246 228.398 70.0873 227.422C70.1687 226.934 70.2093 226.527 70.25 226.202C70.2907 225.917 70.2907 225.754 70.2907 225.754C70.2907 225.754 70.2907 225.917 70.2907 226.202C70.2907 226.487 70.2907 226.934 70.25 227.422C70.1686 228.439 70.006 229.781 69.7619 231.083C69.3958 233.768 68.745 236.412 68.745 236.412C68.745 236.412 68.2568 237.673 67.85 238.975C67.6873 239.422 67.5246 239.869 67.4026 240.276C69.0704 237.551 71.2263 234.948 73.3415 232.507C75.172 230.473 77.1652 228.561 78.955 226.771C78.7923 226.893 78.6702 226.975 78.6702 226.975C78.6702 226.975 78.833 226.812 78.9957 226.527C79.1584 226.243 79.4025 225.876 79.5652 225.47C79.7279 225.063 79.8092 224.656 79.8906 224.331C79.9719 224.005 80.0126 223.802 80.0126 223.802C80.0126 223.802 80.7448 222.175 81.4363 220.548C82.2499 218.961 83.0227 217.416 83.0227 217.416C83.0227 217.416 82.4533 219.083 81.8838 220.71C81.3957 222.419 80.9075 224.087 80.9075 224.087C80.9075 224.087 80.7855 224.29 80.6228 224.575C80.4601 224.859 80.216 225.266 79.9719 225.673C79.8499 225.876 79.6872 226.039 79.5652 226.202C81.3143 224.656 82.9821 223.192 84.5278 221.89C86.1549 220.588 87.7007 219.449 89.0837 218.432C89.043 218.432 89.043 218.432 89.043 218.432H89.0837C91.4023 216.683 93.5989 215.463 94.9412 214.568C96.3243 213.673 97.1785 213.266 97.1785 213.266C97.1785 213.266 96.365 213.673 95.0633 214.568C93.7616 215.422 91.7277 216.643 89.5311 218.31C89.8159 218.229 90.182 218.107 90.5481 217.985C91.321 217.741 92.0938 217.497 92.0938 217.497C92.0938 217.497 93.7616 217.334 95.4294 217.334C97.0972 217.293 98.7649 217.456 98.7649 217.456C98.7649 217.456 97.0972 217.497 95.5107 217.741C93.8836 217.944 92.2972 218.31 92.2972 218.31C92.2972 218.31 91.4837 218.351 90.6294 218.392C90.1006 218.432 89.5718 218.432 89.2871 218.473C85.9922 220.914 81.9651 224.249 77.9787 228.276L78.1414 228.195C78.7516 227.91 79.3618 227.666 79.3618 227.666C79.3618 227.666 80.7041 227.504 82.0465 227.585C83.3888 227.626 84.6905 227.87 84.6905 227.87C84.6905 227.87 83.3888 227.87 82.0872 228.032C80.7855 228.195 79.5652 228.561 79.5652 228.561C79.5652 228.561 78.9143 228.561 78.2635 228.642C78.0194 228.683 77.7347 228.683 77.5313 228.724C76.2703 230.066 74.8466 231.449 73.6263 232.873C72.3246 234.419 71.0229 236.005 69.8026 237.673C68.6636 239.341 67.5653 241.049 66.5484 242.758C65.5721 244.344 64.9213 245.971 64.1891 247.598C64.5145 247.191 64.9619 246.785 65.4501 246.419C66.0602 245.971 66.7111 245.646 67.1992 245.361C67.6873 245.117 67.9721 244.954 67.9721 244.954C67.9721 244.954 68.1348 244.873 68.4195 244.791C68.7043 244.669 69.0704 244.507 69.5585 244.263C70.4941 243.734 71.7551 243.042 73.0161 242.351C75.5381 240.927 78.0601 239.666 78.0601 239.666C78.0601 239.666 75.6601 241.13 73.2601 242.758C72.0805 243.571 70.9009 244.385 69.9653 244.995C69.5178 245.28 69.111 245.524 68.8263 245.686C68.5415 245.849 68.3788 245.93 68.3788 245.93C68.3788 245.93 68.0534 246.052 67.5246 246.215C67.0365 246.378 66.345 246.622 65.6941 246.907C65.0433 247.191 64.4738 247.639 64.1077 248.046C64.067 248.086 64.0264 248.168 63.9857 248.208C63.2535 249.835 62.7247 251.463 62.2772 252.968C61.7891 254.554 61.3823 256.018 61.0162 257.361C60.7315 258.703 60.4874 259.842 60.3247 260.818C59.9586 262.771 59.7552 263.869 59.7552 263.869C59.7552 263.869 59.6332 264.439 59.5112 265.415C59.3484 266.391 59.1451 267.815 58.901 269.523C58.6163 271.232 58.4942 273.225 58.4129 275.381C58.3722 276.479 58.3722 277.618 58.4129 278.757C58.4942 279.896 58.6162 281.076 58.8196 282.215C59.023 283.394 59.2264 284.533 59.4705 285.672C59.7959 286.811 60.1213 287.91 60.4467 288.967C61.0976 291.123 61.8298 293.076 62.562 294.662C62.9281 295.476 63.2535 296.208 63.5382 296.899C64.2704 298.404 65.1247 299.869 66.0196 301.415C66.9145 302.92 67.728 304.547 68.745 306.092C71.7958 311.177 75.5381 316.384 79.7685 320.98C80.6635 322.038 81.7211 322.974 82.6973 323.909C82.3312 323.218 81.8024 322.201 81.2329 321.143C80.3787 319.313 79.6465 317.482 79.6465 317.482C79.6465 317.482 79.3618 316.547 78.955 315.123C78.5482 313.74 78.2635 311.787 77.9787 309.875C77.8567 308.94 77.7347 308.004 77.694 307.109C77.694 306.214 77.694 305.401 77.7347 304.709C77.7754 304.018 77.8567 303.448 77.8974 303.042C77.9787 302.635 77.9787 302.431 77.9787 302.431C77.9787 302.431 77.9787 302.676 77.9381 303.042C77.8974 303.448 77.8974 304.018 77.8567 304.709C77.816 306.133 78.0194 307.964 78.4262 309.835C79.077 313.618 80.5414 317.238 80.5414 317.238C80.5414 317.238 81.0295 319.109 81.6397 320.98C82.1278 322.201 82.5753 323.38 82.8194 324.072C83.6736 324.885 84.5278 325.699 85.4227 326.472C86.3176 327.204 87.2532 327.936 88.1481 328.668C89.8972 330.174 91.7277 331.557 93.4769 332.94C95.6735 334.851 97.87 336.601 99.8632 338.268C101.856 339.977 103.972 341.36 105.761 342.743C107.551 344.004 109.3 345.061 110.805 346.038C110.724 345.956 110.602 345.916 110.521 345.834C109.829 345.346 108.894 344.573 107.795 343.638C106.656 342.743 105.517 341.482 104.297 340.14C103.077 338.838 101.816 337.333 100.799 335.706C98.6022 332.614 96.7717 329.279 95.348 326.879C94.087 324.397 93.2735 322.689 93.2735 322.689C93.2735 322.689 92.9074 321.835 92.2565 320.37C91.6871 318.865 90.8735 316.75 89.8566 314.187C88.4735 309.957 86.7651 304.628 85.6668 299.096C85.3414 298.771 84.8532 298.282 84.3651 297.835C83.5109 297.021 82.738 296.086 82.738 296.086C82.738 296.086 81.5177 294.052 80.3787 291.896C79.3618 289.699 78.5482 287.462 78.5482 287.462C78.5482 287.462 79.6058 289.618 80.7855 291.652C82.0872 293.645 83.5109 295.516 83.5109 295.516C83.5109 295.516 84.0397 296.574 84.7312 297.55C85.0566 297.998 85.3414 298.486 85.5854 298.811C85.382 297.672 85.0566 296.615 84.8939 295.476C83.5922 288.764 82.9414 281.971 82.3719 277.008C82.1685 274.486 81.8431 272.452 81.7618 270.988C81.6397 269.523 81.599 268.71 81.599 268.71C81.599 268.71 81.6804 269.523 81.8024 270.988C81.8838 272.452 82.2499 274.486 82.4939 277.008C83.1448 281.971 83.9583 288.723 85.3414 295.394C85.7075 297.184 86.1549 298.933 86.5617 300.723V300.642C86.6431 300.113 86.8057 299.584 86.9278 299.218C87.0498 298.852 87.1312 298.608 87.1312 298.608C87.1312 298.608 88.1481 296.859 89.2057 295.11C90.2227 293.401 91.4023 291.693 91.4023 291.693C91.4023 291.693 90.426 293.482 89.6532 295.313C88.8396 297.184 88.0261 299.015 88.0261 299.015C88.0261 299.015 87.4566 299.869 87.0498 300.804C86.9278 301.089 86.8464 301.374 86.7651 301.618C87.4159 303.896 88.0261 306.133 88.5956 308.208C89.2871 310.282 89.9786 312.235 90.5481 314.025C91.565 316.547 92.4192 318.662 93.0294 320.126C93.7209 321.55 94.087 322.404 94.087 322.404C94.087 322.404 94.5752 323.462 95.3074 325.13C95.226 324.682 95.1853 324.113 95.1446 323.584C95.0633 322.404 94.9412 321.184 94.9412 321.184C94.9412 321.184 94.9819 320.614 95.0633 319.719C95.104 318.865 95.2667 317.686 95.4294 316.547C95.7548 314.269 96.1209 311.991 96.1209 311.991C96.1209 311.991 95.9989 314.309 95.9175 316.587C95.8362 317.767 95.8768 318.906 95.9175 319.801C95.9175 320.696 95.9582 321.265 95.9582 321.265C95.9582 321.265 95.7955 322.445 95.6734 323.624C95.5921 324.235 95.5107 324.804 95.5107 325.252C95.5107 325.374 95.5107 325.455 95.5107 325.536C96.8124 328.058 98.7243 331.923 101.165 335.543C102.141 337.17 103.321 338.675 104.5 340.017C105.68 341.36 106.778 342.662 107.877 343.597C108.934 344.573 109.87 345.346 110.561 345.834C110.765 345.997 110.968 346.16 111.09 346.241C112.595 347.258 114.019 347.909 115.117 348.6C116.256 349.251 117.192 349.739 117.802 350.105C118.453 350.431 118.778 350.594 118.778 350.594C118.778 350.594 119.47 350.919 120.649 351.529C121.829 352.099 123.456 353.034 125.531 353.889C127.605 354.783 129.924 355.882 132.568 356.817C133.87 357.305 135.171 357.875 136.554 358.322C137.937 358.77 139.32 359.217 140.703 359.665C143.47 360.56 146.317 361.21 148.92 361.902C151.605 362.431 153.924 363.041 156.202 363.366C160.595 364.139 163.849 364.546 163.849 364.546C163.849 364.546 161.53 364.261 158.032 363.773C154.696 363.285 150.547 362.594 146.317 361.617C142.086 360.682 137.937 359.38 134.765 358.363C131.632 357.224 129.558 356.492 129.558 356.492C128.582 356.573 126.182 356.695 122.765 356.858C118.371 356.98 112.392 356.858 106.209 356.166C103.117 355.841 100.107 355.231 97.0972 354.702C94.209 354.051 91.4837 353.319 89.0837 352.628C84.4465 351.122 81.2736 349.821 81.2736 349.821C81.2736 349.821 80.5821 349.536 79.4838 348.967C79.2804 349.048 78.9957 349.048 78.6296 349.007C77.7347 348.926 76.555 348.519 75.4161 348.194C75.1313 348.112 74.8872 348.072 74.6025 348.072C74.3178 348.072 74.033 348.072 73.7889 348.031C73.2601 348.031 72.7313 347.99 72.3246 347.99C71.4703 347.95 70.8602 347.909 70.8602 347.909L66.1416 346.689L70.6568 346.77C70.6568 346.77 71.2263 346.892 72.1212 347.055C72.5686 347.136 73.0975 347.217 73.6263 347.299C73.911 347.339 74.1957 347.38 74.4805 347.421C74.8059 347.461 75.1313 347.543 75.4161 347.665C76.6364 348.112 77.7347 348.641 78.6296 348.844C78.9143 348.926 79.1991 348.926 79.4024 348.926C78.8736 348.641 78.2228 348.316 77.4906 347.99C76.3516 347.421 75.0093 346.729 73.5856 345.997C72.2025 345.224 70.6975 344.411 69.1517 343.597C66.0602 342.011 63.0908 340.384 60.7721 339.367C59.6332 338.838 58.6163 338.472 57.9654 338.228C57.2739 337.984 56.8671 337.821 56.8671 337.821C56.8671 337.821 57.2739 337.943 57.9654 338.187C58.6569 338.431 59.6332 338.757 60.8128 339.204C62.8467 339.936 65.2467 341.197 67.8907 342.417C67.6466 342.214 67.3619 341.97 67.0772 341.767C66.1823 341.034 65.4501 340.14 65.4501 340.14C65.4501 340.14 64.1484 338.228 63.1721 336.194C62.684 335.177 62.2365 334.201 61.9925 333.387C61.8704 332.98 61.7891 332.655 61.7484 332.451C61.7077 332.207 61.6671 332.085 61.6671 332.085C61.6671 332.085 61.7077 332.207 61.7891 332.451C61.8704 332.696 61.9925 332.98 62.1552 333.387C62.4399 334.16 63.0094 335.095 63.6196 336.031C64.7992 337.902 66.2229 339.611 66.2229 339.611C66.2229 339.611 66.7518 340.587 67.4433 341.441C67.8094 341.929 68.1755 342.377 68.4602 342.702L69.3144 343.109C70.8602 343.882 72.3652 344.655 73.7889 345.346C75.2533 346.038 76.5957 346.648 77.7347 347.177C80.0126 348.234 81.5177 348.885 81.5177 348.885C81.5177 348.885 84.6498 350.228 89.2057 351.814C90.1006 352.058 91.0769 352.343 92.0532 352.668L91.4837 352.302C90.4667 351.57 89.4498 350.797 89.4498 350.797C89.4498 350.797 87.7413 348.926 86.1142 347.014C85.3007 346.078 84.5278 345.102 83.9583 344.329C83.4295 343.556 83.0634 343.068 83.0634 343.068C83.0634 343.068 83.4702 343.556 84.0804 344.248C84.6905 344.98 85.5448 345.875 86.4803 346.729C88.2701 348.478 90.1413 350.146 90.1413 350.146C90.1413 350.146 90.9549 351.082 91.8498 351.977C92.1752 352.302 92.5006 352.628 92.7447 352.912C96.7718 354.133 101.572 355.068 106.209 355.76C108.894 356.085 111.497 356.37 113.978 356.573C113.531 356.492 112.961 356.248 112.392 356.004C111.294 355.556 110.236 355.027 110.236 355.027C110.236 355.027 109.748 354.702 109.016 354.173C108.283 353.644 107.348 352.912 106.534 352.099C105.68 351.285 104.867 350.431 104.297 349.739C103.728 349.089 103.402 348.6 103.402 348.6C103.402 348.6 103.809 349.048 104.419 349.617C105.029 350.228 105.924 351 106.819 351.692C107.714 352.424 108.69 353.034 109.463 353.482C110.195 353.889 110.724 354.173 110.724 354.173C110.724 354.173 111.619 354.865 112.595 355.516C113.246 355.963 113.938 356.329 114.304 356.533C117.477 356.655 120.324 356.817 122.765 356.777C126.06 356.655 128.541 356.573 129.558 356.573C129.558 356.573 126.71 355.394 123.904 354.214C121.097 352.872 118.331 351.57 118.331 351.57C118.331 351.57 118.005 351.407 117.355 351.082C116.744 350.716 115.849 350.228 114.67 349.536C112.311 348.275 109.097 346.241 105.314 343.597C103.484 342.173 101.409 340.79 99.4158 339.041C97.4226 337.333 95.226 335.543 93.0701 333.631C88.5956 329.97 83.6736 326.187 79.3618 321.469C77.8974 319.76 76.3923 318.011 75.0093 316.221C74.6025 316.14 73.7889 315.936 72.5686 315.692C70.8602 315.286 68.2975 314.635 65.2874 313.536C63.2128 312.764 60.8128 311.706 58.2908 310.445C55.7688 309.184 53.2468 307.598 50.5214 305.808C49.7079 305.848 48.7723 305.848 47.8367 305.97C46.6977 306.092 45.6401 306.337 44.9079 306.662C44.1757 306.987 43.6469 307.191 43.6469 307.191C43.6469 307.191 43.3622 307.231 42.9147 307.313C42.4673 307.353 41.8571 307.353 41.2063 307.15C40.5554 306.947 39.9453 306.54 39.5792 306.092C39.1724 305.645 39.0097 305.279 39.0097 305.279C39.0097 305.279 39.2131 305.604 39.6199 305.93C40.0266 306.255 40.5961 306.499 41.1249 306.499C41.6537 306.54 42.1825 306.377 42.5486 306.214C42.9147 306.052 43.1588 305.93 43.1588 305.93C43.1588 305.93 43.6876 305.808 44.5418 305.604C45.3961 305.401 46.535 305.32 47.7147 305.36C48.5282 305.401 49.3418 305.442 50.1146 305.523C48.1214 304.14 46.2096 302.594 44.2164 300.967C37.0165 294.865 30.5081 286.974 26.4404 280.344C24.2845 277.049 22.8607 274.12 21.7218 272.045C20.5828 270.012 20.054 268.791 20.054 268.791C20.054 268.791 19.7692 268.181 19.2811 267.123C19.1998 266.961 19.1184 266.757 18.9964 266.554C18.1828 265.822 17.1252 264.967 16.0269 264.235C14.8473 263.422 13.6269 262.73 12.732 262.283C11.8371 261.835 11.227 261.591 11.227 261.591C11.227 261.591 10.088 260.818 8.86768 260.208C7.64735 259.598 6.42703 259.151 6.42703 259.151C6.42703 259.151 7.68803 259.232 8.94904 259.517C10.21 259.761 11.471 260.249 11.471 260.249C11.471 260.249 12.0812 260.574 12.9761 261.184C13.871 261.795 15.0506 262.649 16.2303 263.625C17.1659 264.398 18.0201 265.252 18.7523 265.984C18.3049 265.09 17.776 264.032 17.1252 262.852C16.1896 261.144 15.1727 259.151 13.8303 257.239C12.5287 255.286 10.9829 253.334 9.59987 251.341C8.58293 249.876 7.5253 248.371 6.58972 246.825C6.30498 246.5 5.97958 246.215 5.69484 245.93C5.69484 245.93 4.35248 244.344 2.96944 243.164C1.54573 241.944 -1.52588e-05 241.171 -1.52588e-05 241.171C-1.52588e-05 241.171 1.38301 241.578 2.96944 242.514ZM98.4802 48.9293C98.3988 48.9293 98.3175 48.9293 98.2361 48.9293L98.2768 49.4174C98.3175 49.2954 98.3988 49.092 98.4802 48.9293ZM116.053 39.5735C116.094 39.5328 116.094 39.4515 116.134 39.3701L115.809 39.8989L116.053 39.5735ZM31.6064 174.094C31.6877 176.169 31.8098 177.389 31.8098 177.389C31.8098 177.389 32.0538 175.884 32.3793 174.419C32.7047 172.955 33.0301 171.45 33.0301 171.45C33.0301 171.45 33.3555 170.474 33.803 168.969C33.9657 168.399 34.2097 167.708 34.4538 167.057C33.3148 165.47 32.3793 163.64 31.6471 161.728C31.525 161.443 31.4437 161.159 31.3217 160.833C31.281 162.379 31.281 163.925 31.281 165.308C31.3623 168.928 31.525 171.979 31.6064 174.094ZM31.1183 160.182C31.159 160.304 31.2403 160.426 31.281 160.589C31.1996 160.426 31.1589 160.264 31.0776 160.101C31.0776 160.101 31.0776 160.142 31.1183 160.182ZM42.752 166.731C42.7113 166.243 42.6707 165.755 42.63 165.267C42.0605 158.189 41.1249 151.111 40.0266 145.945C39.4571 143.342 38.969 141.186 38.6029 139.681C38.2368 138.176 38.0334 137.322 38.0334 137.322C38.0334 137.322 37.6267 135.572 37.0572 133.01C36.7724 131.708 36.447 130.203 36.1216 128.535C36.0809 128.372 36.0809 128.169 36.0402 127.966C35.308 131.22 34.4945 134.596 33.803 137.932C32.8267 142.732 32.2166 147.491 31.8505 151.925C32.0132 152.087 32.1759 152.25 32.3386 152.413C32.3386 152.413 32.7454 152.82 33.3962 153.43C33.7216 153.715 34.0877 154.081 34.5352 154.447C34.9013 154.731 35.2673 155.057 35.6741 155.382C36.0809 155.708 36.4877 155.992 36.8945 156.318C37.5046 156.765 38.1555 157.294 38.7656 157.904C39.4165 156.887 39.8639 156.237 39.8639 156.237C39.8639 156.237 39.4165 156.928 38.847 157.986C39.0911 158.23 39.3351 158.433 39.5792 158.677C40.3927 159.613 41.0436 160.792 41.4503 161.972C41.7351 162.745 41.8978 163.477 42.0605 164.169C42.1419 164.535 42.2232 164.901 42.2639 165.226C42.4266 166.203 42.5486 167.016 42.63 167.586C42.6707 167.789 42.6707 167.952 42.6707 168.074C42.752 168.114 42.7927 168.155 42.8334 168.196C42.8334 167.708 42.7927 167.219 42.752 166.731ZM43.3622 190.894C43.3622 190.446 43.3622 189.999 43.3622 189.47C43.0368 190.731 42.7113 191.992 42.3453 193.253C42.8741 192.033 43.3215 191.016 43.3622 190.894ZM40.6775 197.931C41.2876 194.962 42.2639 191.992 43.0368 189.023C43.1588 188.575 43.2808 188.168 43.4029 187.721C43.4029 186.826 43.4029 185.89 43.4029 184.833C43.4029 180.318 43.2808 174.541 42.8741 168.603C42.8741 168.48 42.8741 168.358 42.8334 168.236C42.7927 168.236 42.752 168.196 42.7114 168.155C42.752 168.399 42.752 168.521 42.752 168.521C42.752 168.521 42.7113 168.358 42.6707 168.114C42.4673 167.992 42.1419 167.789 41.6944 167.545C40.9622 167.138 40.0266 166.528 39.091 165.877C38.5622 165.511 38.0334 165.104 37.586 164.697L36.325 165.104L35.4301 164.575L36.2843 164.047L36.9758 164.25V164.209C36.8538 164.087 36.6911 164.006 36.6097 163.884C35.9589 163.274 35.5928 162.826 35.5928 162.826C35.5928 162.826 34.9013 161.809 34.4131 160.63C34.1691 160.06 33.9657 159.45 33.8436 159.003C33.7216 158.555 33.6403 158.23 33.6403 158.23C33.6403 158.23 33.7623 158.514 33.9657 158.921C34.1691 159.328 34.4538 159.857 34.7793 160.345C35.4301 161.321 36.2436 162.094 36.2436 162.094C36.2436 162.094 36.325 162.216 36.4877 162.42C36.447 162.379 36.447 162.338 36.447 162.338C36.447 162.338 36.4877 162.013 36.5284 161.647C36.5691 161.321 36.569 160.955 36.569 160.955C36.569 160.955 36.7724 161.199 36.9758 161.484C37.1792 161.769 37.3419 162.094 37.3419 162.094C37.3419 162.094 37.3826 162.745 37.3012 163.436C37.83 164.047 38.5622 164.779 39.3351 165.47C40.1893 166.203 41.0843 166.894 41.7351 167.423C42.1419 167.708 42.4266 167.952 42.63 168.074C42.5893 167.952 42.5893 167.789 42.5486 167.626C42.4673 167.057 42.3046 166.243 42.1012 165.308C41.8978 164.413 41.613 163.314 41.1656 162.257C40.7181 161.118 40.108 159.979 39.2131 159.125C39.091 159.003 38.969 158.921 38.8063 158.799C38.0741 158.108 37.2606 157.538 36.4877 157.009C35.5521 156.399 34.6979 155.789 33.9657 155.22C32.5013 154.121 31.6064 153.308 31.6064 153.308C30.3047 152.047 29.0437 150.623 27.8641 149.199C27.8234 149.159 27.7827 149.077 27.742 149.037C27.742 149.077 27.7827 149.118 27.7827 149.118C29.4098 153.186 30.3861 157.538 31.8911 161.565C32.786 164.006 33.9657 166.325 35.5521 168.277C35.5928 168.358 35.6335 168.399 35.7148 168.48C36.5284 169.457 37.5046 170.311 38.6436 170.596C39.6199 170.84 40.7181 170.474 41.369 169.538C41.4503 169.416 41.5724 169.294 41.6537 169.131C41.6131 169.294 41.491 169.375 41.4097 169.538C40.7995 170.514 39.6605 170.921 38.6436 170.718C37.464 170.474 36.447 169.579 35.5928 168.643C35.3487 168.358 35.1453 168.074 34.9013 167.748C34.7792 168.236 34.6165 168.684 34.5352 169.131C34.1691 170.636 33.925 171.613 33.925 171.613C33.925 171.613 33.3555 173.24 32.8267 174.867C32.2572 176.494 31.8098 178.162 31.8098 178.162C31.8911 179.097 32.0132 181.009 32.2165 183.49C32.3386 185.24 32.6233 187.396 32.9081 189.592C33.2335 191.789 33.5182 194.067 34.0877 196.345C34.6165 198.582 35.2674 200.738 35.9589 202.65C36.6097 204.561 37.5046 206.27 38.1555 207.734C38.8877 209.321 39.4572 210.622 39.7826 211.517C39.7419 210.012 39.6605 208.466 39.6605 206.88C39.6199 203.911 40.108 200.941 40.6775 197.931Z" fill="#4F4F4F"/>
<path d="M46.4538 122.8C46.4538 122.8 46.3318 121.945 46.169 121.091C46.047 120.237 45.925 119.383 45.925 119.383C45.925 119.383 46.2911 120.034 46.6978 120.725C47.1046 121.376 47.5114 122.027 47.5114 122.027C47.5114 122.027 47.9182 123.613 48.4063 125.118C48.8944 126.664 49.4639 128.128 49.4639 128.128C49.4639 128.128 48.6504 126.867 47.8775 125.525C47.1453 124.183 46.4538 122.8 46.4538 122.8Z" fill="#4F4F4F"/>
<path d="M52.7993 159.125C52.2298 160.101 51.7417 161.159 51.3756 161.931C51.0095 162.704 50.7654 163.233 50.7654 163.233C50.7654 163.233 50.1146 164.209 49.4231 165.186C48.6909 166.121 47.9587 166.975 47.9587 166.975C47.9587 166.975 48.5282 165.959 49.0163 164.901C49.5044 163.843 49.9112 162.786 49.9112 162.786C49.9112 162.786 50.1959 162.298 50.6434 161.525C51.0908 160.752 51.701 159.735 52.3925 158.799C53.1247 157.864 53.9382 157.009 54.5891 156.521C54.9145 156.277 55.1992 156.074 55.4026 155.993C55.606 155.871 55.7281 155.83 55.7281 155.83C55.7281 155.83 55.606 155.911 55.4433 156.033C55.2399 156.155 54.9959 156.399 54.6704 156.684C54.101 157.254 53.3688 158.148 52.7993 159.125Z" fill="#4F4F4F"/>
<path d="M79.9313 166.569C79.9313 166.569 79.077 167.26 78.2228 167.952C77.3686 168.643 76.555 169.375 76.555 169.375C76.555 169.375 77.2465 168.48 77.9381 167.586C78.6296 166.691 79.3618 165.836 79.3618 165.836C79.3618 165.836 81.0702 164.372 82.7787 163.03C83.6329 162.338 84.4871 161.687 85.2193 161.24C85.9109 160.833 86.399 160.508 86.399 160.508C86.399 160.508 85.9515 160.874 85.3007 161.362C84.6498 161.891 83.877 162.664 83.0634 163.436C81.477 164.942 79.9313 166.569 79.9313 166.569Z" fill="#4F4F4F"/>
<path d="M33.1522 242.107C33.7624 242.188 34.4946 242.717 35.0234 243.571C35.5522 244.425 35.959 245.402 36.2031 246.053C36.4878 246.703 36.6912 247.151 36.6912 247.151C36.6912 247.151 36.7725 247.395 36.9352 247.761C37.098 248.127 37.342 248.656 37.6674 249.225C38.359 250.405 39.4572 251.747 40.7996 252.886C42.1013 254.066 43.4436 255.164 44.3792 256.059C45.3148 256.995 45.8843 257.686 45.8843 257.686C45.8843 257.686 45.2741 257.035 44.2979 256.222C43.3216 255.408 41.9386 254.432 40.5555 253.374C39.1725 252.317 37.8708 251.097 37.0573 249.876C36.6505 249.266 36.3657 248.737 36.1624 248.33C35.959 247.924 35.8776 247.68 35.8776 247.68C35.8776 247.68 35.7149 247.151 35.5115 246.419C35.3081 245.686 35.0641 244.71 34.6573 243.897C34.2912 243.083 33.681 242.432 33.1522 242.229C32.8675 242.147 32.6234 242.107 32.4607 242.147C32.298 242.188 32.2166 242.229 32.2166 242.229C32.2166 242.229 32.298 242.188 32.4607 242.107C32.5828 242.107 32.8675 242.066 33.1522 242.107Z" fill="#4F4F4F"/>
<path d="M54.5892 297.957C54.9146 299.015 55.5248 300.357 56.2977 301.577C57.0705 302.798 58.0061 303.896 58.6976 304.75C59.3892 305.604 59.8366 306.174 59.8366 306.174C59.8366 306.174 60.5688 307.435 61.301 308.737C61.6671 309.387 61.9925 310.038 62.2366 310.567C62.44 311.096 62.6027 311.421 62.6027 311.421C62.6027 311.421 61.8705 310.16 60.9349 309.021C60.0807 307.964 59.1044 306.825 59.1044 306.825C59.1044 306.825 58.6976 306.215 58.0875 305.32C57.4773 304.384 56.6231 303.204 55.8909 301.862C55.1994 300.52 54.6706 299.096 54.4265 297.998C54.3858 297.713 54.3045 297.469 54.2638 297.265C54.2231 297.062 54.2231 296.859 54.1824 296.696C54.1418 296.371 54.1418 296.208 54.1418 296.208C54.1418 296.208 54.1824 296.371 54.2231 296.696C54.2638 296.859 54.3045 297.062 54.3451 297.265C54.4265 297.428 54.5078 297.672 54.5892 297.957Z" fill="#4F4F4F"/>
<path d="M91.6057 215.91C91.6057 215.91 91.1176 216.358 90.6294 216.846C90.1413 217.293 89.6532 217.782 89.6532 217.782C89.6532 217.782 89.9379 217.171 90.2227 216.602C90.5074 216.032 90.7921 215.422 90.7921 215.422C90.7921 215.422 91.6464 214.446 92.5006 213.47C92.9074 212.982 93.3955 212.534 93.7209 212.168C94.0463 211.843 94.2904 211.599 94.2904 211.599C94.2904 211.599 94.1277 211.843 93.8429 212.249C93.5582 212.656 93.1921 213.144 92.8667 213.714C92.2565 214.812 91.6057 215.91 91.6057 215.91Z" fill="#4F4F4F"/>
<path d="M88.677 319.557C89.1245 320.004 89.5312 320.492 89.816 320.858C90.1007 321.225 90.2634 321.469 90.2634 321.469C90.2634 321.469 90.5482 321.997 90.9956 322.77C91.4837 323.543 92.0939 324.56 92.7854 325.536C93.477 326.513 94.2091 327.489 94.9413 328.058C95.6329 328.669 96.1617 328.994 96.1617 328.994C96.1617 328.994 95.6329 328.709 94.86 328.18C94.0871 327.692 93.2329 326.797 92.4193 325.862C91.6058 324.926 90.8736 323.95 90.3041 323.218C89.7346 322.486 89.4092 321.957 89.4092 321.957C89.4092 321.957 89.2872 321.672 89.0838 321.265C88.8804 320.858 88.6363 320.33 88.2702 319.882C87.9448 319.394 87.4974 318.987 87.1313 318.825C86.9279 318.743 86.7652 318.703 86.6431 318.703C86.5211 318.703 86.4398 318.703 86.4398 318.703C86.4398 318.703 86.5211 318.703 86.6431 318.662C86.7652 318.662 86.9686 318.662 87.172 318.703C87.6601 318.784 88.1889 319.109 88.677 319.557Z" fill="#4F4F4F"/>
<path d="M92.9483 358.241C93.1923 357.956 93.5178 357.753 93.7618 357.59C94.0059 357.427 94.1686 357.346 94.1686 357.346C94.1686 357.346 94.5754 357.265 95.1448 357.183C95.7143 357.102 96.4872 356.98 97.2194 356.817C97.9516 356.655 98.5618 356.37 98.9279 355.963C99.0092 355.882 99.0906 355.76 99.1719 355.719C99.2126 355.638 99.2533 355.556 99.294 355.475C99.3753 355.353 99.416 355.272 99.416 355.272C99.416 355.272 99.3753 355.353 99.3346 355.516C99.3346 355.597 99.294 355.678 99.2533 355.8C99.2126 355.882 99.1312 356.004 99.0906 356.126C98.8058 356.614 98.1957 357.061 97.5041 357.346C96.8126 357.672 96.1211 357.875 95.5923 358.078C95.0635 358.282 94.7788 358.404 94.7788 358.404C94.7788 358.404 94.0059 358.485 93.3957 358.729C93.0703 358.851 92.7855 359.055 92.6228 359.258C92.4601 359.461 92.3788 359.624 92.3788 359.624C92.3788 359.624 92.4195 359.421 92.5008 359.177C92.5008 358.811 92.6635 358.485 92.9483 358.241Z" fill="#4F4F4F"/>
<path d="M53.1655 55.9665C53.1655 56.0072 53.1249 56.0886 53.1249 56.1293C52.9622 56.7394 52.7994 57.3089 52.5554 57.8784C52.352 58.3258 52.1486 58.7733 51.8639 59.1801C50.9283 60.6851 49.7486 61.9055 48.5283 63.0037C46.0063 65.1597 43.2809 66.8274 41.2064 69.4715L40.8403 69.9189L40.6369 69.3901C39.9047 67.5596 39.2132 65.6478 38.603 63.7359C38.2776 62.7597 37.9928 61.8241 37.7488 60.8072C37.5047 59.8309 37.22 58.814 37.0979 57.7157C37.0979 57.7157 37.0572 57.2682 37.0979 56.4547C37.1386 55.7632 37.3827 54.7869 37.7488 53.8106C37.7081 53.8106 37.6674 53.8106 37.5861 53.8106C37.5047 53.8106 37.464 53.892 37.3827 53.9327C37.22 54.0547 37.0979 54.1767 36.9759 54.3801C36.8132 54.7055 36.6505 55.1123 36.4878 55.5191C36.1217 56.5767 35.8369 57.8784 35.7963 59.1801C35.6742 61.0106 35.8776 62.8004 36.081 64.1834C36.2844 65.5258 36.4471 66.4207 36.4471 66.4207C36.4471 66.4207 36.6098 68.2511 36.8945 70.041C36.9759 70.4884 37.0573 70.9359 37.1386 71.3426C37.22 71.7494 37.342 72.1155 37.5454 72.2782C37.7488 72.4003 38.0335 72.2375 38.1149 72.1155C38.1962 71.9528 38.1556 71.8308 38.1556 71.8308C38.1556 71.8308 38.2369 71.9528 38.1556 72.1562C38.0742 72.3189 37.8301 72.6036 37.464 72.4816C37.2606 72.4003 37.0979 72.1562 37.0166 71.9121C36.9759 71.7901 36.8945 71.6681 36.8539 71.5053C36.7725 71.2613 36.6912 71.0172 36.6098 70.7732C36.5691 70.6104 36.4878 70.4477 36.4471 70.2443C36.2844 69.6749 36.1217 69.1054 35.9997 68.5766C35.7149 67.519 35.5522 66.7054 35.5522 66.7054C35.5522 66.7054 35.4302 65.7698 35.3081 64.3868C35.1861 63.0038 35.1047 61.0919 35.3081 59.2207C35.5115 57.3089 36.1217 55.4784 36.8539 54.3394C37.0166 54.0547 37.2606 53.8513 37.464 53.77L37.5047 53.7293C37.5861 53.7293 37.6267 53.7293 37.7081 53.7293C37.7488 53.5666 37.8301 53.4445 37.8708 53.2818C37.9928 53.0378 38.1149 52.753 38.2369 52.509C38.8064 51.2886 39.4572 49.9056 40.1487 48.4412C40.7182 47.2616 41.3284 46.0412 41.9792 44.8209C42.9962 42.8684 44.1351 40.9972 45.2334 39.3701C45.8029 38.5159 46.4131 37.7023 46.9012 37.0108C47.6741 36.0346 48.3249 35.2617 48.8131 34.7329C49.3012 34.2041 49.5859 33.9193 49.5859 33.9193C49.5859 33.9193 49.3012 34.2448 48.8537 34.7736C48.4063 35.3024 47.7554 36.1159 47.0232 37.1329C46.7792 37.4583 46.4944 37.8651 46.2504 38.2718C44.9894 40.1837 43.5656 42.543 42.386 45.1056C40.9216 48.1565 39.5386 51.3293 38.603 53.6886C38.1555 54.8682 37.9522 55.8445 37.9115 56.536C37.8708 57.2275 37.9522 57.6343 37.9522 57.6343C38.0335 58.6106 38.2776 59.5462 38.5216 60.5224C38.7657 61.4987 39.0098 62.4749 39.2945 63.4105C39.8233 65.1597 40.4335 66.8681 41.0436 68.5359C43.1996 66.0952 45.8029 64.5088 48.1622 62.5563C49.3825 61.4987 50.5622 60.3597 51.4571 58.936C52.3927 57.553 52.9215 55.8852 53.0435 54.1767C53.3282 50.7191 52.8808 47.2209 51.9452 43.9667C51.4978 42.3396 50.8063 40.7938 50.4402 39.1261C50.2775 38.4752 50.1961 37.8244 50.1554 37.1329C50.0741 36.0752 50.074 34.977 50.1147 33.8787C50.1147 35.4244 50.1147 36.9702 50.3995 38.4752C50.4401 38.6786 50.4808 38.882 50.5215 39.0854C50.9283 40.7532 51.6605 42.2582 52.1079 43.8853C53.0435 46.9768 53.5316 50.2717 53.4096 53.6073C53.4096 53.8106 53.4096 53.9733 53.4096 54.1767C53.4096 54.7462 53.2876 55.3564 53.1655 55.9665Z" fill="#4F4F4F"/>
<path d="M46.4538 68.4545C46.2504 68.7392 46.1284 68.8612 46.1284 68.8612C46.1284 68.8612 45.8437 69.146 45.4369 69.5934C45.0301 70.0409 44.4606 70.6104 43.8505 71.1799C43.2403 71.7087 42.5488 72.1561 42.02 72.3595C41.9386 72.4002 41.8979 72.4002 41.8573 72.4002C41.6946 72.4815 41.4912 72.5222 41.3691 72.5629C41.2064 72.6036 41.1251 72.6036 41.1251 72.6036C41.1251 72.6036 41.4912 72.4815 41.9793 72.1968C42.4674 71.912 43.0776 71.3832 43.5657 70.7731C44.0945 70.1629 44.542 69.5121 44.9081 68.9833C45.2742 68.4951 45.5182 68.129 45.5182 68.129C45.5182 68.129 45.6403 67.9663 45.925 67.7223C46.1691 67.4782 46.5352 67.1121 46.9826 66.7053C47.9182 65.8918 49.1792 65.0376 50.3182 63.9799C50.8063 63.5325 51.2538 63.0444 51.6199 62.5155C52.1487 61.7834 52.5554 61.0105 52.7588 60.319C52.9215 59.7088 53.0029 59.18 53.0029 58.8139C53.0029 58.6105 53.0029 58.4885 53.0029 58.3664C53.0029 58.2851 53.0029 58.2037 53.0029 58.2037C53.0029 58.2037 53.0436 58.4071 53.0843 58.7732C53.1249 59.1393 53.0842 59.6681 52.9622 60.319C52.7181 61.58 51.8233 63.1257 50.6843 64.3054C49.586 65.5257 48.325 66.5019 47.5114 67.3562C46.9826 67.8443 46.6572 68.2104 46.4538 68.4545Z" fill="#4F4F4F"/>
<path d="M43.3622 103.519L42.8334 104.942C42.5486 105.674 42.1012 106.203 41.6537 106.651L39.9452 109.051L39.0504 110.027L38.1961 110.922C37.0978 113.078 36.0402 114.99 36.0402 114.99C36.0402 114.99 37.2199 112.386 38.2775 109.742C38.4402 109.335 38.6029 108.929 38.7656 108.522C38.969 107.505 38.969 106.407 38.7656 105.349C39.0097 105.959 39.1317 106.651 39.2131 107.342C39.8232 105.674 40.2707 104.413 40.2707 104.413C40.2707 104.413 40.8809 103.112 41.491 101.851C42.1012 100.549 42.6706 99.2474 42.6706 99.2474C42.6706 99.2474 42.3046 100.63 41.8978 102.054C41.491 103.437 41.0842 104.82 41.0842 104.82C41.0842 104.82 40.5147 106.122 39.7419 107.749L42.3859 104.658L43.3622 103.519Z" fill="#4F4F4F"/>
<path d="M124.026 194.27C123.985 193.253 123.944 192.195 123.985 191.178C124.026 190.487 124.148 189.836 124.27 189.145C124.555 187.721 125.002 186.297 125.49 184.873C124.921 186.704 124.392 188.534 124.189 190.406C124.148 190.65 124.107 190.934 124.107 191.178C123.985 193.253 124.351 195.287 124.514 197.361C124.636 199.436 124.636 201.511 124.392 203.544C124.229 205.375 123.985 207.205 123.578 208.995C123.538 209.239 123.497 209.483 123.416 209.727C123.212 210.419 122.927 211.11 122.643 211.802C122.602 211.843 122.602 211.883 122.561 211.965C122.439 212.209 122.358 212.453 122.195 212.656C121.992 213.063 121.748 213.429 121.504 213.836C121.178 214.324 120.812 214.812 120.405 215.259C119.022 216.805 117.314 218.066 115.565 219.124C112.148 221.32 108.487 222.948 105.518 225.998L104.989 226.527L104.785 225.836C104.094 223.436 103.524 220.954 103.036 218.392C102.792 217.09 102.548 215.829 102.467 214.527C102.345 213.226 102.182 211.883 102.304 210.46C102.304 210.46 102.345 209.849 102.548 208.792C102.751 207.897 103.199 206.717 103.972 205.497C103.931 205.456 103.85 205.456 103.768 205.497C103.687 205.497 103.606 205.578 103.524 205.619C103.321 205.741 103.077 205.904 102.914 206.107C102.629 206.514 102.345 206.961 102.06 207.49C101.368 208.792 100.758 210.419 100.392 212.127C100.148 213.307 99.9854 214.487 99.904 215.585C99.8633 216.724 99.8633 217.741 99.904 218.636C99.9447 220.426 100.026 221.565 100.026 221.565C100.026 221.565 99.904 223.924 100.107 226.283C100.189 226.853 100.229 227.463 100.311 227.992C100.351 228.52 100.474 229.008 100.758 229.212C101.043 229.415 101.368 229.212 101.49 229.049C101.612 228.846 101.572 228.683 101.572 228.683C101.572 228.683 101.653 228.846 101.531 229.09C101.409 229.334 101.084 229.619 100.636 229.415C100.392 229.293 100.189 228.968 100.067 228.642C99.9854 228.48 99.9447 228.317 99.904 228.114C99.8633 227.87 99.782 227.625 99.7413 227.422C99.66 227.097 99.6193 226.812 99.5379 226.486V226.446C99.5379 226.405 99.5379 226.364 99.4973 226.324C99.4159 225.876 99.3346 225.47 99.2532 225.063C99.1312 224.412 99.0498 223.761 99.0091 223.273C98.9278 222.378 98.8464 221.809 98.8464 221.809C98.8464 221.809 98.8464 220.588 98.8871 218.758C98.9278 216.927 99.0905 214.446 99.8227 212.046C100.474 209.605 101.612 207.327 102.751 205.985C103.036 205.7 103.362 205.456 103.687 205.416C103.728 205.416 103.728 205.375 103.768 205.375C103.85 205.375 103.931 205.375 104.012 205.416C104.134 205.253 104.216 205.049 104.338 204.887C104.541 204.602 104.785 204.277 104.989 203.951C106.046 202.446 107.226 200.819 108.528 199.111C109.504 197.809 110.562 196.507 111.741 195.287C113.206 193.66 114.711 192.114 116.134 190.731C116.582 190.324 117.029 189.958 117.517 189.592C118.534 188.738 119.511 188.006 120.405 187.355C121.666 186.46 122.765 185.809 123.538 185.362C124.311 184.955 124.758 184.711 124.758 184.711C124.758 184.711 124.311 184.955 123.578 185.443C122.846 185.931 121.748 186.623 120.528 187.558C120.121 187.843 119.673 188.209 119.267 188.575C118.331 189.307 117.395 190.121 116.419 191.056C115.036 192.48 113.612 194.067 112.189 195.734C111.497 196.589 110.806 197.443 110.114 198.256C109.504 199.151 108.894 200.005 108.284 200.819C107.104 202.568 106.046 204.155 105.111 205.497C104.175 206.88 103.809 208.1 103.606 208.995C103.443 209.89 103.443 210.419 103.443 210.419C103.362 211.68 103.443 212.941 103.565 214.243C103.687 215.504 103.809 216.805 104.053 218.066C104.46 220.344 104.948 222.581 105.518 224.778C108.609 221.971 112.026 220.426 115.28 218.514C117.029 217.497 118.656 216.317 120.039 214.853C120.731 214.121 121.3 213.307 121.789 212.412C122.317 211.558 122.724 210.622 123.009 209.646C123.578 207.693 123.863 205.619 124.026 203.585C124.27 201.551 124.351 199.477 124.27 197.443C124.229 196.344 124.107 195.328 124.026 194.27Z" fill="#4F4F4F"/>
<path d="M111.822 225.917C111.822 225.917 111.416 226.243 110.846 226.69C110.236 227.178 109.463 227.829 108.69 228.439C107.877 229.049 106.982 229.537 106.29 229.741C106.209 229.781 106.127 229.782 106.046 229.822C105.802 229.904 105.599 229.944 105.477 229.944C105.273 229.985 105.151 229.985 105.151 229.985C105.151 229.985 105.599 229.863 106.249 229.537C106.9 229.212 107.673 228.602 108.365 227.91C109.097 227.137 109.748 226.405 110.277 225.876C110.805 225.307 111.171 224.941 111.171 224.941C111.171 224.941 111.375 224.778 111.7 224.493C112.026 224.209 112.554 223.802 113.165 223.395C114.426 222.541 116.134 221.687 117.68 220.629C118.371 220.182 119.022 219.653 119.592 219.083C120.365 218.351 120.975 217.538 121.341 216.765C121.666 216.114 121.829 215.504 121.87 215.056C121.91 214.853 121.91 214.649 121.91 214.568C121.91 214.446 121.91 214.405 121.91 214.405C121.91 214.405 121.951 214.649 121.91 215.097C121.87 215.544 121.788 216.155 121.504 216.887C120.975 218.31 119.592 219.938 118.005 221.158C116.46 222.419 114.792 223.395 113.653 224.331C113.083 224.778 112.636 225.185 112.31 225.47C111.985 225.754 111.822 225.917 111.822 225.917Z" fill="#4F4F4F"/>
<path d="M155.347 359.461C153.924 357.387 151.646 354.661 148.717 352.099C143.795 347.665 137.449 343.801 132.731 339.773C132.649 339.692 132.527 339.611 132.446 339.529C132.405 339.529 132.324 339.57 132.243 339.611C132.446 339.773 132.568 339.855 132.568 339.855C132.568 339.855 132.446 339.773 132.202 339.611C131.917 339.692 131.51 339.855 130.941 340.058C130.005 340.343 128.663 340.75 127.321 340.912C126.548 341.034 125.734 341.075 124.961 341.075L124.026 342.458L122.724 342.621L123.171 341.401L124.026 341.075C123.822 341.075 123.578 341.034 123.375 341.034C122.277 340.912 121.544 340.709 121.544 340.709C121.544 340.709 120.08 340.099 118.738 339.123C118.087 338.634 117.477 338.065 117.029 337.658C116.622 337.211 116.338 336.885 116.338 336.885C116.338 336.885 116.663 337.129 117.151 337.496C117.639 337.821 118.29 338.228 118.982 338.553C120.365 339.204 121.748 339.489 121.748 339.489C121.748 339.489 121.91 339.57 122.236 339.651C122.155 339.611 122.114 339.57 122.114 339.57C122.114 339.57 121.91 339.204 121.707 338.797C121.504 338.431 121.26 338.024 121.26 338.024C121.26 338.024 121.666 338.146 122.073 338.309C122.48 338.472 122.887 338.675 122.887 338.675C122.887 338.675 123.375 339.326 123.782 340.058C124.758 340.262 126.019 340.424 127.239 340.384C128.582 340.343 129.924 340.14 130.9 339.936C131.47 339.814 131.876 339.692 132.161 339.651C132.039 339.57 131.917 339.489 131.795 339.367C131.307 339.041 130.656 338.553 129.843 337.984C129.07 337.455 128.175 336.763 127.117 336.153C125.938 335.421 124.555 334.729 123.049 334.363C122.846 334.323 122.602 334.282 122.399 334.241C121.219 333.997 119.999 333.835 118.819 333.713C117.436 333.55 116.094 333.346 114.995 333.102C112.758 332.614 111.253 332.085 111.253 332.085C108.975 331.272 106.819 330.174 104.663 328.953C106.128 330.54 107.511 332.167 108.975 333.794C111.375 336.56 113.897 339.448 116.826 341.767C119.592 344.045 122.846 345.631 125.978 345.997C126.1 345.997 126.222 346.038 126.385 346.038C128.012 346.201 129.599 346.038 130.819 345.143C131.876 344.411 132.405 343.068 132.243 341.807C132.202 341.604 132.202 341.441 132.161 341.238C132.243 341.401 132.243 341.604 132.243 341.767C132.487 343.068 131.958 344.451 130.9 345.265C129.68 346.2 128.053 346.404 126.385 346.282C123.131 346.119 119.592 344.492 116.582 342.173C116.256 341.929 115.931 341.645 115.605 341.36C115.28 341.075 114.914 340.79 114.589 340.506C112.392 338.553 110.399 336.397 108.487 334.282C106.006 331.557 103.768 328.913 101.043 326.675L101.45 325.78C104.745 327.855 108.039 329.563 111.416 330.743C111.416 330.743 112.107 331.028 113.287 331.435C113.775 331.597 114.385 331.801 115.036 331.963C115.605 332.126 116.216 332.289 116.826 332.411C117.436 332.533 118.087 332.696 118.778 332.818C120.161 333.062 121.666 333.306 123.131 333.753C124.595 334.241 125.938 334.974 127.077 335.706C127.849 336.235 128.5 336.723 129.11 337.211C129.395 337.414 129.68 337.658 129.924 337.821C130.737 338.431 131.348 338.96 131.795 339.285C131.958 339.407 132.08 339.489 132.161 339.57C132.283 339.529 132.365 339.529 132.405 339.529C132.08 339.245 131.795 338.96 131.51 338.716C131.063 338.309 130.656 337.943 130.249 337.536C125.246 332.574 120.934 324.641 117.233 319.353C115.321 316.669 113.978 314.35 112.839 312.764C111.741 311.137 111.131 310.242 111.131 310.242C111.131 310.242 110.806 309.794 110.358 308.94C109.87 308.086 109.178 306.906 108.365 305.442C107.551 303.977 106.494 302.309 105.639 300.357C104.785 298.404 103.931 296.289 103.117 294.133C102.263 291.977 101.775 289.74 101.206 287.666C100.921 286.445 100.636 285.266 100.351 284.167C100.189 283.354 100.026 282.581 99.9039 281.889C99.5785 279.896 99.3345 278.31 99.2124 277.293C99.009 276.479 98.8057 275.503 98.5616 274.323C98.0328 271.273 97.504 267.164 97.2599 263.015C97.1786 258.866 97.0972 254.676 97.504 251.544C97.8294 248.412 98.1141 246.378 98.1141 246.378C98.1141 246.378 98.1548 246.134 98.2362 245.686C98.3175 245.239 98.4396 244.588 98.643 243.856C99.0497 242.351 99.5785 240.358 100.148 238.364C100.433 237.388 100.758 236.412 101.043 235.476C101.409 234.581 101.694 233.768 101.978 233.036C102.385 232.019 102.711 231.246 102.833 230.88C102.873 230.758 102.914 230.676 102.914 230.676C102.914 230.676 102.873 230.758 102.833 230.88C102.711 231.246 102.467 232.019 102.101 233.076C101.856 233.809 101.612 234.663 101.328 235.598C101.124 236.534 100.88 237.551 100.636 238.527C100.189 240.52 99.7819 242.554 99.5378 244.059C99.3751 244.832 99.2938 245.442 99.2531 245.89C99.2124 246.337 99.1718 246.581 99.1718 246.581C99.1718 246.581 98.8463 248.575 98.3989 251.666C97.9107 254.717 97.8294 258.866 97.7887 262.974C97.8701 267.083 98.2768 271.232 98.6836 274.283C98.9277 275.788 99.1718 277.089 99.3751 277.944C99.5379 278.839 99.6599 279.327 99.6599 279.327C99.6599 279.327 99.5378 278.839 99.3344 277.944C99.4565 278.554 99.5785 279.327 99.7412 280.181C99.8226 280.669 99.9446 281.198 100.026 281.808C100.311 283.476 100.921 285.428 101.45 287.462V287.503C102.06 289.577 102.629 291.774 103.524 293.849C104.378 295.964 105.273 298.038 106.209 299.91C107.063 301.781 108.243 303.408 109.056 304.831C109.911 306.255 110.643 307.435 111.131 308.248C111.619 309.062 111.944 309.509 111.944 309.509C111.944 309.509 112.555 310.445 113.612 312.072C114.711 313.659 116.012 316.058 117.883 318.784C119.755 321.469 121.626 324.845 123.782 328.14C125.897 331.435 128.134 334.607 130.534 337.129C135.049 341.97 142.941 346.607 148.676 351.977C151.564 354.58 153.842 357.346 155.225 359.461C155.958 360.478 156.405 361.373 156.771 361.983C157.097 362.594 157.3 362.878 157.3 362.878C157.3 362.878 157.137 362.553 156.771 361.983C156.568 361.373 156.08 360.478 155.347 359.461Z" fill="#4F4F4F"/>
<path d="M99.7006 277.944C99.7006 277.944 99.6599 277.537 99.5785 276.845C99.5379 276.154 99.4565 275.137 99.5785 273.957C99.8226 271.557 100.88 268.547 102.304 265.944C103.646 263.3 105.639 261.022 106.9 259.313C108.202 257.605 109.016 256.466 109.016 256.466C110.317 254.676 111.741 252.805 112.636 250.73L113.531 251.137C113.002 252.642 112.595 254.229 112.433 255.856C112.433 256.018 112.433 256.222 112.392 256.385C112.27 257.849 112.229 259.313 112.229 260.778C112.067 264.113 112.392 267.449 111.741 270.784C111.416 272.289 111.09 273.794 110.48 275.178C110.439 275.3 110.358 275.462 110.317 275.584C110.277 275.666 110.195 275.747 110.155 275.869C109.504 277.252 108.609 278.513 107.633 279.693C105.517 282.174 103.524 284.574 101.531 287.177C103.443 284.533 105.355 282.011 107.429 279.489C108.406 278.228 109.341 276.886 109.951 275.381C110.561 273.917 110.928 272.289 111.212 270.662C111.782 267.367 111.375 264.113 111.456 260.737C111.456 259.069 111.456 257.401 111.538 255.693C111.578 255.246 111.66 254.798 111.741 254.31C111.131 255.286 110.48 256.262 109.829 257.198C109.829 257.198 108.934 258.337 107.551 259.964C106.168 261.632 104.175 263.747 102.711 266.228C101.49 268.181 100.555 270.378 100.026 272.371C99.9039 272.9 99.7412 273.388 99.7006 273.876C99.5379 275.015 99.5785 276.032 99.5785 276.723C99.6599 277.537 99.7006 277.944 99.7006 277.944Z" fill="#4F4F4F"/>
<path d="M107.796 269.727L108.853 268.222L108.365 270.052C108.121 270.988 107.633 271.72 107.104 272.33C107.023 272.493 106.901 272.655 106.819 272.859C106.128 274.201 105.436 275.544 105.436 275.544L104.501 276.927L103.646 278.228C103.24 279.489 102.833 280.669 102.507 281.605C102.06 282.866 101.816 283.72 101.816 283.72C101.816 283.72 101.979 282.825 102.345 281.523C102.67 280.221 103.118 278.432 103.524 276.723C103.646 276.194 103.768 275.625 103.85 275.096C103.89 273.794 103.728 272.452 103.321 271.191C103.687 271.923 103.972 272.737 104.175 273.591C104.663 271.435 105.07 269.767 105.07 269.767C105.07 269.767 105.68 268.1 106.25 266.432C106.534 265.578 106.819 264.764 107.023 264.154C107.267 263.544 107.389 263.137 107.389 263.137C107.389 263.137 107.307 263.584 107.185 264.235C107.063 264.886 106.941 265.781 106.819 266.635C106.494 268.384 106.209 270.174 106.209 270.174C106.209 270.174 105.64 271.842 104.989 273.998C105.273 273.51 105.68 272.9 106.087 272.289C106.941 270.947 107.796 269.727 107.796 269.727Z" fill="#4F4F4F"/>
</svg>
