<svg width="399" height="545" viewBox="0 0 399 545" fill="none" xmlns="http://www.w3.org/2000/svg">
<path d="M7.70776 21.8744C7.70776 21.8744 8.26098 21.9359 9.18301 22.0589C10.1665 22.1203 11.5803 22.1203 13.2399 22.2433C16.6207 22.3047 21.1694 21.9974 25.7181 21.5056C30.2667 20.9524 34.631 20.4607 37.9503 20.0304C41.3925 19.6616 43.7284 19.3542 43.7284 19.3542C43.7284 19.3542 48.4 18.924 55.9606 18.3707C63.5212 17.8175 74.0324 17.4487 84.7279 16.5882C95.4234 15.7276 106.119 14.3138 113.925 12.8386C115.954 12.4698 117.614 12.1009 119.212 11.8551C120.748 11.5477 122.101 11.2404 123.207 11.056C125.42 10.6257 126.649 10.3184 126.649 10.3184C126.649 10.3184 125.42 10.5642 123.207 11.056C122.101 11.3019 120.748 11.6092 119.212 11.9165C117.614 12.2239 115.892 12.5927 113.925 13.023C106.119 14.6212 95.4234 16.1579 84.7279 17.1414C74.0324 18.1249 63.5212 18.6781 56.0221 19.2928C48.4614 19.9689 43.7898 20.4607 43.7898 20.4607C43.7898 20.4607 41.454 20.6451 38.0118 20.9524C34.631 21.2598 30.2667 21.69 25.7181 22.0589C21.1694 22.4277 16.5592 22.6121 13.1785 22.4891C11.5188 22.3662 10.105 22.3047 9.12154 22.2433C8.19951 21.9974 7.70776 21.8744 7.70776 21.8744Z" fill="#1D1D1C"/>
<path d="M1.99097 -3.14331C1.99097 -3.14331 2.29831 -2.09834 2.85153 -0.561627C3.40475 1.03656 4.2653 2.94208 5.37174 4.78614C6.4167 6.6302 7.70754 8.28985 8.75251 9.45775C9.79748 10.5642 10.5351 11.3018 10.5351 11.3018C10.5351 11.3018 11.9489 12.7771 14.4076 14.5596C16.8664 16.3422 20.493 18.0634 24.3041 19.0469C28.1766 20.0918 32.1106 20.2148 34.9381 20.2148C36.4134 20.1533 37.6427 20.0303 38.5033 19.9689C39.3639 19.8459 39.8556 19.7845 39.8556 19.7845C39.8556 19.7845 39.3639 19.8459 38.5033 19.9689C37.6427 20.0303 36.4134 20.1533 34.9381 20.3377C32.1106 20.3992 28.1151 20.3992 24.2426 19.4771C20.3701 18.6166 16.682 16.9569 14.1003 15.2358C11.5801 13.4532 10.1048 11.978 10.1048 11.978C10.1048 11.978 9.3672 11.1789 8.3837 10.011C7.4002 8.72013 6.17083 6.99901 5.12587 5.03201C4.0809 3.12649 3.28181 1.03656 2.79006 -0.561627C2.29831 -2.03687 1.99097 -3.14331 1.99097 -3.14331Z" fill="#1D1D1C"/>
<path d="M48.3384 36.1965C48.3384 36.1965 52.9485 35.3359 57.3128 33.7992C61.7385 32.3239 65.9184 30.3569 65.9184 30.3569C65.9184 30.3569 68.0698 29.4349 71.2047 28.0826C74.3396 26.6688 78.5809 24.7018 82.6993 22.6734C90.9976 18.6164 99.4802 15.0513 99.4802 15.0513C99.4802 15.0513 91.1205 18.8623 83.0067 23.1651C78.9497 25.3165 74.7699 27.4065 71.635 28.8817C68.5001 30.3569 66.3487 31.3404 66.3487 31.3404C66.3487 31.3404 61.9844 33.0616 57.4972 34.2909C53.01 35.5818 48.3384 36.1965 48.3384 36.1965Z" fill="#1D1D1C"/>
<path d="M80.7937 -15.6213C80.7937 -15.6213 81.8387 -15.314 83.3754 -14.6378C84.9121 -14.0232 86.9406 -12.9782 88.7846 -11.6873C90.6287 -10.3965 92.3498 -8.92126 93.5177 -7.69189C94.6856 -6.46252 95.3618 -5.60196 95.3618 -5.60196C95.3618 -5.60196 95.6691 -5.17168 96.2838 -4.37259C96.837 -3.5735 97.6361 -2.46706 98.804 -1.29916C101.017 1.09811 104.766 3.61833 108.823 5.33945C112.88 7.1835 117.122 8.47434 120.257 9.3349C123.391 10.134 125.481 10.6257 125.481 10.6257C125.481 10.6257 123.391 10.2569 120.195 9.51931C116.999 8.78169 112.696 7.55232 108.578 5.8312C104.398 4.17155 100.525 1.77427 98.1278 -0.684477C96.8985 -1.91385 96.0994 -3.02028 95.4847 -3.75791C94.87 -4.49553 94.5627 -4.9258 94.5627 -4.9258C94.5627 -4.9258 92.1039 -8.55245 88.5387 -11.2571C86.8176 -12.6094 84.8506 -13.7158 83.3754 -14.4534C81.8387 -15.1911 80.7937 -15.6213 80.7937 -15.6213Z" fill="#1D1D1C"/>
<path d="M123.268 10.8101C123.33 10.7486 123.084 10.933 123.023 10.8716C122.961 10.6872 123.023 10.7486 123.084 10.6872L123.268 10.6257L123.637 10.4413C124.19 10.1954 124.682 10.011 124.682 10.011C124.682 10.011 125.789 9.94955 126.895 9.88808C128.063 9.88808 129.169 9.76514 129.169 9.76514C129.169 9.76514 128.063 10.1339 127.018 10.3798C125.973 10.6872 124.867 10.9945 124.867 10.9945C124.867 10.9945 124.313 10.933 123.699 10.933L123.268 10.8716H123.084C123.023 10.8101 122.961 10.933 122.838 10.7486C123.207 10.6872 123.268 10.8101 123.268 10.8101Z" fill="#1D1D1C"/>
<path d="M143.184 6.93767C143.184 6.93767 145.09 6.75326 147.979 6.50739C150.806 6.07711 154.679 6.07711 158.429 5.64683C162.24 5.21655 166.051 5.15508 168.878 4.97067C171.706 4.78627 173.611 4.66333 173.611 4.66333C173.611 4.66333 177.422 4.7248 183.139 4.84773C188.855 5.15508 196.478 5.7083 203.854 7.42942C207.603 8.10557 211.169 9.45788 214.488 10.5643C217.807 11.6707 220.758 13.2075 223.401 14.1295C225.982 15.113 228.195 15.7891 229.794 16.2194C231.392 16.5882 232.314 16.7112 232.314 16.7112C232.314 16.7112 231.392 16.6497 229.794 16.2809C228.195 15.8506 225.982 15.2359 223.339 14.3139C220.696 13.3919 217.746 11.9166 214.365 10.8717C211.046 9.82669 207.419 8.53585 203.731 7.92116C196.355 6.32298 188.733 5.8927 183.077 5.70829C177.361 5.70829 173.611 5.70829 173.611 5.70829C173.611 5.70829 171.706 5.76977 168.878 5.83123C166.051 5.95417 162.24 5.83123 158.429 6.13858C154.617 6.38445 150.806 6.32298 147.917 6.63032C145.09 6.8762 143.184 6.93767 143.184 6.93767Z" fill="#1D1D1C"/>
<path d="M220.327 13.0844C220.327 13.0844 220.082 12.9 219.651 12.5312C219.221 12.1623 218.668 11.5477 218.053 10.7486C216.824 9.21185 215.533 6.87604 213.935 4.78611C212.337 2.69618 210.185 1.03653 208.525 -0.131376C206.804 -1.23781 205.698 -1.91397 205.698 -1.91397C205.698 -1.91397 203.424 -3.38921 199.981 -5.66355C196.478 -7.99935 191.683 -10.4581 186.52 -12.9783C181.418 -15.2526 175.947 -17.0352 171.706 -18.0802C167.464 -19.0022 164.575 -19.3096 164.575 -19.3096C164.575 -19.3096 167.526 -19.0022 171.767 -18.2031C176.009 -17.2811 181.602 -15.6215 186.766 -13.4086C191.99 -11.0728 196.908 -8.67551 200.473 -6.40117C203.977 -4.24977 206.313 -2.77452 206.313 -2.77452C206.313 -2.77452 207.419 -2.0369 209.079 -0.807529C210.677 0.483311 212.828 2.2659 214.365 4.47877C215.902 6.69164 217.07 9.08891 218.176 10.6871C218.729 11.4862 219.282 12.1623 219.651 12.5312C220.082 12.8385 220.327 13.0844 220.327 13.0844Z" fill="#1D1D1C"/>
<path d="M129.477 7.36771C129.477 7.36771 129.17 8.22827 128.862 9.64205C128.555 10.9329 128.555 13.0228 129.846 14.3751C131.075 15.666 133.042 15.543 134.21 15.2972C134.825 15.1742 135.316 14.9283 135.685 14.8054C135.993 14.621 136.177 14.5595 136.177 14.5595C136.177 14.5595 137.775 13.8834 139.496 11.732C141.217 9.70352 143.307 6.63009 144.783 3.18785C145.52 1.52819 146.135 -0.438801 147.487 -1.72964C148.839 -3.02048 150.376 -3.63517 151.483 -4.61866C152.528 -5.54069 153.081 -6.7086 153.142 -7.50769C153.204 -7.93797 153.081 -8.24531 153.081 -8.42972C153.019 -8.61412 152.958 -8.73706 152.958 -8.73706C152.958 -8.73706 153.019 -8.61412 153.081 -8.42972C153.142 -8.24531 153.204 -7.8765 153.204 -7.44622C153.204 -6.58566 152.651 -5.41776 151.606 -4.43426C150.561 -3.38929 149.024 -2.71314 147.733 -1.4223C146.442 -0.131458 145.95 1.7126 145.274 3.49519C143.861 7.06037 141.894 10.3182 140.172 12.4696C139.312 13.5146 138.451 14.4366 137.775 14.9283C137.468 15.1742 137.16 15.3586 136.976 15.4816C136.792 15.6045 136.669 15.666 136.669 15.666C136.669 15.666 136.423 15.7889 136.054 15.9118C135.685 16.0348 135.071 16.2807 134.394 16.3421C133.718 16.4651 132.858 16.4651 131.997 16.2807C131.137 16.0963 130.153 15.666 129.477 14.8669C128.125 13.2072 128.309 11.0558 128.739 9.76498C129.108 8.22827 129.477 7.36771 129.477 7.36771Z" fill="#1D1D1C"/>
<path d="M152.282 -16.7894C152.282 -16.7894 152.896 -15.7444 153.204 -13.9618C153.572 -12.2407 153.634 -9.78194 153.142 -7.44614C152.712 -5.11033 151.974 -2.83599 151.421 -1.11487C150.868 0.544779 150.499 1.65121 150.499 1.65121C150.56 1.65121 150.192 2.20443 150.13 3.00352C150.13 3.37233 150.315 3.74115 150.868 4.10996C151.114 4.23289 151.482 4.4173 151.79 4.47877C152.22 4.6017 152.527 4.66317 152.958 4.72464C154.556 4.90905 156.584 4.4173 158.244 3.12646C159.105 2.51177 159.842 1.65121 160.334 0.667717C160.764 -0.315781 161.195 -1.54515 161.502 -2.59012C162.178 -4.80299 162.67 -7.13879 162.239 -9.2902C161.748 -11.3801 160.641 -13.3471 160.887 -15.1912C161.01 -16.1132 161.317 -16.9123 161.871 -17.404C162.424 -17.9573 163.1 -18.1417 163.592 -18.3261C164.084 -18.5105 164.514 -18.7564 164.698 -18.9408C164.883 -19.1252 164.944 -19.3096 164.944 -19.3096C164.944 -19.3096 164.883 -19.1866 164.698 -18.9408C164.514 -18.6949 164.145 -18.5105 163.592 -18.2646C163.1 -18.0187 162.424 -17.8343 161.932 -17.2811C161.44 -16.7279 161.072 -15.9903 161.01 -15.1297C160.826 -13.3471 161.932 -11.5031 162.485 -9.2902C163.039 -7.07733 162.547 -4.61858 161.932 -2.34424C161.625 -1.17634 161.317 -0.131374 160.826 1.03653C160.272 2.14296 159.535 3.12646 158.613 3.80261C156.83 5.27786 154.679 5.89254 152.835 5.70814C152.343 5.64667 151.913 5.58521 151.544 5.52374C151.114 5.4008 150.745 5.27786 150.376 5.09345C149.638 4.72464 149.085 3.92555 149.085 3.2494C149.147 1.95856 149.454 1.46681 149.454 1.46681C149.454 1.46681 149.884 0.360374 150.56 -1.23781C151.175 -2.89746 152.036 -5.04886 152.589 -7.3232C153.142 -9.59754 153.265 -11.9948 152.958 -13.7159C152.835 -15.6829 152.282 -16.7894 152.282 -16.7894Z" fill="#1D1D1C"/>
<path d="M129.292 6.81464C129.292 6.81464 130.399 4.3559 132.059 2.14303C133.595 -0.131308 135.624 -2.15977 135.624 -2.15977C135.624 -2.15977 136.669 -3.14327 138.39 -4.2497C139.25 -4.80292 140.234 -5.47907 141.34 -6.15523C142.324 -7.01579 143.369 -7.93782 144.291 -8.98279C145.274 -9.96628 146.135 -11.0727 146.627 -12.2406C147.18 -13.4085 147.241 -14.6379 146.995 -15.6214C146.504 -17.6499 144.844 -18.1416 144.906 -18.1416C144.906 -18.1416 145.274 -18.0187 145.766 -17.7113C146.258 -17.3425 146.872 -16.6664 147.118 -15.6829C147.426 -14.6994 147.426 -13.4085 146.934 -12.1792C146.442 -10.9498 145.582 -9.72041 144.66 -8.67544C143.738 -7.56901 142.693 -6.58551 141.832 -5.66348C140.787 -4.86439 139.804 -4.12677 138.943 -3.51208C137.283 -2.28271 136.361 -1.36068 136.361 -1.36068C136.361 -1.36068 134.271 0.421909 132.489 2.51184C130.706 4.5403 129.292 6.81464 129.292 6.81464Z" fill="#1D1D1C"/>
<path d="M209.079 38.9012C209.079 38.9012 210.185 38.9012 211.783 38.9627C213.443 38.9627 215.594 39.0242 217.807 38.8398C222.233 38.471 226.659 37.7333 226.659 37.7333C226.659 37.7333 227.212 37.6719 228.195 37.4875C229.179 37.3645 230.593 37.0572 232.314 36.6884C235.694 36.1351 240.243 34.9058 244.853 33.3076C247.128 32.57 249.402 31.7094 251.615 30.7874C253.828 29.9268 255.979 29.4351 257.823 29.1277C259.667 28.8204 261.204 28.5745 262.249 28.3901C263.355 28.2057 263.97 28.0828 263.97 28.0828C263.97 28.0828 263.355 28.2057 262.249 28.4516C261.204 28.636 259.667 28.9433 257.823 29.3121C256.041 29.6195 253.828 30.2342 251.738 31.0947C249.586 32.0167 247.312 33.0003 244.976 33.7993C240.366 35.5205 235.756 36.8728 232.375 37.5489C230.654 37.9792 229.24 38.2865 228.257 38.4709C227.212 38.6554 226.72 38.7168 226.72 38.7168C226.72 38.7168 222.233 39.2086 217.807 39.3315C215.594 39.393 213.443 39.2086 211.783 39.0856C210.124 38.9627 209.079 38.9012 209.079 38.9012Z" fill="#1D1D1C"/>
<path d="M198.137 40.4994C198.137 40.4994 198.076 41.1756 197.83 42.0976C197.584 43.0197 197.092 44.3105 196.293 45.2325C195.494 46.1545 194.388 46.5848 193.527 46.5848C193.097 46.5848 192.728 46.4619 192.544 46.4004C192.298 46.339 192.175 46.216 192.175 46.216C192.175 46.216 191.929 46.0931 191.56 45.6628C191.191 45.2325 190.761 44.4949 190.515 43.5729C190.269 42.5894 190.085 41.4215 190.208 40.1306C190.331 38.8398 190.761 37.426 191.683 36.5655C192.605 35.7049 193.834 35.3361 194.818 35.6434C195.863 35.8893 196.662 36.6269 197.154 37.3645C197.646 38.1022 197.953 38.8398 198.076 39.393C198.199 39.9462 198.26 40.2536 198.26 40.2536C198.26 40.2536 198.199 39.9462 198.076 39.393C197.891 38.9013 197.646 38.1636 197.092 37.4875C196.539 36.8113 195.74 36.1352 194.818 36.0122C193.896 35.8278 192.79 36.1966 191.99 36.9957C191.191 37.7948 190.884 39.0857 190.823 40.1921C190.761 41.36 190.945 42.405 191.253 43.2655C191.499 44.1261 191.867 44.6793 192.175 44.9252C192.482 45.2325 192.667 45.294 192.667 45.294C192.667 45.294 193.035 45.6013 193.712 45.7243C194.388 45.8472 195.371 45.6013 196.17 44.8637C196.969 44.1261 197.584 43.0197 197.891 42.0976C198.076 41.1756 198.137 40.4994 198.137 40.4994Z" fill="#1D1D1C"/>
<path d="M190.146 40.6223C190.146 40.6223 188.855 40.5609 186.95 40.4379C185.966 40.3765 184.86 40.315 183.63 40.315C182.401 40.315 181.11 40.315 179.881 40.6223C178.651 40.9297 177.607 41.7903 176.992 43.0196C176.316 44.249 175.332 45.171 174.41 45.6628C173.488 46.1545 172.628 46.2775 172.074 46.2775C171.521 46.2775 171.152 46.216 171.152 46.216C171.152 46.216 170.968 46.216 170.661 46.0931C170.353 45.9701 169.923 45.8472 169.37 45.4784C168.325 44.8637 166.85 43.204 166.358 40.6838C165.805 38.2251 166.112 35.0902 167.772 32.6929C169.37 30.2956 172.013 28.6974 174.718 28.0828C177.484 27.5295 180.25 27.7139 182.831 27.9598C185.413 28.2057 187.749 29.0048 189.716 29.8039C191.621 30.603 193.097 31.5865 194.08 32.3856C195.002 33.1846 195.555 33.6764 195.555 33.6764C195.555 33.6764 195.002 33.2461 194.019 32.447C193.035 31.7094 191.56 30.7874 189.654 29.9883C187.749 29.2507 185.352 28.513 182.831 28.3286C180.25 28.1442 177.484 28.0213 174.84 28.636C172.197 29.2507 169.739 30.9103 168.263 33.1847C166.727 35.459 166.481 38.348 167.034 40.4994C167.526 42.7123 168.755 44.1261 169.739 44.6178C170.23 44.9251 170.599 45.0481 170.845 45.1096C171.152 45.171 171.275 45.2325 171.275 45.2325C171.275 45.2325 171.583 45.294 172.074 45.3554C172.566 45.3554 173.304 45.294 174.164 44.9251C174.963 44.4949 175.824 43.8802 176.562 42.6508C176.93 42.0976 177.361 41.4829 177.975 41.0526C178.529 40.6224 179.205 40.3765 179.819 40.2535C181.11 39.9462 182.463 40.0691 183.63 40.1306C184.86 40.1921 185.966 40.3765 186.95 40.4379C188.855 40.4994 190.146 40.6223 190.146 40.6223Z" fill="#1D1D1C"/>
<path d="M195.986 33.1231C195.986 33.1231 196.416 33.0001 196.846 32.3854C197.277 31.7707 197.522 30.4799 197.092 29.2505C196.6 28.0212 195.371 27.0991 194.019 26.5459C192.605 26.0542 191.068 25.6239 189.531 25.2551C186.397 24.5174 183.2 24.3945 180.803 24.5789C179.635 24.6404 178.59 24.7019 177.914 24.7633C177.176 24.8248 176.746 24.7633 176.746 24.7633C175.885 24.7019 174.963 24.5175 174.164 23.9028C173.365 23.3495 172.689 22.489 172.566 21.3211V21.0137L172.812 20.8908C176.254 18.6165 180.311 17.51 184.368 17.1412C188.425 17.0798 192.543 17.8174 196.17 19.7229C199.797 21.6899 202.932 24.456 205.206 27.8982C205.759 28.7588 206.312 29.6808 206.743 30.6643C207.173 31.5863 207.603 32.6313 207.726 33.7377C207.911 34.8442 207.48 35.9506 207.48 37.057C207.48 37.6103 207.665 38.1635 208.095 38.4094C208.464 38.7167 209.017 38.7782 209.324 38.2249C209.078 38.7782 208.464 38.7167 208.095 38.4708C207.665 38.2249 207.48 37.6717 207.48 37.1185C207.48 36.0121 207.849 34.9056 207.665 33.8607C207.357 31.7093 206.128 29.9267 205.083 28.2056C202.747 24.8248 199.612 22.1816 196.047 20.2761C192.482 18.4935 188.425 17.8174 184.491 18.0018C180.557 18.4321 176.623 19.6614 173.365 21.8743L173.55 21.444C173.611 22.1816 174.103 22.8578 174.718 23.2881C175.332 23.7184 176.131 23.9028 176.869 23.9642C176.869 23.9642 177.238 24.0257 177.914 23.9642C178.59 23.9642 179.635 23.9028 180.864 23.9028C183.323 23.8413 186.581 24.1486 189.716 25.0092C191.314 25.378 192.851 25.9312 194.265 26.4844C195.678 27.0991 196.908 28.1441 197.338 29.4349C197.768 30.7872 197.461 32.0166 197.031 32.6313C196.416 33.0616 195.986 33.1231 195.986 33.1231Z" fill="#1D1D1C"/>
<path d="M190.146 72.6473C190.146 72.6473 190.269 72.8317 190.515 73.0776C190.761 73.3234 191.13 73.6308 191.622 73.8152C192.544 74.2455 193.957 74.1225 195.187 73.2005C196.416 72.3399 197.584 70.9262 198.383 69.8197C199.182 68.7748 199.735 68.0371 199.735 68.0371C199.735 68.0371 200.043 67.6683 200.534 67.1151C201.026 66.5004 201.702 65.5784 202.501 64.472C204.1 62.1976 206.128 58.7554 207.235 54.8214C208.402 50.8259 208.095 46.6461 208.464 43.5726C208.648 42.0359 208.894 40.7451 209.202 39.8845C209.324 39.4543 209.447 39.1469 209.57 38.901C209.632 38.6552 209.693 38.5322 209.693 38.5322C209.693 38.5322 209.632 38.6552 209.57 38.901C209.509 39.1469 209.386 39.4543 209.263 39.8845C209.017 40.7451 208.771 42.0359 208.648 43.5726C208.341 46.6461 208.71 50.8259 207.665 54.9443C206.62 59.0627 204.53 62.6894 202.993 65.0867C202.194 66.316 201.518 67.2381 201.026 67.9142C200.534 68.5289 200.227 68.8977 200.227 68.8977C200.227 68.8977 199.612 69.5739 198.752 70.5574C197.891 71.6023 196.662 72.9546 195.31 73.7537C193.957 74.6143 192.544 74.6143 191.56 74.0611C191.068 73.8152 190.699 73.4464 190.515 73.2005C190.208 72.8317 190.146 72.6473 190.146 72.6473Z" fill="#1D1D1C"/>
<path d="M190.331 73.0777C190.331 73.0777 190.208 72.9548 190.085 72.6474C189.9 72.4016 189.716 71.9713 189.47 71.4181C189.04 70.3116 188.732 68.5291 188.917 66.7465C189.04 64.9639 189.593 63.1813 190.331 62.1363C190.638 61.5831 191.007 61.2143 191.253 60.9684C191.499 60.7225 191.622 60.5996 191.622 60.5996C191.56 60.2308 196.539 58.5097 200.412 53.2234C202.317 50.7032 203.669 47.5068 204.1 44.9251C204.346 43.6343 204.407 42.5278 204.346 41.7902C204.346 41.0526 204.284 40.6223 204.284 40.6223C204.284 40.6223 204.346 41.0526 204.407 41.7902C204.468 42.5278 204.407 43.6343 204.223 44.9251C203.854 47.5068 202.563 50.8876 200.657 53.5307C198.752 56.2968 196.478 58.3253 194.756 59.4932C193.896 60.1079 193.158 60.5381 192.666 60.9069C192.236 61.2758 191.929 61.4602 191.929 61.4602C191.929 61.4602 191.806 61.5831 191.56 61.7675C191.314 61.9519 191.007 62.2593 190.7 62.6895C190.023 63.5501 189.409 65.0868 189.224 66.7465C188.978 68.4061 189.224 70.1887 189.532 71.2951C189.716 71.8484 189.9 72.2786 190.023 72.586C190.269 72.9548 190.331 73.0777 190.331 73.0777Z" fill="#1D1D1C"/>
<path d="M188.855 69.697C188.855 69.697 188.732 69.9429 188.425 70.2502C188.118 70.5576 187.687 70.9264 187.134 71.1108C186.028 71.6025 184.43 71.5411 182.893 70.9264C182.155 70.619 181.418 70.1887 180.803 69.5126C180.188 68.8979 179.635 67.9759 179.451 66.9924C179.266 66.0089 179.328 65.2713 179.328 64.718C179.389 64.2263 179.389 63.919 179.389 63.919C179.819 60.8455 181.295 58.2024 183.262 56.6657C185.229 55.2519 187.442 54.7601 189.47 53.6537C191.56 52.5473 193.588 51.3179 195.678 50.027C196.723 49.4124 197.83 48.6747 198.383 47.3839C198.998 46.0931 198.998 44.4334 198.444 43.204C198.076 42.9582 197.83 42.5279 197.768 42.0361C197.83 42.5279 198.137 42.9582 198.444 43.1426C199.059 44.3719 199.059 46.0931 198.506 47.4454C197.891 48.8591 196.785 49.5968 195.74 50.2729C193.711 51.6252 191.621 52.9161 189.531 54.1454C187.442 55.3133 185.29 55.928 183.446 57.2803C181.602 58.7556 180.373 61.2758 180.004 64.0419C180.004 64.0419 179.697 65.2098 179.881 66.685C180.065 68.2218 181.418 69.6355 182.831 70.3117C184.245 71.0493 185.782 71.2337 186.95 70.8649C187.503 70.6805 187.933 70.3731 188.241 70.1273C188.732 69.9429 188.855 69.697 188.855 69.697Z" fill="#1D1D1C"/>
<path d="M273.436 5.58532C273.436 5.58532 273.068 6.0156 272.33 6.50735C271.654 6.99909 270.609 7.61378 269.441 7.98259C268.273 8.3514 267.105 8.47434 266.122 8.41287C265.63 8.3514 265.2 8.22847 264.892 8.10553C264.585 7.98259 264.462 7.85965 264.462 7.85965C264.093 7.55231 263.847 6.99909 263.786 6.63028C263.724 6.2 263.724 5.83119 263.724 5.46238C263.724 4.72475 263.724 3.98713 263.847 3.18804C264.032 1.7128 265.138 0.114612 266.798 -0.192731C268.396 -0.561542 270.117 0.11461 271.285 1.15958C272.453 2.26601 273.129 3.67979 273.436 5.15503C273.682 5.27797 274.051 5.09357 274.174 4.84769C274.113 5.15503 273.744 5.33944 273.436 5.21651C273.006 3.80273 272.268 2.45042 271.101 1.46692C269.994 0.483422 268.396 -0.00832492 266.982 0.421955C265.568 0.790767 264.769 2.08161 264.708 3.37245C264.646 4.0486 264.646 4.78622 264.708 5.46238C264.769 6.2 264.769 6.87616 265.2 7.12203C265.2 7.12203 265.445 7.42937 266.245 7.61378C267.044 7.73671 268.212 7.79818 269.318 7.55231C270.424 7.3679 271.531 6.93763 272.269 6.50735C273.006 5.95413 273.436 5.58532 273.436 5.58532Z" fill="#1D1D1C"/>
<path d="M273.928 4.78618C273.928 4.72471 276.51 4.47883 276.571 4.5403C276.571 4.5403 277.862 4.90912 279.03 5.5238C280.198 6.13849 281.181 6.93758 281.181 6.93758C281.181 6.93758 280.013 6.32289 278.845 6.01555C277.616 5.64674 276.387 5.58527 276.387 5.58527C276.387 5.5238 273.989 4.72471 273.928 4.78618Z" fill="#1D1D1C"/>
<path d="M232.621 12.7771C232.621 12.7771 232.56 13.0844 232.498 13.6377C232.437 14.1909 232.437 14.9285 232.56 15.8505C232.806 17.6331 233.85 19.9075 235.572 21.3827C237.293 22.858 239.506 23.4726 241.165 23.5956C242.026 23.7185 242.702 23.7185 243.194 23.7185C243.685 23.7185 243.993 23.7185 243.993 23.7185C243.993 23.7185 244.546 23.78 245.591 23.78C246.574 23.78 248.05 23.7185 249.771 23.657C253.213 23.4726 257.946 22.4277 262.556 21.1983C267.166 20.0304 271.9 18.2478 275.403 17.1414C278.968 15.9735 281.304 15.2358 281.304 15.2358C281.304 15.2358 278.968 16.0964 275.465 17.3258C272.022 18.4937 267.289 20.3992 262.679 21.7515C258.069 23.1038 253.275 24.2717 249.771 24.5791C247.988 24.7635 246.574 24.7635 245.53 24.8249C244.485 24.8864 243.931 24.8249 243.931 24.8249C243.931 24.8249 243.624 24.8249 243.132 24.7635C242.64 24.702 241.903 24.702 241.042 24.5176C239.321 24.2717 236.985 23.5341 235.264 21.813C233.543 20.1533 232.621 17.6946 232.437 15.8505C232.314 14.9285 232.375 14.1294 232.437 13.6377C232.56 13.0844 232.621 12.7771 232.621 12.7771Z" fill="#1D1D1C"/>
<path d="M233.482 13.5761C233.482 13.5761 233.236 13.5147 232.928 13.0844C232.682 12.7156 232.621 11.9165 232.928 11.1788C233.236 10.3798 234.219 9.82654 235.203 9.76507C236.248 9.7036 237.293 9.94948 238.276 10.1954C240.305 10.6256 242.333 11.0559 243.87 11.3018C245.406 11.4862 246.451 11.6706 246.451 11.6706C246.451 11.6706 248.48 12.0394 251.615 12.2853C254.688 12.6541 258.93 12.9 263.171 12.5926C265.261 12.5312 267.412 12.4082 269.379 12.1009C271.346 11.855 273.252 11.5477 274.604 10.6871C275.956 9.82654 276.51 8.47423 276.571 7.5522C276.571 7.12192 276.51 6.75311 276.448 6.50724C276.325 6.26136 276.325 6.13843 276.325 6.13843C276.325 6.13843 276.387 6.26136 276.51 6.50724C276.571 6.75311 276.694 7.12192 276.694 7.5522C276.694 8.47423 276.141 9.82654 274.788 10.81C273.436 11.7935 271.469 12.1623 269.502 12.4697C267.535 12.777 265.384 13.0229 263.232 13.1458C258.93 13.5761 254.688 13.5147 251.553 13.2073C248.357 13.0229 246.328 12.7156 246.328 12.7156C246.328 12.7156 245.283 12.5312 243.747 12.2238C242.21 11.855 240.182 11.3018 238.215 10.7486C237.231 10.5027 236.248 10.1339 235.264 10.1339C234.342 10.1339 233.482 10.5642 233.113 11.2403C232.744 11.9165 232.744 12.6541 232.99 13.0229C233.236 13.4532 233.482 13.5761 233.482 13.5761Z" fill="#1D1D1C"/>
<path d="M276.755 4.47885C276.755 4.47885 276.755 4.35592 276.755 4.04858C276.755 3.8027 276.694 3.37242 276.571 2.88067C276.325 1.89717 275.526 0.606335 274.174 -0.623037C271.469 -3.14325 266.613 -4.8029 261.819 -5.41759C257.024 -6.15521 252.045 -6.21668 248.541 -6.15521C246.759 -6.09374 245.345 -5.9708 244.3 -5.7864C243.255 -5.60199 242.702 -5.47906 242.702 -5.47906C242.702 -5.47906 241.534 -5.23318 239.505 -4.86437C237.477 -4.49556 234.526 -3.88088 230.838 -4.37262C230.408 -4.43409 229.916 -4.49556 229.486 -4.67997C229.056 -4.8029 228.564 -4.86437 228.011 -5.23318C227.519 -5.54052 227.212 -6.33962 227.396 -6.89284C227.519 -7.44605 227.765 -7.9378 228.134 -8.36808C228.81 -9.22864 229.793 -9.72039 230.654 -10.3351C231.576 -10.9498 232.498 -11.503 233.482 -11.9947C237.477 -14.0232 242.21 -15.3755 247.189 -15.8672C252.168 -16.2361 257.331 -15.6214 261.88 -14.2691C266.429 -12.7324 270.486 -10.7654 273.498 -8.49102C276.571 -6.21668 278.784 -4.06528 280.198 -2.46709C280.874 -1.668 281.427 -1.05332 281.796 -0.561569C282.165 -0.0698204 282.288 0.176052 282.288 0.176052C282.288 0.176052 282.103 -0.0698214 281.734 -0.500102C281.366 -0.930382 280.874 -1.60653 280.136 -2.40563C278.722 -4.00381 276.448 -6.15521 273.375 -8.36808C270.301 -10.581 266.244 -12.4865 261.757 -13.9003C257.208 -15.1911 252.107 -15.6828 247.25 -15.314C242.333 -14.7608 237.661 -13.347 233.85 -11.3186C232.867 -10.7654 231.945 -10.2121 231.084 -9.65892C230.224 -9.04424 229.302 -8.49102 228.748 -7.81486C228.134 -7.13871 227.949 -6.21668 228.503 -5.84787C228.748 -5.66346 229.24 -5.54053 229.67 -5.41759C230.101 -5.29465 230.531 -5.23318 230.961 -5.17171C234.404 -4.8029 237.231 -5.35612 239.26 -5.7864C241.288 -6.21668 242.456 -6.46255 242.456 -6.46255C242.456 -6.46255 243.071 -6.58549 244.116 -6.7699C245.161 -6.9543 246.697 -7.07724 248.48 -7.07724C252.107 -7.01577 257.024 -6.83137 261.88 -5.97081C266.736 -5.23318 271.654 -3.38913 274.297 -0.745976C275.649 0.544863 276.387 1.89717 276.632 2.88067C276.755 3.37242 276.755 3.8027 276.755 4.04858C276.755 4.29445 276.755 4.47885 276.755 4.47885Z" fill="#1D1D1C"/>
<path d="M282.964 -0.131195C282.964 -0.131195 283.087 -0.622944 283.271 -1.4835C283.456 -2.34406 283.64 -3.57344 283.701 -5.04868C283.824 -7.99917 283.025 -12.0561 280.935 -15.8057C278.907 -19.6167 275.465 -22.6902 272.576 -24.3498C269.687 -26.1324 267.535 -26.87 267.535 -26.87C267.535 -26.87 266.49 -27.3618 264.585 -27.8535C263.601 -28.0994 262.372 -28.2838 260.958 -28.7756C259.606 -29.2673 257.762 -30.4352 257.577 -32.3407C257.516 -34.3077 259.975 -35.3527 262.065 -35.0454C264.216 -34.738 266.244 -34.0619 268.396 -33.2013C272.576 -31.4802 276.817 -29.1444 280.444 -26.1939C282.226 -24.7186 283.947 -23.059 285.177 -21.2764C286.468 -19.4938 287.328 -17.5268 287.82 -15.6827C288.803 -11.8717 288.373 -8.24505 287.697 -5.35603C287.328 -3.88078 286.836 -2.65141 286.713 -1.42204C286.529 -0.254131 286.713 0.852303 287.144 1.65139C288.004 3.31105 289.295 3.55692 289.234 3.55692C289.295 3.55692 287.943 3.37251 287.082 1.71286C286.652 0.913769 286.468 -0.192665 286.59 -1.42204C286.713 -2.65141 287.205 -3.94225 287.513 -5.35603C288.127 -8.24505 288.496 -11.8717 287.451 -15.5598C286.959 -17.4039 286.037 -19.2479 284.808 -21.0305C283.517 -22.7516 281.857 -24.3498 280.075 -25.8251C276.448 -28.6526 272.268 -30.8655 268.15 -32.5251C266.121 -33.3242 263.97 -33.9389 262.126 -34.1848C260.282 -34.4307 258.561 -33.5086 258.684 -32.2178C258.807 -30.9884 260.159 -30.0049 261.327 -29.6361C262.556 -29.2058 263.786 -29.0829 264.831 -28.7756C266.859 -28.2838 267.966 -27.7921 267.966 -27.7921C267.966 -27.7921 270.24 -26.9315 273.19 -25.026C276.141 -23.1819 279.583 -19.8626 281.55 -15.9286C283.579 -12.0561 284.193 -7.93771 284.009 -4.98722C283.886 -3.4505 283.701 -2.22113 283.456 -1.42204C283.087 -0.622944 282.964 -0.131195 282.964 -0.131195Z" fill="#1D1D1C"/>
<path d="M288.988 3.3724C288.988 3.3724 289.234 3.80268 289.91 4.04855C290.586 4.29443 291.815 4.23296 292.676 3.43387C293.598 2.63477 294.274 1.4054 295.012 0.176029C295.319 -0.500126 295.626 -1.17628 295.688 -1.9139C295.749 -2.65153 295.565 -3.45062 295.319 -4.24971C294.766 -5.78642 294.336 -7.56901 294.766 -9.10573C295.135 -10.6424 295.995 -11.8718 296.917 -12.7324C297.839 -13.5929 298.884 -14.0847 299.622 -14.392C300.359 -14.6379 300.851 -14.7608 300.851 -14.7608C300.851 -14.7608 301.097 -14.8223 301.466 -14.8838C301.896 -14.9452 302.572 -15.0067 303.433 -14.9452C305.093 -14.8223 307.551 -14.3306 310.133 -12.8553C310.748 -12.4865 311.424 -12.1177 312.038 -11.6259C312.161 -11.5645 312.161 -11.5645 312.346 -11.3801L312.53 -11.1957L312.715 -11.0113C312.899 -10.7654 312.776 -10.9498 312.776 -10.8883L312.838 -10.8268C312.838 -10.8268 312.899 -10.7039 312.899 -10.6424C313.083 -10.0278 312.776 -9.59748 312.469 -9.3516C312.1 -9.10573 311.67 -8.92132 311.178 -8.92132C310.625 -8.92132 310.194 -9.10573 309.764 -9.29013C308.904 -9.65895 308.227 -10.1507 307.49 -10.3351C306.015 -10.7654 304.416 -10.0278 303.494 -8.85985C302.572 -7.69195 302.081 -6.15523 302.081 -4.61852C302.081 -3.81943 302.204 -3.02034 302.449 -2.22125C302.634 -1.42216 303.126 -0.684531 303.31 0.176029C303.679 1.95862 302.511 3.31093 301.466 4.35589C299.253 6.5073 296.364 7.36786 293.967 7.98254C291.569 8.53576 289.541 8.90457 288.435 9.88807C287.328 10.8101 287.39 11.7321 287.328 11.7321C287.39 11.7936 287.328 10.8101 288.373 9.88807C289.479 8.90457 291.508 8.41282 293.905 7.8596C296.241 7.18345 299.069 6.26142 301.159 4.17149C302.142 3.12652 303.187 1.77421 302.818 0.237496C302.634 -0.500127 302.203 -1.23775 301.896 -2.09831C301.65 -2.8974 301.466 -3.75796 301.466 -4.61852C301.466 -6.27817 301.896 -7.93783 302.88 -9.29013C303.863 -10.5195 305.584 -11.503 307.551 -11.0113C308.535 -10.7654 309.272 -10.2122 309.949 -9.96629C310.625 -9.65894 311.239 -9.65894 311.67 -10.0278C311.854 -10.2122 311.916 -10.3966 311.916 -10.5195C311.916 -10.5195 311.916 -10.5195 311.916 -10.581L311.854 -10.6424C311.916 -10.581 311.793 -10.7654 311.916 -10.581L311.731 -10.7654L311.547 -10.9498C311.608 -10.8883 311.424 -11.0113 311.362 -11.0727C310.748 -11.503 310.133 -11.8718 309.58 -12.1792C307.182 -13.47 304.908 -13.9003 303.433 -13.9617C302.695 -14.0232 302.142 -13.9617 301.773 -13.9003C301.404 -13.8388 301.159 -13.7773 301.159 -13.7773C301.159 -13.7773 300.79 -13.7159 300.052 -13.5315C299.376 -13.3471 298.454 -12.9168 297.593 -12.1792C296.733 -11.4415 295.872 -10.3966 295.503 -8.98279C295.319 -8.30664 295.196 -7.63048 295.319 -6.76992C295.381 -6.0323 295.626 -5.23321 295.872 -4.43411C296.057 -3.63502 296.241 -2.77446 296.118 -1.97537C295.995 -1.11481 295.688 -0.438658 295.319 0.237496C294.52 1.52834 293.782 2.69624 292.799 3.43387C291.815 4.23296 290.586 4.23295 289.848 3.92561C289.234 3.80268 288.988 3.3724 288.988 3.3724Z" fill="#1D1D1C"/>
<path d="M259.36 57.5262L266.121 41.9747C266.121 41.9747 267.043 40.0691 268.396 37.1801C269.072 35.7049 270.117 34.0452 271.654 32.6929C273.129 31.3406 274.911 30.2342 276.51 28.8818C279.767 26.2387 281.427 22.1203 282.656 19.2313C282.964 18.4937 283.21 17.8175 283.148 17.1413C283.148 16.5267 282.902 15.9734 282.534 15.6046C281.857 14.867 281.181 15.0514 281.243 14.9899C281.181 14.9899 281.857 14.867 282.595 15.5432C282.902 15.912 283.21 16.4037 283.271 17.0799C283.333 17.756 283.087 18.4937 282.841 19.2313C281.673 22.1203 280.198 26.3002 276.817 29.1892C275.219 30.603 273.436 31.8323 272.084 33.1232C270.67 34.414 269.748 36.0122 269.133 37.426C267.843 40.315 266.982 42.2205 266.982 42.2205L259.36 57.5262Z" fill="#1D1D1C"/>
<path d="M258.868 57.895C258.868 57.895 259.114 57.895 259.606 57.9565C260.098 58.018 260.712 58.018 261.573 57.9565C263.232 57.7721 265.445 57.0959 267.474 55.9895C269.564 54.883 271.469 53.3463 272.76 52.0555C274.051 50.7647 274.789 49.7812 274.789 49.7812C274.789 49.7812 276.448 47.9371 278.415 44.7407C280.382 41.5444 282.472 36.9342 284.193 32.2011C285.976 27.4681 287.205 22.5506 287.943 18.801C288.68 15.0514 288.926 12.4697 288.926 12.4697C288.926 12.4697 288.742 15.0514 288.127 18.801C287.513 22.5506 286.345 27.5295 284.685 32.3241C283.025 37.1186 281.058 41.7902 279.091 45.1095C277.186 48.4288 275.465 50.3958 275.465 50.3958C275.465 50.3958 275.219 50.6417 274.85 51.072C274.42 51.5023 273.928 52.0555 273.19 52.6702C271.777 53.961 269.748 55.4363 267.597 56.4812C265.445 57.4647 263.171 58.0794 261.511 58.1409C260.712 58.1409 260.036 58.1409 259.544 58.0794C259.114 57.9565 258.868 57.895 258.868 57.895Z" fill="#1D1D1C"/>
<path d="M289.295 12.654C289.357 12.7155 288.619 12.4696 288.496 11.7935C288.312 11.1173 288.742 10.5026 288.742 10.5026C288.742 10.4412 289.664 9.76501 290.463 9.21179C291.324 8.59711 292.184 7.98242 292.184 7.98242C292.184 7.98242 291.508 8.78151 290.832 9.5806C290.156 10.3797 289.541 11.1788 289.541 11.1788C289.541 11.1788 289.111 11.3632 288.988 11.7935C288.865 12.2238 289.295 12.654 289.295 12.654Z" fill="#1D1D1C"/>
<path d="M253.09 22.7964C253.09 22.7964 254.75 23.3496 256.471 23.9028C258.192 24.3946 259.79 25.0707 259.79 25.0707C259.79 25.0707 262.925 26.6689 266.06 28.3286C267.658 29.1277 269.134 30.0497 270.302 30.6644C271.469 31.3405 272.207 31.7708 272.207 31.7708C272.207 31.7708 271.408 31.402 270.24 30.7873C269.072 30.2341 267.474 29.435 265.814 28.7588C262.557 27.4065 259.299 25.9928 259.299 25.9928C259.299 25.9928 257.762 25.0707 256.164 24.3331C254.689 23.5955 253.09 22.7964 253.09 22.7964Z" fill="#1D1D1C"/>
<path d="M290.033 11.6091C290.033 11.6091 291.692 12.2853 294.09 13.2073C296.487 14.3138 299.745 15.7275 302.634 17.756C305.584 19.6615 308.412 21.8129 310.317 23.5955C312.223 25.3781 313.452 26.6689 313.452 26.6689C313.452 26.6689 314.067 27.2836 315.05 28.4515C316.034 29.6194 317.448 31.2791 318.8 33.4919C321.689 37.7947 324.701 44.0031 326.238 50.5187C327.037 53.7151 327.467 56.9729 328.02 59.9849C328.574 62.9969 329.311 65.7015 330.172 67.9144C330.971 70.1887 331.893 71.9713 332.63 73.0777C332.999 73.6309 333.368 74.0612 333.614 74.3686C333.86 74.6759 333.983 74.7988 333.983 74.7988C333.983 74.7988 333.86 74.6759 333.614 74.3686C333.368 74.1227 332.999 73.6924 332.63 73.1392C331.831 72.0327 330.848 70.2502 330.049 67.9758C329.188 65.7629 328.389 63.0583 327.713 60.0464C327.098 57.0344 326.545 53.7766 325.746 50.5802C324.086 44.126 321.013 38.1021 318.062 33.9222C316.649 31.7708 315.235 30.2341 314.251 29.0662C313.268 27.9598 312.653 27.3451 312.653 27.3451C312.653 27.3451 311.547 26.0542 309.703 24.2102C307.859 22.3661 305.215 20.1533 302.326 18.1248C299.56 16.0349 296.364 14.4982 294.028 13.3303C291.631 12.3468 290.033 11.6091 290.033 11.6091Z" fill="#1D1D1C"/>
<path d="M283.64 36.9343C283.64 36.9343 291.078 41.6059 298.208 46.7693C301.773 49.351 305.339 51.8712 307.92 53.8997C310.563 55.8667 312.346 57.1575 312.346 57.1575C312.346 57.1575 313.207 57.8336 314.682 59.063C316.157 60.2309 318.308 61.952 320.952 63.9805C323.472 66.1319 326.545 68.3448 329.803 70.9265C332.999 73.5081 336.565 76.3357 338.962 80.1467C341.482 83.7734 343.572 87.6459 345.723 91.0881C347.998 94.4689 349.842 97.7882 351.747 100.431C353.653 103.075 355.005 105.41 356.112 106.947C357.218 108.484 357.833 109.344 357.833 109.344C357.833 109.344 357.218 108.484 356.05 106.947C354.882 105.41 353.468 103.136 351.563 100.493C349.657 97.8497 347.69 94.5919 345.416 91.2111C343.203 87.7688 341.052 83.8963 338.47 80.3926C336.073 76.7045 332.569 73.9384 329.311 71.4182C326.053 68.898 322.857 66.6851 320.337 64.5952C317.694 62.5667 315.542 60.9685 314.006 59.8006C312.53 58.6327 311.67 57.9566 311.67 57.9566C311.67 57.9566 309.949 56.6043 307.367 54.5758C304.847 52.4859 301.343 49.8427 297.901 47.1381C294.52 44.372 290.832 41.9747 288.189 40.0078C286.898 39.0243 285.73 38.2866 284.931 37.7334C284.07 37.2417 283.64 36.9343 283.64 36.9343Z" fill="#1D1D1C"/>
<path d="M252.476 84.5107C252.476 84.5107 254.197 86.2933 256.102 87.7071C257.086 88.3833 258.069 89.0594 258.807 89.5512C259.544 90.0429 260.098 90.2888 260.098 90.2888C260.098 90.2888 261.081 90.9649 262.741 91.5796C264.462 92.1943 266.798 92.809 269.441 92.809C272.084 92.809 274.85 92.6861 276.879 92.809C278.907 92.8705 280.321 92.8705 280.321 92.8705C280.321 92.8705 278.907 92.9319 276.879 92.9319C274.85 92.9319 272.084 93.1778 269.379 93.3008C266.675 93.4237 264.216 92.9319 262.433 92.3787C260.651 91.8255 259.667 91.2108 259.667 91.2108C259.667 91.2108 259.176 90.9035 258.438 90.3503C257.7 89.797 256.778 88.9979 255.918 88.1989C254.012 86.5392 252.476 84.5107 252.476 84.5107Z" fill="#1D1D1C"/>
<path d="M252.844 84.7568C252.844 84.7568 253.521 84.2036 254.566 83.4045C255.611 82.6669 257.086 81.6834 258.623 80.9458C260.159 80.2081 261.696 79.5935 262.925 79.2246C264.093 78.9173 264.892 78.7944 264.892 78.7944C264.892 78.7944 266.491 78.5485 268.826 78.61C271.162 78.61 274.236 79.2247 276.817 80.6384C279.522 81.9293 281.612 84.0807 283.763 84.8798C284.808 85.31 285.792 85.3715 286.529 85.31C287.267 85.2486 287.697 85.0642 287.697 85.1256C287.697 85.1256 287.267 85.31 286.529 85.3715C285.792 85.433 284.808 85.433 283.702 85.0642C281.55 84.388 279.276 82.2981 276.571 81.1302C273.928 79.8393 270.916 79.3476 268.642 79.4705C266.368 79.4705 264.831 79.7779 264.831 79.7779C264.831 79.7779 261.757 80.0237 258.745 81.376C257.209 81.9907 255.734 82.8513 254.689 83.466C253.582 84.2651 252.844 84.7568 252.844 84.7568Z" fill="#1D1D1C"/>
<path d="M281.981 90.1659C281.981 90.1659 281.673 90.6577 281.366 91.3953C281.059 92.1329 280.874 93.1779 280.997 94.0385C281.059 94.9605 281.489 95.6366 281.858 96.1284C282.226 96.5587 282.595 96.6816 282.595 96.6816C283.271 97.1119 284.316 96.7431 285.116 95.8825C285.915 95.022 286.283 93.8541 286.406 92.7476C286.714 90.4733 285.73 88.3833 283.948 87.5228H284.009C283.333 87.7072 282.657 88.2604 282.226 88.9366C282.595 88.1989 283.271 87.5843 284.009 87.3384C285.915 88.1375 287.021 90.1659 286.898 92.6247C286.837 93.7926 286.468 95.1449 285.546 96.2513C285.054 96.8045 284.501 97.2348 283.825 97.5422C283.21 97.788 282.472 97.788 281.981 97.5422C281.981 97.5422 281.55 97.2963 281.182 96.7431C280.813 96.1284 280.505 95.2678 280.505 94.2229C280.505 93.1779 280.813 92.1329 281.182 91.3953C281.673 90.6577 281.981 90.1659 281.981 90.1659Z" fill="#1D1D1C"/>
<path d="M285.177 88.6908C286.406 87.3385 288.066 86.232 289.787 85.8018H289.848L289.91 85.8632C291.078 86.4164 291.938 87.5229 292.369 88.8137C292.369 88.8137 292.737 89.9202 292.492 91.7642C292.246 93.5468 291.385 96.0055 289.725 98.0955C288.926 99.1404 287.697 100.001 286.652 100.185C285.546 100.37 284.746 99.8166 284.378 99.2634C283.947 98.6487 283.886 97.9725 283.947 97.4193C284.009 96.9276 284.132 96.6202 284.132 96.6202C284.132 96.6202 284.009 96.9276 283.947 97.4193C283.947 97.9111 284.009 98.5872 284.439 99.1404C284.869 99.6937 285.669 100.124 286.652 99.8781C287.636 99.6937 288.68 98.8331 289.418 97.8496C290.893 95.8826 291.57 93.4853 291.692 91.8872C291.754 91.0881 291.692 90.4119 291.631 89.9816C291.57 89.5513 291.447 89.3055 291.447 89.3055C291.201 88.1376 290.586 87.0311 289.603 86.4164H289.725C288.189 86.5394 286.529 87.4614 285.177 88.6908Z" fill="#1D1D1C"/>
<path d="M286.652 85.3101C286.652 85.3101 287.082 85.4945 287.881 85.3101C288.68 85.1871 289.91 84.511 290.893 83.2201C291.877 81.9908 292.246 80.0853 291.754 78.4871C291.262 76.8274 290.033 75.5366 288.496 74.676C287.021 73.8155 285.238 73.4466 283.64 72.9549C282.042 72.5246 280.567 72.0943 279.276 71.787C276.756 71.1108 274.973 70.8035 274.973 70.8035C274.973 70.8035 274.789 70.742 274.358 70.6806C273.989 70.5576 273.313 70.4347 272.637 70.0659C272.268 69.8815 271.9 69.5741 271.592 69.0824C271.285 68.5906 271.223 67.7915 271.592 66.9924C272.391 65.5172 273.744 64.9025 275.096 64.2264C277.862 62.9355 281.489 62.4438 284.869 63.3043C288.25 64.2264 291.631 66.1319 293.967 69.0824C296.364 71.9099 298.208 75.1678 299.376 78.5485C300.544 81.8678 301.282 85.0642 300.974 88.0762C300.79 91.0267 299.622 93.4854 299.499 95.1451C299.376 96.0056 299.499 96.6203 299.622 96.9891C299.745 97.3579 299.868 97.5423 299.868 97.5423C299.868 97.5423 299.745 97.3579 299.622 96.9891C299.499 96.6203 299.376 96.0056 299.499 95.1451C299.622 93.4854 300.728 91.0267 300.913 88.0762C301.159 85.0642 300.421 81.9293 299.192 78.6715C298.024 75.3522 296.118 72.1558 293.721 69.4512C291.385 66.6236 288.066 64.841 284.808 63.9805C281.489 63.1814 278.046 63.7961 275.465 65.0255C274.174 65.6401 272.883 66.3778 272.453 67.2998C272.023 68.2218 272.637 68.898 273.252 69.2053C273.867 69.5127 274.42 69.6356 274.85 69.6971C275.28 69.7585 275.465 69.82 275.465 69.82C275.465 69.82 277.186 70.1888 279.706 70.9879C280.997 71.3567 282.472 71.8485 284.009 72.3402C285.607 72.8934 287.39 73.2622 288.865 74.2457C290.402 75.1678 291.692 76.5815 292.123 78.3641C292.614 80.0853 292.184 82.0522 291.078 83.2816C290.033 84.5725 288.803 85.1871 288.004 85.3101C287.021 85.4945 286.652 85.3101 286.652 85.3101Z" fill="#1D1D1C"/>
<path d="M260.651 115.983C260.651 115.983 260.405 116.106 260.036 116.167C259.667 116.29 259.114 116.29 258.561 116.167C258.008 115.983 257.455 115.614 257.024 115.061C256.594 114.508 256.348 113.708 256.164 112.786C256.041 111.926 255.979 110.942 255.979 110.02C255.979 109.098 255.979 108.176 256.164 107.316C256.348 106.455 256.84 105.533 257.332 105.164C257.762 104.734 258.131 104.673 258.131 104.673C258.131 104.673 258.745 104.427 259.483 104.55C260.221 104.611 261.266 104.734 262.495 104.857C265.077 104.918 268.457 105.164 272.268 104.734C276.018 104.365 279.829 103.873 282.902 103.197C284.378 102.89 285.73 102.275 286.468 101.538C287.267 100.8 287.451 100.247 287.451 100.247C287.451 100.247 287.267 100.8 286.529 101.538C285.792 102.275 284.439 102.951 282.902 103.32C279.829 104.058 275.957 104.734 272.145 105.164C268.273 105.718 264.831 105.595 262.188 105.595C260.897 105.595 259.852 105.472 259.114 105.41C258.438 105.349 258.069 105.533 258.069 105.533C258.131 105.533 257.209 105.656 256.778 107.254C256.532 107.992 256.532 108.852 256.471 109.774C256.471 110.696 256.41 111.68 256.532 112.541C256.655 113.401 256.84 114.262 257.209 114.815C257.577 115.43 258.069 115.86 258.561 116.044C259.053 116.229 259.606 116.229 259.975 116.167C260.405 116.044 260.651 115.983 260.651 115.983Z" fill="#1D1D1C"/>
<path d="M258.684 116.413C258.684 116.413 260.712 116.044 262.864 115.368C265.015 114.692 267.228 113.832 267.228 113.832C267.228 113.832 271.531 112.541 276.141 111.434C278.415 110.881 280.69 110.328 282.472 109.529C283.333 109.16 284.07 108.73 284.562 108.361C285.054 107.992 285.3 107.808 285.3 107.808C285.3 107.808 285.054 107.992 284.562 108.361C284.07 108.73 283.394 109.16 282.472 109.59C280.69 110.512 278.415 111.127 276.079 111.803C271.469 113.155 267.105 114.631 267.105 114.631C267.105 114.631 264.831 115.184 262.741 115.737C260.651 116.29 258.684 116.413 258.684 116.413Z" fill="#1D1D1C"/>
<path d="M299.745 96.9891C299.745 96.9891 299.315 98.5873 298.27 100.862C297.286 103.197 295.565 106.209 293.475 109.037C291.385 111.864 288.988 114.446 287.021 116.229C285.115 118.073 283.64 119.118 283.64 119.118C282.165 120.101 280.628 120.716 279.214 121.269C277.739 121.761 276.264 122.376 274.85 122.683C273.436 122.99 272.023 123.113 270.916 122.683C269.871 122.253 269.072 121.331 268.949 119.917V119.671L269.195 119.548C273.928 116.782 278.415 113.217 282.78 109.467C284.931 107.562 287.205 105.718 289.295 103.628C290.279 102.583 291.201 101.415 291.816 100.124C292.43 98.8332 292.676 97.4194 292.369 96.2515C292.676 97.4194 292.43 98.8332 291.877 100.124C291.324 101.415 290.402 102.644 289.418 103.689C287.39 105.841 285.115 107.685 282.964 109.59C278.6 113.463 274.113 117.089 269.318 119.978L269.564 119.61C269.687 120.777 270.424 121.638 271.408 122.007C272.391 122.376 273.682 122.253 275.035 121.945C276.387 121.577 277.862 121.023 279.276 120.47C280.751 119.917 282.103 119.364 283.394 118.38C283.394 118.38 284.747 117.52 286.652 115.737C288.558 114.016 291.016 111.557 293.168 108.791C295.319 106.086 297.102 103.074 298.147 100.8C299.253 98.5873 299.745 96.9891 299.745 96.9891Z" fill="#1D1D1C"/>
<path d="M299.745 97.1733C299.745 97.1733 300.974 97.6651 302.634 98.5257C304.355 99.3247 306.691 100.431 309.026 101.599C311.301 102.706 313.637 103.873 315.419 104.795C317.202 105.595 318.431 106.209 318.431 106.209C318.431 106.209 320.705 107.5 324.332 109.16C327.959 110.881 333.122 112.725 338.9 113.77C344.494 114.938 350.702 115.491 355.189 116.167C357.402 116.72 359 117.827 360.353 117.95C361.705 118.134 362.443 117.519 362.443 117.581C362.443 117.519 361.766 118.134 360.353 118.011C358.939 117.888 357.341 116.782 355.128 116.352C350.702 115.798 344.432 115.368 338.716 114.323C332.876 113.34 327.528 111.618 323.84 109.959C320.091 108.361 317.816 107.131 317.816 107.131C317.816 107.131 316.648 106.517 314.927 105.595C313.206 104.673 310.932 103.382 308.719 102.152C306.445 100.923 304.232 99.6936 302.511 98.833C300.974 97.7266 299.745 97.1733 299.745 97.1733Z" fill="#1D1D1C"/>
<path d="M357.156 107.992C357.156 107.992 358.079 109.221 359.001 110.389C359.861 111.618 360.722 112.848 360.722 112.848C360.722 112.848 362.135 115.491 363.672 118.073C365.147 120.716 366.561 123.359 366.561 123.359C366.561 123.359 364.902 120.839 363.18 118.38C361.398 115.921 359.8 113.401 359.8 113.401C359.8 113.401 359.123 112.049 358.509 110.696C357.833 109.344 357.156 107.992 357.156 107.992Z" fill="#1D1D1C"/>
<path d="M380.084 95.8212C378.179 95.145 377.441 92.8092 377.933 90.9652C378.425 88.9982 380.514 88.0147 382.42 88.322C384.387 88.5064 386.231 89.8587 387.276 91.6413C388.321 93.4239 388.628 95.5753 388.505 97.5423V97.7882L388.26 97.8496C386.6 98.3414 384.817 98.7102 382.973 98.3414C381.191 97.9726 379.285 96.6817 378.609 94.7147C380.146 95.4524 379.039 94.8992 379.347 95.0836H379.285L379.162 95.145L378.978 95.268L378.548 95.4524L377.687 95.8827L376.027 96.7432C374.921 97.3579 373.876 97.9726 372.769 98.5873C371.725 99.202 370.68 99.8781 369.635 100.554L368.098 101.599C367.606 101.968 366.991 102.337 366.746 102.644C366.438 102.952 366.561 103.443 366.623 104.181C366.684 104.734 366.684 105.472 366.5 106.086C366.254 107.377 365.701 108.545 365.209 109.652C364.164 111.864 362.996 114.139 363.549 116.413L363.365 116.229C366.069 116.72 368.897 115.553 371.725 115.184C373.138 114.999 374.614 115.061 376.027 115.553C377.38 115.983 378.67 116.659 380.023 117.028C381.375 117.397 382.85 117.151 384.018 116.352L387.522 113.893L391.026 111.434C391.64 111.004 392.194 110.574 392.624 110.02C393.054 109.467 393.423 108.73 393.177 107.93C393.423 108.668 393.116 109.467 392.685 110.02C392.255 110.574 391.64 111.004 391.087 111.434L387.645 113.954C386.477 114.815 385.309 115.614 384.141 116.475C382.973 117.335 381.375 117.643 379.961 117.274C378.547 116.966 377.257 116.29 375.904 115.86C374.552 115.368 373.2 115.368 371.786 115.553C369.081 115.921 366.254 117.151 363.242 116.721H363.057L362.996 116.536C362.627 115.368 362.812 114.016 363.18 112.848C363.549 111.619 364.102 110.512 364.594 109.406C365.086 108.299 365.578 107.131 365.762 105.964C365.885 105.41 365.885 104.857 365.823 104.242C365.823 103.751 365.516 102.89 366.069 102.214C366.561 101.599 367.114 101.353 367.606 100.923L369.143 99.8166C370.188 99.079 371.233 98.4029 372.278 97.7267C373.323 97.0506 374.429 96.4359 375.474 95.8212L377.134 94.8992L377.994 94.4689L378.425 94.2845L378.609 94.1615L378.732 94.1001H378.793C379.162 94.2845 378.056 93.7312 379.592 94.4689C380.023 95.9441 381.559 97.112 383.035 97.4808C384.633 97.8496 386.354 97.5423 387.952 97.1735L387.706 97.4808C387.891 95.6368 387.706 93.6083 386.723 91.9487C385.801 90.289 384.141 88.9982 382.297 88.7523C380.515 88.4449 378.548 89.244 377.994 91.0881C377.564 92.7478 378.24 95.0836 380.084 95.8212Z" fill="#1D1D1C"/>
<path d="M368.59 100.616C368.59 100.616 367.237 100.001 365.332 99.0174C363.365 97.9109 360.845 96.5586 358.447 95.2063C355.989 93.854 353.407 92.5017 351.87 91.0265C351.071 90.2888 350.456 89.6127 350.088 89.1209C349.719 88.6292 349.473 88.3219 349.473 88.3219C347.383 85.064 346.768 80.8227 347.567 76.9502L347.629 76.6428H347.936C353.776 77.0731 359.431 79.286 364.41 82.6667C366.807 84.4493 369.081 86.4778 371.048 88.7521C372.093 89.8586 372.831 91.1494 373.876 92.3173C374.859 93.4852 376.027 94.4687 377.441 94.9605C376.027 94.5302 374.798 93.4852 373.814 92.3788C372.769 91.2723 371.97 89.9815 370.925 88.8751C368.897 86.6622 366.623 84.6952 364.225 83.0356C359.246 79.7777 353.653 77.8107 347.936 77.5034L348.366 77.196C347.69 80.8227 348.366 84.8181 350.395 87.8301C350.395 87.8301 350.579 88.1374 350.887 88.6292C351.255 89.1209 351.747 89.7356 352.485 90.4733C353.899 92.01 356.296 93.3623 358.755 94.899C361.09 96.3742 363.549 97.8495 365.455 99.0174C367.299 99.9394 368.59 100.616 368.59 100.616Z" fill="#1D1D1C"/>
<path d="M387.707 95.9438C387.707 95.9438 388.014 95.8823 388.506 95.8823C388.997 95.8823 389.612 96.0053 390.288 96.2511C391.579 96.7429 392.624 97.7878 392.624 97.7878C392.624 97.7878 393.116 98.3411 393.608 99.3246C394.099 100.308 394.53 101.66 394.468 103.074C394.468 104.426 394.222 105.779 393.915 106.701C393.608 107.623 393.3 108.176 393.3 108.176C393.3 108.176 393.546 107.561 393.73 106.639C393.915 105.717 394.038 104.365 393.915 103.074C393.792 101.783 393.3 100.554 392.808 99.7548C392.317 98.8943 391.825 98.5255 391.825 98.5255C391.825 98.5255 391.149 97.4805 390.042 96.7429C388.997 96.0667 387.707 95.9438 387.707 95.9438Z" fill="#1D1D1C"/>
<path d="M394.652 106.578C394.652 106.578 394.775 106.701 394.96 107.008C395.144 107.254 395.451 107.623 395.943 107.992C396.865 108.729 398.525 109.283 400.43 108.975C401.353 108.852 402.336 108.484 403.197 107.869C404.057 107.254 404.795 106.332 405.348 105.287C406.516 103.197 407.008 100.493 407.438 97.788C408.298 92.3173 408.729 86.8466 409.098 82.6053C409.466 78.364 409.528 75.5364 409.528 75.5364C409.528 75.5364 409.897 69.9428 410.081 61.2757C410.081 59.1243 410.142 56.7885 409.897 54.3297C409.651 51.871 409.098 49.1049 407.376 46.7691C406.946 46.2159 406.454 45.6627 405.963 45.3553C405.409 45.048 404.856 44.9865 404.303 45.1095C403.197 45.3553 402.213 46.2159 401.414 47.015C399.754 48.7976 398.771 51.1948 398.218 53.7765C397.05 59.0628 397.664 64.9023 397.48 70.0042C397.234 75.2291 396.558 79.9621 395.759 83.8347C394.96 87.7072 393.976 90.9035 393.239 93.055C392.44 95.2063 392.009 96.4357 392.009 96.4357C392.009 96.4357 392.44 95.2063 393.177 93.055C393.915 90.8421 394.898 87.7072 395.574 83.7732C396.312 79.9007 396.988 75.1061 397.111 69.9428C397.234 64.8409 396.619 59.0014 397.664 53.5921C398.156 50.949 399.201 48.4288 400.861 46.5232C401.721 45.6012 402.643 44.7406 403.996 44.3718C404.61 44.1874 405.532 44.3104 406.209 44.6792C406.946 45.1095 407.561 45.7856 407.991 46.4003C409.897 48.982 410.511 51.9939 410.819 54.5141C411.065 57.0958 411.065 59.4316 411.126 61.583C411.065 70.3116 410.757 75.9052 410.757 75.9052C410.757 75.9052 410.573 78.7328 410.081 82.9126C409.589 87.154 409.036 92.5017 408.053 98.0339C407.561 100.739 406.946 103.443 405.717 105.595C405.102 106.64 404.303 107.562 403.442 108.176C402.52 108.791 401.537 109.098 400.553 109.221C398.648 109.467 396.927 108.791 396.005 108.053C395.513 107.684 395.206 107.316 395.083 107.07C394.714 106.701 394.652 106.578 394.652 106.578Z" fill="#1D1D1C"/>
<path d="M330.541 142.353C330.541 142.353 330.602 142.599 330.786 143.029C331.032 143.398 331.463 143.889 332.2 144.258C332.938 144.627 334.044 144.811 335.212 144.75C336.38 144.689 337.671 144.32 338.9 143.889C341.359 142.906 343.756 141.492 345.6 140.57C347.444 139.648 348.612 138.972 348.612 138.972C348.612 138.972 358.447 134.177 368.344 129.444C373.691 127.662 378.056 124.404 380.945 121.515C383.834 118.626 385.309 116.167 385.493 116.413C385.493 116.413 383.711 118.503 381.129 121.638C379.777 123.236 378.056 125.019 375.781 126.248C373.507 127.477 371.048 128.707 368.59 129.936C358.816 134.915 349.043 139.832 349.043 139.832C349.043 139.832 347.813 140.386 345.969 141.308C344.125 142.168 341.666 143.459 339.023 144.381C337.732 144.811 336.38 145.119 335.151 145.119C333.983 145.119 332.815 144.873 332.077 144.504C331.34 144.135 330.909 143.582 330.725 143.213C330.541 142.599 330.541 142.353 330.541 142.353Z" fill="#1D1D1C"/>
<path d="M331.278 143.152C331.278 143.152 330.909 143.213 330.663 142.906C330.356 142.66 330.233 141.922 330.909 141.246C331.524 140.57 332.508 140.078 333.491 139.525C334.475 138.972 335.519 138.419 336.564 137.804C340.806 135.468 344.986 133.132 344.986 133.132C344.986 133.132 347.137 132.026 350.333 130.366C351.932 129.567 353.837 128.584 355.866 127.539C357.894 126.555 360.045 125.387 362.32 124.527C364.656 123.789 366.991 123.297 369.143 122.56C371.294 121.822 373.2 120.962 374.736 120.04C376.335 119.179 377.564 118.319 378.363 117.642C379.162 116.966 379.654 116.597 379.654 116.597C379.654 116.597 379.224 116.966 378.363 117.642C377.564 118.319 376.335 119.179 374.736 120.163C373.2 121.085 371.294 122.068 369.143 122.806C366.991 123.605 364.656 124.158 362.381 124.896C360.168 125.756 358.078 126.924 356.05 128.031C354.083 129.076 352.177 130.059 350.579 130.92C347.383 132.641 345.231 133.747 345.231 133.747C345.231 133.747 340.929 135.899 336.564 137.988C335.458 138.542 334.413 139.033 333.368 139.587C332.385 140.078 331.401 140.509 330.786 141.123C330.172 141.738 330.233 142.414 330.479 142.722C330.909 143.213 331.278 143.152 331.278 143.152Z" fill="#1D1D1C"/>
<path d="M392.009 112.848C392.009 112.848 393.054 114.323 394.345 116.72C395.636 119.056 397.418 122.253 399.017 125.51C400.492 128.83 401.844 132.211 402.766 134.792C403.258 136.083 403.504 137.189 403.75 137.989C403.934 138.788 404.057 139.218 404.057 139.218C404.057 139.218 404.242 140.14 404.61 141.677C404.856 143.275 405.348 145.488 405.532 148.192C405.594 150.897 405.717 154.093 405.286 157.413C404.795 160.732 403.873 164.174 402.52 167.309C401.23 170.505 399.508 173.394 398.218 176.283C396.927 179.111 396.066 181.939 395.513 184.397C395.021 186.856 394.837 188.946 394.837 190.36C394.898 191.835 395.083 192.634 395.083 192.634C395.083 192.634 394.837 191.835 394.775 190.36C394.714 188.885 394.837 186.795 395.329 184.336C395.82 181.877 396.619 179.05 397.849 176.161C399.078 173.272 400.738 170.26 401.967 167.125C403.197 163.99 404.119 160.548 404.487 157.29C404.856 154.032 404.733 150.958 404.61 148.254C404.364 145.611 403.873 143.398 403.565 141.861C403.197 140.324 403.012 139.464 403.012 139.464C403.012 139.464 402.889 139.034 402.766 138.234C402.582 137.497 402.336 136.39 401.906 135.1C401.045 132.518 399.877 129.137 398.525 125.756C397.05 122.498 395.452 119.241 394.222 116.843C392.993 114.385 392.009 112.848 392.009 112.848Z" fill="#1D1D1C"/>
<path d="M370.802 129.629L374.245 135.591C374.245 135.591 375.474 138.788 376.826 141.984C378.179 145.119 379.592 148.254 379.592 148.254C379.592 148.254 377.933 145.18 376.396 142.168C374.798 139.095 373.323 136.022 373.323 136.022L370.802 129.629Z" fill="#1D1D1C"/>
<path d="M389.304 167.309C389.304 167.309 391.026 172.472 392.193 178.066C393.423 183.537 394.529 189.069 394.529 189.069C394.529 189.069 394.898 191.835 395.451 196.076C396.005 200.256 396.558 205.85 397.05 211.444C397.603 217.037 397.849 222.631 398.033 226.811C398.279 230.991 398.402 233.818 398.402 233.818C398.402 233.818 398.217 231.052 397.91 226.811C397.603 222.631 397.234 217.037 396.558 211.444C396.005 205.85 395.267 200.318 394.652 196.138C393.976 191.958 393.546 189.192 393.546 189.192C393.546 189.192 392.747 183.66 391.763 178.128C390.78 172.595 389.304 167.309 389.304 167.309Z" fill="#1D1D1C"/>
<path d="M361.644 194.355C361.644 194.355 361.459 194.232 361.029 194.109C360.66 193.925 360.107 193.679 359.431 193.495C358.755 193.31 357.894 193.126 357.034 193.249C356.173 193.372 355.374 193.863 354.698 194.478C353.346 195.708 352.608 197.367 352.485 198.597C352.301 199.826 352.546 200.625 352.546 200.625C352.546 200.625 352.546 200.748 352.608 200.932C352.669 201.117 352.731 201.363 352.792 201.731C353.038 202.408 353.468 203.391 354.329 204.375C355.19 205.297 356.48 206.342 358.14 206.833C358.939 207.079 359.861 207.079 360.66 206.71C361.398 206.342 362.074 205.665 362.627 204.989C363.734 203.575 364.348 201.793 364.717 200.133C365.086 198.474 365.332 196.875 364.594 195.646C363.918 194.478 362.812 193.863 362.013 193.679C361.214 193.433 360.722 193.495 360.722 193.495C360.722 193.495 361.214 193.433 362.013 193.618C362.812 193.802 363.98 194.355 364.717 195.585C365.516 196.814 365.332 198.535 365.025 200.195C364.717 201.854 364.164 203.698 363.058 205.235C362.504 206.034 361.89 206.71 360.906 207.202C359.984 207.694 358.878 207.632 357.956 207.448C356.05 206.956 354.698 205.911 353.714 204.928C352.731 203.883 352.178 202.838 351.87 202.1C351.747 201.731 351.624 201.424 351.624 201.178C351.563 200.994 351.563 200.871 351.563 200.871C351.563 200.871 351.379 199.949 351.686 198.535C351.932 197.183 352.854 195.339 354.452 194.109C355.19 193.495 356.173 193.003 357.095 192.941C358.079 192.88 358.878 193.126 359.554 193.372C360.23 193.618 360.722 193.925 361.091 194.109C361.459 194.232 361.644 194.355 361.644 194.355Z" fill="#1D1D1C"/>
<path d="M355.927 193.372C355.927 193.372 355.374 193.31 354.575 193.679C353.837 193.986 352.977 194.663 352.178 195.4C350.641 196.937 349.78 198.781 349.78 198.781C349.78 198.781 349.227 199.642 348.735 201.055C348.244 202.469 347.936 204.498 348.305 206.403C348.674 208.37 349.596 210.153 350.518 211.382C351.44 212.611 352.301 213.226 352.301 213.226C352.301 213.226 351.44 212.611 350.395 211.444C349.412 210.276 348.305 208.493 347.813 206.465C347.26 204.436 347.445 202.346 347.936 200.809C348.367 199.273 348.92 198.351 348.92 198.351C348.92 198.351 350.088 196.445 351.87 195.031C352.731 194.294 353.714 193.741 354.513 193.495C355.374 193.249 355.927 193.372 355.927 193.372Z" fill="#1D1D1C"/>
<path d="M365.455 197.06C365.455 197.06 365.823 196.691 366.315 195.953C366.807 195.216 367.237 194.048 367.483 192.573C367.667 191.097 367.606 189.376 367.606 187.532C367.606 185.688 367.729 183.721 367.975 181.754C368.221 179.787 368.651 177.759 369.081 176.038C369.512 174.378 369.942 172.841 370.372 171.55C371.233 168.907 371.909 167.125 371.909 167.125C372.646 165.035 373.446 162.945 374.183 160.793C374.921 158.642 375.843 156.429 376.642 154.278C378.363 149.913 381.313 145.734 385.002 142.353L385.247 142.107L385.432 142.414C386.846 145.119 387.829 148.069 388.444 151.02C388.997 154.032 388.751 157.105 388.567 160.056C388.505 161.531 388.505 163.006 388.813 164.481C389.059 165.895 389.673 167.432 389.243 168.907C388.813 170.444 387.337 171.243 386.477 172.411C385.555 173.517 384.94 175.054 384.94 176.591C384.94 175.116 385.493 173.517 386.415 172.411C387.337 171.243 388.751 170.382 389.12 168.907C389.489 167.432 388.936 166.018 388.628 164.543C388.321 163.068 388.259 161.531 388.321 160.056C388.505 157.105 388.69 154.032 388.075 151.081C387.46 148.131 386.415 145.303 385.002 142.66L385.432 142.722C381.867 146.102 379.101 150.159 377.441 154.462C376.642 156.614 375.781 158.826 375.044 160.978C374.306 163.129 373.568 165.281 372.831 167.371C372.831 167.371 372.155 169.215 371.171 171.735C370.679 173.026 370.188 174.562 369.757 176.161C369.266 177.943 368.835 179.91 368.528 181.816C368.221 183.783 368.036 185.75 367.975 187.594C367.913 189.438 367.975 191.159 367.667 192.634C367.422 194.109 366.868 195.277 366.377 196.015C365.885 196.691 365.455 197.06 365.455 197.06Z" fill="#1D1D1C"/>
<path d="M367.606 209.661C367.606 209.661 368.098 209.784 369.02 210.03C369.942 210.153 371.233 210.398 372.831 210.337C376.027 210.276 380.269 209.108 383.527 206.403C385.186 205.112 386.477 203.453 387.338 201.731C388.198 200.01 388.69 198.289 388.997 196.752C389.305 195.216 389.428 193.925 389.489 193.064C389.55 192.142 389.55 191.651 389.55 191.651C389.55 191.651 389.55 191.405 389.55 190.913C389.55 190.421 389.55 189.745 389.55 188.823C389.428 187.04 389.059 184.459 388.014 181.508C386.969 178.619 385.248 175.3 382.236 172.903C381.867 172.595 381.498 172.349 381.068 172.104C380.699 171.858 380.207 171.489 379.961 171.489C379.777 171.427 379.593 171.858 379.654 172.288C379.715 172.657 379.9 173.21 379.961 173.64C380.392 175.546 380.822 177.636 381.252 179.664C381.99 183.721 383.219 187.778 382.973 191.712C382.85 193.679 382.42 195.585 381.56 197.183C380.76 198.781 379.593 200.133 378.425 201.117C377.195 202.1 375.904 202.838 374.675 203.268C373.446 203.637 372.216 203.698 371.356 203.514C370.434 203.33 369.819 202.838 369.512 202.469C369.204 202.1 369.143 201.854 369.143 201.854C369.143 201.854 369.204 202.1 369.512 202.469C369.819 202.838 370.434 203.268 371.356 203.453C372.278 203.637 373.446 203.575 374.675 203.207C375.904 202.776 377.134 202.039 378.363 200.994C379.531 199.949 380.638 198.658 381.437 197.06C382.236 195.462 382.605 193.618 382.727 191.712C382.912 187.84 381.621 183.844 380.822 179.787C380.392 177.82 379.961 175.669 379.47 173.825C379.347 173.333 379.224 172.964 379.101 172.411C379.101 172.165 379.101 171.858 379.162 171.612C379.224 171.489 379.285 171.304 379.47 171.182C379.531 171.12 379.654 171.059 379.777 171.059H379.9H380.084C380.883 171.12 381.129 171.489 381.621 171.735C382.051 171.981 382.482 172.288 382.85 172.534C386.047 174.87 387.891 178.373 388.997 181.324C390.104 184.336 390.534 186.979 390.657 188.823C390.718 189.745 390.718 190.483 390.718 190.974C390.718 191.466 390.718 191.773 390.718 191.773C390.718 191.773 390.657 192.327 390.595 193.187C390.534 194.109 390.35 195.462 389.981 196.998C389.612 198.535 389.059 200.318 388.075 202.1C387.153 203.821 385.678 205.542 383.957 206.833C380.515 209.476 376.15 210.521 372.954 210.521C371.356 210.583 370.003 210.276 369.143 210.091C368.098 209.784 367.606 209.661 367.606 209.661Z" fill="#1D1D1C"/>
<path d="M369.45 202.039C369.45 202.039 369.204 201.608 369.266 200.932C369.266 200.256 369.635 199.334 370.126 198.535C371.11 196.998 372.155 195.4 372.155 195.4C372.155 195.4 374.491 192.511 376.826 189.561C379.101 186.61 381.375 183.66 381.375 183.66C381.375 183.66 379.347 186.733 377.318 189.868C375.167 192.941 373.077 195.953 373.077 195.953C373.077 195.953 371.847 197.367 370.679 198.719C370.126 199.396 369.696 200.195 369.573 200.871C369.327 201.608 369.45 202.039 369.45 202.039Z" fill="#1D1D1C"/>
<path d="M356.911 192.573C356.911 192.573 355.497 191.835 353.776 190.421C351.993 189.007 349.965 186.794 347.936 184.643C346.891 183.598 345.908 182.492 344.986 181.508C344.064 180.586 343.142 180.033 342.404 179.48C340.929 178.373 339.884 177.636 339.884 177.636C339.884 177.636 339.392 177.267 338.593 176.591C338.163 176.283 337.671 175.915 337.118 175.423C336.81 175.177 336.503 174.931 336.134 174.808C335.827 174.685 335.397 174.685 334.843 174.808C332.63 175.3 330.356 176.775 329.065 178.558C327.774 180.402 328.451 182.307 329.803 183.905C332.753 188.7 337.241 192.695 340.99 195.154C342.896 196.445 344.494 197.306 345.662 197.92C346.83 198.473 347.567 198.842 347.567 198.842C347.567 198.842 346.83 198.535 345.662 197.982C344.432 197.367 342.834 196.507 340.929 195.277C337.118 192.818 332.508 188.946 329.373 184.151C328.635 183.229 328.082 182.43 327.836 181.447C327.59 180.463 327.774 179.418 328.451 178.435C329.741 176.406 332.2 174.808 334.72 174.193C335.335 174.009 336.134 173.948 336.687 174.193C337.241 174.378 337.548 174.624 337.855 174.87C338.531 175.3 338.962 175.669 339.392 175.976C340.253 176.591 340.744 176.96 340.744 176.96C340.744 176.96 341.666 177.759 343.142 178.926C343.879 179.541 344.678 180.217 345.6 181.016C346.522 182.061 347.444 183.168 348.428 184.274C350.333 186.487 352.239 188.761 353.96 190.298C355.558 191.773 356.911 192.573 356.911 192.573Z" fill="#1D1D1C"/>
<path d="M300.298 239.166C300.298 239.166 300.544 239.289 301.035 239.412C301.527 239.596 302.265 239.781 303.125 239.903C304.908 240.149 307.49 240.088 309.825 239.473C312.223 238.92 314.436 237.937 316.034 237.199C317.632 236.4 318.677 235.847 318.677 235.847C318.677 235.847 320.828 234.802 324.086 233.265C327.344 231.667 331.77 229.638 335.642 226.934C337.548 225.581 339.515 224.106 341.605 223.061C343.633 222.016 345.723 221.34 347.506 220.787C349.288 220.295 350.825 219.926 351.87 219.68C352.915 219.434 353.53 219.312 353.53 219.312C353.53 219.312 352.915 219.434 351.87 219.742C350.825 219.988 349.288 220.418 347.567 220.971C345.785 221.524 343.756 222.262 341.789 223.368C339.761 224.413 337.917 225.889 336.011 227.302C332.139 230.13 327.774 232.281 324.578 233.941C321.382 235.539 319.23 236.646 319.23 236.646C319.23 236.646 318.124 237.137 316.464 237.875C314.743 238.551 312.469 239.473 309.948 239.965C307.49 240.457 304.908 240.457 303.064 240.088C302.142 239.903 301.466 239.719 300.974 239.535C300.544 239.289 300.298 239.166 300.298 239.166Z" fill="#1D1D1C"/>
<path d="M352.792 212.98C352.792 212.98 352.608 213.287 352.239 213.656C351.87 214.086 351.133 214.64 350.211 215.008C348.305 215.869 345.416 216.115 342.65 216.238C337.118 216.607 331.77 218.02 331.77 218.02C331.77 218.02 331.094 218.205 329.926 218.451C328.758 218.758 327.098 219.188 325.193 219.864C321.32 221.155 316.341 223.368 311.916 226.134C307.49 228.9 303.249 231.974 301.097 234.74C299.991 236.092 299.622 237.444 299.622 238.367C299.622 238.858 299.683 239.166 299.745 239.411C299.806 239.657 299.868 239.78 299.868 239.78C299.868 239.78 299.806 239.657 299.745 239.411C299.683 239.166 299.622 238.858 299.56 238.367C299.499 237.444 299.868 236.092 300.913 234.678C303.003 231.851 307.183 228.716 311.547 225.827C315.973 222.938 320.952 220.602 324.824 219.25C326.791 218.512 328.451 218.02 329.619 217.713C330.787 217.406 331.463 217.221 331.463 217.221C331.463 217.221 332.815 216.975 334.905 216.607C336.995 216.299 339.761 215.992 342.527 215.869C345.293 215.808 348.121 215.746 350.026 214.947C351.01 214.578 351.686 214.086 352.116 213.718C352.608 213.287 352.792 212.98 352.792 212.98Z" fill="#1D1D1C"/>
<path d="M367.237 209.722C367.237 209.722 367.483 209.907 367.852 210.276C368.221 210.644 368.712 211.198 369.143 211.935C370.003 213.411 370.556 215.931 369.573 218.144C369.143 219.25 368.467 220.234 367.79 221.156C367.114 222.016 366.5 222.877 366.008 223.553C364.963 224.967 364.225 225.889 364.225 225.889L359.799 231.236C359.062 232.097 358.386 233.019 357.464 233.818C356.542 234.617 355.005 234.986 353.776 234.802C351.194 234.433 349.104 232.589 348.612 230.437C347.997 228.286 348.428 226.135 348.92 224.045L348.981 223.86L349.165 223.983C350.456 224.782 352.546 224.598 353.653 223.491C354.821 222.385 354.821 220.479 353.714 219.373C354.821 220.479 354.943 222.385 353.714 223.553C352.546 224.721 350.395 225.028 348.92 224.168L349.104 224.106C348.674 226.196 348.366 228.347 348.981 230.376C349.534 232.404 351.501 234.002 353.837 234.248C355.005 234.371 356.111 234.125 356.91 233.388C357.71 232.65 358.324 231.667 359.062 230.806L363.303 225.397C363.303 225.397 364.041 224.475 365.209 223.123C365.762 222.446 366.438 221.647 367.114 220.787C367.79 219.926 368.528 219.004 368.958 218.021C369.942 215.992 369.634 213.533 368.835 212.058C368.467 211.259 367.975 210.706 367.667 210.337C367.483 209.907 367.237 209.722 367.237 209.722Z" fill="#1D1D1C"/>
<path d="M369.327 218.881C369.327 218.881 369.573 220.111 369.758 222.016C369.942 223.86 370.249 226.381 370.68 228.839C371.049 231.298 371.663 233.757 372.093 235.539C372.524 237.322 372.893 238.551 372.893 238.551C372.893 238.551 373.077 239.105 373.384 240.149C373.569 240.641 373.753 241.317 373.999 242.055C374.306 242.731 374.614 243.53 374.983 244.391C376.581 247.833 378.855 252.259 382.236 256.316C385.555 260.373 389.489 263.938 392.747 266.212C393.546 266.827 394.284 267.319 395.021 267.749C395.697 268.179 396.312 268.609 396.804 268.855C397.849 269.47 398.402 269.777 398.402 269.777C398.402 269.777 397.787 269.47 396.742 268.917C396.189 268.671 395.636 268.241 394.898 267.81C394.161 267.38 393.423 266.888 392.563 266.335C389.243 264.061 385.248 260.619 381.744 256.562C378.24 252.566 375.782 248.14 374.06 244.637C373.692 243.776 373.323 242.916 373.016 242.239C372.77 241.502 372.524 240.887 372.339 240.395C371.971 239.289 371.786 238.736 371.786 238.736C371.786 238.736 371.479 237.506 371.11 235.662C370.803 233.818 370.311 231.359 370.065 228.839C369.758 226.381 369.635 223.86 369.512 222.016C369.45 220.111 369.327 218.881 369.327 218.881Z" fill="#1D1D1C"/>
<path d="M398.033 228.778C398.033 228.778 398.279 235.969 398.525 243.223C398.771 250.415 399.078 257.606 399.078 257.606C399.078 257.606 399.201 261.233 399.078 266.581C399.201 271.99 399.078 279.182 399.078 286.435C398.771 300.757 398.463 315.448 398.463 315.448C398.463 315.448 398.525 300.696 398.525 286.435C398.402 279.182 398.402 271.99 398.156 266.642C398.094 261.233 397.971 257.668 397.971 257.668C397.971 257.668 397.971 250.476 397.971 243.284C398.033 236.031 398.033 228.778 398.033 228.778Z" fill="#1D1D1C"/>
<path d="M398.586 314.219C398.586 314.219 398.586 315.756 398.586 317.292C398.525 318.829 398.463 320.366 398.463 320.366C398.463 320.366 398.34 321.103 398.156 322.271C397.972 323.378 397.726 324.915 397.418 326.451C397.111 327.988 396.681 329.463 396.25 330.508C395.82 331.553 395.39 332.229 395.39 332.229C395.39 332.229 395.759 331.553 396.066 330.447C396.373 329.34 396.681 327.865 396.865 326.328C397.05 324.792 397.111 323.316 397.234 322.148C397.295 320.981 397.357 320.243 397.357 320.243C397.357 320.243 397.664 318.768 397.972 317.231C398.279 315.756 398.586 314.219 398.586 314.219Z" fill="#1D1D1C"/>
<path d="M359.738 337.331C359.738 337.331 359.492 337.085 359.246 336.594C359.001 336.102 358.816 335.364 358.816 334.688C358.816 333.274 359.431 331.922 359.431 331.922C359.431 331.922 359.8 331.246 360.66 330.57C361.521 329.832 363.18 329.217 364.717 329.586C366.377 329.893 367.36 331.184 367.852 332.168C368.344 333.151 368.528 333.827 368.528 333.827C368.528 333.827 368.282 333.151 367.668 332.291C367.114 331.43 366.008 330.262 364.594 330.139C363.18 329.955 361.89 330.57 361.213 331.246C360.537 331.922 360.291 332.475 360.291 332.475C360.291 332.475 359.492 333.52 359.246 334.811C359.124 335.426 359.185 336.102 359.308 336.594C359.492 337.024 359.738 337.331 359.738 337.331Z" fill="#1D1D1C"/>
<path d="M326.422 289.693C326.422 289.693 326.73 289.816 327.221 290.062C327.713 290.308 328.451 290.676 329.25 291.23C330.848 292.275 332.815 293.934 334.413 295.778C336.011 297.622 337.487 299.528 338.655 300.942C339.823 302.355 340.56 303.339 340.56 303.339C340.56 303.339 341.974 305.367 344.125 308.318C345.109 309.855 346.215 311.699 347.137 313.789C348.059 315.878 348.674 318.214 349.289 320.55C349.842 322.886 350.395 325.222 351.133 327.373C351.87 329.525 352.854 331.492 353.96 333.09C355.067 334.688 356.235 335.856 357.095 336.593C357.956 337.331 358.509 337.7 358.509 337.7C358.509 337.7 357.956 337.331 357.034 336.655C356.173 335.917 354.944 334.749 353.837 333.213C352.669 331.614 351.624 329.647 350.825 327.496C349.965 325.345 349.412 323.009 348.797 320.673C348.121 318.337 347.383 316.063 346.461 314.034C345.539 312.006 344.371 310.223 343.388 308.687C341.298 305.675 339.7 303.769 339.7 303.769C339.7 303.769 338.962 302.786 337.917 301.31C336.872 299.835 335.458 297.868 333.983 296.024C332.508 294.18 330.725 292.459 329.127 291.353C328.389 290.799 327.652 290.431 327.16 290.123C326.668 289.816 326.422 289.693 326.422 289.693Z" fill="#1D1D1C"/>
<path d="M324.947 289.57C324.947 289.57 325.439 290.554 326.115 292.09C326.852 293.566 327.774 295.533 328.819 297.561C330.848 301.556 333.245 305.552 333.245 305.552C333.245 305.552 334.29 307.58 335.888 310.654C337.486 313.727 339.945 317.907 342.158 322.148C344.432 326.451 346.707 330.754 348.428 334.012C350.087 337.331 351.932 339.114 351.932 339.114C351.932 339.114 351.44 338.683 350.764 337.823C350.026 336.962 349.165 335.671 348.243 334.073C346.399 330.815 344.064 326.574 341.666 322.333C339.392 318.153 336.81 314.035 335.089 310.961C333.368 307.888 332.262 305.859 332.262 305.859C332.262 305.859 330.11 301.741 328.266 297.684C327.406 295.594 326.545 293.566 325.93 292.09C325.316 290.615 324.947 289.57 324.947 289.57Z" fill="#1D1D1C"/>
<path d="M366.438 340.773C366.438 340.773 366.315 340.712 366.131 340.528C365.947 340.405 365.701 340.159 365.27 339.913C364.533 339.421 363.365 338.868 361.89 338.561C358.878 337.884 354.698 338.438 351.071 339.913L349.657 340.405C349.227 340.589 348.735 340.773 348.182 340.835C347.137 340.958 346.154 340.958 345.17 340.835C343.203 340.65 341.421 340.097 339.945 339.483C338.47 338.868 337.364 338.13 336.626 337.638C335.888 337.085 335.52 336.778 335.52 336.778C335.52 336.778 334.72 336.102 333.614 334.749C332.508 333.397 331.278 331.246 330.786 328.541C330.664 327.865 330.602 327.189 330.541 326.451C330.541 326.082 330.541 325.775 330.418 325.529C330.356 325.406 330.356 325.406 330.295 325.345C330.233 325.283 330.172 325.16 330.11 325.16C330.049 325.099 329.864 324.976 329.742 324.915C329.127 324.607 328.205 324.73 327.59 325.099C326.914 325.406 326.607 326.082 326.607 326.82C326.607 328.295 327.59 329.893 328.389 331.492C329.188 333.151 330.049 334.749 330.848 336.409C331.709 338.069 332.446 339.79 333.307 341.388C334.229 342.986 335.335 344.523 337.056 345.384C338.716 346.244 340.56 346.736 342.22 347.289C343.879 347.842 345.478 348.396 346.953 348.887C349.903 349.809 352.239 350.854 354.083 351.039C355.005 351.162 355.681 351.039 356.112 350.916C356.542 350.793 356.788 350.608 356.788 350.608C356.788 350.608 356.603 350.731 356.112 350.916C355.681 351.039 354.944 351.223 354.083 351.1C352.239 350.916 349.842 349.932 346.953 349.01C345.478 348.518 343.879 348.027 342.22 347.473C340.56 346.92 338.716 346.429 336.995 345.568C335.212 344.707 333.921 343.109 332.999 341.45C332.077 339.79 331.278 338.13 330.418 336.471C329.557 334.811 328.697 333.151 327.897 331.553C327.098 329.955 326.053 328.357 325.992 326.636C325.992 326.205 326.053 325.775 326.238 325.406C326.422 324.976 326.791 324.669 327.221 324.484C328.02 324.054 329.127 323.87 330.172 324.3C331.34 324.792 331.463 325.837 331.463 326.513C331.524 327.189 331.586 327.865 331.709 328.48C332.262 331 333.43 333.028 334.475 334.258C335.028 334.872 335.458 335.303 335.765 335.672C336.073 335.979 336.257 336.102 336.257 336.102C336.257 336.102 336.626 336.409 337.302 336.962C337.978 337.454 339.023 338.13 340.376 338.745C341.728 339.36 343.449 339.913 345.293 340.159C346.215 340.282 347.199 340.343 348.182 340.22C348.674 340.159 349.104 340.036 349.596 339.851L351.01 339.36C354.759 337.946 359.062 337.577 362.074 338.315C363.611 338.683 364.779 339.298 365.455 339.79C365.824 340.036 366.069 340.282 366.254 340.405C366.315 340.712 366.438 340.773 366.438 340.773Z" fill="#1D1D1C"/>
<path d="M362.627 328.971C362.627 328.971 363.119 327.496 363.857 325.283C364.594 323.07 365.27 320.12 365.639 317.046C366.008 314.034 365.885 310.961 365.27 308.748C364.717 306.535 363.98 305.183 363.98 305.183C363.98 305.183 363.672 304.507 363.058 303.277C362.75 302.663 362.32 301.925 362.197 300.88C362.136 300.388 362.258 299.712 362.627 299.282C362.996 298.729 363.611 298.36 364.287 298.176C366.869 297.315 370.372 298.298 372.524 300.573C373.63 301.741 374.306 303.277 374.552 304.814C374.798 306.351 374.798 307.949 374.859 309.547C374.982 315.879 373.569 322.087 372.216 326.574C371.417 328.787 370.68 330.631 370.126 331.922C369.573 333.151 369.204 333.889 369.204 333.889C369.204 333.889 369.512 333.151 370.065 331.922C370.618 330.631 371.294 328.787 372.032 326.574C373.323 322.087 374.552 315.817 374.306 309.547C374.183 306.474 374.183 303.093 371.97 301.065C369.942 298.975 366.746 298.237 364.594 298.975C364.102 299.159 363.672 299.466 363.426 299.774C363.18 300.143 363.119 300.511 363.119 300.942C363.18 301.741 363.611 302.478 363.918 303.032C364.594 304.199 364.963 304.999 364.963 304.999C364.963 304.999 365.639 306.474 366.131 308.81C366.684 311.145 366.684 314.28 366.192 317.292C365.701 320.366 364.902 323.316 364.102 325.468C363.18 327.558 362.627 328.971 362.627 328.971Z" fill="#1D1D1C"/>
<path d="M366.991 341.757C366.991 341.757 367.114 341.634 367.36 341.45C367.606 341.265 367.913 340.896 368.221 340.466C368.835 339.544 369.266 337.946 369.081 336.04C369.02 335.118 368.589 334.073 368.958 332.905C369.327 331.738 370.618 331.184 371.786 330.816C373.077 330.508 374.429 330.447 375.781 330.754C377.134 331.061 378.486 331.799 379.162 333.028C379.9 334.319 379.592 335.856 379.162 337.024C378.732 338.253 378.24 339.421 378.363 340.528C378.424 341.695 379.039 342.74 380.023 342.863C380.453 342.925 381.006 342.802 381.436 342.556C381.867 342.372 382.297 342.064 382.666 341.695C384.018 340.405 384.817 338.929 385.432 337.946C386.047 336.962 386.477 336.409 386.477 336.409C387.214 335.426 388.014 334.504 389.12 333.828C390.165 333.151 391.456 332.783 392.624 332.598C395.082 332.229 397.48 332.475 399.877 332.598C404.672 332.967 409.405 333.889 414.015 335.057L414.384 335.118L414.261 335.487C412.662 340.589 408.544 344.216 404.364 346.674C400 349.133 395.267 350.854 390.472 351.838C380.883 353.743 370.495 352.33 362.135 347.105C370.556 352.207 380.883 353.436 390.411 351.469C395.144 350.485 399.816 348.703 404.118 346.183C408.237 343.662 412.171 340.097 413.646 335.241L413.892 335.672C409.282 334.565 404.61 333.705 399.877 333.397C397.541 333.274 395.082 333.09 392.87 333.459C391.763 333.643 390.657 334.012 389.735 334.627C388.813 335.241 388.075 336.04 387.399 336.962C387.399 336.962 387.03 337.516 386.354 338.438C385.678 339.36 384.879 340.896 383.28 342.31C382.543 342.925 381.375 343.724 379.961 343.54C379.285 343.417 378.609 342.986 378.302 342.372C377.933 341.757 377.81 341.142 377.748 340.466C377.625 339.114 378.24 337.884 378.67 336.716C379.101 335.549 379.346 334.258 378.793 333.151C378.24 332.045 377.011 331.369 375.781 331C374.49 330.693 373.2 330.693 371.97 330.938C370.802 331.246 369.573 331.799 369.266 332.783C368.958 333.766 369.327 334.872 369.327 335.794C369.511 337.761 369.02 339.36 368.344 340.282C368.036 340.773 367.667 341.081 367.483 341.265C367.114 341.695 366.991 341.757 366.991 341.757Z" fill="#1D1D1C"/>
<path d="M356.05 351.1C356.05 351.1 356.296 351.592 356.665 352.514C357.034 353.436 357.525 354.788 357.956 356.386C358.755 359.644 359.247 364.316 358.079 368.742C357.587 370.954 356.665 373.044 355.989 375.011C355.313 376.978 354.882 378.884 355.005 380.544C355.128 382.203 355.866 383.371 356.358 384.232C356.849 385.154 357.157 385.645 357.157 385.645C357.157 385.645 357.28 385.891 357.525 386.445C357.71 386.998 357.956 387.858 357.833 388.965C357.771 390.01 357.403 391.178 357.833 392.468C358.14 393.698 359.185 394.989 360.599 395.972C362.013 396.956 363.795 397.878 365.578 398.554C366.008 398.677 366.193 398.554 366.438 398.124L367.176 396.771C367.668 395.849 368.221 394.927 368.713 393.944C370.68 390.071 372.77 385.768 373.138 381.097C373.569 376.425 372.462 371.815 370.864 367.758C369.204 363.701 367.176 360.136 365.516 357.063C363.857 353.989 362.504 351.469 361.951 349.563C361.644 348.58 361.582 347.842 361.582 347.289C361.582 346.736 361.582 346.49 361.582 346.49C361.582 346.49 361.521 346.736 361.582 347.289C361.582 347.781 361.705 348.58 361.951 349.563C362.504 351.469 363.918 353.989 365.578 357.001C367.238 360.013 369.327 363.578 371.049 367.635C372.708 371.692 373.876 376.364 373.507 381.097C373.2 385.891 371.171 390.317 369.204 394.251C368.713 395.235 368.16 396.157 367.668 397.14L366.93 398.554C366.807 398.8 366.623 399.046 366.254 399.23C365.947 399.414 365.516 399.353 365.209 399.292C363.119 398.554 361.459 397.693 359.923 396.648C358.448 395.603 357.218 394.19 356.788 392.653C356.296 391.178 356.726 389.825 356.726 388.903C356.849 387.059 356.05 386.076 356.112 386.076C356.112 386.076 355.866 385.584 355.374 384.662C354.882 383.801 354.083 382.326 354.022 380.544C353.96 378.761 354.452 376.733 355.19 374.766C355.927 372.799 356.911 370.77 357.464 368.619C358.693 364.316 358.448 359.706 357.71 356.448C357.341 354.788 356.911 353.436 356.542 352.514C356.296 351.653 356.05 351.1 356.05 351.1Z" fill="#1D1D1C"/>
<path d="M393.423 351.653C393.423 351.653 391.886 358.722 390.042 365.73C388.383 372.737 386.416 379.744 386.416 379.744C386.416 379.744 385.432 383.187 383.895 388.412C382.297 393.575 380.146 400.521 377.994 407.467C375.781 414.413 373.692 421.297 372.647 426.584C372.093 429.227 371.786 431.44 371.602 433.038C371.417 434.574 371.356 435.496 371.356 435.496C371.356 435.496 371.417 434.574 371.54 433.038C371.663 431.501 371.97 429.227 372.462 426.584C373.446 421.236 375.413 414.29 377.503 407.344C379.531 400.336 381.559 393.39 383.035 388.227C384.449 383.002 385.432 379.499 385.432 379.499C385.432 379.499 387.583 372.614 389.55 365.607C391.64 358.661 393.423 351.653 393.423 351.653Z" fill="#1D1D1C"/>
<path d="M366.192 399.353C366.192 399.353 366.561 401.689 367.36 403.84C368.098 406.053 369.081 408.205 369.081 408.205C369.081 408.205 369.45 409.311 370.003 410.971C370.557 412.63 371.356 414.905 371.97 417.179C372.585 419.515 372.892 421.851 372.892 423.633C372.892 424.555 372.831 425.293 372.77 425.785C372.708 426.276 372.647 426.584 372.647 426.584C372.647 426.584 372.647 426.276 372.708 425.785C372.77 425.293 372.77 424.555 372.708 423.633C372.647 421.851 372.216 419.515 371.479 417.302C370.741 415.028 369.88 412.876 369.204 411.216C368.528 409.557 368.098 408.45 368.098 408.45C368.098 408.45 367.36 406.176 366.869 403.902C366.315 401.689 366.192 399.353 366.192 399.353Z" fill="#1D1D1C"/>
<path d="M419.24 407.467C419.24 407.467 418.933 407.836 418.379 408.389C417.826 408.942 417.089 409.864 416.228 410.971C414.507 413.183 412.54 416.318 410.634 419.515C408.79 422.772 407.131 426.03 405.84 428.366C404.549 430.763 403.688 432.3 403.688 432.3C403.688 432.3 403.197 433.038 402.398 434.39C401.598 435.681 400.369 437.525 398.771 439.615C395.636 443.795 390.534 448.651 384.51 451.97C381.498 453.691 378.363 455.043 375.29 456.027C372.216 457.01 369.45 458.24 367.238 459.531C365.025 460.822 363.365 462.235 362.504 463.465C362.259 463.772 362.074 464.018 361.951 464.325C361.828 464.571 361.705 464.817 361.644 465.001C361.521 465.37 361.459 465.555 361.459 465.555C361.459 465.555 361.521 465.37 361.644 464.94C361.705 464.756 361.828 464.51 361.951 464.264C362.074 464.018 362.259 463.711 362.443 463.403C363.304 462.174 364.902 460.699 367.115 459.346C369.327 457.994 372.094 456.703 375.167 455.658C378.179 454.613 381.314 453.199 384.264 451.478C390.165 448.036 395.083 443.241 398.095 439.062C399.631 436.972 400.799 435.128 401.598 433.837C402.398 432.546 402.828 431.747 402.828 431.747C402.828 431.747 403.75 430.21 405.102 427.874C406.454 425.6 408.237 422.404 410.204 419.146C412.171 416.011 414.322 412.876 416.105 410.786C417.027 409.741 417.765 408.881 418.379 408.327C418.933 407.774 419.24 407.467 419.24 407.467Z" fill="#1D1D1C"/>
<path d="M371.786 435.558C371.786 435.558 369.758 445.147 366.623 454.306C365.086 458.916 363.426 463.403 362.013 466.723C360.722 470.042 359.738 472.255 359.738 472.255C359.738 472.255 359.247 473.361 358.325 475.205C357.464 477.111 356.235 479.815 354.759 483.073C353.346 486.331 351.809 490.204 350.579 494.445C349.412 498.686 348.49 503.358 347.998 508.03C347.076 517.373 347.076 526.655 348.305 533.355C348.612 536.797 349.473 539.44 349.903 541.346C350.334 543.251 350.641 544.357 350.641 544.357C350.641 544.357 350.334 543.251 349.903 541.346C349.473 539.44 348.551 536.797 348.182 533.355C346.83 526.655 346.768 517.311 347.506 507.968C347.936 503.296 348.797 498.625 349.903 494.261C351.071 489.958 352.546 486.024 353.96 482.704C355.374 479.447 356.603 476.681 357.403 474.775C358.263 472.87 358.755 471.763 358.755 471.763C358.755 471.763 359.8 469.612 361.152 466.292C362.627 463.035 364.41 458.609 366.07 454.06C369.512 445.086 371.786 435.558 371.786 435.558Z" fill="#1D1D1C"/>
<path d="M0.577333 -5.90938C1.68377 -5.17176 1.8067 -2.3442 2.85167 -1.60658L2.66727 -0.930423C2.29845 -1.29923 1.8067 -1.36071 1.37642 -1.66805C1.37642 -1.66805 1.25349 -1.79099 1.00761 -2.03686C0.761737 -2.28273 0.392924 -2.77448 0.14705 -3.63504C0.0241129 -4.06532 -0.0373538 -4.61854 0.0241148 -5.17176C0.0855833 -5.78644 0.331459 -6.21672 0.577333 -6.58554C1.13055 -7.20022 1.86817 -7.13875 2.29845 -6.40113C2.72873 -5.6635 3.03607 -4.61854 3.22048 -3.69651C3.40488 -2.71301 3.40488 -1.66805 3.22048 -0.868955C2.9746 -0.131332 2.6058 0.23748 2.35992 0.298949C2.05258 0.360417 1.92964 0.176009 1.92964 0.176009C1.92964 0.176009 2.11405 0.298945 2.35992 0.237476C2.6058 0.176008 2.97461 -0.1928 3.15901 -0.930423C3.52782 -2.40567 2.91314 -4.74148 2.17552 -5.97085C1.74524 -6.58554 1.19202 -6.52407 0.823208 -5.97085C0.392928 -5.4791 0.392927 -4.61854 0.577333 -4.06532C1.00761 -2.89742 1.6223 -2.71301 1.6223 -2.71301C1.99111 -2.3442 2.48286 -2.09833 2.91314 -1.60658L2.72873 -0.930423C1.37642 -2.28273 1.6223 -4.98735 0.577333 -5.90938Z" fill="#1D1D1C"/>
<path d="M48.3998 36.0737C47.4778 35.582 46.3714 35.7049 45.6952 36.1967C45.5723 36.3196 45.6337 36.5655 45.7567 36.7499C45.8181 37.1187 46.4943 37.3031 47.1704 37.1802C47.8466 37.0572 48.5227 36.7499 49.1374 36.3811L49.076 36.7499C48.2154 35.8279 46.7402 35.5205 45.4493 36.0123C46.6172 35.3361 48.2769 35.3976 49.4448 36.3811L49.6907 36.5655L49.4448 36.7499C48.8301 37.2416 48.1539 37.6104 47.3548 37.9178C46.986 38.0407 46.4943 38.1022 46.064 38.0407C45.5723 37.9793 45.019 37.6719 44.8346 37.1802C44.6502 36.6884 44.7117 35.9508 45.3264 35.582C46.4328 35.1517 47.6622 35.3976 48.3998 36.0737Z" fill="#1D1D1C"/>
<path d="M406.331 345.199C406.331 345.199 405.225 348.396 403.688 351.408C402.274 354.481 400.615 357.431 400.615 357.431C400.615 357.431 399.693 358.845 398.402 360.997C396.988 363.025 395.021 365.791 393.116 368.496C391.21 371.2 389.427 373.967 388.014 375.995C387.338 377.04 386.784 377.962 386.415 378.515C386.047 379.13 385.801 379.499 385.801 379.499C385.801 379.499 385.985 379.13 386.354 378.515C386.723 377.9 387.215 376.978 387.829 375.934C389.182 373.844 390.841 370.955 392.624 368.188C394.406 365.361 396.25 362.595 397.603 360.505C398.832 358.353 399.693 356.878 399.693 356.878C399.693 356.878 401.537 354.112 403.196 351.162C404.979 348.334 406.331 345.199 406.331 345.199Z" fill="#1D1D1C"/>
</svg>
