<svg width="515" height="514" viewBox="0 0 515 514" fill="none" xmlns="http://www.w3.org/2000/svg">
<path d="M94.5229 5.16611C94.5229 5.16611 94.1377 5.70803 93.4343 6.60939C92.7308 7.51075 91.7687 8.83482 90.4938 10.334C89.2208 11.7718 87.7524 13.5726 86.2207 15.4331C84.689 17.2936 82.852 19.0834 81.1323 21.0612C79.4145 22.9776 77.5774 24.7674 75.867 26.4381C74.2161 28.172 72.5707 29.7216 71.1171 31.0309C68.2098 33.6496 66.3131 35.3761 66.3131 35.3761C66.3131 35.3761 65.3043 36.2068 63.5398 37.6299C61.7752 39.0529 59.2513 41.1911 56.0441 43.5548C49.8086 48.4721 40.9502 54.7252 32.6116 62.1008C24.2135 69.4131 16.5772 77.9781 12.0517 85.345C10.8309 87.0918 9.97689 88.9111 9.07067 90.4213C8.2855 91.9967 7.50769 93.3263 7.04261 94.4808C6.11246 96.7898 5.51898 98.1249 5.51898 98.1249C5.51898 98.1249 6.05102 96.7879 6.98302 94.4175C7.4481 93.263 8.22774 91.872 8.95148 90.2948C9.85769 88.7845 10.6502 86.9634 11.8729 85.1552C16.2774 77.7232 23.8559 69.0334 32.1963 61.5963C40.4771 54.096 49.2777 47.7182 55.4536 42.7377C58.6626 40.3125 61.1251 38.1724 62.8897 36.7494C64.6542 35.3264 65.6649 34.4343 65.6649 34.4343C65.6649 34.4343 67.6844 32.7114 70.5881 30.2156C72.0399 28.9677 73.7448 27.4814 75.4571 25.7493C77.229 24.0805 79.1257 22.354 80.9031 20.5009C82.621 18.5845 84.5176 16.858 86.1107 14.9993C87.7038 13.1407 89.1704 11.4013 90.503 10.0268C91.776 8.58906 92.861 7.26866 93.5645 6.36731C94.1377 5.70803 94.5229 5.16611 94.5229 5.16611Z" fill="#1D1D1C"/>
<path d="M117.347 15.1362C117.347 15.1362 116.304 15.0434 114.712 14.8112C113.118 14.6405 110.97 14.5146 108.871 14.7592C106.777 14.8809 104.615 15.185 103.009 15.4444C101.404 15.6423 100.408 16.0429 100.408 16.0429C100.408 16.0429 98.3043 16.4718 95.1413 17.3609C91.9188 18.1868 87.9891 20.0369 83.9924 22.0694C80.1745 24.2919 76.3493 26.76 73.762 28.9578C72.4386 30.0251 71.3665 30.9154 70.609 31.5692C69.8514 32.2229 69.4103 32.5787 69.4103 32.5787C69.4103 32.5787 69.7918 32.1596 70.5494 31.5059C71.3069 30.8521 72.3809 29.9004 73.6428 28.8313C76.1705 26.5702 79.938 23.9773 83.6981 21.6301C87.637 19.4728 91.5704 17.4999 94.7966 16.5511C97.9633 15.5391 100.069 15.0488 100.069 15.0488C100.069 15.0488 101.123 14.7729 102.787 14.6383C104.453 14.4422 106.609 14.3224 108.761 14.3254C110.916 14.267 113.122 14.5176 114.714 14.7498C116.246 14.9187 117.347 15.1362 117.347 15.1362Z" fill="#1D1D1C"/>
<path d="M52.1539 23.5749C52.1539 23.5749 51.2661 24.4708 49.9967 25.7856C48.7274 27.1005 47.1939 29.0224 45.7218 30.9462C44.1883 32.8681 42.7758 34.8551 41.8063 36.425C40.8368 37.9948 40.1911 39.0209 40.1911 39.0209C40.1911 39.0209 39.8692 39.5032 39.2272 40.4064C38.587 41.2482 37.8092 42.5778 36.8397 44.1476C34.9007 47.2873 32.5003 51.4586 30.2172 55.8179C25.7145 64.4769 21.275 73.0762 21.275 73.0762C21.275 73.0762 25.4705 64.408 29.7331 55.5574C31.8932 51.1944 34.1744 46.8965 36.0538 43.6936C36.9637 42.0605 37.7397 40.7923 38.3203 39.8872C38.9009 38.9822 39.2246 38.4385 39.2246 38.4385C39.2246 38.4385 39.9318 37.4142 41.0223 35.9095C42.0514 34.4029 43.5868 32.4196 45.2395 30.6242C46.8326 28.7656 48.4872 26.9088 49.8161 25.6572C51.2679 24.4093 52.1539 23.5749 52.1539 23.5749Z" fill="#1D1D1C"/>
<path d="M57.123 85.5276C57.123 85.5276 56.1288 85.8668 54.5203 86.1875C52.9118 86.5083 50.6889 86.8106 48.4715 86.9287C46.2541 87.0467 43.9212 86.9153 42.2064 86.6794C40.4915 86.4435 39.3297 86.2242 39.3297 86.2242C39.3297 86.2242 38.7804 86.0847 37.8029 85.8709C36.8253 85.6571 35.4214 85.3076 33.7047 85.1331C30.2732 84.7228 25.7045 85.3238 21.4731 86.9804C17.1225 88.5104 13.1762 90.9134 10.3451 93.0424C7.51395 95.1714 5.92452 96.9072 5.92452 96.9072C5.92452 96.9072 6.30606 96.4881 7.06545 95.773C7.7634 95.0559 8.8392 94.0427 10.2241 92.9773C12.9956 90.785 16.886 88.1958 21.2402 86.5429C25.4753 84.7635 30.1706 84.0433 33.7287 84.3344C35.5086 84.4493 36.9126 84.7988 37.9534 84.953C38.9309 85.1668 39.482 85.2448 39.482 85.2448C39.482 85.2448 43.9359 86.4237 48.4248 86.4353C50.6981 86.5034 52.9173 86.324 54.524 86.0647C56.0692 85.8035 57.123 85.5276 57.123 85.5276Z" fill="#1D1D1C"/>
<path d="M7.09678 94.7285C7.09493 94.7899 7.10415 94.4827 7.16559 94.4845C7.34807 94.5515 7.22518 94.5478 7.28294 94.6725L7.21597 94.855L7.14165 95.2833C7.00035 95.894 6.85904 96.5047 6.85904 96.5047C6.85904 96.5047 6.21149 97.5922 5.62721 98.6202C4.97965 99.7077 4.45498 100.799 4.45498 100.799C4.45498 100.799 4.73757 99.5774 5.14305 98.3597C5.54853 97.1419 5.89073 95.9837 5.89073 95.9837C5.89073 95.9837 6.2741 95.5033 6.65932 94.9613L6.91613 94.6L7.04454 94.4194C7.10598 94.4212 7.05007 94.2351 7.29583 94.2425C7.2215 94.6707 7.03718 94.6652 7.09678 94.7285Z" fill="#1D1D1C"/>
<path d="M-14.8115 201.936C-14.8115 201.936 -14.6794 201.633 -14.4152 201.026C-14.151 200.419 -13.6374 199.696 -12.9954 198.793C-11.6517 197.05 -9.50379 195.146 -7.65755 193.049C-5.8113 190.952 -4.38226 188.412 -3.40355 186.535C-2.42485 184.658 -1.77176 183.386 -1.77176 183.386C-1.77176 183.386 -0.467436 180.904 1.67061 177.278C3.8701 173.654 6.6594 168.818 9.32212 164.101C12.171 159.329 14.5898 154.543 16.2978 150.904C18.1286 147.269 19.0625 144.838 19.0625 144.838C19.0625 144.838 18.1882 147.333 16.4188 150.969C14.7705 154.671 12.5341 159.524 9.74484 164.36C7.20131 169.204 4.5349 174.043 2.39501 177.73C0.439443 181.423 -0.864882 183.905 -0.864882 183.905C-0.864882 183.905 -1.57756 185.114 -2.61771 186.989C-3.65601 188.803 -5.33083 191.336 -7.29996 193.429C-9.26908 195.522 -11.5344 197.238 -12.9376 198.918C-13.6393 199.757 -14.1529 200.48 -14.4767 201.024C-14.618 201.635 -14.8115 201.936 -14.8115 201.936Z" fill="#1D1D1C"/>
<path d="M24.518 129.012C24.518 129.012 24.164 128.509 23.8193 127.7C23.4132 126.888 23.1391 125.773 23.1127 124.604C23.0862 123.434 23.2441 122.271 23.5157 121.418C23.7872 120.565 24.111 120.021 24.111 120.021L24.2394 119.841L24.3027 119.781L24.366 119.721C25.693 118.531 27.6684 118.283 29.3089 118.947C31.0089 119.675 32.0688 121.244 32.0824 122.843C32.096 124.442 30.9513 125.7 29.6353 126.521C28.2578 127.341 26.7667 127.849 25.3947 128.485C26.7685 127.788 28.2001 127.216 29.4565 126.331C30.7111 125.508 31.6714 124.245 31.5276 122.888C31.4452 121.533 30.378 120.209 29.0391 119.739C27.7003 119.268 26.0304 119.587 25.1407 120.544L25.204 120.485L25.1371 120.667C25.1371 120.667 24.817 121.088 24.4877 121.816C24.1584 122.544 23.8198 123.579 23.7253 124.683C23.6307 125.788 23.7204 126.897 24.0651 127.707C24.2869 128.513 24.518 129.012 24.518 129.012Z" fill="#1D1D1C"/>
<path d="M6.43279 102.519C6.43279 102.519 5.84232 101.701 4.76584 100.685C3.75081 99.6708 1.94441 98.3868 0.023169 98.8827C-1.83479 99.3189 -2.88047 101.378 -3.35107 102.717C-3.55749 103.449 -3.69879 104.06 -3.70984 104.428C-3.72273 104.859 -3.7301 105.104 -3.7301 105.104C-3.7301 105.104 -3.91374 107.128 -2.82924 109.928C-1.74473 112.728 0.239282 116.293 2.91941 119.202C4.22876 120.655 5.78755 121.994 6.53288 123.799C7.2782 125.605 7.41096 127.331 7.9867 128.64C8.56244 129.948 9.51971 130.838 10.3707 131.171C10.7952 131.368 11.1024 131.377 11.3482 131.385C11.594 131.392 11.7169 131.396 11.7169 131.396C11.7169 131.396 11.594 131.392 11.3482 131.385C11.1024 131.377 10.7952 131.368 10.3707 131.171C9.51971 130.838 8.56059 130.01 7.86381 128.636C7.16703 127.262 6.97284 125.534 6.22383 123.851C5.47482 122.169 3.91419 120.892 2.54156 119.498C-0.26329 116.646 -2.43348 113.138 -3.63718 110.211C-4.27067 108.778 -4.59881 107.415 -4.69407 106.49C-4.74078 105.996 -4.79117 105.626 -4.7838 105.38C-4.77643 105.134 -4.77275 105.012 -4.77275 105.012C-4.77275 105.012 -4.7021 104.706 -4.68921 104.276C-4.61303 103.786 -4.40845 103.116 -4.13874 102.325C-3.8076 101.535 -3.35173 100.688 -2.71338 99.9076C-2.07503 99.1273 -1.06987 98.4194 -0.0198502 98.2664C2.20307 97.9641 4.00394 99.4325 4.95385 100.568C5.90376 101.703 6.43279 102.519 6.43279 102.519Z" fill="#1D1D1C"/>
<path d="M19.6489 133.478C19.6489 133.478 18.4145 133.626 16.5154 133.384C14.6162 133.143 12.1789 132.393 10.0001 131.221C7.75997 130.047 5.77661 128.512 4.27374 127.36C2.8323 126.21 1.81175 125.38 1.81175 125.38C1.8099 125.441 1.33496 124.873 0.545431 124.542C0.180468 124.408 -0.251464 124.457 -0.755883 124.872C-1.00717 125.049 -1.26214 125.349 -1.45751 125.712C-1.71432 126.073 -1.9097 126.436 -2.10691 126.861C-2.83249 128.5 -3.02351 130.769 -2.34883 132.88C-2.0115 133.936 -1.42655 134.937 -0.528875 135.764C0.372483 136.467 1.45632 137.238 2.48424 137.822C4.59785 139.115 6.90129 140.23 9.23605 140.3C11.5094 140.368 13.7378 139.881 15.5608 140.612C16.4732 140.947 17.1957 141.461 17.6074 142.088C18.0805 142.717 18.1217 143.395 18.2317 143.829C18.3399 144.324 18.4517 144.696 18.6286 144.947C18.8056 145.199 18.9266 145.264 18.9266 145.264C18.9266 145.264 18.8056 145.199 18.6286 144.947C18.4498 144.758 18.2784 144.322 18.1703 143.827C18.0621 143.332 17.9577 142.714 17.546 142.086C17.1325 141.52 16.3485 141.005 15.4957 140.733C13.7323 140.066 11.5634 140.615 9.1654 140.605C6.76921 140.533 4.34103 139.477 2.16415 138.243C1.01518 137.593 0.050543 136.95 -1.0333 136.179C-2.05201 135.288 -2.69655 134.223 -3.09349 133.104C-3.94697 130.803 -3.81002 128.286 -3.01748 126.465C-2.81842 125.979 -2.55977 125.556 -2.36439 125.193C-2.10574 124.77 -1.84893 124.409 -1.53252 124.111C-0.897851 123.454 0.152178 123.3 0.759222 123.565C2.03475 124.095 2.32538 124.657 2.38866 124.597C2.38866 124.597 3.34777 125.426 4.72408 126.697C6.10223 127.907 8.0223 129.502 10.1359 130.795C12.2495 132.088 14.5603 132.957 16.3962 133.258C18.4164 133.564 19.6489 133.478 19.6489 133.478Z" fill="#1D1D1C"/>
<path d="M7.04346 102.66C7.04346 102.66 8.63054 105.106 9.78385 107.662C10.3596 108.97 10.8739 110.277 11.3359 111.275C11.7347 112.332 11.9621 112.954 11.9621 112.954C11.9621 112.954 12.3516 114.319 12.7191 116.421C12.874 117.409 13.0829 118.645 13.2918 119.882C13.7465 121.125 14.1379 122.428 14.7788 123.616C15.2949 124.861 16.1201 126.054 17.0774 126.944C18.0347 127.834 19.1892 128.299 20.2281 128.514C22.4326 128.827 23.5121 127.69 23.4507 127.689C23.4507 127.689 23.259 127.929 22.6968 128.219C22.1961 128.512 21.2671 128.73 20.2244 128.637C19.1818 128.545 17.843 128.074 16.8243 127.183C15.8055 126.291 14.9189 125.096 14.2799 123.847C13.6409 122.598 13.1266 121.291 12.6086 120.107C12.3401 118.808 12.0679 117.631 11.792 116.577C11.3612 114.535 10.9084 113.23 10.9084 113.23C10.9084 113.23 10.1907 110.503 9.2868 107.831C8.31965 105.219 7.04346 102.66 7.04346 102.66Z" fill="#1D1D1C"/>
<path d="M30.0259 119.645C30.0259 119.645 30.0984 119.278 30.3012 118.669C30.5039 118.061 30.8387 117.148 31.3001 116.117C32.3458 114.057 34.2049 111.53 36.6005 109.572C38.9978 107.553 41.8087 106.1 44.1619 105.556C46.5187 104.888 48.2968 105.065 48.2968 105.065C48.2968 105.065 48.5426 105.072 48.9094 105.145C49.3377 105.219 49.8888 105.297 50.682 105.505C51.4119 105.773 52.3243 106.108 53.2275 106.75C54.1326 107.331 55.0284 108.218 55.5482 109.341C56.0699 110.402 56.033 111.631 55.7505 112.852C55.4083 114.01 54.8203 115.161 53.9288 116.18C52.2055 118.281 49.5138 119.86 46.768 121.192C44.0204 122.586 41.0977 123.667 38.4152 124.939C35.7327 126.212 33.2923 127.615 31.5855 129.162C29.9998 130.775 28.7845 132.338 28.5001 133.621C28.2138 134.965 29.117 135.607 29.0574 135.544C29.0574 135.544 28.8768 135.415 28.6402 135.101C28.4037 134.786 28.2974 134.229 28.4405 133.557C28.6653 132.211 29.821 130.585 31.4067 128.972C33.1154 127.363 35.5576 125.899 38.1805 124.563C40.8034 123.228 43.7894 122.087 46.4159 120.628C49.1021 119.233 51.7323 117.651 53.2695 115.607C54.8645 113.687 55.5563 111.124 54.6862 109.377C53.7566 107.565 51.7566 106.583 50.4756 106.237C49.1331 105.889 48.3958 105.867 48.3958 105.867C48.3958 105.867 46.8038 105.635 44.5121 106.181C42.2222 106.666 39.415 107.996 37.0232 109.831C34.6313 111.666 32.653 114.066 31.5477 116.063C31.0249 117.092 30.6919 117.943 30.4892 118.552C30.1599 119.28 30.0259 119.645 30.0259 119.645Z" fill="#1D1D1C"/>
<path d="M28.7816 134.49C28.8431 134.492 28.5844 134.915 28.9979 135.48C29.4114 136.046 30.443 136.508 31.7351 136.485C32.9658 136.46 34.3937 136.011 35.6446 135.311C36.8973 134.549 38.0942 133.601 39.17 132.587C41.3234 130.5 43.7786 128.605 45.4817 127.18C47.2462 125.757 48.3816 124.808 48.3816 124.808C48.3816 124.808 49.5152 123.919 50.7084 123.094C51.8419 122.205 53.0332 121.442 53.0332 121.442C53.8485 120.913 54.9115 120.33 56.2576 120.554C57.6038 120.779 58.5629 121.607 59.1534 122.425C59.742 123.303 59.9583 124.294 59.8078 125.212C59.6573 126.129 59.2033 126.915 58.6282 127.636C57.4781 129.077 56.1491 130.329 54.8798 131.644C52.0972 134.205 49.3742 136.829 45.5115 138.497C41.7102 140.166 37.3221 140.896 32.9524 141.011L33.7198 142.079L32.891 141.009C37.2625 140.832 41.591 140.04 45.2712 138.305C49.0111 136.634 51.6745 133.946 54.3342 131.382C55.6035 130.067 56.9343 128.754 57.9597 127.37C58.9833 126.048 59.4686 124.217 58.3436 122.769C57.8109 122.077 56.9691 121.437 56.1108 121.349C55.1929 121.199 54.3812 121.605 53.5659 122.134C53.5659 122.134 52.4342 122.961 51.3007 123.85C50.1671 124.738 49.0335 125.627 49.0335 125.627C49.0335 125.627 47.8385 126.513 46.0144 127.873C44.2517 129.234 41.6755 131.064 39.4643 133.027C38.3289 133.977 37.0688 134.984 35.7564 135.683C34.4441 136.382 32.9566 136.767 31.6645 136.79C30.3724 136.813 29.3445 136.229 28.9309 135.663C28.5844 134.915 28.8431 134.492 28.7816 134.49Z" fill="#1D1D1C"/>
<path d="M33.5034 141.089C33.1907 141.264 33.3025 141.636 33.4813 141.826C33.6583 142.077 33.8985 142.269 34.2021 142.401C34.8091 142.665 35.3565 142.866 35.9673 143.007C37.1887 143.29 38.4771 143.39 39.65 143.241L39.3969 143.479C39.5548 142.315 41.4091 142.002 42.3719 142.707C43.3347 143.413 43.7334 144.47 43.5178 145.509C43.5178 145.509 43.4435 145.937 42.995 146.539C42.74 146.839 42.4236 147.137 41.8614 147.427C41.3625 147.658 40.6811 147.822 39.9439 147.8C38.4711 147.695 37.0168 146.975 35.689 146.135C34.3613 145.296 33.039 144.272 31.5884 143.429C30.1359 142.648 28.4936 142.045 26.9539 142.122C25.4142 142.199 24.1595 143.022 23.0966 143.605C22.0319 144.25 21.0955 144.714 20.4123 144.939C19.6677 145.163 19.2376 145.15 19.2376 145.15C19.2376 145.15 19.6677 145.163 20.3509 144.938C21.0341 144.712 21.9723 144.187 22.9756 143.54C23.9789 142.894 25.2354 142.009 26.8998 141.875C28.5642 141.74 30.3313 142.285 31.8452 143.068C33.4206 143.853 34.8042 144.879 36.1338 145.657C37.4634 146.434 38.7986 147.028 39.966 147.063C41.1333 147.098 41.8258 146.565 42.1477 146.083C42.4678 145.662 42.477 145.355 42.477 145.355C42.6797 144.746 42.4598 143.878 41.8582 143.43C41.32 142.922 40.1453 143.133 40.004 143.743L39.937 143.926L39.7527 143.92C38.4587 144.004 37.1125 143.78 35.8948 143.374C35.2859 143.171 34.6789 142.907 34.1333 142.645C33.8316 142.451 33.5913 142.26 33.4144 142.008C33.2411 141.634 33.1907 141.264 33.5034 141.089Z" fill="#1D1D1C"/>
<path d="M25.7954 129.481L24.3049 132.019C23.7335 132.617 23.1025 133.151 22.654 133.753C22.2055 134.354 21.9358 135.146 22.2824 135.894L22.1595 135.89C22.5337 135.717 22.9619 135.791 23.2003 136.045C22.8986 135.851 22.5281 135.901 22.2769 136.078L22.2136 136.138L22.154 136.075C21.6231 135.321 21.7755 134.341 22.1066 133.552C22.4377 132.762 23.011 132.103 23.4613 131.44L25.7954 129.481Z" fill="#1D1D1C"/>
<path d="M15.4979 249.397C15.4979 249.397 14.8853 249.317 14.0325 249.046C13.1797 248.774 12.0271 248.248 11.0643 247.542C10.04 246.835 9.26894 245.89 8.80319 245.015C8.57032 244.577 8.46032 244.143 8.40809 243.834C8.35586 243.525 8.42467 243.281 8.42467 243.281C8.50084 242.792 8.88423 242.311 9.1988 242.075C9.57665 241.779 9.88938 241.603 10.2021 241.428C10.8908 241.018 11.5778 240.67 12.3243 240.385C13.8191 239.753 15.7834 239.874 16.9158 241.076C18.05 242.217 18.4322 243.827 18.0808 245.293C17.7908 246.76 16.8901 248.086 15.8739 249.162C15.928 249.41 16.2911 249.605 16.5387 249.551C16.2278 249.665 15.8647 249.47 15.8106 249.222C16.7672 248.082 17.5451 246.753 17.7103 245.343C17.9984 243.937 17.4896 242.446 16.4709 241.555C15.4541 240.602 13.8547 240.615 12.5461 241.191C11.861 241.478 11.2337 241.89 10.6064 242.301C9.91582 242.773 9.41325 243.127 9.33891 243.555C9.33891 243.555 9.20498 243.92 9.49009 244.666C9.77519 245.413 10.4234 246.355 11.2597 247.179C12.0959 248.004 13.1238 248.588 13.9748 248.921C14.8853 249.317 15.4979 249.397 15.4979 249.397Z" fill="#1D1D1C"/>
<path d="M16.4829 249.365C16.5462 249.305 18.2727 251.202 18.2095 251.262C18.2095 251.262 18.666 252.444 18.8135 253.678C19.0224 254.914 18.9856 256.143 18.9856 256.143C18.9856 256.143 18.7748 254.968 18.3164 253.848C17.8581 252.727 17.2117 251.724 17.2117 251.724C17.275 251.664 16.5444 249.367 16.4829 249.365Z" fill="#1D1D1C"/>
<path d="M-10.7818 215.217C-10.7818 215.217 -11.0908 215.269 -11.6493 215.437C-12.2078 215.605 -12.9543 215.89 -13.8292 216.356C-15.5176 217.289 -17.4234 219.323 -18.2995 221.879C-19.1141 224.438 -18.5193 227.161 -17.9602 229.023C-17.6806 229.954 -17.334 230.702 -17.1067 231.324C-16.8775 231.884 -16.7638 232.195 -16.7638 232.195C-16.7638 232.195 -16.5383 232.878 -16.0762 233.876C-15.616 234.935 -14.9844 236.43 -13.8686 238.186C-11.758 241.631 -8.43883 245.789 -4.60974 249.348C-0.719202 252.908 3.61799 255.929 6.81359 258.054C10.0725 260.119 12.2457 261.476 12.2457 261.476C12.2457 261.476 10.0706 260.181 6.74846 258.175C3.48958 256.109 -0.912734 253.21 -4.92983 249.769C-8.88549 246.329 -12.3275 242.167 -14.561 238.718C-15.6768 236.963 -16.4313 235.464 -16.9512 234.342C-17.471 233.219 -17.6983 232.598 -17.6983 232.598C-17.6983 232.598 -17.812 232.287 -17.9797 231.728C-18.1475 231.17 -18.4922 230.36 -18.7067 229.308C-19.2007 227.325 -19.7267 224.358 -18.6626 221.684C-17.6004 219.071 -15.5735 217.103 -13.7641 216.235C-12.8892 215.769 -12.0831 215.547 -11.5264 215.441C-11.0908 215.269 -10.7818 215.217 -10.7818 215.217Z" fill="#1D1D1C"/>
<path d="M-11.2487 216.433C-11.2487 216.433 -11.301 216.124 -10.9809 215.703C-10.6608 215.282 -9.97388 214.934 -9.11555 215.021C-8.19393 215.049 -7.29625 215.875 -6.95707 216.869C-6.55645 217.865 -6.46856 219.036 -6.31739 220.148C-6.01504 222.371 -5.46509 224.539 -5.02329 226.213C-4.5182 227.827 -4.2423 228.881 -4.2423 228.881C-4.2423 228.881 -3.69235 231.05 -2.55561 234.158C-1.29599 237.271 0.736582 241.268 3.21029 244.909C4.44714 246.729 5.80872 248.492 7.24095 249.949C8.60989 251.466 10.0458 252.801 11.6267 253.401C13.2094 253.941 14.6951 253.616 15.5104 253.087C15.9478 252.854 16.2028 252.555 16.3312 252.374C16.4614 252.132 16.5862 252.074 16.5862 252.074C16.5862 252.074 16.521 252.195 16.3926 252.376C16.2642 252.556 15.9478 252.854 15.57 253.151C14.7547 253.68 13.2672 254.066 11.6212 253.586C9.977 253.044 8.47964 251.708 7.04742 250.251C5.55375 248.792 4.12888 247.089 2.83059 245.266C0.170719 241.681 -1.98473 237.681 -3.36723 234.565C-4.62685 231.452 -5.23641 229.22 -5.23641 229.22C-5.23641 229.22 -5.51046 228.105 -5.89083 226.433C-6.20975 224.763 -6.63314 222.475 -6.8126 220.256C-6.90234 219.146 -6.92878 217.977 -7.2698 217.044C-7.60898 216.05 -8.32602 215.352 -9.12291 215.267C-9.91796 215.12 -10.6645 215.405 -10.9213 215.766C-11.2395 216.126 -11.1873 216.435 -11.2487 216.433Z" fill="#1D1D1C"/>
<path d="M18.3919 251.329C18.3919 251.329 18.5166 251.271 18.7679 251.094C19.0192 250.917 19.3337 250.681 19.652 250.321C20.3499 249.604 21.0663 248.273 21.3003 246.619C21.8317 243.253 20.9831 238.738 19.1385 234.624C17.2325 230.508 15.576 226.277 13.8826 223.274C13.0666 221.774 12.3029 220.583 11.7142 219.704C11.1238 218.887 10.8313 218.386 10.8313 218.386C10.8313 218.386 10.1849 217.383 9.1287 215.691C8.13576 213.939 6.3662 211.426 5.73757 207.779C5.68902 207.347 5.64231 206.854 5.59376 206.422C5.54521 205.99 5.56178 205.437 5.82412 204.891C6.02502 204.344 6.77705 203.875 7.39146 203.893C8.00771 203.85 8.55699 203.989 9.04299 204.189C10.1379 204.59 10.8531 205.35 11.6948 205.99C12.5366 206.63 13.3765 207.332 14.2146 208.095C17.5091 211.022 20.4762 214.617 22.6949 218.557C25.0998 222.442 26.6335 226.67 27.3125 230.688C28.2373 234.712 28.2423 238.648 27.8971 241.959C27.4905 245.267 26.9775 248.019 26.3675 249.907C26.0922 250.883 25.8244 251.613 25.6253 252.099C25.4263 252.585 25.3556 252.89 25.3556 252.89C25.3556 252.89 25.4244 252.647 25.6253 252.099C25.8244 251.613 26.0308 250.881 26.306 249.906C26.8546 248.016 27.3676 245.264 27.7128 241.953C28.058 238.643 27.9283 234.765 26.942 230.738C26.2016 226.718 24.6046 222.55 22.1346 218.787C19.8507 214.967 16.9414 211.497 13.5836 208.629C12.7437 207.928 11.9038 207.226 11.062 206.586C10.157 206.005 9.37849 205.306 8.52752 204.973C7.67656 204.64 6.6935 204.61 6.48892 205.28C6.35683 205.584 6.34394 206.014 6.39249 206.446C6.3796 206.876 6.48959 207.31 6.53814 207.742C7.17599 211.082 8.82451 213.529 9.88072 215.221C10.9984 216.915 11.6466 217.857 11.6466 217.857C11.6466 217.857 11.9391 218.358 12.4663 219.235C12.9935 220.111 13.8168 221.366 14.5695 222.926C16.1363 226.048 17.7314 230.277 19.5127 234.451C21.294 238.625 22.016 243.258 21.3618 246.621C21.0645 248.334 20.2885 249.602 19.5887 250.381C19.209 250.738 18.8944 250.975 18.6431 251.152C18.5166 251.271 18.3919 251.329 18.3919 251.329Z" fill="#1D1D1C"/>
<path d="M26.0837 253.22C26.0837 253.22 26.5807 253.05 27.3905 252.705C28.2003 252.361 29.3861 251.781 30.7021 250.96C33.3324 249.378 36.4873 246.705 38.5529 243.447C40.678 240.251 41.833 236.596 42.0351 233.958C42.3004 231.26 41.9219 229.526 41.9219 229.526C41.9219 229.526 41.8248 228.663 41.5022 227.116C41.34 226.373 40.999 225.44 40.9111 224.269C40.8213 223.159 41.1801 221.448 42.9858 220.703C44.853 219.959 46.9033 221.312 47.4121 222.803C47.9805 224.358 48.1187 225.899 48.2515 227.625C48.6436 230.958 48.4735 234.581 47.5661 238.182C47.0808 240.012 46.5973 241.781 45.747 243.478C44.8371 245.111 43.6218 246.673 42.291 247.986C39.5066 250.609 36.2564 252.356 33.3933 253.5C31.9618 254.072 30.5953 254.523 29.471 255.105C28.3466 255.686 27.5239 256.461 27.0717 257.185C26.2251 258.759 26.9311 259.825 26.8715 259.762C26.9311 259.825 26.1619 258.818 27.0103 257.183C27.4029 256.396 28.2256 255.621 29.3499 255.04C30.4743 254.458 31.8407 254.007 33.2741 253.374C36.0776 252.166 39.3297 250.357 41.9894 247.793C43.3201 246.48 44.4703 245.038 45.3206 243.342C46.1076 241.705 46.5911 239.936 47.0131 238.166C47.7958 234.622 47.9026 231.059 47.4473 227.786C47.2494 226.181 47.1148 224.516 46.539 223.208C46.0247 221.901 44.3898 221.052 43.2673 221.572C42.0833 222.09 41.7374 223.371 41.8308 224.358C41.9243 225.345 42.2653 226.277 42.4257 227.082C42.8097 228.631 42.905 229.556 42.905 229.556C42.905 229.556 43.2184 231.41 42.8283 234.166C42.4996 236.923 41.1567 240.696 38.9086 243.888C36.6587 247.141 33.3828 249.749 30.6929 251.267C29.3173 252.025 28.1333 252.543 27.3236 252.888C26.5211 252.987 26.0837 253.22 26.0837 253.22Z" fill="#1D1D1C"/>
<path d="M26.9422 259.457C26.9422 259.457 26.745 259.881 27.0338 260.505C27.2612 261.127 28.0992 261.89 29.3262 261.988C30.5532 262.086 31.9774 261.76 33.5245 261.437C34.2673 261.275 35.0138 260.99 35.6411 260.578C36.2684 260.167 36.8398 259.569 37.2883 258.967C38.1871 257.703 39.395 256.386 40.9513 255.756C42.4461 255.125 44.051 254.927 45.3412 254.965C46.6315 255.004 47.7301 255.283 48.3985 255.549C49.067 255.815 49.4916 256.012 49.4916 256.012C49.4916 256.012 49.6722 256.141 49.9739 256.334C50.337 256.53 50.7579 256.85 51.2961 257.358C52.313 258.311 53.4958 259.884 53.9843 262.051C54.0906 262.607 54.1969 263.164 54.2399 263.78C54.2363 263.903 54.2381 263.842 54.2307 264.087L54.2234 264.333L54.216 264.579C54.149 264.761 54.2142 264.64 54.2123 264.702L54.2105 264.763C54.2105 264.763 54.1454 264.884 54.1435 264.946C53.8216 265.428 53.2649 265.534 52.8348 265.521C52.4047 265.508 51.9783 265.373 51.6171 265.116C51.2558 264.859 51.0825 264.485 50.9688 264.174C50.7433 263.491 50.6389 262.873 50.3464 262.372C49.7019 261.307 48.0522 260.95 46.5721 261.09C45.0305 261.229 43.4724 261.92 42.2141 262.866C41.5849 263.339 41.0136 263.937 40.5651 264.539C40.1166 265.14 39.7872 265.868 39.2755 266.529C38.0657 267.907 36.2151 268.098 34.7369 268.177C31.5382 268.204 28.868 267.017 26.7507 265.846C24.6967 264.616 22.9462 263.519 21.4753 263.351C20.0063 263.123 19.2487 263.777 19.2506 263.715C19.2487 263.777 19.9448 263.121 21.4772 263.29C22.9499 263.396 24.76 264.557 26.8773 265.727C28.9964 266.836 31.6685 267.962 34.7461 267.869C36.2243 267.791 37.9557 267.474 38.9738 266.336C39.4223 265.734 39.7516 265.006 40.2019 264.343C40.6523 263.68 41.2851 263.084 41.9161 262.55C43.2395 261.482 44.8591 260.793 46.5886 260.537C48.2549 260.341 50.1504 260.706 51.0947 262.025C51.5064 262.653 51.6072 263.394 51.8364 263.954C52.0041 264.512 52.4865 264.834 53.0413 264.79C53.287 264.797 53.5365 264.681 53.5383 264.62C53.5383 264.62 53.5383 264.62 53.5402 264.559L53.542 264.497C53.5402 264.559 53.5457 264.374 53.5402 264.559L53.5475 264.313L53.5549 264.067C53.5531 264.128 53.5586 263.944 53.5586 263.944C53.5137 263.389 53.4074 262.833 53.2993 262.337C52.7456 260.291 51.6187 258.905 50.7211 258.078C50.2424 257.634 49.8197 257.375 49.5795 257.183C49.2778 256.99 49.0953 256.923 49.0953 256.923C49.0953 256.923 48.7936 256.729 48.1866 256.465C47.5795 256.201 46.6653 255.927 45.4998 255.831C44.3342 255.735 42.9156 255.877 41.5473 256.389C40.8622 256.676 40.2368 257.026 39.6058 257.561C39.0381 258.036 38.5281 258.635 38.0164 259.297C37.5064 259.896 36.8717 260.554 36.183 260.963C35.431 261.433 34.6249 261.655 33.8821 261.817C32.3368 262.078 30.853 262.341 29.6261 262.243C28.3395 262.081 27.5032 261.257 27.3373 260.637C26.6854 259.818 26.9422 259.457 26.9422 259.457Z" fill="#1D1D1C"/>
<path d="M-37.0655 271.436L-19.8825 266.478C-19.8825 266.478 -17.7155 265.99 -14.4333 265.227C-12.8229 264.845 -10.7247 264.6 -8.5872 265.095C-6.50926 265.526 -4.31764 266.268 -2.11682 266.703C2.28299 267.634 6.69872 265.983 9.86167 265.094C10.6678 264.872 11.3547 264.524 11.8591 264.109C12.3635 263.693 12.6258 263.148 12.702 262.658C12.8544 261.679 12.2529 261.23 12.3125 261.293C12.251 261.292 12.8544 261.679 12.7635 262.66C12.6873 263.15 12.4864 263.697 11.9187 264.172C11.4124 264.649 10.6641 264.995 9.91943 265.219C6.81423 266.233 2.45627 268.009 -2.19483 267.254C-4.45893 266.879 -6.59096 266.2 -8.67259 265.892C-10.6909 265.524 -12.6048 265.774 -14.1556 266.219C-17.38 267.107 -19.5488 267.657 -19.5488 267.657L-37.0655 271.436Z" fill="#1D1D1C"/>
<path d="M-37.734 271.17C-37.734 271.17 -37.5589 271.483 -37.2701 272.107C-36.918 272.671 -36.4486 273.423 -35.7371 274.305C-34.3737 276.006 -32.1556 277.917 -29.6697 279.099C-27.247 280.34 -24.5584 280.913 -22.6574 281.093C-20.6949 281.274 -19.3992 281.129 -19.3992 281.129C-19.3992 281.129 -16.7572 281.208 -12.9165 280.278C-9.07774 279.409 -4.04024 277.53 0.822142 275.339C5.68452 273.148 10.4332 270.646 13.8155 268.595C17.2592 266.546 19.4557 265.074 19.4557 265.074C19.4557 265.074 17.3188 266.609 13.9347 268.722C10.5506 270.834 5.91923 273.524 1.05317 275.838C-3.81289 278.152 -8.79448 280.217 -12.6984 281.207C-16.6042 282.258 -19.3709 282.236 -19.3709 282.236C-19.3709 282.236 -19.7395 282.225 -20.2925 282.209C-20.9069 282.19 -21.7056 282.166 -22.7464 282.012C-24.7666 281.706 -27.5112 280.947 -29.9283 279.522C-32.4087 278.156 -34.5598 276.062 -35.86 274.301C-36.51 273.421 -36.9776 272.607 -37.2664 271.984C-37.5607 271.544 -37.734 271.17 -37.734 271.17Z" fill="#1D1D1C"/>
<path d="M19.627 265.51C19.6252 265.571 19.2749 264.946 19.7235 264.344C20.1701 263.804 20.9725 263.705 20.9111 263.704C20.9725 263.705 22.0748 263.861 23.1138 264.077C24.216 264.233 25.255 264.449 25.255 264.449C25.255 264.449 24.1454 264.538 23.0357 264.628C21.9261 264.718 20.8165 264.808 20.8779 264.81C20.8779 264.81 20.4515 264.674 20.0178 264.784C19.6436 264.957 19.5656 265.508 19.627 265.51Z" fill="#1D1D1C"/>
<path d="M20.923 265.364C20.923 265.364 21.6161 266.861 22.4678 269.223C23.258 271.584 24.4561 274.695 25.282 277.917C26.9337 284.362 27.5931 291.085 27.5931 291.085C27.5931 291.085 27.6902 291.949 27.7075 293.425C27.7861 294.904 27.785 296.994 27.7076 299.575C27.7409 304.619 26.7341 311.538 25.2431 318.196C24.4045 321.553 23.3835 324.843 22.7329 328.083C22.0209 331.321 21.683 334.386 21.7882 337.033C21.8319 339.679 22.2571 341.905 22.7659 343.397C22.9895 344.141 23.2187 344.702 23.392 345.076C23.5653 345.45 23.6193 345.698 23.6193 345.698C23.6193 345.698 23.502 345.51 23.3287 345.135C23.1554 344.761 22.9262 344.201 22.6411 343.454C22.1324 341.963 21.7071 339.737 21.5406 337.087C21.374 334.438 21.6522 331.31 22.3028 328.07C22.8919 324.829 23.8534 321.475 24.5691 318.114C25.9391 311.391 26.8212 304.53 26.6613 299.605C26.7368 297.086 26.6765 294.993 26.5978 293.515C26.5192 292.037 26.4202 291.234 26.4202 291.234C26.4202 291.234 26.0661 284.582 24.6602 278.144C24.0187 274.927 22.9452 271.759 22.2165 269.4C21.5528 266.921 20.923 265.364 20.923 265.364Z" fill="#1D1D1C"/>
<path d="M-3.15173 278.664C-3.15173 278.664 -2.54771 281.08 -1.67515 284.796C-0.739307 288.453 0.405469 293.345 1.98401 298.128C3.49927 302.97 5.01638 307.75 6.51071 311.239C7.94361 314.726 8.85667 317.09 8.85667 317.09C8.85667 317.09 9.31321 318.272 10.1126 320.325C11.0367 322.321 12.3652 325.19 14.0475 328.561C15.7298 331.932 17.7661 335.806 20.3535 339.758C22.9409 343.709 25.3906 348.149 27.3415 352.82C29.2924 357.49 30.6848 362.329 32.8328 366.575C34.8581 370.817 37.0153 374.756 38.8839 378.072C40.9404 381.27 42.7695 383.846 44.0678 385.668C45.368 387.429 46.1354 388.497 46.1354 388.497C46.1354 388.497 45.3661 387.49 44.0045 385.728C42.7044 383.967 40.8138 381.389 38.6958 378.189C36.7641 374.933 34.5435 371.054 32.4587 366.748C30.2473 362.562 28.7339 357.658 26.7812 353.049C24.767 348.438 22.3136 344.121 19.6629 340.229C17.0141 336.275 14.8549 332.398 13.1112 329.025C11.3674 325.652 9.97751 322.781 9.05338 320.786C8.19254 318.73 7.736 317.548 7.736 317.548C7.736 317.548 6.88437 315.186 5.5166 311.578C4.14699 308.032 2.69317 303.192 1.36408 298.293C-0.0897413 293.453 -1.10979 288.503 -1.92275 284.85C-2.67243 281.138 -3.15173 278.664 -3.15173 278.664Z" fill="#1D1D1C"/>
<path d="M-19.3062 353.943C-19.3062 353.943 -14.3834 359.994 -9.38995 365.74C-6.89231 368.582 -4.08192 371.249 -2.1133 373.276C-0.0813938 375.243 1.29491 376.515 1.29491 376.515C1.29491 376.515 1.95234 377.149 3.14801 378.292C4.28224 379.433 6.08128 380.963 8.30487 382.69C12.6888 386.203 18.782 390.137 25.7292 392.252C32.5498 394.486 39.2807 395.61 44.4903 396.197C47.1193 396.706 49.0504 397.932 50.5865 397.978C52.1206 398.086 52.759 397.305 52.7572 397.367C52.759 397.305 52.1206 398.086 50.5865 397.978C49.0486 397.994 47.0542 396.827 44.4866 396.319C39.2714 395.917 32.5369 394.916 25.6511 392.803C18.7003 390.811 12.3595 386.932 7.85084 383.476C3.27893 380.079 0.654722 377.356 0.654722 377.356C0.654722 377.356 -0.656468 375.964 -2.68653 373.935C-4.65331 371.847 -7.33712 369.061 -9.76964 366.097C-14.5733 360.173 -19.3062 353.943 -19.3062 353.943Z" fill="#1D1D1C"/>
<path d="M45.5093 386.818C45.5093 386.818 46.5748 388.203 47.7016 389.59C48.767 390.975 50.0205 392.242 50.0205 392.242C50.0205 392.242 52.0248 395.131 54.217 397.903C56.346 400.734 58.6016 403.446 58.6016 403.446C58.6016 403.446 56.1562 400.913 53.8373 398.26C51.4571 395.606 49.2015 392.894 49.2015 392.894C49.2015 392.894 48.1993 391.45 47.3238 389.886C46.3849 388.382 45.5093 386.818 45.5093 386.818Z" fill="#1D1D1C"/>
<path d="M68.9899 372.825C67.0981 372.337 66.3675 370.04 66.9143 368.212C67.4647 366.26 69.6501 365.157 71.553 365.276C73.5209 365.273 75.2732 366.31 76.2698 367.939C77.205 369.566 77.6413 371.424 77.5842 373.328L77.5769 373.574L77.3274 373.689C75.706 374.44 73.9021 375.124 71.936 375.065C70.0313 375.008 68.0965 373.905 67.4778 371.98C68.9972 372.579 67.9023 372.177 68.2673 372.311L68.204 372.371L68.0793 372.428L67.8913 372.546L67.4538 372.779L66.5789 373.244L64.8887 374.239C63.7607 374.943 62.6941 375.649 61.566 376.353C60.4994 377.059 59.431 377.827 58.3626 378.594L56.7897 379.777C56.2853 380.192 55.658 380.604 55.4012 380.965C55.0829 381.325 55.2507 381.883 55.3514 382.624C55.3945 383.24 55.432 384.041 55.3503 384.715C55.185 386.124 54.7777 387.404 54.3722 388.621C53.6227 391.059 52.6815 393.736 53.7156 396.166L53.4754 395.974C56.4805 396.249 59.2336 394.671 62.149 393.836C63.6383 393.388 65.1798 393.25 66.7103 393.48C68.2408 393.711 69.6411 394.183 71.1175 394.166C72.6535 394.212 74.0869 393.579 75.1031 392.502L78.215 389.213L81.3269 385.924C81.835 385.386 82.3431 384.848 82.732 384.183C83.1191 383.579 83.3273 382.786 83.0404 382.101C83.3888 382.788 83.1805 383.581 82.7935 384.185C82.4046 384.849 81.8965 385.388 81.3884 385.926L78.3379 389.217C77.3199 390.355 76.3036 391.431 75.2874 392.508C74.2694 393.646 72.7113 394.337 71.1752 394.291C69.5759 394.304 68.1757 393.832 66.7048 393.665C65.2357 393.436 63.7538 393.638 62.3259 394.087C59.472 394.924 56.7766 396.627 53.5239 396.406L53.3396 396.401L53.2837 396.214C52.708 394.906 52.6293 393.427 52.7927 392.079C52.9561 390.731 53.3634 389.452 53.7689 388.234C54.1129 387.015 54.5202 385.736 54.6203 384.447C54.702 383.773 54.7186 383.22 54.616 382.541C54.5693 382.047 54.2283 381.115 54.7437 380.331C55.2555 379.669 55.8177 379.379 56.3221 378.963L57.8968 377.719C58.9652 376.952 60.0355 376.123 61.1021 375.417C62.1706 374.65 63.2986 373.945 64.4266 373.241L66.1187 372.185L66.9954 371.658L67.4329 371.425L67.6209 371.308L67.7456 371.25L67.8089 371.19C68.1739 371.324 67.0194 370.859 68.6003 371.46C68.988 372.886 70.4946 373.915 72.0902 374.024C73.7472 374.136 75.486 373.573 77.1037 372.945L76.8488 373.245C76.9636 371.465 76.6465 369.733 75.8324 368.171C75.0164 366.671 73.387 365.638 71.5456 365.522C69.7656 365.407 67.7086 366.329 67.1004 368.156C66.4922 369.982 67.1614 372.278 68.9899 372.825Z" fill="#1D1D1C"/>
<path d="M57.2566 378.561C57.2566 378.561 55.86 377.966 53.8005 376.92C51.741 375.874 49.0185 374.378 46.4244 372.702C43.8918 371.027 41.2381 369.287 39.6326 367.455C38.8596 366.571 38.271 365.693 37.8593 365.065C37.5091 364.44 37.3359 364.066 37.3359 364.066C35.4225 360.196 35.5047 355.401 37.2182 351.578L37.3503 351.275L37.7152 351.409C40.6405 352.296 43.495 353.488 46.0946 354.981C48.819 356.415 51.3534 358.029 53.6944 359.944C56.0372 361.797 58.0003 364.009 59.9615 366.281C60.9114 367.417 61.7981 368.612 62.7498 369.686C63.7016 370.76 64.9028 371.718 66.3681 372.069C64.9028 371.718 63.6997 370.821 62.6865 369.745C61.6733 368.669 60.7867 367.474 59.7735 366.399C57.8104 364.187 55.7822 362.097 53.4394 360.244C51.0966 358.39 48.5603 356.838 45.8323 355.526C43.229 354.157 40.434 353.028 37.507 352.202L38.0059 351.971C36.4822 355.615 36.4707 360.104 38.3932 363.667C38.3932 363.667 38.5665 364.041 38.8571 364.603C39.1478 365.165 39.6768 365.981 40.3883 366.863C41.8095 368.689 44.3403 370.425 46.806 372.282C49.3349 374.08 51.9923 375.697 53.9885 376.803C55.9215 377.967 57.2566 378.561 57.2566 378.561Z" fill="#1D1D1C"/>
<path d="M76.7031 371.949C76.7031 371.949 77.014 371.835 77.5074 371.788C78.0007 371.742 78.6784 371.7 79.2891 371.842C80.6353 372.067 81.7192 372.837 81.7192 372.837C81.7192 372.837 82.2592 373.284 82.7268 374.097C83.2559 374.912 83.6509 376.093 83.7966 377.389C83.9441 378.623 83.7825 379.909 83.5687 380.887C83.3568 381.803 83.1541 382.412 83.1541 382.412C83.1541 382.412 83.2954 381.801 83.4459 380.883C83.5349 379.964 83.5736 378.673 83.2996 377.558C83.0888 376.383 82.5057 375.32 82.0326 374.691C81.4998 373.999 81.0157 373.738 81.0157 373.738C81.0157 373.738 80.3042 372.856 79.1479 372.453C77.9989 371.803 76.7031 371.949 76.7031 371.949Z" fill="#1D1D1C"/>
<path d="M84.2575 380.477C84.2575 380.477 84.3767 380.604 84.5555 380.794C84.7958 380.985 85.0956 381.24 85.5816 381.439C86.6151 381.839 88.3354 381.891 90.0815 381.082C90.9546 380.678 91.8946 380.091 92.5963 379.251C93.3593 378.413 93.9418 377.447 94.405 376.354C95.27 374.166 95.6509 371.717 95.9703 369.267C96.5477 364.365 97.2462 359.527 97.7831 355.977C98.32 352.426 98.8834 350.044 98.8834 350.044C98.8834 350.044 99.8872 345.278 101.568 338.441C101.927 336.729 102.535 334.903 102.963 332.948C103.327 331.052 103.512 328.967 102.577 327.34C102.344 326.903 102.046 326.586 101.683 326.391C101.259 326.194 100.767 326.179 100.209 326.347C99.0935 326.621 97.9654 327.325 96.9584 328.094C94.9445 329.633 93.2862 331.612 92.1158 333.73C89.7732 338.026 88.95 342.921 87.9554 347.38C86.9626 351.778 85.8507 356.049 84.6975 359.643C83.604 363.3 82.5288 366.343 81.8518 368.413C81.1115 370.543 80.7079 371.7 80.7079 371.7C80.7079 371.7 81.1133 370.482 81.8518 368.413C82.5288 366.343 83.5444 363.237 84.5746 359.639C85.6067 355.981 86.7169 351.771 87.6482 347.371C88.641 342.973 89.3413 338.074 91.6894 333.594C92.8635 331.354 94.5236 329.313 96.6623 327.716C97.7307 326.949 98.8606 326.183 100.164 325.792C100.784 325.626 101.584 325.588 102.13 325.851C102.675 326.113 103.031 326.554 103.264 326.992C104.318 328.745 104.129 330.953 103.761 332.972C103.332 334.988 102.847 336.819 102.426 338.528C100.807 345.367 99.8646 350.135 99.8646 350.135C99.8646 350.135 99.7233 350.746 99.5076 351.785C99.292 352.824 98.9388 354.351 98.6414 356.064C97.9817 359.611 97.1622 364.383 96.46 369.343C96.0773 371.853 95.6946 374.363 94.7067 376.547C94.2435 377.64 93.5363 378.664 92.7732 379.502C91.9487 380.339 91.0087 380.925 90.1356 381.33C88.2666 382.135 86.5481 382.022 85.5165 381.56C85.0305 381.361 84.671 381.043 84.4922 380.853C84.3767 380.604 84.2575 380.477 84.2575 380.477Z" fill="#1D1D1C"/>
<path d="M25.1367 430.485C25.1367 430.485 25.31 430.859 25.8463 431.429C26.3213 431.996 27.1612 432.698 28.3157 433.163C29.4069 433.688 30.8145 433.914 32.2332 433.772C33.5904 433.629 34.9605 433.055 36.1537 432.23C38.4767 430.639 40.5092 428.486 42.1508 427.059C43.7329 425.569 44.8068 424.617 44.8068 424.617C44.8068 424.617 53.6406 417.134 62.4726 409.711C72.5653 403.311 76.3578 391.679 76.7153 392.058C76.7153 392.058 75.4092 394.602 73.3885 398.416C72.4079 400.354 71.1706 402.654 69.1474 404.5C67.1856 406.347 64.9762 408.249 62.8265 410.214C54.2311 417.951 45.6376 425.626 45.6376 425.626C45.6376 425.626 44.5021 426.576 42.8623 427.941C41.1611 429.305 39.0727 431.272 36.5654 432.857C35.3126 433.619 33.8829 434.129 32.4046 434.208C30.9264 434.287 29.5224 433.937 28.3698 433.411C27.2171 432.884 26.3791 432.121 25.9041 431.553C25.31 430.859 25.1367 430.485 25.1367 430.485Z" fill="#1D1D1C"/>
<path d="M26.5149 431.695C26.5149 431.695 26.1426 431.806 25.6025 431.36C25.0606 430.974 24.5389 429.913 25.0003 428.882C25.3984 427.91 26.3421 427.2 27.2244 426.489C28.17 425.718 29.1174 424.885 30.1244 424.116C34.035 420.851 37.9456 417.586 37.9456 417.586C37.9456 417.586 39.9596 416.047 43.0421 413.741C44.5516 412.618 46.3143 411.256 48.265 409.777C50.1525 408.358 52.1702 406.697 54.4207 405.473C56.7308 404.312 59.0951 403.399 61.1613 402.169C63.2257 401.001 64.9884 399.64 66.4402 398.392C67.892 397.144 68.9715 396.008 69.6731 395.168C70.3748 394.328 70.7582 393.848 70.7582 393.848C70.7582 393.848 70.3748 394.328 69.6713 395.229C68.9697 396.069 67.8883 397.267 66.4961 398.578C65.1039 399.889 63.3412 401.251 61.2731 402.542C59.2051 403.833 56.839 404.807 54.6499 406.033C52.5204 407.322 50.5641 408.985 48.7363 410.468C46.9085 411.951 45.1439 413.374 43.694 414.56C40.7307 416.993 38.7763 418.594 38.7763 418.594C38.7763 418.594 34.6888 421.608 30.6012 424.622C29.5942 425.391 28.5276 426.097 27.5839 426.807C26.6401 427.517 25.6387 428.101 25.2424 429.012C24.7847 429.921 25.2468 430.919 25.7272 431.302C26.1444 431.745 26.5149 431.695 26.5149 431.695Z" fill="#1D1D1C"/>
<path d="M82.5226 387.067C82.5226 387.067 83.7165 388.271 85.5081 390.046C87.2998 391.822 89.626 394.229 91.9522 396.635C94.3417 398.982 96.6661 401.45 98.3312 403.345C99.1638 404.292 99.8157 405.111 100.291 405.679C100.766 406.247 101.002 406.561 101.002 406.561C101.002 406.561 101.537 407.192 102.423 408.387C103.31 409.582 104.55 411.28 105.901 413.411C107.188 415.602 108.645 418.29 110.035 421.161C111.362 424.091 112.554 427.386 113.375 430.793C114.132 434.259 114.829 437.662 115.841 440.829C116.792 443.994 118.183 446.803 119.59 449.12C120.933 451.498 122.482 453.143 123.682 454.163C124.881 455.183 125.667 455.637 125.667 455.637C125.667 455.637 124.881 455.183 123.682 454.163C122.482 453.143 120.933 451.498 119.526 449.18C118.12 446.863 116.667 444.052 115.592 440.945C114.516 437.838 113.757 434.433 112.939 430.964C112.119 427.557 110.861 424.383 109.471 421.513C108.079 418.704 106.621 416.077 105.27 413.946C103.856 411.874 102.616 410.177 101.727 409.043C100.777 407.908 100.243 407.277 100.243 407.277C100.243 407.277 100.006 406.962 99.5331 406.333C99.0581 405.765 98.4677 404.948 97.6984 403.941C96.0966 401.987 93.9584 399.463 91.634 396.995C89.3711 394.528 87.1099 392.001 85.443 390.168C83.655 388.269 82.5226 387.067 82.5226 387.067Z" fill="#1D1D1C"/>
<path d="M64.999 409.541C64.999 409.541 66.4331 410.937 67.8039 412.392C69.1765 413.786 70.672 415.184 70.672 415.184C70.672 415.184 73.3503 418.155 76.157 420.945C77.5296 422.339 78.9637 423.735 80.1016 424.753C81.1781 425.769 81.9584 426.407 81.9584 426.407C81.9584 426.407 81.1148 425.829 79.975 424.872C78.8353 423.915 77.2747 422.639 75.7755 421.364C72.7789 418.753 69.8493 415.959 69.8493 415.959C69.8493 415.959 68.6051 414.384 67.3609 412.81C66.1818 411.114 64.999 409.541 64.999 409.541Z" fill="#1D1D1C"/>
<path d="M102.543 439.262C102.543 439.262 103.808 440.161 105.612 441.506C107.415 442.913 110.009 444.59 112.477 446.386C114.944 448.182 117.475 449.918 119.341 451.265C121.207 452.613 122.475 453.389 122.475 453.389C122.475 453.389 124.943 455.185 128.676 457.818C132.282 460.632 137.472 463.924 142.599 467.275C147.597 470.807 153.047 473.615 156.971 476.069C158.965 477.236 160.597 478.207 161.809 478.797C163.021 479.387 163.686 479.776 163.686 479.776C163.686 479.776 163.019 479.448 161.807 478.859C160.593 478.33 158.9 477.357 156.904 476.252C152.915 473.918 147.402 471.17 142.336 467.821C137.144 464.59 131.891 461.358 128.221 458.665C124.423 456.091 121.893 454.355 121.893 454.355C121.893 454.355 120.626 453.518 118.825 452.049C117.023 450.642 114.62 448.726 112.216 446.87C109.812 445.015 107.283 443.217 105.545 441.689C103.744 440.221 102.543 439.262 102.543 439.262Z" fill="#1D1D1C"/>
<path d="M102.064 481.926C102.064 481.926 101.816 481.98 101.321 482.088C100.887 482.198 100.204 482.424 99.4576 482.709C98.7111 482.994 97.8976 483.462 97.3225 484.182C96.7475 484.903 96.5337 485.881 96.6252 486.929C96.7488 488.962 97.9168 491.026 99.0492 492.229C100.18 493.492 101.21 494.015 101.21 494.015C101.21 494.015 101.331 494.08 101.571 494.272C101.813 494.402 102.115 494.596 102.537 494.854C103.385 495.31 104.722 495.842 106.377 496.015C107.971 496.186 109.939 496.183 111.627 495.25C112.44 494.782 113.136 494.127 113.287 493.209C113.497 492.354 113.284 491.241 112.947 490.185C112.334 488.076 111.101 486.133 109.797 484.495C108.495 482.795 107.126 481.278 105.48 480.799C103.834 480.319 102.41 480.645 101.6 480.99C100.727 481.394 100.409 481.753 100.409 481.753C100.409 481.753 100.729 481.333 101.54 480.926C102.352 480.52 103.778 480.133 105.485 480.614C107.256 481.036 108.746 482.618 110.05 484.256C111.415 485.896 112.771 487.843 113.504 490.079C113.839 491.196 114.177 492.252 113.957 493.413C113.74 494.514 112.975 495.413 112.037 495.939C110.158 497.051 108.125 497.174 106.347 496.998C104.569 496.822 103.048 496.284 102.078 495.825C101.594 495.564 101.169 495.367 100.929 495.175C100.687 495.045 100.567 494.918 100.567 494.918C100.567 494.918 99.4818 494.209 98.2339 492.758C97.0475 491.308 95.9464 489.061 95.9512 486.847C95.9211 485.801 96.2633 484.643 96.9612 483.925C97.6592 483.208 98.5322 482.804 99.2787 482.519C100.025 482.234 100.705 482.131 101.2 482.023C101.816 481.98 102.064 481.926 102.064 481.926Z" fill="#1D1D1C"/>
<path d="M96.6172 485.145C96.6172 485.145 96.1128 485.56 95.8431 486.352C95.5101 487.203 95.4751 488.37 95.684 489.606C95.979 492.075 97.2626 494.389 97.2626 494.389C97.2626 494.389 97.7191 495.571 98.7754 497.263C99.8334 498.894 101.739 500.98 104.031 502.463C106.322 504.008 109.066 504.766 111.086 505.073C113.107 505.379 114.402 505.234 114.402 505.234C114.402 505.234 113.105 505.441 111.081 505.257C109.057 505.074 106.246 504.497 103.771 502.947C101.231 501.518 99.141 499.426 97.9004 497.729C96.6599 496.031 96.0842 494.722 96.0842 494.722C96.0842 494.722 95.0537 492.17 95.0082 489.586C94.9836 488.355 95.1451 487.069 95.5992 486.283C96.055 485.436 96.6172 485.145 96.6172 485.145Z" fill="#1D1D1C"/>
<path d="M107.554 481.353C107.554 481.353 107.509 480.798 107.17 479.804C106.831 478.81 106.071 477.495 104.942 476.17C103.752 474.843 102.262 473.261 100.649 471.675C99.0382 470.028 97.4327 468.197 96.0153 466.248C93.0537 462.469 90.846 458.16 89.3443 454.917C87.8426 451.674 87.0469 449.498 87.0469 449.498C86.0797 446.886 85.2336 444.339 84.5141 441.674C83.7945 439.008 83.0732 436.403 82.6012 433.683C81.6537 428.366 82.2476 422.911 84.3629 417.993L84.4969 417.628L84.7967 417.883C87.3165 419.988 89.8344 422.154 91.9093 424.738C94.0475 427.262 95.5566 430.259 97.1922 433.137C98.0733 434.516 99.0158 435.897 100.213 436.978C101.411 438.06 102.919 439.027 103.609 440.647C104.298 442.267 103.694 443.97 103.707 445.57C103.719 447.23 104.408 448.85 105.539 450.114C104.345 448.91 103.656 447.29 103.584 445.566C103.511 443.903 104.116 442.2 103.423 440.703C102.729 439.206 101.282 438.24 100.023 437.157C98.7645 436.074 97.7606 434.691 96.8795 433.312C95.2438 430.434 93.6715 427.496 91.5314 425.034C89.4547 422.512 86.9349 420.407 84.4133 418.363L84.9085 418.255C82.918 423.115 82.4542 428.329 83.4036 433.584C83.8793 436.181 84.6007 438.786 85.3816 441.454C86.1012 444.119 87.072 446.608 88.041 449.159C88.041 449.159 88.7753 451.333 90.1541 454.572C91.5329 457.811 93.5563 462.115 96.3931 465.952C97.8106 467.9 99.2932 469.728 100.841 471.435C102.391 473.08 103.817 474.722 105.007 476.049C106.134 477.436 106.831 478.81 107.17 479.804C107.509 480.798 107.554 481.353 107.554 481.353Z" fill="#1D1D1C"/>
<path d="M121.314 490.067C121.314 490.067 121.815 489.775 122.632 489.184C123.39 488.53 124.522 487.703 125.547 486.32C127.654 483.738 129.386 479.301 129.151 474.805C129.097 472.528 128.485 470.357 127.623 468.363C126.76 466.37 125.704 464.678 124.638 463.293C123.634 461.91 122.621 460.834 121.965 460.138C121.248 459.44 120.831 458.997 120.831 458.997C120.831 458.997 120.652 458.807 120.233 458.426C119.876 458.046 119.276 457.536 118.498 456.836C116.937 455.559 114.78 453.65 111.754 452.022C108.792 450.334 104.833 449.047 100.597 448.797C100.044 448.781 99.5527 448.766 98.9998 448.749C98.5064 448.796 97.7709 448.712 97.5811 448.891C97.3335 448.945 97.5645 449.444 97.9221 449.824C98.2815 450.142 98.8235 450.527 99.2425 450.909C101.042 452.439 103.032 453.728 104.956 455.2C108.807 458.022 112.722 460.783 115.949 463.893C117.501 465.477 118.799 467.3 119.604 469.169C120.409 471.038 120.782 472.955 120.79 474.739C120.8 476.461 120.566 478.114 120.035 479.39C119.505 480.665 118.677 481.625 117.862 482.154C117.046 482.683 116.183 482.78 115.57 482.7C115.019 482.622 114.717 482.428 114.717 482.428C114.717 482.428 115.021 482.56 115.572 482.638C116.123 482.716 116.987 482.619 117.802 482.09C118.617 481.561 119.384 480.6 119.914 479.325C120.383 478.047 120.615 476.455 120.544 474.731C120.473 473.007 120.1 471.09 119.293 469.282C118.488 467.413 117.186 465.714 115.635 464.13C112.405 461.081 108.489 458.381 104.574 455.619C102.649 454.209 100.658 452.919 98.7958 451.449C98.3154 451.066 97.8927 450.807 97.4159 450.301C97.1775 450.048 97.0005 449.796 96.8272 449.422C96.7713 449.236 96.7154 449.05 96.7842 448.806C96.7879 448.683 96.853 448.562 96.9163 448.502L96.9796 448.443L97.1061 448.323C97.8563 447.916 98.3423 448.115 98.899 448.008C99.4538 447.963 100.007 447.98 100.56 447.997C104.92 448.189 109.063 449.481 112.149 451.173C115.298 452.805 117.575 454.779 119.136 456.056C119.916 456.694 120.514 457.266 120.933 457.647C121.352 458.029 121.531 458.219 121.531 458.219C121.531 458.219 121.948 458.661 122.602 459.419C123.317 460.178 124.267 461.314 125.269 462.758C126.271 464.203 127.385 466.02 128.183 468.134C128.982 470.188 129.529 472.479 129.52 474.816C129.564 479.491 127.711 483.863 125.482 486.441C124.397 487.761 123.263 488.65 122.446 489.24C121.815 489.775 121.314 490.067 121.314 490.067Z" fill="#1D1D1C"/>
<path d="M115.207 482.505C115.207 482.505 114.657 482.365 114 481.73C113.341 481.157 112.756 480.156 112.418 479.1C111.681 477.049 111.065 475.001 111.065 475.001C111.065 475.001 110.265 470.918 109.465 466.835C108.851 462.697 108.237 458.558 108.237 458.558C108.237 458.558 109.16 462.645 110.083 466.731C111.192 470.761 112.24 474.79 112.24 474.79C112.24 474.79 112.546 476.89 112.977 478.932C113.193 479.923 113.594 480.919 114.128 481.55C114.659 482.304 115.207 482.505 115.207 482.505Z" fill="#1D1D1C"/>
<path d="M96.5982 483.73C96.5982 483.73 94.8668 484.047 92.1038 483.903C89.3408 483.758 85.6113 483.032 81.8818 482.305C78.0891 481.638 74.4247 480.79 71.6187 480.03C68.8108 479.33 66.9805 478.845 66.9805 478.845C66.9805 478.845 66.0662 478.572 64.4202 478.092C63.627 477.884 62.5917 477.545 61.4931 477.266C60.9439 477.127 60.335 476.924 59.7838 476.846C59.2923 476.831 58.8567 477.003 58.4752 477.422C56.8261 479.094 56.0564 482.207 57.3719 485.506C58.6241 488.864 62.1104 491.552 65.749 493.26C73.2178 496.435 81.0583 497.47 86.5358 497.327C89.3043 497.287 91.5923 496.863 93.199 496.604C94.7461 496.281 95.6136 496.061 95.6136 496.061C95.6136 496.061 94.7461 496.281 93.199 496.604C91.6519 496.926 89.3639 497.35 86.5935 497.451C81.1142 497.656 73.2682 496.806 65.5499 493.746C63.6692 492.89 61.8554 491.852 60.237 490.45C58.6168 489.11 57.2534 487.409 56.5695 485.605C55.0788 481.994 55.7982 478.51 57.6389 476.597C58.0837 476.119 58.8358 475.649 59.6327 475.735C60.4314 475.758 61.0385 476.023 61.5877 476.162C62.7478 476.443 63.7234 476.718 64.5166 476.926C66.1645 477.345 67.0788 477.618 67.0788 477.618C67.0788 477.618 68.9072 478.165 71.7133 478.925C74.456 479.746 78.1149 480.778 81.9039 481.568C85.6297 482.417 89.2923 483.327 92.0534 483.532C94.8072 483.984 96.5982 483.73 96.5982 483.73Z" fill="#1D1D1C"/>
<path d="M116.463 571.896C116.463 571.896 116.835 571.784 117.398 571.494C117.96 571.203 118.712 570.733 119.41 570.016C120.927 568.648 122.166 566.286 122.552 563.654C123 561.023 122.714 558.247 122.468 556.21C122.162 554.11 122.018 552.753 122.018 552.753C122.018 552.753 121.794 549.979 121.491 545.726C121.124 541.534 121.106 535.998 119.92 530.428C119.327 527.643 118.672 524.856 118.75 522.276C118.766 519.693 119.325 517.435 119.874 515.545C120.423 513.655 121.023 512.074 121.487 510.981C121.888 509.886 122.153 509.279 122.153 509.279C122.153 509.279 121.95 509.888 121.548 510.983C121.146 512.078 120.607 513.66 120.12 515.552C119.633 517.444 119.194 519.768 119.241 522.29C119.227 524.811 119.943 527.6 120.598 530.387C121.905 536.022 122.167 541.626 122.656 545.823C123.082 550.079 123.431 552.795 123.431 552.795C123.431 552.795 123.514 554.15 123.697 556.247C123.818 558.341 123.918 561.173 123.286 563.799C122.715 566.426 121.23 568.78 119.654 570.085C118.835 570.737 118.083 571.207 117.461 571.434C116.835 571.784 116.463 571.896 116.463 571.896Z" fill="#1D1D1C"/>
<path d="M114.482 504.621C114.482 504.621 114.656 504.996 114.881 505.679C115.107 506.362 115.2 507.349 114.983 508.449C114.669 510.715 112.932 513.246 111.202 515.592C107.738 520.347 105.85 525.886 105.85 525.886C105.85 525.886 105.584 526.555 105.118 527.771C104.712 528.988 104.107 530.692 103.673 532.893C102.683 537.168 102.127 543.424 103.17 549.666C104.274 555.911 106.415 562.432 109.537 567.015C111.067 569.336 113.046 570.994 114.622 571.779C115.409 572.172 116.016 572.436 116.504 572.574C116.931 572.709 117.175 572.778 117.175 572.778C117.175 572.778 116.931 572.709 116.504 572.574C116.078 572.438 115.409 572.172 114.622 571.779C113.046 570.994 111.065 569.397 109.413 567.072C106.106 562.484 103.842 555.959 102.496 549.585C101.272 543.214 101.646 536.891 102.58 532.43C102.955 530.166 103.561 528.4 103.969 527.121C104.374 525.904 104.642 525.174 104.642 525.174C104.642 525.174 105.235 523.838 106.279 521.84C107.321 519.904 108.935 517.369 110.725 515.086C112.577 512.805 114.369 510.46 114.865 508.261C115.144 507.163 115.051 506.176 114.885 505.556C114.656 504.996 114.482 504.621 114.482 504.621Z" fill="#1D1D1C"/>
<path d="M121.121 490.369C121.121 490.369 121.491 490.318 122.107 490.275C122.724 490.232 123.645 490.26 124.684 490.476C126.762 490.907 129.608 492.406 131.254 494.916C132.079 496.109 132.717 497.419 133.235 498.603C133.814 499.789 134.334 500.912 134.736 501.846C135.662 503.78 136.24 505.028 136.24 505.028L139.698 512.757C140.274 514.065 140.974 515.316 141.425 516.683C141.876 518.049 141.46 519.636 140.507 520.652C138.599 522.748 135.14 523.259 132.164 522.001C129.185 520.867 126.725 518.825 124.51 516.791L124.332 516.601L124.579 516.547C126.378 516.047 127.42 514.111 126.859 512.31C126.299 510.449 124.126 509.092 122.16 509.033C124.128 509.031 126.363 510.389 126.981 512.314C127.663 514.179 126.679 516.241 124.693 516.858L124.7 516.612C126.978 518.587 129.442 520.505 132.302 521.513C135.099 522.581 138.189 522.059 139.846 520.141C140.612 519.18 140.955 518.022 140.561 516.78C140.166 515.6 139.406 514.285 138.769 512.975L135.123 505.363C135.123 505.363 134.609 504.056 133.744 502.124C133.342 501.189 132.885 500.007 132.367 498.823C131.91 497.641 131.333 496.394 130.631 495.204C129.228 492.764 126.569 491.208 124.493 490.716C123.455 490.439 122.597 490.351 121.983 490.333C121.43 490.316 121.121 490.369 121.121 490.369Z" fill="#1D1D1C"/>
<path d="M131.783 495.731C131.783 495.731 133.176 496.449 135.357 497.56C137.476 498.669 140.323 500.107 143.235 501.425C146.084 502.801 149.127 503.877 151.382 504.559C153.637 505.242 155.164 505.595 155.164 505.595C155.164 505.595 155.895 505.801 157.238 506.149C157.91 506.292 158.703 506.5 159.681 506.714C160.599 506.865 161.639 507.019 162.801 507.238C167.396 507.806 173.676 507.564 179.496 506.263C185.312 505.084 190.625 502.23 194.201 499.877C195.079 499.289 195.896 498.698 196.589 498.166C197.281 497.633 197.91 497.16 198.353 496.743C199.301 495.91 199.868 495.435 199.868 495.435C199.868 495.435 199.362 495.912 198.415 496.744C197.972 497.162 197.343 497.635 196.648 498.229C195.954 498.823 195.198 499.415 194.258 500.002C190.74 502.479 185.485 505.458 179.664 506.821C173.839 508.307 167.495 508.609 162.772 508.221C161.608 508.063 160.506 507.907 159.527 507.755C158.61 507.543 157.754 507.394 157.082 507.251C155.678 506.902 154.944 506.757 154.944 506.757C154.944 506.757 153.419 506.342 151.107 505.535C148.794 504.727 145.816 503.531 142.971 502.032C140.124 500.593 137.344 498.973 135.226 497.802C133.172 496.572 131.783 495.731 131.783 495.731Z" fill="#1D1D1C"/>
<path d="M158.781 477.23C158.781 477.23 160.472 478.265 163.138 479.575C165.803 480.946 169.317 482.712 172.894 484.418C176.471 486.124 180.182 487.465 182.916 488.593C185.651 489.659 187.536 490.392 187.536 490.392C187.536 490.392 188.446 490.788 190.027 491.389C191.671 491.93 193.984 492.737 196.723 493.68C202.324 495.57 209.755 497.945 217.391 499.65C224.958 501.599 232.604 502.996 238.418 503.908C244.17 504.88 248.03 505.365 248.03 505.365C248.03 505.365 244.168 504.942 238.413 504.093C232.656 503.305 224.945 502.029 217.313 500.201C209.612 498.617 202.116 496.363 196.45 494.595C193.647 493.711 191.273 492.902 189.627 492.422C187.983 491.881 187.072 491.485 187.072 491.485C187.072 491.485 185.251 490.692 182.52 489.503C179.79 488.253 176.144 486.791 172.57 484.962C169.058 483.135 165.55 481.185 163.01 479.756C160.47 478.327 158.781 477.23 158.781 477.23Z" fill="#1D1D1C"/>
<path d="M223.793 444.065C223.793 444.065 223.234 444.233 222.24 444.572C221.248 444.85 219.822 445.237 218.094 445.431C214.698 445.883 209.66 445.732 205.526 444.132C201.393 442.533 197.722 439.84 195.459 437.373C194.329 436.11 193.503 434.916 192.974 434.101C192.445 433.286 192.153 432.785 192.153 432.785C192.153 432.785 191.568 431.784 190.7 429.974C189.895 428.105 188.805 425.49 188.172 421.965C187.855 420.234 187.609 418.197 187.858 416.052C187.952 414.948 188.231 413.85 188.696 412.695C189.16 411.602 189.749 410.39 190.877 409.686C191.441 409.334 192.236 409.481 192.464 410.102C192.754 410.665 192.734 411.34 192.718 411.893C192.683 413.061 192.648 414.228 192.735 415.399C192.913 417.68 193.4 419.908 194.009 422.14C194.621 424.311 195.353 426.547 196.089 428.66C196.889 430.713 197.807 432.893 199.433 434.049C200.215 434.626 201.126 435.022 202.107 435.113C203.027 435.202 204.013 435.109 205 435.015C206.853 434.763 208.765 434.574 210.089 435.537C211.35 436.558 212.29 438.001 213.182 439.012C214.071 440.145 215.16 440.731 216.14 440.884C217.117 441.097 217.987 440.816 218.428 440.46C218.869 440.104 219.062 439.803 219.062 439.803C219.062 439.803 218.93 440.106 218.428 440.46C217.987 440.816 217.117 441.097 216.138 440.945C215.158 440.793 214.008 440.205 213.119 439.071C212.229 437.999 211.286 436.618 210.024 435.658C208.7 434.696 206.847 434.947 204.995 435.199C204.068 435.356 203.081 435.45 202.038 435.357C201.057 435.266 200.085 434.868 199.241 434.289C197.556 433.07 196.576 430.888 195.777 428.835C194.979 426.72 194.245 424.546 193.574 422.312C192.964 420.08 192.416 417.849 192.24 415.507C192.152 414.336 192.128 413.106 192.163 411.938C192.179 411.385 192.134 410.83 191.961 410.456C191.788 410.082 191.421 410.01 191.045 410.244C190.232 410.712 189.707 411.803 189.307 412.837C188.907 413.87 188.691 414.909 188.599 415.952C188.415 417.976 188.665 419.889 188.982 421.621C189.68 425.024 190.71 427.576 191.517 429.384C192.387 431.132 192.972 432.133 192.972 432.133C192.972 432.133 193.264 432.634 193.732 433.447C194.261 434.263 195.025 435.454 196.094 436.716C198.234 439.179 201.716 441.989 205.725 443.646C209.733 445.365 214.706 445.637 218.098 445.309C219.824 445.176 221.25 444.788 222.24 444.572C223.234 444.233 223.793 444.065 223.793 444.065Z" fill="#1D1D1C"/>
<path d="M218.502 440.032C218.502 440.032 219.07 439.557 219.468 438.585C219.927 437.615 220.033 436.142 219.452 435.017C218.871 433.893 217.977 432.944 217.448 432.129C216.857 431.311 216.57 430.626 216.57 430.626C216.57 430.626 216.395 430.314 216.356 429.575C216.253 428.895 216.348 427.791 217.055 426.767C217.7 425.741 218.957 424.856 220.307 424.958C221.599 424.935 222.735 426.014 223.314 427.2C223.955 428.388 224.347 429.691 224.993 430.694C225.638 431.759 226.288 432.64 227.07 433.216C227.791 433.791 228.584 434 229.14 433.893C229.697 433.787 229.952 433.487 229.95 433.549C229.95 433.549 229.695 433.849 229.139 433.955C228.58 434.123 227.787 433.914 227.003 433.399C226.219 432.883 225.446 431.999 224.801 430.935C224.094 429.929 223.641 428.624 222.998 427.498C222.417 426.374 221.456 425.607 220.348 425.635C219.242 425.602 218.36 426.314 217.842 427.159C217.327 427.943 217.364 428.744 217.411 429.237C217.519 429.732 217.633 430.043 217.633 430.043C217.633 430.043 217.801 430.602 218.268 431.415C218.736 432.229 219.565 433.299 220.079 434.606C220.592 435.974 220.359 437.566 219.777 438.532C219.068 439.618 218.502 440.032 218.502 440.032Z" fill="#1D1D1C"/>
<path d="M216.209 430.37C216.209 430.37 215.468 430.471 214.622 429.953C213.654 429.432 213.017 428.122 212.942 426.521C212.865 424.981 213.345 423.335 213.808 422.242C214.333 421.151 214.783 420.488 214.783 420.488C214.783 420.488 215.038 420.188 215.485 419.648C215.93 419.169 216.687 418.516 217.625 417.99C219.563 416.941 222.706 416.728 224.738 418.695C225.756 419.587 226.455 420.899 226.72 422.322C226.985 423.744 226.76 425.09 226.541 426.252C226.104 428.514 225.812 430.043 225.812 430.043C225.812 430.043 226.042 428.512 226.418 426.248C226.574 425.146 226.739 423.736 226.47 422.437C226.14 421.136 225.438 419.946 224.477 419.18C222.498 417.521 219.597 417.865 217.907 418.86C217.032 419.325 216.46 419.923 216.077 420.404C215.694 420.884 215.5 421.186 215.5 421.186C215.5 421.186 215.053 421.726 214.532 422.694C214.011 423.662 213.478 425.061 213.433 426.536C213.328 428.008 213.903 429.317 214.747 429.896C215.47 430.409 216.209 430.37 216.209 430.37Z" fill="#1D1D1C"/>
<path d="M217.623 418.051C217.623 418.051 217.106 412.747 216.771 407.51C216.603 404.922 216.434 402.334 216.558 400.247C216.68 398.221 217.155 396.76 217.155 396.76C217.155 396.76 217.3 396.026 217.888 394.875C218.152 394.268 218.543 393.542 219.179 392.823C219.752 392.164 220.636 391.391 221.497 391.417C224.615 392.002 226.959 395.885 228.655 400.856C230.166 405.821 229.809 411.591 229.254 415.756C228.945 417.837 228.707 419.614 228.242 420.768C227.978 421.375 227.721 421.736 227.53 421.977C227.277 422.215 227.152 422.273 227.152 422.273C227.152 422.273 227.278 422.154 227.531 421.915C227.723 421.675 228.043 421.254 228.244 420.707C228.709 419.552 228.886 417.774 229.192 415.754C229.684 411.648 229.917 405.936 228.338 401.154C227.61 398.795 226.32 396.666 225.261 395.096C224.668 394.341 224.072 393.708 223.411 393.196C222.748 392.746 222.085 392.295 221.408 392.337C220.791 392.38 220.16 392.914 219.714 393.454C219.265 394.056 218.939 394.661 218.677 395.206C218.214 396.3 218.073 396.91 218.073 396.91C218.073 396.91 217.604 398.188 217.422 400.15C217.179 402.111 217.284 404.758 217.328 407.404C217.292 412.691 217.623 418.051 217.623 418.051Z" fill="#1D1D1C"/>
<path d="M224.215 444.324C224.215 444.324 224.66 443.845 225.297 443.126C225.995 442.409 226.821 441.511 227.893 440.621C228.904 439.729 230.032 439.025 230.905 438.62C231.778 438.216 232.34 437.926 232.34 437.926C232.34 437.926 232.651 437.812 233.148 437.642C233.645 437.473 234.392 437.188 235.142 436.78C236.704 435.965 238.543 434.114 239.782 431.753C241.019 429.453 241.713 426.83 242.079 424.873C242.445 422.916 242.607 421.629 242.607 421.629C242.607 421.629 242.507 422.918 242.2 424.938C241.895 426.897 241.384 429.587 240.205 432.012C239.025 434.436 237.179 436.533 235.487 437.589C234.61 438.117 233.925 438.403 233.365 438.633C232.866 438.864 232.555 438.977 232.555 438.977C232.555 438.977 231.996 439.145 231.125 439.488C230.256 439.769 229.193 440.353 228.126 441.058C227.06 441.764 226.112 442.597 225.416 443.253C224.658 443.906 224.215 444.324 224.215 444.324Z" fill="#1D1D1C"/>
<path d="M227.547 429.603C227.547 429.603 227.953 428.385 228.862 426.752C229.713 425.055 231.129 422.946 232.841 421.213C234.494 419.418 236.504 418.002 238.068 417.127C239.632 416.251 240.749 415.916 240.749 415.916C242.796 415.301 244.954 415.119 246.9 415.854C247.872 416.252 248.716 416.831 249.427 417.713C250.077 418.594 250.53 419.899 250.182 421.241L250.112 421.547L249.866 421.539C248.026 421.361 246.187 421.183 244.273 421.433C242.42 421.685 240.553 422.429 239.033 423.92C237.574 425.414 236.289 427.22 235.309 429.159C234.788 430.127 234.388 431.161 233.867 432.129C233.346 433.097 232.399 433.93 231.36 433.714C232.337 433.928 233.286 433.034 233.805 432.127C234.326 431.159 234.665 430.124 235.188 429.094C236.168 427.155 237.393 425.286 238.856 423.669C240.378 422.116 242.374 421.192 244.289 420.88C246.205 420.569 248.11 420.626 250.011 420.806L249.694 421.104C249.97 420.128 249.571 419.071 248.979 418.315C248.386 417.559 247.541 417.042 246.69 416.709C244.925 416.102 242.949 416.351 241.024 416.97C241.024 416.97 239.971 417.245 238.472 418C236.976 418.693 234.906 420.045 233.258 421.656C231.55 423.266 230.014 425.249 229.105 426.882C228.012 428.448 227.547 429.603 227.547 429.603Z" fill="#1D1D1C"/>
<path d="M236.895 417.276C236.895 417.276 237.246 415.811 237.56 413.545C237.872 411.34 238.085 408.334 237.99 405.379C237.894 402.424 237.424 399.643 236.993 397.6C236.776 396.61 236.493 395.802 236.389 395.184C236.223 394.564 236.171 394.255 236.171 394.255C236.171 394.255 236.115 394.069 236.062 393.76C236.012 393.389 235.904 392.894 235.924 392.218C235.883 391.541 235.972 390.621 236.37 389.649C236.77 388.615 237.595 387.779 238.473 387.191C240.169 386.011 242.539 384.914 244.662 385.9C246.723 386.884 248.312 389.269 248.842 392.113C249.433 394.96 249.032 398.084 248.58 400.838C248.127 403.653 247.435 406.215 246.937 408.476C246.438 410.736 245.648 412.496 245.181 413.712C244.652 414.926 244.264 415.591 244.264 415.591C244.264 415.591 244.591 414.924 245.119 413.71C245.648 412.496 246.316 410.733 246.814 408.472C247.31 406.273 247.881 403.646 248.332 400.892C248.784 398.138 249.06 395.072 248.466 392.348C247.932 389.626 246.276 387.424 244.455 386.632C242.573 385.837 240.389 386.879 238.818 388C238.001 388.591 237.428 389.25 237.16 389.98C236.892 390.71 236.87 391.447 236.851 392.062C236.939 393.233 237.103 393.914 237.103 393.914C237.103 393.914 237.156 394.223 237.321 394.843C237.428 395.4 237.648 396.267 237.86 397.38C238.289 399.484 238.631 402.446 238.604 405.397C238.575 408.41 238.301 411.415 237.866 413.616C237.308 415.813 236.895 417.276 236.895 417.276Z" fill="#1D1D1C"/>
<path d="M228.51 420.038C228.51 420.038 228.745 420.414 229.045 420.669C229.345 420.924 229.711 420.997 229.711 420.997C229.711 420.997 230.186 421.564 230.979 421.773C231.711 421.979 232.584 421.575 232.584 421.575C232.584 421.575 232.394 421.754 232.143 421.931C231.83 422.106 231.395 422.277 230.963 422.326C230.531 422.374 230.041 422.298 229.738 422.166C229.434 422.034 229.192 421.904 229.192 421.904C229.192 421.904 228.898 421.464 228.726 421.029C228.495 420.53 228.51 420.038 228.51 420.038Z" fill="#1D1D1C"/>
<path d="M231.432 433.348L230.546 434.182C230.546 434.182 229.993 434.165 229.505 434.028C229.017 433.89 228.595 433.631 228.595 433.631C228.595 433.631 229.088 433.585 229.522 433.475C229.956 433.365 230.393 433.132 230.393 433.132C230.393 433.132 231.43 433.409 231.432 433.348Z" fill="#1D1D1C"/>
<path d="M246.805 505.205L253.304 505.831C253.304 505.831 254.099 505.977 255.259 506.258C256.419 506.539 258.071 506.834 259.656 507.312C261.242 507.729 262.825 508.268 263.916 508.793C265.007 509.318 265.732 509.77 265.732 509.77C265.732 509.77 265.005 509.379 263.849 508.975C262.693 508.572 261.106 508.155 259.516 507.862C257.926 507.568 256.332 507.397 255.107 507.238C253.882 507.078 253.085 506.992 253.085 506.992L246.805 505.205Z" fill="#1D1D1C"/>
<path d="M224.042 443.949C224.042 443.949 224.555 445.317 225.296 447.246C226.099 449.177 227.251 451.794 228.466 454.352C229.68 456.909 231.02 459.409 232.009 461.284C233.06 463.16 233.823 464.352 233.823 464.352C233.823 464.352 235.161 466.913 237.577 470.429C239.993 473.945 243.61 478.42 247.922 482.301C252.106 486.3 257.121 489.279 261.063 491.12C263.004 492.039 264.767 492.706 265.923 493.11C267.141 493.516 267.812 493.72 267.812 493.72C267.812 493.72 267.141 493.516 265.922 493.172C264.704 492.766 263 492.162 260.996 491.302C256.989 489.583 251.911 486.663 247.54 482.72C243.165 478.899 239.362 474.48 236.821 471.022C234.346 467.442 232.945 464.94 232.945 464.94C232.945 464.94 232.306 463.691 231.257 461.753C230.27 459.817 229.118 457.2 227.967 454.583C226.877 451.967 225.85 449.292 225.11 447.302C224.493 445.316 224.042 443.949 224.042 443.949Z" fill="#1D1D1C"/>
<path d="M276.886 539.745C276.886 539.745 276.767 539.619 276.529 539.366C276.29 539.113 275.87 538.792 275.326 538.469C274.177 537.819 272.345 537.395 270.125 537.575C269.018 537.603 267.837 537.998 266.495 537.651C265.154 537.241 264.457 535.868 264.005 534.563C263.615 533.198 263.534 531.781 263.886 530.316C264.235 528.912 265.017 527.459 266.452 526.764C267.889 526.008 269.6 526.367 270.939 526.837C272.339 527.31 273.615 527.84 274.911 527.694C276.205 527.61 277.331 526.968 277.424 525.925C277.5 525.435 277.33 524.938 277.038 524.437C276.805 524 276.449 523.559 276.092 523.179C274.659 521.722 273.024 520.873 271.937 520.226C270.849 519.578 270.248 519.13 270.248 519.13C269.164 518.359 268.145 517.468 267.441 516.34C266.737 515.212 266.284 513.907 266.138 512.611C265.786 510.017 266.046 507.504 266.305 504.99C266.825 499.963 267.957 495.016 269.333 490.138L269.467 489.773L269.832 489.907C274.888 491.534 278.389 495.759 281.023 500.204C283.596 504.648 285.601 509.566 286.865 514.585C289.395 524.562 289 535.681 283.747 544.748C288.879 535.616 289.149 524.554 286.493 514.697C285.165 509.737 283.159 504.881 280.523 500.497C277.946 496.176 274.378 492.134 269.626 490.638L270.063 490.405C268.75 495.224 267.741 500.175 267.285 505.143C267.088 507.597 266.827 510.172 267.248 512.521C267.459 513.696 267.793 514.874 268.441 515.816C269.089 516.758 269.987 517.584 271.011 518.292C271.011 518.292 271.614 518.679 272.638 519.386C273.663 520.093 275.359 520.943 276.968 522.652C277.622 523.409 278.632 524.608 278.463 526.14C278.379 526.876 277.865 527.598 277.24 527.949C276.613 528.36 275.87 528.523 275.131 528.562C273.589 528.7 272.196 527.982 270.919 527.513C269.58 527.043 268.174 526.755 266.866 527.33C265.618 527.908 264.842 529.176 264.495 530.519C264.147 531.861 264.166 533.276 264.498 534.516C264.83 535.756 265.528 537.068 266.685 537.472C267.843 537.814 269.083 537.482 270.191 537.454C272.408 537.336 274.3 537.823 275.449 538.472C275.992 538.796 276.413 539.116 276.652 539.369C276.767 539.619 276.886 539.745 276.886 539.745Z" fill="#1D1D1C"/>
<path d="M286.279 511.554C286.279 511.554 293.744 512.823 301.272 514.033C308.801 515.181 316.336 516.145 316.336 516.145C316.336 516.145 331.332 518.501 346.475 520.062C354.014 520.903 361.621 521.5 367.343 521.425C370.173 521.387 372.575 521.274 374.241 521.078C375.907 520.882 376.832 520.787 376.832 520.787C376.832 520.787 375.907 520.882 374.241 521.078C372.575 521.274 370.232 521.45 367.339 521.548C361.616 521.684 354.003 521.271 346.399 520.551C331.249 519.236 316.123 517.122 316.123 517.122C316.123 517.122 308.595 515.913 301.136 514.459C293.736 513.069 286.279 511.554 286.279 511.554Z" fill="#1D1D1C"/>
<path d="M329.771 470.056C329.771 470.056 329.421 469.431 328.644 468.67C327.868 467.909 326.655 467.319 325.313 466.971C324.032 466.625 322.384 466.207 321.745 464.958C321.454 464.396 321.411 463.779 321.484 463.412C321.556 463.046 321.625 462.802 321.625 462.802C321.625 462.802 321.761 462.375 322.207 461.835C322.654 461.295 323.535 460.645 324.709 460.434C325.823 460.222 327.109 460.383 328.396 460.545C329.682 460.706 331.092 460.872 332.501 461.037C333.173 461.18 333.907 461.325 334.57 461.775C335.235 462.164 335.643 462.914 335.682 463.654C335.699 465.13 334.745 466.208 334.106 466.989C332.705 468.607 331.81 469.749 331.81 469.749C331.81 469.749 332.705 468.607 333.985 466.924C334.625 466.082 335.457 465 335.373 463.706C335.291 462.35 333.771 461.751 332.483 461.651C331.133 461.549 329.722 461.446 328.431 461.407C327.143 461.307 325.914 461.27 324.985 461.488C324.056 461.706 323.427 462.179 323.107 462.6C322.787 463.021 322.716 463.326 322.716 463.326C322.778 463.328 322.394 463.809 322.676 464.678C322.959 465.486 324.231 466.139 325.571 466.548C326.912 466.957 328.178 467.795 328.892 468.616C329.484 469.371 329.771 470.056 329.771 470.056Z" fill="#1D1D1C"/>
<path d="M330.948 469.784L330.501 470.325L329.968 469.632L330.718 469.224L330.948 469.784Z" fill="#1D1D1C"/>
<path d="M267.059 469.591C267.059 469.591 268.416 469.448 270.464 468.832C272.51 468.279 275.001 467.247 277.616 466.157C280.232 465.066 282.907 464.04 285.009 463.672C286.063 463.396 286.925 463.361 287.543 463.256C288.159 463.213 288.527 463.224 288.527 463.224C288.527 463.224 291.423 463.065 295.452 464.047C299.606 464.971 304.829 467.157 309.861 469.583C312.406 470.828 314.953 472.011 317.384 473.006C319.814 474.001 322.253 474.689 324.416 474.324C326.518 473.956 328.029 472.772 328.677 471.684C329.001 471.14 329.198 470.716 329.332 470.351C329.402 470.046 329.469 469.863 329.469 469.863C329.469 469.863 329.403 470.046 329.393 470.353C329.323 470.658 329.124 471.144 328.8 471.688C328.152 472.775 326.639 474.022 324.535 474.45C322.37 474.877 319.868 474.249 317.374 473.313C314.881 472.378 312.272 471.193 309.723 470.071C304.626 467.766 299.4 465.702 295.365 464.905C293.348 464.476 291.693 464.303 290.526 464.268C289.911 464.25 289.481 464.237 289.172 464.289C288.865 464.28 288.679 464.336 288.679 464.336C288.679 464.336 288.371 464.326 287.755 464.37C287.139 464.413 286.277 464.448 285.288 464.603C283.25 464.911 280.58 465.753 277.968 466.72C275.295 467.686 272.685 468.592 270.641 469.084C268.476 469.511 267.059 469.591 267.059 469.591Z" fill="#1D1D1C"/>
<path d="M266.437 469.818C266.437 469.818 269.521 471.571 272.739 472.959C275.956 474.347 279.37 475.372 279.37 475.372C279.37 475.372 281.01 476.036 283.507 476.849C286.002 477.723 289.415 478.748 292.895 479.59C296.375 480.432 299.92 481.153 302.624 481.234C303.976 481.275 305.085 481.185 305.889 481.025C306.692 480.926 307.126 480.816 307.126 480.816C307.126 480.816 306.692 480.926 305.949 481.088C305.145 481.249 304.033 481.4 302.68 481.421C299.973 481.462 296.362 480.862 292.879 480.143C289.395 479.424 285.917 478.52 283.357 477.767C280.796 477.013 279.092 476.409 279.092 476.409C279.092 476.409 275.748 475.14 272.601 473.447C269.391 471.813 266.437 469.818 266.437 469.818Z" fill="#1D1D1C"/>
<path d="M320.368 490.376C320.368 490.376 319.437 490.655 318.008 491.166C316.582 491.554 314.77 492.483 312.683 492.359C310.533 492.295 308.862 490.584 308.165 489.211C307.755 488.522 307.528 487.9 307.418 487.466C307.308 487.033 307.193 486.783 307.193 486.783C307.193 486.783 307.084 486.288 306.926 485.422C306.877 484.99 306.832 484.436 306.728 483.817C306.685 483.201 306.521 482.52 306.67 481.663C306.818 480.807 307.272 480.021 307.909 479.302C308.482 478.643 309.299 478.052 310.111 477.646C311.797 476.774 313.838 476.405 315.806 476.403C319.74 476.459 323.579 477.619 326.482 477.214C327.9 477.072 329.084 476.555 329.715 476.02C330.408 475.487 330.666 475.065 330.666 475.065C330.666 475.065 330.408 475.487 329.775 476.083C329.144 476.618 327.958 477.197 326.536 477.462C323.568 477.988 319.725 476.95 315.847 477.08C313.939 477.146 312.019 477.58 310.519 478.396C309.017 479.274 307.809 480.591 307.647 481.877C307.567 482.49 307.731 483.171 307.774 483.787C307.879 484.405 307.926 484.899 308.036 485.333C308.194 486.198 308.304 486.632 308.304 486.632C308.304 486.632 308.358 486.88 308.47 487.252C308.582 487.624 308.748 488.244 309.036 488.868C309.614 490.115 310.92 491.692 312.821 491.872C314.72 492.113 316.648 491.371 318.073 491.045C319.378 490.592 320.368 490.376 320.368 490.376Z" fill="#1D1D1C"/>
<path d="M320.243 490.434C320.243 490.434 320.023 489.566 319.88 488.209C319.736 486.852 319.728 485.068 320.029 483.232C320.105 482.742 320.365 482.258 320.805 481.964C321.244 481.67 321.68 481.498 322.173 481.452C323.1 481.295 323.895 481.442 324.51 481.46C325.122 481.54 325.737 481.558 326.165 481.633C326.593 481.707 326.837 481.776 326.837 481.776C327.567 482.044 328.222 482.74 328.446 483.484C328.67 484.229 328.648 484.966 328.503 485.7C328.215 487.106 327.565 488.255 327.653 489.426L327.478 489.113C328.681 490.01 330.543 489.451 332.039 488.758C333.659 488.068 335.215 487.439 336.598 486.435C337.981 485.431 339.13 484.051 339.548 482.403C339.966 480.755 339.53 478.897 338.714 477.397C339.591 478.899 340.091 480.697 339.732 482.408C339.372 484.181 338.221 485.622 336.835 486.749C335.448 487.876 333.827 488.627 332.269 489.318C331.459 489.663 330.649 490.008 329.72 490.226C328.854 490.384 327.81 490.353 326.966 489.774L326.786 489.646L326.791 489.461C326.712 487.983 327.365 486.711 327.523 485.548C327.683 484.322 327.472 483.148 326.374 482.869C326.374 482.869 326.191 482.802 325.888 482.67C325.523 482.536 325.031 482.521 324.359 482.378C323.685 482.296 322.953 482.09 322.212 482.191C321.473 482.23 320.725 482.577 320.517 483.37C320.096 485.079 319.92 486.857 320.002 488.213C320.085 489.568 320.243 490.434 320.243 490.434Z" fill="#1D1D1C"/>
<path d="M339.15 477.225C339.15 477.225 339.583 477.115 340.388 476.955C341.192 476.794 342.305 476.582 343.726 476.378C345.144 476.236 346.807 476.163 348.518 476.522C350.291 476.883 351.985 477.794 353.62 478.643C355.253 479.553 356.95 480.403 358.665 480.639C360.379 480.875 361.926 480.552 363.231 480.099C364.536 479.646 365.536 479.123 366.286 478.715C366.975 478.305 367.412 478.072 367.412 478.072C367.412 478.072 370.726 476.265 375.726 473.586C376.351 473.236 377.038 472.888 377.664 472.537C378.351 472.189 379.162 471.783 379.112 471.412C379.065 470.919 378.413 470.1 378.003 469.411C377.532 468.721 377.063 467.969 376.53 467.276C375.465 465.891 374.215 464.501 372.77 463.474C371.263 462.445 369.496 461.9 367.647 462.029C363.95 462.287 360.8 464.775 357.794 466.592C356.29 467.531 354.728 468.345 353.176 468.852C351.623 469.359 350.137 469.683 348.721 469.763C345.885 469.986 343.563 469.486 342.04 469.01C340.517 468.534 339.67 468.078 339.67 468.078C339.67 468.078 340.517 468.534 342.04 469.01C343.563 469.486 345.948 469.926 348.663 469.639C350.02 469.495 351.504 469.232 353.058 468.664C354.551 468.093 356.052 467.277 357.556 466.339C359.06 465.4 360.568 464.338 362.194 463.403C363.821 462.468 365.629 461.661 367.601 461.535C369.511 461.408 371.525 461.899 373.153 462.993C374.783 464.026 376.092 465.48 377.157 466.865C377.69 467.557 378.221 468.311 378.692 469.001L379.398 470.068C379.633 470.444 379.929 470.822 379.974 471.377C380.017 471.993 379.511 472.47 379.196 472.706C378.82 472.941 378.507 473.116 378.133 473.289C377.446 473.638 376.819 474.049 376.193 474.4C371.251 477.203 367.936 479.072 367.936 479.072C367.936 479.072 367.498 479.305 366.75 479.651C366.002 479.998 364.879 480.518 363.513 480.969C362.146 481.42 360.354 481.735 358.52 481.372C356.684 481.071 354.991 480.098 353.36 479.127C351.728 478.156 350.095 477.246 348.447 476.827C346.8 476.409 345.139 476.421 343.722 476.501C342.305 476.582 341.192 476.794 340.388 476.955C339.645 477.117 339.15 477.225 339.15 477.225Z" fill="#1D1D1C"/>
<path d="M329.46 470.17C329.46 470.17 327.769 469.135 325.099 467.948C322.43 466.7 318.718 465.42 314.938 464.323C311.221 463.166 307.499 462.194 304.767 461.005C302.034 459.878 300.408 458.722 300.408 458.722C300.408 458.722 299.563 458.205 298.242 457.12C296.924 455.973 295.132 454.198 293.802 451.39C293.166 450.018 292.723 448.406 292.406 446.675C292.15 444.945 291.898 443.093 292.389 441.078C292.599 440.224 293.003 439.067 294.004 438.482C295.065 437.961 296.095 438.483 296.879 438.999C298.507 440.093 299.753 441.606 301.002 442.997C303.496 445.962 306.178 448.81 308.873 451.227C311.568 453.645 314.337 455.634 316.941 457.004C319.544 458.373 321.858 459.119 323.568 459.539C325.215 459.957 326.197 460.048 326.197 460.048C326.197 460.048 325.215 459.957 323.566 459.601C321.916 459.244 319.54 458.496 316.874 457.186C314.268 455.878 311.436 453.948 308.68 451.529C305.923 449.109 303.239 446.323 300.621 443.416C299.31 442.024 298.062 440.572 296.553 439.604C295.829 439.152 294.917 438.817 294.291 439.167C293.604 439.516 293.333 440.368 293.119 441.346C292.76 443.057 292.951 444.908 293.271 446.516C293.59 448.186 294.099 449.677 294.675 450.986C295.89 453.544 297.683 455.258 298.944 456.28C300.266 457.303 301.05 457.819 301.05 457.819C301.05 457.819 302.614 458.973 305.223 460.158C307.83 461.404 311.549 462.5 315.2 463.778C318.915 464.996 322.624 466.398 325.289 467.77C327.834 469.014 329.46 470.17 329.46 470.17Z" fill="#1D1D1C"/>
<path d="M339.744 467.65C340.853 465.53 342.927 464.055 345.045 463.135C347.227 462.155 349.519 461.608 351.753 460.937C353.985 460.328 356.226 459.411 358.171 458.117C360.116 456.822 361.652 454.839 361.843 452.569L362.018 452.882C360.441 452.158 358.655 452.227 356.819 451.926C355.901 451.776 354.987 451.502 354.207 450.864C353.425 450.287 352.838 449.347 352.62 448.418C352.124 446.497 352.551 444.542 353.279 442.842C354.006 441.142 354.912 439.631 355.392 437.985C356.002 436.097 355.938 434.128 356.062 432.04C356.123 430.013 356.562 427.689 357.965 426.009C359.368 424.33 361.124 423.214 362.758 422.033C364.392 420.852 365.969 419.546 366.577 417.719L366.87 418.22C365.529 417.811 364.032 418.504 362.778 419.328C361.462 420.149 360.201 421.157 358.649 421.664C355.603 422.741 352.472 422.585 349.45 422.864C346.49 423.144 343.325 424.095 341.408 426.497C340.511 427.7 340.096 429.225 340.173 430.765C340.25 432.304 340.697 433.794 341.081 435.343C342.806 441.421 342.918 447.943 341.503 454.112C341.15 455.638 340.731 457.286 339.41 458.292C338.209 459.363 336.483 459.496 334.947 459.45C333.411 459.404 331.882 459.112 330.41 459.006C328.876 458.899 327.267 459.22 326.13 460.231C327.33 459.16 328.937 458.901 330.412 458.945C331.948 458.991 333.476 459.283 334.951 459.327C336.487 459.373 338.151 459.238 339.29 458.166C340.489 457.156 340.906 455.57 341.259 454.043C342.61 447.934 342.437 441.41 340.648 435.453C340.2 433.963 339.755 432.413 339.68 430.811C339.543 429.208 339.964 427.499 340.926 426.175C342.973 423.531 346.261 422.584 349.347 422.184C352.432 421.846 355.566 421.94 358.364 420.917C359.793 420.407 360.99 419.458 362.306 418.637C363.622 417.815 365.311 416.882 367.078 417.427L367.504 417.563L367.368 417.989C366.69 420.121 364.923 421.606 363.289 422.787C361.593 423.966 359.899 425.083 358.686 426.584C357.472 428.085 357.106 430.042 357.046 432.07C356.925 434.034 357.045 436.19 356.428 438.324C355.819 440.151 354.852 441.659 354.189 443.238C353.466 444.815 353.107 446.526 353.487 448.198C353.868 449.87 355.251 450.895 356.966 451.131C358.677 451.49 360.586 451.424 362.282 452.275L362.465 452.342L362.457 452.587C362.197 455.101 360.413 457.2 358.406 458.493C356.397 459.847 354.098 460.639 351.805 461.246C349.513 461.793 347.221 462.339 345.041 463.258C342.984 464.18 340.914 465.532 339.744 467.65Z" fill="#1D1D1C"/>
<path d="M339.33 477.354C339.33 477.354 339.691 477.61 340.354 478.061C341.017 478.511 341.982 479.155 343.131 479.804C345.489 481.166 348.827 482.619 352.296 483.83C355.765 485.041 359.301 486.07 361.984 486.826C364.666 487.645 366.433 488.19 366.433 488.19C366.433 488.19 367.284 488.523 368.805 489.06C370.326 489.598 372.514 490.463 375.062 491.646C380.156 494.013 386.488 498.2 391.422 503.882C393.921 506.663 396.043 509.74 397.734 512.804C399.428 515.807 401.253 518.506 403.097 520.59C404.878 522.734 406.677 524.264 408.131 524.984C408.494 525.18 408.798 525.312 409.101 525.444C409.405 525.576 409.649 525.645 409.895 525.652C410.323 525.727 410.567 525.795 410.567 525.795C410.567 525.795 410.323 525.727 409.895 525.652C409.649 525.645 409.405 525.576 409.101 525.444C408.796 525.373 408.431 525.239 408.129 525.046C406.675 524.326 404.815 522.794 402.971 520.709C401.127 518.625 399.238 515.985 397.483 512.981C395.728 509.977 393.542 507.021 391.042 504.24C386.043 498.678 379.767 494.678 374.669 492.434C372.12 491.312 369.991 490.51 368.409 489.971C366.887 489.433 366.035 489.162 366.035 489.162C366.035 489.162 364.269 488.555 361.713 487.679C359.095 486.801 355.562 485.65 352.159 484.318C348.693 482.984 345.422 481.349 343.066 479.925C341.919 479.214 340.954 478.571 340.354 478.061C339.691 477.61 339.33 477.354 339.33 477.354Z" fill="#1D1D1C"/>
<path d="M120.504 14.4313C119.173 15.7443 116.814 14.4437 115.494 15.3881L115.084 14.6993C115.587 14.3454 116.032 13.8668 116.54 13.3285C116.54 13.3285 116.73 13.1497 117.106 12.915C117.482 12.6803 118.105 12.3915 118.902 12.4769C119.331 12.5512 119.817 12.7503 120.236 13.1318C120.653 13.5748 120.88 14.1966 120.985 14.8147C121.134 15.9876 120.546 17.1384 119.613 17.4794C118.742 17.8223 117.703 17.6066 116.791 17.2718C115.878 16.937 115.037 16.2968 114.567 15.5448C114.1 14.7313 114.122 13.994 114.256 13.6291C114.391 13.2026 114.641 13.0871 114.641 13.0871C114.641 13.0871 114.453 13.2045 114.317 13.6309C114.181 14.0573 114.221 14.7964 114.692 15.487C115.634 16.8682 117.887 17.6122 119.382 16.9805C120.131 16.634 120.527 15.7234 120.368 14.8577C120.212 13.9306 119.551 13.4188 118.998 13.4022C117.767 13.4268 117.25 14.2723 117.19 14.209C116.686 14.6243 116.118 15.0993 115.433 15.3862L115.023 14.6975C117.015 13.8962 118.995 15.5545 120.504 14.4313Z" fill="#1D1D1C"/>
<path d="M52.2134 23.6382C53.323 23.5485 54.2072 22.7755 54.4787 21.9227C54.4842 21.7384 54.3054 21.5485 54.1229 21.4816C53.8249 21.1652 53.2013 21.4539 52.6951 21.9307C52.187 22.469 51.7385 23.0705 51.4706 23.8004L51.2973 23.4263C52.5784 23.7721 54.1347 23.1423 54.8474 21.9338C54.2539 23.2689 52.7517 24.1463 51.1579 23.9755L50.8507 23.9663L50.9213 23.661C51.191 22.8696 51.5203 22.1415 52.0321 21.4804C52.2889 21.1191 52.6053 20.8211 53.0428 20.5882C53.4802 20.3554 54.1579 20.3142 54.6421 20.5747C55.1244 20.8966 55.4728 21.5835 55.2068 22.252L55.2049 22.3135C54.4978 23.3377 53.2524 23.8538 52.2134 23.6382Z" fill="#1D1D1C"/>
<path d="M54.3697 87.1055C54.3697 87.1055 54.6118 87.2357 55.0401 87.31C55.4683 87.3844 56.0194 87.4624 56.5128 87.4157C57.0062 87.369 57.4418 87.1975 57.7545 87.0224C58.0672 86.8473 58.1938 86.7281 58.1938 86.7281C58.1324 86.7263 58.6909 86.5585 58.7652 86.1303C58.8303 86.0092 58.5956 85.6332 58.2958 85.3783C57.9345 85.1214 57.4448 85.0453 56.8937 84.9673C55.851 84.8745 54.6222 84.8377 54.4139 85.6309C54.2818 85.9344 54.3937 86.3067 54.5743 86.4351C54.7531 86.625 54.8742 86.6901 54.8742 86.6901C54.8742 86.6901 54.7513 86.6864 54.511 86.4947C54.3322 86.3049 54.1571 85.9922 54.2315 85.5639C54.3058 85.1357 54.6855 84.7781 55.1807 84.6699C55.6777 84.5003 56.2307 84.5169 56.7855 84.472C57.3385 84.4886 57.9529 84.507 58.5599 84.7712C59.1037 85.095 59.5805 85.6013 59.6235 86.2175C59.6684 86.7723 59.352 87.0703 59.1621 87.2491C58.9723 87.4279 58.8476 87.4857 58.8476 87.4857C58.8476 87.4857 58.5981 87.6012 58.1643 87.7112C57.7306 87.8212 57.1143 87.8642 56.5614 87.8476C55.9488 87.7678 55.3995 87.6283 54.9749 87.4311C54.61 87.2972 54.3697 87.1055 54.3697 87.1055Z" fill="#1D1D1C"/>
<path d="M279.302 498.123C279.302 498.123 282.527 499.266 285.682 500.713C288.838 502.099 291.992 503.546 291.992 503.546C291.992 503.546 293.505 504.391 295.741 505.688C297.978 506.985 300.938 508.734 303.961 510.485C306.983 512.236 310.009 513.864 312.374 514.981C313.588 515.509 314.558 515.969 315.225 516.296C315.891 516.624 316.318 516.759 316.318 516.759C316.318 516.759 315.891 516.624 315.225 516.296C314.556 516.03 313.525 515.569 312.309 515.102C309.942 514.047 306.788 512.599 303.7 510.969C300.674 509.341 297.587 507.711 295.287 506.474C292.985 505.298 291.471 504.515 291.471 504.515C291.471 504.515 288.509 502.827 285.483 501.199C282.395 499.569 279.302 498.123 279.302 498.123Z" fill="#1D1D1C"/>
</svg>
