<svg width="25" height="28" viewBox="0 0 25 28" fill="none" xmlns="http://www.w3.org/2000/svg">
<path fill-rule="evenodd" clip-rule="evenodd" d="M2.22124 11.6688C2.32551 10.3847 3.41039 9.39524 4.71374 9.39551H19.7862C21.0896 9.39524 22.1745 10.3847 22.2787 11.6688L23.2825 24.0234C23.3383 24.7108 23.101 25.3899 22.6279 25.8967C22.1548 26.4035 21.4889 26.6918 20.7912 26.692H3.70874C3.01107 26.6918 2.34522 26.4035 1.87211 25.8967C1.399 25.3899 1.16168 24.7108 1.21749 24.0234L2.22124 11.6688V11.6688Z" stroke="black" stroke-width="2" stroke-linecap="round" stroke-linejoin="round"/>
<path d="M17.25 13.1019V6.92453C17.25 4.19521 15.0114 1.98267 12.25 1.98267V1.98267C9.48858 1.98267 7.25 4.19521 7.25 6.92453V13.1019" stroke="black" stroke-width="2" stroke-linecap="round" stroke-linejoin="round"/>
</svg>
