<svg width="20" height="20" viewBox="0 0 20 20" fill="none" xmlns="http://www.w3.org/2000/svg">
<circle opacity="0.08" cx="10" cy="10" r="10" fill="#F7B525"/>
<path d="M8.39843 13.8242L5.13672 10.582C5.04557 10.4909 5 10.3737 5 10.2305C5 10.0872 5.04557 9.97004 5.13672 9.8789L5.85937 9.17577C5.95052 9.07161 6.06445 9.01953 6.20117 9.01953C6.33789 9.01953 6.45833 9.07161 6.5625 9.17577L8.74999 11.3633L13.4375 6.67578C13.5416 6.57161 13.6621 6.51953 13.7988 6.51953C13.9355 6.51953 14.0495 6.57161 14.1406 6.67578L14.8633 7.3789C14.9544 7.47005 15 7.58724 15 7.73047C15 7.87369 14.9544 7.99088 14.8633 8.08203L9.10155 13.8242C9.01041 13.9284 8.89322 13.9805 8.74999 13.9805C8.60676 13.9805 8.48958 13.9284 8.39843 13.8242Z" fill="#F7B525"/>
</svg>
