<svg width="22" height="23" viewBox="0 0 22 23" fill="none" xmlns="http://www.w3.org/2000/svg">
<path fill-rule="evenodd" clip-rule="evenodd" d="M21.87 20.4598L19.98 22.3279L13.77 16.1604V15.1819L13.41 14.8558C12.71 15.4686 11.905 15.938 10.995 16.2642C10.085 16.5904 9.14 16.7534 8.16 16.7534C6.68 16.7534 5.315 16.3976 4.065 15.686C2.815 14.9744 1.83 14.0156 1.11 12.8098C0.37 11.5645 0 10.2104 0 8.74762C0 7.28483 0.365 5.9357 1.095 4.70024C1.825 3.46477 2.815 2.49123 4.065 1.7796C5.315 1.06797 6.68 0.712158 8.16 0.712158C9.64 0.712158 11.01 1.07786 12.27 1.80925C13.49 2.52088 14.455 3.48948 15.165 4.71507C15.875 5.94065 16.23 7.28483 16.23 8.74762C16.23 9.736 16.065 10.6799 15.735 11.5793C15.405 12.4787 14.93 13.2744 14.31 13.9662L14.64 14.322H15.66L21.87 20.4598ZM5.34 13.5659C6.2 14.07 7.14 14.322 8.16 14.322C9.18 14.322 10.12 14.07 10.98 13.5659C11.84 13.0619 12.52 12.3848 13.02 11.5348C13.52 10.6848 13.77 9.75576 13.77 8.74762C13.77 7.73948 13.52 6.81041 13.02 5.96041C12.52 5.11041 11.84 4.43832 10.98 3.94413C10.12 3.44995 9.18 3.20286 8.16 3.20286C7.14 3.20286 6.2 3.44995 5.34 3.94413C4.48 4.43832 3.795 5.11041 3.285 5.96041C2.775 6.81041 2.52 7.73948 2.52 8.74762C2.52 9.75576 2.775 10.6848 3.285 11.5348C3.795 12.3848 4.48 13.0619 5.34 13.5659Z" fill="black"/>
</svg>
