<svg width="0" height="0" class="hidden">
  <symbol xmlns="http://www.w3.org/2000/svg" viewBox="0 0 40 40" id="twitter">
    <g clip-path="url(#clip0_1_1022)">
      <path d="M14.1834 33.3332H14.05C11.364 33.3097 8.71674 32.6892 6.30003 31.5165C5.85549 31.3077 5.48946 30.9621 5.25554 30.5302C5.02161 30.0984 4.93207 29.603 5.00003 29.1165C5.07394 28.6268 5.30068 28.173 5.64787 27.8198C5.99507 27.4666 6.44498 27.2321 6.93336 27.1499C8.43105 26.9501 9.87184 26.4452 11.1667 25.6665C8.91863 23.9089 7.18795 21.5758 6.15806 18.9145C5.12817 16.2533 4.83745 13.3629 5.3167 10.5499C5.38168 10.1043 5.5733 9.68676 5.86878 9.34697C6.16425 9.00718 6.55112 8.75943 6.98336 8.6332C7.40389 8.50114 7.85394 8.49549 8.27764 8.61697C8.70135 8.73846 9.08004 8.98171 9.3667 9.31654C10.34 10.5928 11.5632 11.6575 12.9615 12.4455C14.3599 13.2335 15.9041 13.7283 17.5 13.8999C17.5763 11.9363 18.4201 10.0811 19.85 8.7332C20.564 8.04949 21.407 7.51472 22.3297 7.16005C23.2525 6.80538 24.2366 6.6379 25.2247 6.66737C26.2128 6.69685 27.1852 6.92268 28.0852 7.33172C28.9851 7.74076 29.7947 8.32482 30.4667 9.04987C30.6418 9.20465 30.8593 9.30329 31.0911 9.33301C31.3229 9.36272 31.5582 9.32215 31.7667 9.21654C32.1641 9.02912 32.6066 8.95856 33.0425 9.01311C33.4785 9.06766 33.89 9.24506 34.2289 9.52461C34.5679 9.80417 34.8204 10.1743 34.9569 10.592C35.0934 11.0096 35.1084 11.4574 35 11.8832C34.6156 13.4667 33.8873 14.9462 32.8667 16.2165C32.6418 20.9578 30.5515 25.4178 27.0516 28.6242C23.5517 31.8306 18.9261 33.5233 14.1834 33.3332ZM14.1834 29.9999H14.3167C16.2545 30.0665 18.1862 29.7478 19.9999 29.0623C21.8136 28.3768 23.4732 27.3381 24.8824 26.0063C26.2917 24.6746 27.4225 23.0764 28.2095 21.3044C28.9964 19.5323 29.4237 17.6217 29.4667 15.6832C29.4942 15.152 29.7133 14.6487 30.0834 14.2665C30.4899 13.7519 30.8365 13.1928 31.1167 12.5999C30.5163 12.601 29.9224 12.4754 29.3738 12.2313C28.8253 11.9872 28.3344 11.63 27.9334 11.1832C27.5477 10.8008 27.0896 10.4992 26.5859 10.296C26.0822 10.0928 25.5431 9.99212 25 9.99987C24.4515 9.98569 23.9056 10.08 23.3937 10.2773C22.8817 10.4747 22.4138 10.7712 22.0167 11.1499C21.481 11.6582 21.0882 12.2983 20.8776 13.0061C20.667 13.714 20.646 14.4647 20.8167 15.1832L21.25 17.0832L19.3 17.2165C17.3019 17.3795 15.2921 17.1061 13.4101 16.4155C11.528 15.7248 9.8185 14.6333 8.40003 13.2165C8.3392 15.4105 8.88803 17.5784 9.98552 19.4792C11.083 21.3799 12.6861 22.939 14.6167 23.9832L16.2 24.8832L15.15 26.3832C14.0145 27.8724 12.4587 28.987 10.6834 29.5832C11.8222 29.8686 12.9926 30.0086 14.1667 29.9999H14.1834Z" ></path>
    </g>

  </symbol>
  <symbol xmlns="http://www.w3.org/2000/svg" viewBox="0 0 40 40" id="instagram">
    <path d="M28.9 9.10016C28.5044 9.10016 28.1178 9.21746 27.7889 9.43722C27.46 9.65699 27.2036 9.96934 27.0522 10.3348C26.9009 10.7002 26.8613 11.1024 26.9384 11.4903C27.0156 11.8783 27.2061 12.2347 27.4858 12.5144C27.7655 12.7941 28.1219 12.9846 28.5098 13.0617C28.8978 13.1389 29.2999 13.0993 29.6654 12.9479C30.0308 12.7965 30.3432 12.5402 30.5629 12.2113C30.7827 11.8824 30.9 11.4957 30.9 11.1002C30.9 10.5697 30.6893 10.061 30.3142 9.68595C29.9391 9.31088 29.4304 9.10016 28.9 9.10016ZM36.5667 13.1335C36.5343 11.7507 36.2753 10.3825 35.8 9.0835C35.3762 7.97205 34.7166 6.96563 33.8667 6.1335C33.0414 5.27921 32.0326 4.62379 30.9167 4.21683C29.6211 3.7271 28.2514 3.46218 26.8667 3.4335C25.1 3.3335 24.5333 3.3335 20 3.3335C15.4667 3.3335 14.9 3.3335 13.1333 3.4335C11.7486 3.46218 10.3789 3.7271 9.08333 4.21683C7.96946 4.62791 6.96155 5.28276 6.13333 6.1335C5.27904 6.95879 4.62362 7.96756 4.21666 9.0835C3.72693 10.3791 3.46201 11.7488 3.43333 13.1335C3.33333 14.9002 3.33333 15.4668 3.33333 20.0002C3.33333 24.5335 3.33333 25.1002 3.43333 26.8668C3.46201 28.2516 3.72693 29.6213 4.21666 30.9168C4.62362 32.0328 5.27904 33.0415 6.13333 33.8668C6.96155 34.7176 7.96946 35.3724 9.08333 35.7835C10.3789 36.2732 11.7486 36.5381 13.1333 36.5668C14.9 36.6668 15.4667 36.6668 20 36.6668C24.5333 36.6668 25.1 36.6668 26.8667 36.5668C28.2514 36.5381 29.6211 36.2732 30.9167 35.7835C32.0326 35.3765 33.0414 34.7211 33.8667 33.8668C34.7204 33.0378 35.3806 32.0305 35.8 30.9168C36.2753 29.6178 36.5343 28.2497 36.5667 26.8668C36.5667 25.1002 36.6667 24.5335 36.6667 20.0002C36.6667 15.4668 36.6667 14.9002 36.5667 13.1335ZM33.5667 26.6668C33.5545 27.7248 33.3629 28.773 33 29.7668C32.7339 30.4922 32.3065 31.1475 31.75 31.6835C31.2094 32.2343 30.5554 32.6609 29.8333 32.9335C28.8395 33.2964 27.7913 33.488 26.7333 33.5002C25.0667 33.5835 24.45 33.6002 20.0667 33.6002C15.6833 33.6002 15.0667 33.6002 13.4 33.5002C12.3015 33.5207 11.2077 33.3516 10.1667 33.0002C9.4763 32.7136 8.85225 32.2881 8.33333 31.7502C7.78014 31.2147 7.35807 30.5588 7.1 29.8335C6.69309 28.8254 6.4674 27.7534 6.43333 26.6668C6.43333 25.0002 6.33333 24.3835 6.33333 20.0002C6.33333 15.6168 6.33333 15.0002 6.43333 13.3335C6.4408 12.2519 6.63825 11.1801 7.01666 10.1668C7.31007 9.46335 7.76044 8.83626 8.33333 8.3335C8.83968 7.76044 9.46547 7.30532 10.1667 7.00016C11.1826 6.63357 12.2533 6.44196 13.3333 6.4335C15 6.4335 15.6167 6.3335 20 6.3335C24.3833 6.3335 25 6.3335 26.6667 6.4335C27.7246 6.44563 28.7728 6.63724 29.7667 7.00016C30.524 7.28125 31.2038 7.73824 31.75 8.3335C32.2962 8.84546 32.7229 9.47138 33 10.1668C33.3704 11.1817 33.5621 12.2531 33.5667 13.3335C33.65 15.0002 33.6667 15.6168 33.6667 20.0002C33.6667 24.3835 33.65 25.0002 33.5667 26.6668ZM20 11.4502C18.3097 11.4535 16.6583 11.9577 15.2544 12.8992C13.8506 13.8407 12.7573 15.1772 12.1127 16.7398C11.4681 18.3023 11.3012 20.0209 11.633 21.6784C11.9648 23.3358 12.7804 24.8577 13.9768 26.0518C15.1732 27.2459 16.6967 28.0585 18.3548 28.3871C20.0128 28.7156 21.7311 28.5453 23.2924 27.8977C24.8538 27.2501 26.1881 26.1542 27.1269 24.7486C28.0656 23.3429 28.5667 21.6905 28.5667 20.0002C28.5689 18.8753 28.3487 17.7612 27.9187 16.7218C27.4888 15.6823 26.8576 14.7382 26.0614 13.9436C25.2653 13.149 24.3199 12.5196 23.2797 12.0917C22.2394 11.6638 21.1248 11.4458 20 11.4502ZM20 25.5502C18.9023 25.5502 17.8293 25.2247 16.9166 24.6148C16.0039 24.005 15.2925 23.1382 14.8725 22.1241C14.4524 21.1099 14.3425 19.994 14.5566 18.9174C14.7708 17.8408 15.2994 16.8519 16.0756 16.0757C16.8517 15.2995 17.8406 14.771 18.9172 14.5568C19.9938 14.3427 21.1098 14.4526 22.1239 14.8726C23.138 15.2927 24.0048 16.0041 24.6147 16.9167C25.2245 17.8294 25.55 18.9025 25.55 20.0002C25.55 20.729 25.4064 21.4507 25.1275 22.1241C24.8486 22.7974 24.4398 23.4092 23.9244 23.9246C23.4091 24.44 22.7972 24.8488 22.1239 25.1277C21.4505 25.4066 20.7288 25.5502 20 25.5502Z" ></path>
  </symbol>
  <symbol  xmlns="http://www.w3.org/2000/svg" viewBox="0 0 40 40" id="facebook">
    <path d="M34.8333 3.3335H5.16668C4.68045 3.3335 4.21413 3.52665 3.87031 3.87047C3.5265 4.21428 3.33334 4.6806 3.33334 5.16683V34.8335C3.33334 35.0743 3.38076 35.3127 3.4729 35.5351C3.56503 35.7575 3.70007 35.9596 3.87031 36.1299C4.04056 36.3001 4.24266 36.4351 4.46509 36.5273C4.68752 36.6194 4.92592 36.6668 5.16668 36.6668H21.1333V23.7502H16.8V18.7502H21.1333V15.0002C21.0436 14.1198 21.1475 13.2304 21.4379 12.3944C21.7282 11.5584 22.198 10.7961 22.8141 10.1608C23.4303 9.52562 24.178 9.0329 25.0047 8.71723C25.8315 8.40155 26.7173 8.27058 27.6 8.3335C28.8972 8.32551 30.1938 8.39229 31.4833 8.5335V13.0335H28.8333C26.7333 13.0335 26.3333 14.0335 26.3333 15.4835V18.7002H31.3333L30.6833 23.7002H26.3333V36.6668H34.8333C35.0741 36.6668 35.3125 36.6194 35.5349 36.5273C35.7574 36.4351 35.9595 36.3001 36.1297 36.1299C36.2999 35.9596 36.435 35.7575 36.5271 35.5351C36.6193 35.3127 36.6667 35.0743 36.6667 34.8335V5.16683C36.6667 4.92607 36.6193 4.68767 36.5271 4.46524C36.435 4.24281 36.2999 4.04071 36.1297 3.87047C35.9595 3.70023 35.7574 3.56518 35.5349 3.47305C35.3125 3.38092 35.0741 3.3335 34.8333 3.3335Z" ></path>
  </symbol>
</svg>