<svg width="31" height="31" viewBox="0 0 31 31" fill="none" xmlns="http://www.w3.org/2000/svg">
<path fill-rule="evenodd" clip-rule="evenodd" d="M20.25 11.6308C20.25 14.3601 18.0114 16.5727 15.25 16.5727C12.4886 16.5727 10.25 14.3601 10.25 11.6308C10.25 8.90151 12.4886 6.68896 15.25 6.68896C18.0114 6.68896 20.25 8.90151 20.25 11.6308ZM17.75 11.6308C17.75 12.9955 16.6307 14.1018 15.25 14.1018C13.8693 14.1018 12.75 12.9955 12.75 11.6308C12.75 10.2662 13.8693 9.15989 15.25 9.15989C16.6307 9.15989 17.75 10.2662 17.75 11.6308Z" fill="black"/>
<path fill-rule="evenodd" clip-rule="evenodd" d="M15.25 1.74707C7.65625 1.74707 1.5 7.83174 1.5 15.3372C1.5 22.8426 7.65625 28.9273 15.25 28.9273C22.8438 28.9273 29 22.8426 29 15.3372C29 7.83174 22.8438 1.74707 15.25 1.74707ZM4 15.3371C4 17.9192 4.89125 20.2962 6.385 22.184C8.5115 19.4239 11.8212 17.805 15.3313 17.808C18.7947 17.8047 22.0659 19.3812 24.1963 22.0802C27.1706 18.2246 27.2743 12.9086 24.4525 8.94248C21.6307 4.9764 16.5341 3.27473 11.857 4.73706C7.17983 6.1994 4.00062 10.4885 4 15.3371ZM15.25 26.4564C12.6674 26.4602 10.1628 25.5821 8.16 23.9706C9.7962 21.6555 12.474 20.277 15.3312 20.279C18.1518 20.2768 20.8 21.6203 22.4425 23.8866C20.4241 25.5504 17.8782 26.46 15.25 26.4564Z" fill="black"/>
</svg>
