<svg width="362" height="55" viewBox="0 0 362 55" fill="none" xmlns="http://www.w3.org/2000/svg">
<path d="M46.7 3.6V54H35.036V33.336H12.14V54H0.476V3.6H12.14V23.472H35.036V3.6H46.7ZM76.2644 54.576C72.1844 54.576 68.5124 53.736 65.2484 52.056C62.0324 50.328 59.5124 47.952 57.6884 44.928C55.8644 41.904 54.9524 38.472 54.9524 34.632C54.9524 30.792 55.8644 27.36 57.6884 24.336C59.5124 21.312 62.0324 18.96 65.2484 17.28C68.5124 15.552 72.1844 14.688 76.2644 14.688C80.3444 14.688 83.9924 15.552 87.2084 17.28C90.4244 18.96 92.9444 21.312 94.7684 24.336C96.5924 27.36 97.5044 30.792 97.5044 34.632C97.5044 38.472 96.5924 41.904 94.7684 44.928C92.9444 47.952 90.4244 50.328 87.2084 52.056C83.9924 53.736 80.3444 54.576 76.2644 54.576ZM76.2644 45.36C79.1444 45.36 81.4964 44.4 83.3204 42.48C85.1924 40.512 86.1284 37.896 86.1284 34.632C86.1284 31.368 85.1924 28.776 83.3204 26.856C81.4964 24.888 79.1444 23.904 76.2644 23.904C73.3844 23.904 71.0084 24.888 69.1364 26.856C67.2644 28.776 66.3284 31.368 66.3284 34.632C66.3284 37.896 67.2644 40.512 69.1364 42.48C71.0084 44.4 73.3844 45.36 76.2644 45.36ZM123.444 54.576C119.364 54.576 115.692 53.736 112.428 52.056C109.212 50.328 106.692 47.952 104.868 44.928C103.044 41.904 102.132 38.472 102.132 34.632C102.132 30.792 103.044 27.36 104.868 24.336C106.692 21.312 109.212 18.96 112.428 17.28C115.692 15.552 119.364 14.688 123.444 14.688C127.524 14.688 131.172 15.552 134.388 17.28C137.604 18.96 140.124 21.312 141.948 24.336C143.772 27.36 144.684 30.792 144.684 34.632C144.684 38.472 143.772 41.904 141.948 44.928C140.124 47.952 137.604 50.328 134.388 52.056C131.172 53.736 127.524 54.576 123.444 54.576ZM123.444 45.36C126.324 45.36 128.676 44.4 130.5 42.48C132.372 40.512 133.308 37.896 133.308 34.632C133.308 31.368 132.372 28.776 130.5 26.856C128.676 24.888 126.324 23.904 123.444 23.904C120.564 23.904 118.188 24.888 116.316 26.856C114.444 28.776 113.508 31.368 113.508 34.632C113.508 37.896 114.444 40.512 116.316 42.48C118.188 44.4 120.564 45.36 123.444 45.36ZM152.192 0.575997H163.424V54H152.192V0.575997ZM189.472 14.688C195.472 14.688 200.08 16.128 203.296 19.008C206.512 21.84 208.12 26.136 208.12 31.896V54H197.608V49.176C195.496 52.776 191.56 54.576 185.8 54.576C182.824 54.576 180.232 54.072 178.024 53.064C175.864 52.056 174.208 50.664 173.056 48.888C171.904 47.112 171.328 45.096 171.328 42.84C171.328 39.24 172.672 36.408 175.36 34.344C178.096 32.28 182.296 31.248 187.96 31.248H196.888C196.888 28.8 196.144 26.928 194.656 25.632C193.168 24.288 190.936 23.616 187.96 23.616C185.896 23.616 183.856 23.952 181.84 24.624C179.872 25.248 178.192 26.112 176.8 27.216L172.768 19.368C174.88 17.88 177.4 16.728 180.328 15.912C183.304 15.096 186.352 14.688 189.472 14.688ZM188.608 47.016C190.528 47.016 192.232 46.584 193.72 45.72C195.208 44.808 196.264 43.488 196.888 41.76V37.8H189.184C184.576 37.8 182.272 39.312 182.272 42.336C182.272 43.776 182.824 44.928 183.928 45.792C185.08 46.608 186.64 47.016 188.608 47.016ZM256.086 27.792C258.966 28.704 261.222 30.24 262.854 32.4C264.486 34.512 265.302 37.128 265.302 40.248C265.302 44.664 263.574 48.072 260.118 50.472C256.71 52.824 251.718 54 245.142 54H219.078V3.6H243.702C249.846 3.6 254.55 4.776 257.814 7.128C261.126 9.48 262.782 12.672 262.782 16.704C262.782 19.152 262.182 21.336 260.982 23.256C259.83 25.176 258.198 26.688 256.086 27.792ZM230.67 12.384V24.264H242.262C245.142 24.264 247.326 23.76 248.814 22.752C250.302 21.744 251.046 20.256 251.046 18.288C251.046 16.32 250.302 14.856 248.814 13.896C247.326 12.888 245.142 12.384 242.262 12.384H230.67ZM244.278 45.216C247.35 45.216 249.654 44.712 251.19 43.704C252.774 42.696 253.566 41.136 253.566 39.024C253.566 34.848 250.47 32.76 244.278 32.76H230.67V45.216H244.278ZM312.364 15.264V54H301.708V49.392C300.22 51.072 298.444 52.368 296.38 53.28C294.316 54.144 292.084 54.576 289.684 54.576C284.596 54.576 280.564 53.112 277.588 50.184C274.612 47.256 273.124 42.912 273.124 37.152V15.264H284.356V35.496C284.356 41.736 286.972 44.856 292.204 44.856C294.892 44.856 297.052 43.992 298.684 42.264C300.316 40.488 301.132 37.872 301.132 34.416V15.264H312.364ZM361.794 15.264V54H351.138V49.392C349.65 51.072 347.874 52.368 345.81 53.28C343.746 54.144 341.514 54.576 339.114 54.576C334.026 54.576 329.994 53.112 327.018 50.184C324.042 47.256 322.554 42.912 322.554 37.152V15.264H333.786V35.496C333.786 41.736 336.402 44.856 341.634 44.856C344.322 44.856 346.482 43.992 348.114 42.264C349.746 40.488 350.562 37.872 350.562 34.416V15.264H361.794Z" fill="#505050"/>
</svg>
