<svg width="158" height="58" viewBox="0 0 158 58" fill="none" xmlns="http://www.w3.org/2000/svg">
<path d="M57.188 6.464C55.46 6.56 54.188 6.752 53.372 7.04C52.604 7.328 52.076 7.88 51.788 8.696C51.5 9.512 51.356 10.832 51.356 12.656V48.368C51.356 50.192 51.5 51.512 51.788 52.328C52.076 53.144 52.604 53.696 53.372 53.984C54.188 54.272 55.46 54.464 57.188 54.56V56C54.98 55.856 51.932 55.784 48.044 55.784C43.916 55.784 40.844 55.856 38.828 56V54.56C40.556 54.464 41.804 54.272 42.572 53.984C43.388 53.696 43.94 53.144 44.228 52.328C44.516 51.512 44.66 50.192 44.66 48.368V9.776L27.308 56.36H26.156L8.012 9.632V47.648C8.012 49.52 8.156 50.912 8.444 51.824C8.78 52.736 9.404 53.408 10.316 53.84C11.228 54.224 12.644 54.464 14.564 54.56V56C12.836 55.856 10.388 55.784 7.22 55.784C4.34 55.784 2.108 55.856 0.524 56V54.56C2.204 54.464 3.452 54.224 4.268 53.84C5.084 53.408 5.636 52.736 5.924 51.824C6.212 50.864 6.356 49.472 6.356 47.648V12.656C6.356 10.832 6.212 9.512 5.924 8.696C5.636 7.88 5.084 7.328 4.268 7.04C3.5 6.752 2.252 6.56 0.524 6.464V5.024C2.108 5.168 4.34 5.24 7.22 5.24C9.716 5.24 11.756 5.168 13.34 5.024L29.18 46.712L44.66 5.24H48.044C51.932 5.24 54.98 5.168 57.188 5.024V6.464ZM70.5148 0.919997C71.7628 0.919997 72.8428 1.376 73.7548 2.288C74.6668 3.2 75.1228 4.28 75.1228 5.528C75.1228 6.776 74.6668 7.856 73.7548 8.768C72.8428 9.68 71.7628 10.136 70.5148 10.136C69.2668 10.136 68.1868 9.68 67.2748 8.768C66.3628 7.856 65.9068 6.776 65.9068 5.528C65.9068 4.28 66.3628 3.2 67.2748 2.288C68.1868 1.376 69.2668 0.919997 70.5148 0.919997ZM74.2588 49.304C74.2588 51.272 74.6668 52.64 75.4828 53.408C76.2988 54.128 77.7148 54.488 79.7308 54.488V56C75.3148 55.808 72.4108 55.712 71.0188 55.712C69.6268 55.712 66.7228 55.808 62.3068 56V54.488C64.3228 54.488 65.7388 54.128 66.5548 53.408C67.3708 52.64 67.7788 51.272 67.7788 49.304V26.768C67.7788 24.56 67.3708 22.952 66.5548 21.944C65.7388 20.936 64.3228 20.432 62.3068 20.432V18.92C63.8428 19.064 65.3308 19.136 66.7708 19.136C69.7948 19.136 72.2908 18.8 74.2588 18.128V49.304ZM107.593 17.912C110.953 17.912 113.497 18.824 115.225 20.648C116.137 21.608 116.785 22.808 117.169 24.248C117.553 25.688 117.745 27.632 117.745 30.08V49.304C117.745 51.272 118.153 52.64 118.969 53.408C119.785 54.128 121.201 54.488 123.217 54.488V56C118.801 55.808 115.921 55.712 114.577 55.712C113.233 55.712 110.545 55.808 106.513 56V54.488C108.289 54.488 109.513 54.128 110.185 53.408C110.905 52.64 111.265 51.272 111.265 49.304V28.496C111.265 25.808 110.881 23.768 110.113 22.376C109.345 20.936 107.785 20.216 105.433 20.216C103.465 20.216 101.713 20.792 100.177 21.944C98.6405 23.096 97.4405 24.68 96.5765 26.696C95.7605 28.664 95.3525 30.872 95.3525 33.32V49.304C95.3525 51.272 95.6885 52.64 96.3605 53.408C97.0805 54.128 98.3285 54.488 100.105 54.488V56C96.0725 55.808 93.3845 55.712 92.0405 55.712C90.6965 55.712 87.8165 55.808 83.4005 56V54.488C85.4165 54.488 86.8325 54.128 87.6485 53.408C88.4645 52.64 88.8725 51.272 88.8725 49.304V26.768C88.8725 24.56 88.4645 22.952 87.6485 21.944C86.8325 20.936 85.4165 20.432 83.4005 20.432V18.92C84.9365 19.064 86.4245 19.136 87.8645 19.136C90.8885 19.136 93.3845 18.8 95.3525 18.128V26.624C96.5525 23.552 98.2085 21.344 100.32 20C102.481 18.608 104.905 17.912 107.593 17.912ZM157.609 47.36C156.745 50 155.113 52.28 152.713 54.2C150.361 56.072 147.505 57.008 144.145 57.008C140.737 57.008 137.785 56.24 135.289 54.704C132.793 53.12 130.873 50.936 129.529 48.152C128.233 45.32 127.585 42.056 127.585 38.36C127.585 34.184 128.257 30.56 129.601 27.488C130.945 24.416 132.841 22.064 135.289 20.432C137.737 18.752 140.593 17.912 143.857 17.912C148.177 17.912 151.489 19.232 153.793 21.872C156.145 24.464 157.321 28.424 157.321 33.752H134.785C134.641 35.096 134.569 36.632 134.569 38.36C134.569 41.528 135.073 44.288 136.081 46.64C137.137 48.992 138.505 50.816 140.185 52.112C141.913 53.36 143.713 53.984 145.585 53.984C147.889 53.984 149.929 53.432 151.705 52.328C153.481 51.224 154.969 49.376 156.169 46.784L157.609 47.36ZM143.569 19.28C141.313 19.28 139.369 20.384 137.737 22.592C136.105 24.8 135.097 28.064 134.713 32.384H150.409C150.505 28.64 149.953 25.52 148.753 23.024C147.601 20.528 145.873 19.28 143.569 19.28Z" fill="#505050"/>
</svg>
