<svg width="325" height="55" viewBox="0 0 325 55" fill="none" xmlns="http://www.w3.org/2000/svg">
<path d="M16.7148 4.03516C15.0273 4.03516 13.5391 4.23438 12.25 4.63281C10.9844 5.03125 9.91797 5.59375 9.05078 6.32031C8.18359 7.04688 7.52734 7.92578 7.08203 8.95703C6.66016 9.96484 6.44922 11.0781 6.44922 12.2969C6.44922 13.1641 6.56641 14.0195 6.80078 14.8633C7.03516 15.707 7.53906 16.5742 8.3125 17.4648C9.08594 18.332 10.1992 19.2344 11.6523 20.1719C13.1289 21.1094 15.1094 22.1172 17.5938 23.1953C20.4531 24.5078 22.8672 25.7383 24.8359 26.8867C26.8281 28.0352 28.4453 29.2539 29.6875 30.543C30.9297 31.832 31.8203 33.2852 32.3594 34.9023C32.9219 36.4961 33.2031 38.4062 33.2031 40.6328C33.2031 42.3203 32.8633 44.0078 32.1836 45.6953C31.5039 47.3828 30.4727 48.8945 29.0898 50.2305C27.7305 51.5664 26.0078 52.6562 23.9219 53.5C21.8594 54.3203 19.4336 54.7305 16.6445 54.7305C13.5508 54.7305 10.9492 54.4375 8.83984 53.8516C6.73047 53.2891 5.03125 52.5508 3.74219 51.6367C2.47656 50.7227 1.5625 49.6914 1 48.543C0.4375 47.3711 0.15625 46.1992 0.15625 45.0273C0.15625 44.2539 0.273438 43.5391 0.507812 42.8828C0.742188 42.2031 1.08203 41.6172 1.52734 41.125C1.99609 40.6094 2.55859 40.2109 3.21484 39.9297C3.89453 39.625 4.65625 39.4727 5.5 39.4727C6.27344 39.4727 6.97656 39.6133 7.60938 39.8945C8.24219 40.1523 8.76953 40.5156 9.19141 40.9844C9.63672 41.4297 9.97656 41.9688 10.2109 42.6016C10.4688 43.2109 10.5977 43.8789 10.5977 44.6055C10.5977 46.2695 10.1172 47.5234 9.15625 48.3672C8.19531 49.2109 6.95312 49.6328 5.42969 49.6328V49.7734C5.59375 49.9609 5.91016 50.2188 6.37891 50.5469C6.87109 50.875 7.53906 51.2031 8.38281 51.5312C9.25 51.8594 10.3047 52.1523 11.5469 52.4102C12.8125 52.6445 14.3008 52.7617 16.0117 52.7617C17.418 52.7617 18.8125 52.5742 20.1953 52.1992C21.6016 51.8242 22.8438 51.2852 23.9219 50.582C25.0234 49.8789 25.9141 49.0234 26.5938 48.0156C27.2734 47.0078 27.6133 45.8711 27.6133 44.6055C27.6133 43.5273 27.4141 42.5195 27.0156 41.582C26.6172 40.6445 25.8672 39.6953 24.7656 38.7344C23.6641 37.75 22.1289 36.707 20.1602 35.6055C18.2148 34.4805 15.6719 33.2148 12.5312 31.8086C10.2109 30.8242 8.30078 29.7461 6.80078 28.5742C5.32422 27.3789 4.15234 26.125 3.28516 24.8125C2.44141 23.4766 1.85547 22.0938 1.52734 20.6641C1.19922 19.2109 1.03516 17.7227 1.03516 16.1992C1.03516 14.2773 1.38672 12.4609 2.08984 10.75C2.79297 9.03906 3.8125 7.55078 5.14844 6.28516C6.48438 4.99609 8.125 3.97656 10.0703 3.22656C12.0391 2.47656 14.2773 2.10156 16.7852 2.10156C19.1992 2.10156 21.2969 2.38281 23.0781 2.94531C24.8828 3.50781 26.3711 4.25781 27.543 5.19531C28.7148 6.10938 29.5938 7.1875 30.1797 8.42969C30.7656 9.64844 31.0586 10.9258 31.0586 12.2617C31.0586 12.9648 30.9414 13.6445 30.707 14.3008C30.4727 14.9336 30.1328 15.4961 29.6875 15.9883C29.2422 16.457 28.6914 16.8437 28.0352 17.1484C27.3789 17.4297 26.6289 17.5703 25.7852 17.5703C25.0117 17.5703 24.3086 17.4414 23.6758 17.1836C23.043 16.9258 22.4922 16.5742 22.0234 16.1289C21.5781 15.6836 21.2266 15.1562 20.9688 14.5469C20.7344 13.9375 20.6172 13.2695 20.6172 12.543C20.6172 11.7227 20.7578 10.9961 21.0391 10.3633C21.3203 9.70703 21.6953 9.16797 22.1641 8.74609C22.6562 8.30078 23.2305 7.97266 23.8867 7.76172C24.543 7.52734 25.2461 7.41016 25.9961 7.41016V7.26953C25.8555 7.10547 25.5742 6.84766 25.1523 6.49609C24.7305 6.12109 24.1445 5.75781 23.3945 5.40625C22.6445 5.03125 21.7188 4.71484 20.6172 4.45703C19.5156 4.17578 18.2148 4.03516 16.7148 4.03516ZM37.3164 4.66797L44.6641 3.89453L49.6211 2.59375L50.2539 3.61328V51.707L53.875 52.0586V53.5H38.0195V52.0586L41.6406 51.707V6.03906L37.3867 6.10938L37.3164 4.66797ZM50.2539 35.1484V34.2695L63.9297 20.0312L59.9922 19.6445V18.2031H70.5039V19.6445L66.5312 20.0312L56.4414 30.7539L70.5742 51.707L74.2305 52.0586V53.5H58.1289V52.0586L60.9766 51.707L50.2539 35.1484ZM75.8477 21.0156V19.5742L83.1953 18.8008L88.1523 17.5L88.7852 18.5195V51.707L92.4062 52.0586V53.5H76.5508V52.0586L80.1719 51.707V21.0156H75.8477ZM79.6797 5.01953C79.6797 4.36328 79.7969 3.75391 80.0312 3.19141C80.2891 2.62891 80.6289 2.13672 81.0508 1.71484C81.4727 1.29297 81.9648 0.964844 82.5273 0.730469C83.0898 0.496094 83.6875 0.378906 84.3203 0.378906C84.9531 0.378906 85.5508 0.507813 86.1133 0.765625C86.6758 1 87.168 1.32812 87.5898 1.75C88.0352 2.17188 88.375 2.66406 88.6094 3.22656C88.8672 3.78906 88.9961 4.38672 88.9961 5.01953C88.9961 5.65234 88.8672 6.25 88.6094 6.8125C88.375 7.375 88.0469 7.87891 87.625 8.32422C87.2031 8.74609 86.7109 9.08594 86.1484 9.34375C85.5859 9.57813 84.9766 9.69531 84.3203 9.69531C83.6641 9.69531 83.0547 9.57813 82.4922 9.34375C81.9297 9.08594 81.4375 8.74609 81.0156 8.32422C80.5938 7.90234 80.2656 7.41016 80.0312 6.84766C79.7969 6.28516 79.6797 5.67578 79.6797 5.01953ZM96.4141 19.5742L103.762 18.8008L108.719 17.5L109.352 18.5195L109.211 23.2656H109.352C112.141 19.1875 115.75 17.1484 120.18 17.1484C121.023 17.1484 121.832 17.2188 122.605 17.3594C123.379 17.5 124.234 17.8164 125.172 18.3086C126.109 18.8008 126.918 19.4453 127.598 20.2422C128.277 21.0391 128.852 22.1758 129.32 23.6523C129.789 25.1289 130.023 26.8516 130.023 28.8203V51.707L133.609 52.0586V53.5H117.789V52.0586L121.375 51.707V27.8008C121.375 22.8086 119.77 20.3125 116.559 20.3125C114.449 20.3125 112.715 21.2734 111.355 23.1953C110.02 25.1172 109.352 27.6367 109.352 30.7539V51.707L112.973 52.0586V53.5H97.1172V52.0586L100.738 51.707V20.9453L96.4844 21.0156L96.4141 19.5742ZM154.246 53.5V51.918L159.66 51.5664V5.26562L154.246 4.91406V3.33203H187.469L187.82 17.6406H185.852C185.688 15.6719 185.406 13.9961 185.008 12.6133C184.609 11.207 184 9.92969 183.18 8.78125C182.383 7.60938 181.281 6.73047 179.875 6.14453C178.469 5.55859 176.758 5.26562 174.742 5.26562C172.047 5.26562 170.02 5.38281 168.66 5.61719V27.2734C169.246 27.2969 169.586 27.3086 169.68 27.3086C171.344 27.3086 172.656 27.2266 173.617 27.0625C174.578 26.875 175.445 26.5 176.219 25.9375C176.992 25.3516 177.531 24.4961 177.836 23.3711C178.141 22.2461 178.293 20.7461 178.293 18.8711H180.227V37.75H178.293C178.293 34.5391 177.766 32.3125 176.711 31.0703C175.656 29.8281 173.898 29.207 171.438 29.207L168.66 29.2422V51.5664L175.48 51.918V53.5H154.246ZM191.301 21.0156V19.5742L198.648 18.8008L203.605 17.5L204.098 18.5195V24.5664H204.238C204.707 23.6289 205.281 22.7148 205.961 21.8242C206.641 20.9336 207.379 20.1484 208.176 19.4688C208.996 18.7656 209.863 18.2031 210.777 17.7812C211.691 17.3594 212.617 17.1484 213.555 17.1484C215.383 17.1484 216.789 17.6406 217.773 18.625C218.781 19.5859 219.285 20.875 219.285 22.4922C219.285 23.1719 219.18 23.8047 218.969 24.3906C218.758 24.9531 218.453 25.4453 218.055 25.8672C217.68 26.2891 217.211 26.6289 216.648 26.8867C216.109 27.1211 215.512 27.2383 214.855 27.2383C214.152 27.2383 213.52 27.1211 212.957 26.8867C212.395 26.6523 211.914 26.3359 211.516 25.9375C211.141 25.5391 210.848 25.082 210.637 24.5664C210.426 24.0273 210.32 23.4531 210.32 22.8438C210.32 21.6016 210.578 20.6875 211.094 20.1016V19.8906C210.25 20.0781 209.418 20.5234 208.598 21.2266C207.801 21.9297 207.074 22.8906 206.418 24.1094C205.762 25.3047 205.234 26.7578 204.836 28.4688C204.438 30.1562 204.238 32.0664 204.238 34.1992V51.707L207.859 52.0586V53.5H192.004V52.0586L195.625 51.707V21.0156H191.301ZM222.309 35.8516C222.309 34.0234 222.484 32.2422 222.836 30.5078C223.188 28.75 223.762 27.0625 224.559 25.4453C225.355 23.8281 226.328 22.4102 227.477 21.1914C228.625 19.9727 230.043 19 231.73 18.2734C233.441 17.5234 235.328 17.1484 237.391 17.1484C239.336 17.1484 241.082 17.4297 242.629 17.9922C244.176 18.5312 245.465 19.293 246.496 20.2773C247.527 21.2617 248.383 22.4688 249.062 23.8984C249.742 25.3047 250.223 26.8398 250.504 28.5039C250.809 30.1445 250.961 31.9492 250.961 33.918L250.012 34.7969H231.309V36.9414C231.309 47.1602 234.215 52.2695 240.027 52.2695C244.152 52.2695 247.445 50.207 249.906 46.082L251.277 46.9258C248.254 52.0117 243.953 54.5547 238.375 54.5547C232.984 54.5547 228.953 52.8906 226.281 49.5625C223.633 46.2344 222.309 41.6641 222.309 35.8516ZM231.309 33.2148L242.664 32.7578C242.734 31.5625 242.77 30.4141 242.77 29.3125C242.77 25.9141 242.359 23.3008 241.539 21.4727C240.742 19.6445 239.406 18.7305 237.531 18.7305C236.406 18.7305 235.434 19.1055 234.613 19.8555C233.816 20.582 233.195 21.6367 232.75 23.0195C232.305 24.4023 231.965 25.9141 231.73 27.5547C231.52 29.1719 231.379 31.0586 231.309 33.2148ZM268.715 52.832C271.387 52.832 273.355 52.3398 274.621 51.3555C275.91 50.3711 276.555 49.1406 276.555 47.6641C276.555 46.8906 276.426 46.2109 276.168 45.625C275.934 45.0156 275.535 44.4414 274.973 43.9023C274.434 43.3398 273.707 42.7773 272.793 42.2148C271.902 41.6289 270.789 40.9727 269.453 40.2461C268.281 39.5664 267.039 38.8633 265.727 38.1367C264.414 37.3867 263.195 36.5312 262.07 35.5703C260.969 34.5859 260.043 33.4492 259.293 32.1602C258.566 30.8711 258.203 29.3242 258.203 27.5195C258.203 25.9258 258.508 24.4844 259.117 23.1953C259.727 21.9062 260.57 20.8164 261.648 19.9258C262.75 19.0117 264.051 18.3086 265.551 17.8164C267.074 17.3242 268.738 17.0781 270.543 17.0781C271.902 17.0781 273.262 17.2539 274.621 17.6055C276.004 17.9336 277.246 18.4375 278.348 19.1172C279.449 19.7969 280.34 20.6406 281.02 21.6484C281.699 22.6562 282.039 23.8281 282.039 25.1641C282.039 25.6797 281.945 26.1836 281.758 26.6758C281.594 27.168 281.336 27.6133 280.984 28.0117C280.633 28.4102 280.199 28.7383 279.684 28.9961C279.191 29.2305 278.617 29.3477 277.961 29.3477C276.602 29.3477 275.582 28.9727 274.902 28.2227C274.223 27.4727 273.883 26.5586 273.883 25.4805C273.883 24.8008 273.977 24.2266 274.164 23.7578C274.352 23.2656 274.598 22.8672 274.902 22.5625C275.23 22.2344 275.594 22 275.992 21.8594C276.414 21.6953 276.836 21.6133 277.258 21.6133H277.574V21.543C277.34 21.168 277 20.8164 276.555 20.4883C276.109 20.1367 275.582 19.832 274.973 19.5742C274.363 19.293 273.684 19.0703 272.934 18.9062C272.184 18.7422 271.387 18.6602 270.543 18.6602C269.301 18.6602 268.246 18.8242 267.379 19.1523C266.512 19.4805 265.797 19.9023 265.234 20.418C264.695 20.9102 264.297 21.4609 264.039 22.0703C263.781 22.6797 263.652 23.2656 263.652 23.8281C263.652 24.5078 263.758 25.0938 263.969 25.5859C264.18 26.0781 264.543 26.582 265.059 27.0977C265.598 27.5898 266.324 28.1289 267.238 28.7148C268.176 29.3008 269.348 30.0039 270.754 30.8242C272.113 31.5273 273.543 32.2773 275.043 33.0742C276.566 33.8711 277.961 34.7969 279.227 35.8516C280.492 36.8828 281.535 38.0781 282.355 39.4375C283.199 40.7734 283.621 42.3438 283.621 44.1484C283.621 45.6719 283.328 47.0664 282.742 48.332C282.18 49.5977 281.289 50.6875 280.07 51.6016C278.875 52.5156 277.34 53.2188 275.465 53.7109C273.613 54.2266 271.41 54.4844 268.855 54.4844C267.637 54.4844 266.336 54.332 264.953 54.0273C263.57 53.7227 262.293 53.2422 261.121 52.5859C259.949 51.9062 258.977 51.0391 258.203 49.9844C257.43 48.9062 257.043 47.5938 257.043 46.0469C257.043 45.3906 257.148 44.7578 257.359 44.1484C257.57 43.5391 257.863 43 258.238 42.5312C258.637 42.0391 259.117 41.6523 259.68 41.3711C260.242 41.0898 260.887 40.9492 261.613 40.9492C262.246 40.9492 262.809 41.0664 263.301 41.3008C263.793 41.5117 264.203 41.8047 264.531 42.1797C264.883 42.5312 265.152 42.9531 265.34 43.4453C265.527 43.9375 265.633 44.4648 265.656 45.0273C265.656 45.6836 265.539 46.2695 265.305 46.7852C265.07 47.2773 264.766 47.6875 264.391 48.0156C264.016 48.3438 263.582 48.6016 263.09 48.7891C262.621 48.9531 262.152 49.0352 261.684 49.0352C261.59 49.0352 261.484 49.0352 261.367 49.0352C261.273 49.0352 261.18 49.0234 261.086 49V49.0703C261.297 49.5391 261.613 49.9961 262.035 50.4414C262.457 50.8867 262.984 51.2852 263.617 51.6367C264.273 51.9883 265.023 52.2812 265.867 52.5156C266.734 52.7266 267.684 52.832 268.715 52.832ZM287.488 6.10938V4.66797L294.836 3.89453L299.793 2.59375L300.285 3.61328V23.2656H300.426C303.215 19.1875 306.824 17.1484 311.254 17.1484C312.098 17.1484 312.906 17.2188 313.68 17.3594C314.453 17.5 315.309 17.8164 316.246 18.3086C317.184 18.8008 317.992 19.4453 318.672 20.2422C319.352 21.0391 319.926 22.1758 320.395 23.6523C320.863 25.1289 321.098 26.8516 321.098 28.8203V51.707L324.684 52.0586V53.5H308.863V52.0586L312.449 51.707V27.8008C312.449 22.8086 310.844 20.3125 307.633 20.3125C305.523 20.3125 303.789 21.2734 302.43 23.1953C301.094 25.1172 300.426 27.6367 300.426 30.7539V51.707L304.047 52.0586V53.5H288.191V52.0586L291.812 51.707V6.10938H287.488Z" fill="#505050"/>
</svg>
