<svg width="0" height="0" class="hidden">
  <symbol fill="none" xmlns="http://www.w3.org/2000/svg" viewBox="0 0 341 52" id="touchup">
    <path d="M35.228 0.959996V7.656H21.908V51H13.7V7.656H0.308V0.959996H35.228ZM66.3646 51.504C61.7086 51.504 57.4126 50.424 53.4766 48.264C49.5886 46.056 46.4926 43.008 44.1886 39.12C41.9326 35.184 40.8046 30.768 40.8046 25.872C40.8046 20.976 41.9326 16.584 44.1886 12.696C46.4926 8.808 49.5886 5.784 53.4766 3.624C57.4126 1.416 61.7086 0.311996 66.3646 0.311996C71.0686 0.311996 75.3646 1.416 79.2526 3.624C83.1886 5.784 86.2846 8.808 88.5406 12.696C90.7966 16.584 91.9246 20.976 91.9246 25.872C91.9246 30.768 90.7966 35.184 88.5406 39.12C86.2846 43.008 83.1886 46.056 79.2526 48.264C75.3646 50.424 71.0686 51.504 66.3646 51.504ZM66.3646 44.376C69.6766 44.376 72.6286 43.632 75.2206 42.144C77.8126 40.608 79.8286 38.448 81.2686 35.664C82.7566 32.832 83.5006 29.568 83.5006 25.872C83.5006 22.176 82.7566 18.936 81.2686 16.152C79.8286 13.368 77.8126 11.232 75.2206 9.744C72.6286 8.256 69.6766 7.512 66.3646 7.512C63.0526 7.512 60.1006 8.256 57.5086 9.744C54.9166 11.232 52.8766 13.368 51.3886 16.152C49.9486 18.936 49.2286 22.176 49.2286 25.872C49.2286 29.568 49.9486 32.832 51.3886 35.664C52.8766 38.448 54.9166 40.608 57.5086 42.144C60.1006 43.632 63.0526 44.376 66.3646 44.376ZM108.138 0.959996V32.856C108.138 36.648 109.122 39.504 111.09 41.424C113.106 43.344 115.89 44.304 119.442 44.304C123.042 44.304 125.826 43.344 127.794 41.424C129.81 39.504 130.818 36.648 130.818 32.856V0.959996H139.026V32.712C139.026 36.792 138.138 40.248 136.362 43.08C134.586 45.912 132.21 48.024 129.234 49.416C126.258 50.808 122.97 51.504 119.37 51.504C115.77 51.504 112.482 50.808 109.506 49.416C106.578 48.024 104.25 45.912 102.522 43.08C100.794 40.248 99.9296 36.792 99.9296 32.712V0.959996H108.138ZM146.977 25.872C146.977 20.976 148.105 16.584 150.361 12.696C152.665 8.808 155.761 5.784 159.649 3.624C163.585 1.416 167.881 0.311996 172.537 0.311996C177.865 0.311996 182.593 1.632 186.721 4.272C190.897 6.864 193.921 10.56 195.793 15.36H185.929C184.633 12.72 182.833 10.752 180.529 9.456C178.225 8.16 175.561 7.512 172.537 7.512C169.225 7.512 166.273 8.256 163.681 9.744C161.089 11.232 159.049 13.368 157.561 16.152C156.121 18.936 155.401 22.176 155.401 25.872C155.401 29.568 156.121 32.808 157.561 35.592C159.049 38.376 161.089 40.536 163.681 42.072C166.273 43.56 169.225 44.304 172.537 44.304C175.561 44.304 178.225 43.656 180.529 42.36C182.833 41.064 184.633 39.096 185.929 36.456H195.793C193.921 41.256 190.897 44.952 186.721 47.544C182.593 50.136 177.865 51.432 172.537 51.432C167.833 51.432 163.537 50.352 159.649 48.192C155.761 45.984 152.665 42.936 150.361 39.048C148.105 35.16 146.977 30.768 146.977 25.872ZM245.36 0.959996V51H237.152V29.112H213.608V51H205.4V0.959996H213.608V22.416H237.152V0.959996H245.36ZM264.302 0.959996V32.856C264.302 36.648 265.286 39.504 267.254 41.424C269.27 43.344 272.054 44.304 275.606 44.304C279.206 44.304 281.99 43.344 283.958 41.424C285.974 39.504 286.982 36.648 286.982 32.856V0.959996H295.19V32.712C295.19 36.792 294.302 40.248 292.526 43.08C290.75 45.912 288.374 48.024 285.398 49.416C282.422 50.808 279.134 51.504 275.534 51.504C271.934 51.504 268.646 50.808 265.67 49.416C262.742 48.024 260.414 45.912 258.686 43.08C256.958 40.248 256.094 36.792 256.094 32.712V0.959996H264.302ZM340.869 15.864C340.869 18.408 340.269 20.808 339.069 23.064C337.869 25.32 335.949 27.168 333.309 28.608C330.669 30 327.285 30.696 323.157 30.696H314.085V51H305.877V0.959996H323.157C326.997 0.959996 330.237 1.632 332.877 2.976C335.565 4.272 337.557 6.048 338.853 8.304C340.197 10.56 340.869 13.08 340.869 15.864ZM323.157 24C326.277 24 328.605 23.304 330.141 21.912C331.677 20.472 332.445 18.456 332.445 15.864C332.445 10.392 329.349 7.656 323.157 7.656H314.085V24H323.157Z" fill="#505050"></path>
  </symbol>
  <symbol fill="none" xmlns="http://www.w3.org/2000/svg" viewBox="0 0 325 55" id="skin-fresh">
    <path d="M16.7148 4.03516C15.0273 4.03516 13.5391 4.23438 12.25 4.63281C10.9844 5.03125 9.91797 5.59375 9.05078 6.32031C8.18359 7.04688 7.52734 7.92578 7.08203 8.95703C6.66016 9.96484 6.44922 11.0781 6.44922 12.2969C6.44922 13.1641 6.56641 14.0195 6.80078 14.8633C7.03516 15.707 7.53906 16.5742 8.3125 17.4648C9.08594 18.332 10.1992 19.2344 11.6523 20.1719C13.1289 21.1094 15.1094 22.1172 17.5938 23.1953C20.4531 24.5078 22.8672 25.7383 24.8359 26.8867C26.8281 28.0352 28.4453 29.2539 29.6875 30.543C30.9297 31.832 31.8203 33.2852 32.3594 34.9023C32.9219 36.4961 33.2031 38.4062 33.2031 40.6328C33.2031 42.3203 32.8633 44.0078 32.1836 45.6953C31.5039 47.3828 30.4727 48.8945 29.0898 50.2305C27.7305 51.5664 26.0078 52.6562 23.9219 53.5C21.8594 54.3203 19.4336 54.7305 16.6445 54.7305C13.5508 54.7305 10.9492 54.4375 8.83984 53.8516C6.73047 53.2891 5.03125 52.5508 3.74219 51.6367C2.47656 50.7227 1.5625 49.6914 1 48.543C0.4375 47.3711 0.15625 46.1992 0.15625 45.0273C0.15625 44.2539 0.273438 43.5391 0.507812 42.8828C0.742188 42.2031 1.08203 41.6172 1.52734 41.125C1.99609 40.6094 2.55859 40.2109 3.21484 39.9297C3.89453 39.625 4.65625 39.4727 5.5 39.4727C6.27344 39.4727 6.97656 39.6133 7.60938 39.8945C8.24219 40.1523 8.76953 40.5156 9.19141 40.9844C9.63672 41.4297 9.97656 41.9688 10.2109 42.6016C10.4688 43.2109 10.5977 43.8789 10.5977 44.6055C10.5977 46.2695 10.1172 47.5234 9.15625 48.3672C8.19531 49.2109 6.95312 49.6328 5.42969 49.6328V49.7734C5.59375 49.9609 5.91016 50.2188 6.37891 50.5469C6.87109 50.875 7.53906 51.2031 8.38281 51.5312C9.25 51.8594 10.3047 52.1523 11.5469 52.4102C12.8125 52.6445 14.3008 52.7617 16.0117 52.7617C17.418 52.7617 18.8125 52.5742 20.1953 52.1992C21.6016 51.8242 22.8438 51.2852 23.9219 50.582C25.0234 49.8789 25.9141 49.0234 26.5938 48.0156C27.2734 47.0078 27.6133 45.8711 27.6133 44.6055C27.6133 43.5273 27.4141 42.5195 27.0156 41.582C26.6172 40.6445 25.8672 39.6953 24.7656 38.7344C23.6641 37.75 22.1289 36.707 20.1602 35.6055C18.2148 34.4805 15.6719 33.2148 12.5312 31.8086C10.2109 30.8242 8.30078 29.7461 6.80078 28.5742C5.32422 27.3789 4.15234 26.125 3.28516 24.8125C2.44141 23.4766 1.85547 22.0938 1.52734 20.6641C1.19922 19.2109 1.03516 17.7227 1.03516 16.1992C1.03516 14.2773 1.38672 12.4609 2.08984 10.75C2.79297 9.03906 3.8125 7.55078 5.14844 6.28516C6.48438 4.99609 8.125 3.97656 10.0703 3.22656C12.0391 2.47656 14.2773 2.10156 16.7852 2.10156C19.1992 2.10156 21.2969 2.38281 23.0781 2.94531C24.8828 3.50781 26.3711 4.25781 27.543 5.19531C28.7148 6.10938 29.5938 7.1875 30.1797 8.42969C30.7656 9.64844 31.0586 10.9258 31.0586 12.2617C31.0586 12.9648 30.9414 13.6445 30.707 14.3008C30.4727 14.9336 30.1328 15.4961 29.6875 15.9883C29.2422 16.457 28.6914 16.8437 28.0352 17.1484C27.3789 17.4297 26.6289 17.5703 25.7852 17.5703C25.0117 17.5703 24.3086 17.4414 23.6758 17.1836C23.043 16.9258 22.4922 16.5742 22.0234 16.1289C21.5781 15.6836 21.2266 15.1562 20.9688 14.5469C20.7344 13.9375 20.6172 13.2695 20.6172 12.543C20.6172 11.7227 20.7578 10.9961 21.0391 10.3633C21.3203 9.70703 21.6953 9.16797 22.1641 8.74609C22.6562 8.30078 23.2305 7.97266 23.8867 7.76172C24.543 7.52734 25.2461 7.41016 25.9961 7.41016V7.26953C25.8555 7.10547 25.5742 6.84766 25.1523 6.49609C24.7305 6.12109 24.1445 5.75781 23.3945 5.40625C22.6445 5.03125 21.7188 4.71484 20.6172 4.45703C19.5156 4.17578 18.2148 4.03516 16.7148 4.03516ZM37.3164 4.66797L44.6641 3.89453L49.6211 2.59375L50.2539 3.61328V51.707L53.875 52.0586V53.5H38.0195V52.0586L41.6406 51.707V6.03906L37.3867 6.10938L37.3164 4.66797ZM50.2539 35.1484V34.2695L63.9297 20.0312L59.9922 19.6445V18.2031H70.5039V19.6445L66.5312 20.0312L56.4414 30.7539L70.5742 51.707L74.2305 52.0586V53.5H58.1289V52.0586L60.9766 51.707L50.2539 35.1484ZM75.8477 21.0156V19.5742L83.1953 18.8008L88.1523 17.5L88.7852 18.5195V51.707L92.4062 52.0586V53.5H76.5508V52.0586L80.1719 51.707V21.0156H75.8477ZM79.6797 5.01953C79.6797 4.36328 79.7969 3.75391 80.0312 3.19141C80.2891 2.62891 80.6289 2.13672 81.0508 1.71484C81.4727 1.29297 81.9648 0.964844 82.5273 0.730469C83.0898 0.496094 83.6875 0.378906 84.3203 0.378906C84.9531 0.378906 85.5508 0.507813 86.1133 0.765625C86.6758 1 87.168 1.32812 87.5898 1.75C88.0352 2.17188 88.375 2.66406 88.6094 3.22656C88.8672 3.78906 88.9961 4.38672 88.9961 5.01953C88.9961 5.65234 88.8672 6.25 88.6094 6.8125C88.375 7.375 88.0469 7.87891 87.625 8.32422C87.2031 8.74609 86.7109 9.08594 86.1484 9.34375C85.5859 9.57813 84.9766 9.69531 84.3203 9.69531C83.6641 9.69531 83.0547 9.57813 82.4922 9.34375C81.9297 9.08594 81.4375 8.74609 81.0156 8.32422C80.5938 7.90234 80.2656 7.41016 80.0312 6.84766C79.7969 6.28516 79.6797 5.67578 79.6797 5.01953ZM96.4141 19.5742L103.762 18.8008L108.719 17.5L109.352 18.5195L109.211 23.2656H109.352C112.141 19.1875 115.75 17.1484 120.18 17.1484C121.023 17.1484 121.832 17.2188 122.605 17.3594C123.379 17.5 124.234 17.8164 125.172 18.3086C126.109 18.8008 126.918 19.4453 127.598 20.2422C128.277 21.0391 128.852 22.1758 129.32 23.6523C129.789 25.1289 130.023 26.8516 130.023 28.8203V51.707L133.609 52.0586V53.5H117.789V52.0586L121.375 51.707V27.8008C121.375 22.8086 119.77 20.3125 116.559 20.3125C114.449 20.3125 112.715 21.2734 111.355 23.1953C110.02 25.1172 109.352 27.6367 109.352 30.7539V51.707L112.973 52.0586V53.5H97.1172V52.0586L100.738 51.707V20.9453L96.4844 21.0156L96.4141 19.5742ZM154.246 53.5V51.918L159.66 51.5664V5.26562L154.246 4.91406V3.33203H187.469L187.82 17.6406H185.852C185.688 15.6719 185.406 13.9961 185.008 12.6133C184.609 11.207 184 9.92969 183.18 8.78125C182.383 7.60938 181.281 6.73047 179.875 6.14453C178.469 5.55859 176.758 5.26562 174.742 5.26562C172.047 5.26562 170.02 5.38281 168.66 5.61719V27.2734C169.246 27.2969 169.586 27.3086 169.68 27.3086C171.344 27.3086 172.656 27.2266 173.617 27.0625C174.578 26.875 175.445 26.5 176.219 25.9375C176.992 25.3516 177.531 24.4961 177.836 23.3711C178.141 22.2461 178.293 20.7461 178.293 18.8711H180.227V37.75H178.293C178.293 34.5391 177.766 32.3125 176.711 31.0703C175.656 29.8281 173.898 29.207 171.438 29.207L168.66 29.2422V51.5664L175.48 51.918V53.5H154.246ZM191.301 21.0156V19.5742L198.648 18.8008L203.605 17.5L204.098 18.5195V24.5664H204.238C204.707 23.6289 205.281 22.7148 205.961 21.8242C206.641 20.9336 207.379 20.1484 208.176 19.4688C208.996 18.7656 209.863 18.2031 210.777 17.7812C211.691 17.3594 212.617 17.1484 213.555 17.1484C215.383 17.1484 216.789 17.6406 217.773 18.625C218.781 19.5859 219.285 20.875 219.285 22.4922C219.285 23.1719 219.18 23.8047 218.969 24.3906C218.758 24.9531 218.453 25.4453 218.055 25.8672C217.68 26.2891 217.211 26.6289 216.648 26.8867C216.109 27.1211 215.512 27.2383 214.855 27.2383C214.152 27.2383 213.52 27.1211 212.957 26.8867C212.395 26.6523 211.914 26.3359 211.516 25.9375C211.141 25.5391 210.848 25.082 210.637 24.5664C210.426 24.0273 210.32 23.4531 210.32 22.8438C210.32 21.6016 210.578 20.6875 211.094 20.1016V19.8906C210.25 20.0781 209.418 20.5234 208.598 21.2266C207.801 21.9297 207.074 22.8906 206.418 24.1094C205.762 25.3047 205.234 26.7578 204.836 28.4688C204.438 30.1562 204.238 32.0664 204.238 34.1992V51.707L207.859 52.0586V53.5H192.004V52.0586L195.625 51.707V21.0156H191.301ZM222.309 35.8516C222.309 34.0234 222.484 32.2422 222.836 30.5078C223.188 28.75 223.762 27.0625 224.559 25.4453C225.355 23.8281 226.328 22.4102 227.477 21.1914C228.625 19.9727 230.043 19 231.73 18.2734C233.441 17.5234 235.328 17.1484 237.391 17.1484C239.336 17.1484 241.082 17.4297 242.629 17.9922C244.176 18.5312 245.465 19.293 246.496 20.2773C247.527 21.2617 248.383 22.4688 249.062 23.8984C249.742 25.3047 250.223 26.8398 250.504 28.5039C250.809 30.1445 250.961 31.9492 250.961 33.918L250.012 34.7969H231.309V36.9414C231.309 47.1602 234.215 52.2695 240.027 52.2695C244.152 52.2695 247.445 50.207 249.906 46.082L251.277 46.9258C248.254 52.0117 243.953 54.5547 238.375 54.5547C232.984 54.5547 228.953 52.8906 226.281 49.5625C223.633 46.2344 222.309 41.6641 222.309 35.8516ZM231.309 33.2148L242.664 32.7578C242.734 31.5625 242.77 30.4141 242.77 29.3125C242.77 25.9141 242.359 23.3008 241.539 21.4727C240.742 19.6445 239.406 18.7305 237.531 18.7305C236.406 18.7305 235.434 19.1055 234.613 19.8555C233.816 20.582 233.195 21.6367 232.75 23.0195C232.305 24.4023 231.965 25.9141 231.73 27.5547C231.52 29.1719 231.379 31.0586 231.309 33.2148ZM268.715 52.832C271.387 52.832 273.355 52.3398 274.621 51.3555C275.91 50.3711 276.555 49.1406 276.555 47.6641C276.555 46.8906 276.426 46.2109 276.168 45.625C275.934 45.0156 275.535 44.4414 274.973 43.9023C274.434 43.3398 273.707 42.7773 272.793 42.2148C271.902 41.6289 270.789 40.9727 269.453 40.2461C268.281 39.5664 267.039 38.8633 265.727 38.1367C264.414 37.3867 263.195 36.5312 262.07 35.5703C260.969 34.5859 260.043 33.4492 259.293 32.1602C258.566 30.8711 258.203 29.3242 258.203 27.5195C258.203 25.9258 258.508 24.4844 259.117 23.1953C259.727 21.9062 260.57 20.8164 261.648 19.9258C262.75 19.0117 264.051 18.3086 265.551 17.8164C267.074 17.3242 268.738 17.0781 270.543 17.0781C271.902 17.0781 273.262 17.2539 274.621 17.6055C276.004 17.9336 277.246 18.4375 278.348 19.1172C279.449 19.7969 280.34 20.6406 281.02 21.6484C281.699 22.6562 282.039 23.8281 282.039 25.1641C282.039 25.6797 281.945 26.1836 281.758 26.6758C281.594 27.168 281.336 27.6133 280.984 28.0117C280.633 28.4102 280.199 28.7383 279.684 28.9961C279.191 29.2305 278.617 29.3477 277.961 29.3477C276.602 29.3477 275.582 28.9727 274.902 28.2227C274.223 27.4727 273.883 26.5586 273.883 25.4805C273.883 24.8008 273.977 24.2266 274.164 23.7578C274.352 23.2656 274.598 22.8672 274.902 22.5625C275.23 22.2344 275.594 22 275.992 21.8594C276.414 21.6953 276.836 21.6133 277.258 21.6133H277.574V21.543C277.34 21.168 277 20.8164 276.555 20.4883C276.109 20.1367 275.582 19.832 274.973 19.5742C274.363 19.293 273.684 19.0703 272.934 18.9062C272.184 18.7422 271.387 18.6602 270.543 18.6602C269.301 18.6602 268.246 18.8242 267.379 19.1523C266.512 19.4805 265.797 19.9023 265.234 20.418C264.695 20.9102 264.297 21.4609 264.039 22.0703C263.781 22.6797 263.652 23.2656 263.652 23.8281C263.652 24.5078 263.758 25.0938 263.969 25.5859C264.18 26.0781 264.543 26.582 265.059 27.0977C265.598 27.5898 266.324 28.1289 267.238 28.7148C268.176 29.3008 269.348 30.0039 270.754 30.8242C272.113 31.5273 273.543 32.2773 275.043 33.0742C276.566 33.8711 277.961 34.7969 279.227 35.8516C280.492 36.8828 281.535 38.0781 282.355 39.4375C283.199 40.7734 283.621 42.3438 283.621 44.1484C283.621 45.6719 283.328 47.0664 282.742 48.332C282.18 49.5977 281.289 50.6875 280.07 51.6016C278.875 52.5156 277.34 53.2188 275.465 53.7109C273.613 54.2266 271.41 54.4844 268.855 54.4844C267.637 54.4844 266.336 54.332 264.953 54.0273C263.57 53.7227 262.293 53.2422 261.121 52.5859C259.949 51.9062 258.977 51.0391 258.203 49.9844C257.43 48.9062 257.043 47.5938 257.043 46.0469C257.043 45.3906 257.148 44.7578 257.359 44.1484C257.57 43.5391 257.863 43 258.238 42.5312C258.637 42.0391 259.117 41.6523 259.68 41.3711C260.242 41.0898 260.887 40.9492 261.613 40.9492C262.246 40.9492 262.809 41.0664 263.301 41.3008C263.793 41.5117 264.203 41.8047 264.531 42.1797C264.883 42.5312 265.152 42.9531 265.34 43.4453C265.527 43.9375 265.633 44.4648 265.656 45.0273C265.656 45.6836 265.539 46.2695 265.305 46.7852C265.07 47.2773 264.766 47.6875 264.391 48.0156C264.016 48.3438 263.582 48.6016 263.09 48.7891C262.621 48.9531 262.152 49.0352 261.684 49.0352C261.59 49.0352 261.484 49.0352 261.367 49.0352C261.273 49.0352 261.18 49.0234 261.086 49V49.0703C261.297 49.5391 261.613 49.9961 262.035 50.4414C262.457 50.8867 262.984 51.2852 263.617 51.6367C264.273 51.9883 265.023 52.2812 265.867 52.5156C266.734 52.7266 267.684 52.832 268.715 52.832ZM287.488 6.10938V4.66797L294.836 3.89453L299.793 2.59375L300.285 3.61328V23.2656H300.426C303.215 19.1875 306.824 17.1484 311.254 17.1484C312.098 17.1484 312.906 17.2188 313.68 17.3594C314.453 17.5 315.309 17.8164 316.246 18.3086C317.184 18.8008 317.992 19.4453 318.672 20.2422C319.352 21.0391 319.926 22.1758 320.395 23.6523C320.863 25.1289 321.098 26.8516 321.098 28.8203V51.707L324.684 52.0586V53.5H308.863V52.0586L312.449 51.707V27.8008C312.449 22.8086 310.844 20.3125 307.633 20.3125C305.523 20.3125 303.789 21.2734 302.43 23.1953C301.094 25.1172 300.426 27.6367 300.426 30.7539V51.707L304.047 52.0586V53.5H288.191V52.0586L291.812 51.707V6.10938H287.488Z" fill="#505050"></path>
  </symbol>
  <symbol fill="none" xmlns="http://www.w3.org/2000/svg" viewBox="0 0 158 58" id="mine">
    <path d="M57.188 6.464C55.46 6.56 54.188 6.752 53.372 7.04C52.604 7.328 52.076 7.88 51.788 8.696C51.5 9.512 51.356 10.832 51.356 12.656V48.368C51.356 50.192 51.5 51.512 51.788 52.328C52.076 53.144 52.604 53.696 53.372 53.984C54.188 54.272 55.46 54.464 57.188 54.56V56C54.98 55.856 51.932 55.784 48.044 55.784C43.916 55.784 40.844 55.856 38.828 56V54.56C40.556 54.464 41.804 54.272 42.572 53.984C43.388 53.696 43.94 53.144 44.228 52.328C44.516 51.512 44.66 50.192 44.66 48.368V9.776L27.308 56.36H26.156L8.012 9.632V47.648C8.012 49.52 8.156 50.912 8.444 51.824C8.78 52.736 9.404 53.408 10.316 53.84C11.228 54.224 12.644 54.464 14.564 54.56V56C12.836 55.856 10.388 55.784 7.22 55.784C4.34 55.784 2.108 55.856 0.524 56V54.56C2.204 54.464 3.452 54.224 4.268 53.84C5.084 53.408 5.636 52.736 5.924 51.824C6.212 50.864 6.356 49.472 6.356 47.648V12.656C6.356 10.832 6.212 9.512 5.924 8.696C5.636 7.88 5.084 7.328 4.268 7.04C3.5 6.752 2.252 6.56 0.524 6.464V5.024C2.108 5.168 4.34 5.24 7.22 5.24C9.716 5.24 11.756 5.168 13.34 5.024L29.18 46.712L44.66 5.24H48.044C51.932 5.24 54.98 5.168 57.188 5.024V6.464ZM70.5148 0.919997C71.7628 0.919997 72.8428 1.376 73.7548 2.288C74.6668 3.2 75.1228 4.28 75.1228 5.528C75.1228 6.776 74.6668 7.856 73.7548 8.768C72.8428 9.68 71.7628 10.136 70.5148 10.136C69.2668 10.136 68.1868 9.68 67.2748 8.768C66.3628 7.856 65.9068 6.776 65.9068 5.528C65.9068 4.28 66.3628 3.2 67.2748 2.288C68.1868 1.376 69.2668 0.919997 70.5148 0.919997ZM74.2588 49.304C74.2588 51.272 74.6668 52.64 75.4828 53.408C76.2988 54.128 77.7148 54.488 79.7308 54.488V56C75.3148 55.808 72.4108 55.712 71.0188 55.712C69.6268 55.712 66.7228 55.808 62.3068 56V54.488C64.3228 54.488 65.7388 54.128 66.5548 53.408C67.3708 52.64 67.7788 51.272 67.7788 49.304V26.768C67.7788 24.56 67.3708 22.952 66.5548 21.944C65.7388 20.936 64.3228 20.432 62.3068 20.432V18.92C63.8428 19.064 65.3308 19.136 66.7708 19.136C69.7948 19.136 72.2908 18.8 74.2588 18.128V49.304ZM107.593 17.912C110.953 17.912 113.497 18.824 115.225 20.648C116.137 21.608 116.785 22.808 117.169 24.248C117.553 25.688 117.745 27.632 117.745 30.08V49.304C117.745 51.272 118.153 52.64 118.969 53.408C119.785 54.128 121.201 54.488 123.217 54.488V56C118.801 55.808 115.921 55.712 114.577 55.712C113.233 55.712 110.545 55.808 106.513 56V54.488C108.289 54.488 109.513 54.128 110.185 53.408C110.905 52.64 111.265 51.272 111.265 49.304V28.496C111.265 25.808 110.881 23.768 110.113 22.376C109.345 20.936 107.785 20.216 105.433 20.216C103.465 20.216 101.713 20.792 100.177 21.944C98.6405 23.096 97.4405 24.68 96.5765 26.696C95.7605 28.664 95.3525 30.872 95.3525 33.32V49.304C95.3525 51.272 95.6885 52.64 96.3605 53.408C97.0805 54.128 98.3285 54.488 100.105 54.488V56C96.0725 55.808 93.3845 55.712 92.0405 55.712C90.6965 55.712 87.8165 55.808 83.4005 56V54.488C85.4165 54.488 86.8325 54.128 87.6485 53.408C88.4645 52.64 88.8725 51.272 88.8725 49.304V26.768C88.8725 24.56 88.4645 22.952 87.6485 21.944C86.8325 20.936 85.4165 20.432 83.4005 20.432V18.92C84.9365 19.064 86.4245 19.136 87.8645 19.136C90.8885 19.136 93.3845 18.8 95.3525 18.128V26.624C96.5525 23.552 98.2085 21.344 100.32 20C102.481 18.608 104.905 17.912 107.593 17.912ZM157.609 47.36C156.745 50 155.113 52.28 152.713 54.2C150.361 56.072 147.505 57.008 144.145 57.008C140.737 57.008 137.785 56.24 135.289 54.704C132.793 53.12 130.873 50.936 129.529 48.152C128.233 45.32 127.585 42.056 127.585 38.36C127.585 34.184 128.257 30.56 129.601 27.488C130.945 24.416 132.841 22.064 135.289 20.432C137.737 18.752 140.593 17.912 143.857 17.912C148.177 17.912 151.489 19.232 153.793 21.872C156.145 24.464 157.321 28.424 157.321 33.752H134.785C134.641 35.096 134.569 36.632 134.569 38.36C134.569 41.528 135.073 44.288 136.081 46.64C137.137 48.992 138.505 50.816 140.185 52.112C141.913 53.36 143.713 53.984 145.585 53.984C147.889 53.984 149.929 53.432 151.705 52.328C153.481 51.224 154.969 49.376 156.169 46.784L157.609 47.36ZM143.569 19.28C141.313 19.28 139.369 20.384 137.737 22.592C136.105 24.8 135.097 28.064 134.713 32.384H150.409C150.505 28.64 149.953 25.52 148.753 23.024C147.601 20.528 145.873 19.28 143.569 19.28Z" fill="#505050"></path>
  </symbol>
  <symbol fill="none" xmlns="http://www.w3.org/2000/svg" viewBox="0 0 362 55" id="hoolabuu">
    <path d="M46.7 3.6V54H35.036V33.336H12.14V54H0.476V3.6H12.14V23.472H35.036V3.6H46.7ZM76.2644 54.576C72.1844 54.576 68.5124 53.736 65.2484 52.056C62.0324 50.328 59.5124 47.952 57.6884 44.928C55.8644 41.904 54.9524 38.472 54.9524 34.632C54.9524 30.792 55.8644 27.36 57.6884 24.336C59.5124 21.312 62.0324 18.96 65.2484 17.28C68.5124 15.552 72.1844 14.688 76.2644 14.688C80.3444 14.688 83.9924 15.552 87.2084 17.28C90.4244 18.96 92.9444 21.312 94.7684 24.336C96.5924 27.36 97.5044 30.792 97.5044 34.632C97.5044 38.472 96.5924 41.904 94.7684 44.928C92.9444 47.952 90.4244 50.328 87.2084 52.056C83.9924 53.736 80.3444 54.576 76.2644 54.576ZM76.2644 45.36C79.1444 45.36 81.4964 44.4 83.3204 42.48C85.1924 40.512 86.1284 37.896 86.1284 34.632C86.1284 31.368 85.1924 28.776 83.3204 26.856C81.4964 24.888 79.1444 23.904 76.2644 23.904C73.3844 23.904 71.0084 24.888 69.1364 26.856C67.2644 28.776 66.3284 31.368 66.3284 34.632C66.3284 37.896 67.2644 40.512 69.1364 42.48C71.0084 44.4 73.3844 45.36 76.2644 45.36ZM123.444 54.576C119.364 54.576 115.692 53.736 112.428 52.056C109.212 50.328 106.692 47.952 104.868 44.928C103.044 41.904 102.132 38.472 102.132 34.632C102.132 30.792 103.044 27.36 104.868 24.336C106.692 21.312 109.212 18.96 112.428 17.28C115.692 15.552 119.364 14.688 123.444 14.688C127.524 14.688 131.172 15.552 134.388 17.28C137.604 18.96 140.124 21.312 141.948 24.336C143.772 27.36 144.684 30.792 144.684 34.632C144.684 38.472 143.772 41.904 141.948 44.928C140.124 47.952 137.604 50.328 134.388 52.056C131.172 53.736 127.524 54.576 123.444 54.576ZM123.444 45.36C126.324 45.36 128.676 44.4 130.5 42.48C132.372 40.512 133.308 37.896 133.308 34.632C133.308 31.368 132.372 28.776 130.5 26.856C128.676 24.888 126.324 23.904 123.444 23.904C120.564 23.904 118.188 24.888 116.316 26.856C114.444 28.776 113.508 31.368 113.508 34.632C113.508 37.896 114.444 40.512 116.316 42.48C118.188 44.4 120.564 45.36 123.444 45.36ZM152.192 0.575997H163.424V54H152.192V0.575997ZM189.472 14.688C195.472 14.688 200.08 16.128 203.296 19.008C206.512 21.84 208.12 26.136 208.12 31.896V54H197.608V49.176C195.496 52.776 191.56 54.576 185.8 54.576C182.824 54.576 180.232 54.072 178.024 53.064C175.864 52.056 174.208 50.664 173.056 48.888C171.904 47.112 171.328 45.096 171.328 42.84C171.328 39.24 172.672 36.408 175.36 34.344C178.096 32.28 182.296 31.248 187.96 31.248H196.888C196.888 28.8 196.144 26.928 194.656 25.632C193.168 24.288 190.936 23.616 187.96 23.616C185.896 23.616 183.856 23.952 181.84 24.624C179.872 25.248 178.192 26.112 176.8 27.216L172.768 19.368C174.88 17.88 177.4 16.728 180.328 15.912C183.304 15.096 186.352 14.688 189.472 14.688ZM188.608 47.016C190.528 47.016 192.232 46.584 193.72 45.72C195.208 44.808 196.264 43.488 196.888 41.76V37.8H189.184C184.576 37.8 182.272 39.312 182.272 42.336C182.272 43.776 182.824 44.928 183.928 45.792C185.08 46.608 186.64 47.016 188.608 47.016ZM256.086 27.792C258.966 28.704 261.222 30.24 262.854 32.4C264.486 34.512 265.302 37.128 265.302 40.248C265.302 44.664 263.574 48.072 260.118 50.472C256.71 52.824 251.718 54 245.142 54H219.078V3.6H243.702C249.846 3.6 254.55 4.776 257.814 7.128C261.126 9.48 262.782 12.672 262.782 16.704C262.782 19.152 262.182 21.336 260.982 23.256C259.83 25.176 258.198 26.688 256.086 27.792ZM230.67 12.384V24.264H242.262C245.142 24.264 247.326 23.76 248.814 22.752C250.302 21.744 251.046 20.256 251.046 18.288C251.046 16.32 250.302 14.856 248.814 13.896C247.326 12.888 245.142 12.384 242.262 12.384H230.67ZM244.278 45.216C247.35 45.216 249.654 44.712 251.19 43.704C252.774 42.696 253.566 41.136 253.566 39.024C253.566 34.848 250.47 32.76 244.278 32.76H230.67V45.216H244.278ZM312.364 15.264V54H301.708V49.392C300.22 51.072 298.444 52.368 296.38 53.28C294.316 54.144 292.084 54.576 289.684 54.576C284.596 54.576 280.564 53.112 277.588 50.184C274.612 47.256 273.124 42.912 273.124 37.152V15.264H284.356V35.496C284.356 41.736 286.972 44.856 292.204 44.856C294.892 44.856 297.052 43.992 298.684 42.264C300.316 40.488 301.132 37.872 301.132 34.416V15.264H312.364ZM361.794 15.264V54H351.138V49.392C349.65 51.072 347.874 52.368 345.81 53.28C343.746 54.144 341.514 54.576 339.114 54.576C334.026 54.576 329.994 53.112 327.018 50.184C324.042 47.256 322.554 42.912 322.554 37.152V15.264H333.786V35.496C333.786 41.736 336.402 44.856 341.634 44.856C344.322 44.856 346.482 43.992 348.114 42.264C349.746 40.488 350.562 37.872 350.562 34.416V15.264H361.794Z" fill="#505050"></path>
  </symbol>
</svg>