<svg width="341" height="52" viewBox="0 0 341 52" fill="none" xmlns="http://www.w3.org/2000/svg">
<path d="M35.228 0.959996V7.656H21.908V51H13.7V7.656H0.308V0.959996H35.228ZM66.3646 51.504C61.7086 51.504 57.4126 50.424 53.4766 48.264C49.5886 46.056 46.4926 43.008 44.1886 39.12C41.9326 35.184 40.8046 30.768 40.8046 25.872C40.8046 20.976 41.9326 16.584 44.1886 12.696C46.4926 8.808 49.5886 5.784 53.4766 3.624C57.4126 1.416 61.7086 0.311996 66.3646 0.311996C71.0686 0.311996 75.3646 1.416 79.2526 3.624C83.1886 5.784 86.2846 8.808 88.5406 12.696C90.7966 16.584 91.9246 20.976 91.9246 25.872C91.9246 30.768 90.7966 35.184 88.5406 39.12C86.2846 43.008 83.1886 46.056 79.2526 48.264C75.3646 50.424 71.0686 51.504 66.3646 51.504ZM66.3646 44.376C69.6766 44.376 72.6286 43.632 75.2206 42.144C77.8126 40.608 79.8286 38.448 81.2686 35.664C82.7566 32.832 83.5006 29.568 83.5006 25.872C83.5006 22.176 82.7566 18.936 81.2686 16.152C79.8286 13.368 77.8126 11.232 75.2206 9.744C72.6286 8.256 69.6766 7.512 66.3646 7.512C63.0526 7.512 60.1006 8.256 57.5086 9.744C54.9166 11.232 52.8766 13.368 51.3886 16.152C49.9486 18.936 49.2286 22.176 49.2286 25.872C49.2286 29.568 49.9486 32.832 51.3886 35.664C52.8766 38.448 54.9166 40.608 57.5086 42.144C60.1006 43.632 63.0526 44.376 66.3646 44.376ZM108.138 0.959996V32.856C108.138 36.648 109.122 39.504 111.09 41.424C113.106 43.344 115.89 44.304 119.442 44.304C123.042 44.304 125.826 43.344 127.794 41.424C129.81 39.504 130.818 36.648 130.818 32.856V0.959996H139.026V32.712C139.026 36.792 138.138 40.248 136.362 43.08C134.586 45.912 132.21 48.024 129.234 49.416C126.258 50.808 122.97 51.504 119.37 51.504C115.77 51.504 112.482 50.808 109.506 49.416C106.578 48.024 104.25 45.912 102.522 43.08C100.794 40.248 99.9296 36.792 99.9296 32.712V0.959996H108.138ZM146.977 25.872C146.977 20.976 148.105 16.584 150.361 12.696C152.665 8.808 155.761 5.784 159.649 3.624C163.585 1.416 167.881 0.311996 172.537 0.311996C177.865 0.311996 182.593 1.632 186.721 4.272C190.897 6.864 193.921 10.56 195.793 15.36H185.929C184.633 12.72 182.833 10.752 180.529 9.456C178.225 8.16 175.561 7.512 172.537 7.512C169.225 7.512 166.273 8.256 163.681 9.744C161.089 11.232 159.049 13.368 157.561 16.152C156.121 18.936 155.401 22.176 155.401 25.872C155.401 29.568 156.121 32.808 157.561 35.592C159.049 38.376 161.089 40.536 163.681 42.072C166.273 43.56 169.225 44.304 172.537 44.304C175.561 44.304 178.225 43.656 180.529 42.36C182.833 41.064 184.633 39.096 185.929 36.456H195.793C193.921 41.256 190.897 44.952 186.721 47.544C182.593 50.136 177.865 51.432 172.537 51.432C167.833 51.432 163.537 50.352 159.649 48.192C155.761 45.984 152.665 42.936 150.361 39.048C148.105 35.16 146.977 30.768 146.977 25.872ZM245.36 0.959996V51H237.152V29.112H213.608V51H205.4V0.959996H213.608V22.416H237.152V0.959996H245.36ZM264.302 0.959996V32.856C264.302 36.648 265.286 39.504 267.254 41.424C269.27 43.344 272.054 44.304 275.606 44.304C279.206 44.304 281.99 43.344 283.958 41.424C285.974 39.504 286.982 36.648 286.982 32.856V0.959996H295.19V32.712C295.19 36.792 294.302 40.248 292.526 43.08C290.75 45.912 288.374 48.024 285.398 49.416C282.422 50.808 279.134 51.504 275.534 51.504C271.934 51.504 268.646 50.808 265.67 49.416C262.742 48.024 260.414 45.912 258.686 43.08C256.958 40.248 256.094 36.792 256.094 32.712V0.959996H264.302ZM340.869 15.864C340.869 18.408 340.269 20.808 339.069 23.064C337.869 25.32 335.949 27.168 333.309 28.608C330.669 30 327.285 30.696 323.157 30.696H314.085V51H305.877V0.959996H323.157C326.997 0.959996 330.237 1.632 332.877 2.976C335.565 4.272 337.557 6.048 338.853 8.304C340.197 10.56 340.869 13.08 340.869 15.864ZM323.157 24C326.277 24 328.605 23.304 330.141 21.912C331.677 20.472 332.445 18.456 332.445 15.864C332.445 10.392 329.349 7.656 323.157 7.656H314.085V24H323.157Z" fill="#505050"/>
</svg>
